%TF.GenerationSoftware,KiCad,Pcbnew,10.0.0*%
%TF.CreationDate,2026-08-27T01:11:36+05:30*%
%TF.ProjectId,USB to EtherCAT Adapter,55534220-746f-4204-9574-686572434154,rev?*%
%TF.SameCoordinates,Original*%
%TF.FileFunction,Copper,L2,Bot*%
%TF.FilePolarity,Positive*%
%FSLAX46Y46*%
G04 Gerber Fmt 4.6, Leading zero omitted, Abs format (unit mm)*
G04 Created by KiCad (PCBNEW 10.0.0) date 2026-08-27 01:11:36*
%MOMM*%
%LPD*%
G01*
G04 APERTURE LIST*
G04 Aperture macros list*
%AMRoundRect*
0 Rectangle with rounded corners*
0 $1 Rounding radius*
0 $2 $3 $4 $5 $6 $7 $8 $9 X,Y pos of 4 corners*
0 Add a 4 corners polygon primitive as box body*
4,1,4,$2,$3,$4,$5,$6,$7,$8,$9,$2,$3,0*
0 Add four circle primitives for the rounded corners*
1,1,$1+$1,$2,$3*
1,1,$1+$1,$4,$5*
1,1,$1+$1,$6,$7*
1,1,$1+$1,$8,$9*
0 Add four rect primitives between the rounded corners*
20,1,$1+$1,$2,$3,$4,$5,0*
20,1,$1+$1,$4,$5,$6,$7,0*
20,1,$1+$1,$6,$7,$8,$9,0*
20,1,$1+$1,$8,$9,$2,$3,0*%
G04 Aperture macros list end*
%TA.AperFunction,ComponentPad*%
%ADD10R,1.508000X1.508000*%
%TD*%
%TA.AperFunction,ComponentPad*%
%ADD11C,1.508000*%
%TD*%
%TA.AperFunction,ComponentPad*%
%ADD12O,3.016000X1.508000*%
%TD*%
%TA.AperFunction,ComponentPad*%
%ADD13R,1.700000X1.700000*%
%TD*%
%TA.AperFunction,ComponentPad*%
%ADD14C,1.700000*%
%TD*%
%TA.AperFunction,ComponentPad*%
%ADD15RoundRect,0.250500X0.499500X-0.499500X0.499500X0.499500X-0.499500X0.499500X-0.499500X-0.499500X0*%
%TD*%
%TA.AperFunction,ComponentPad*%
%ADD16C,1.500000*%
%TD*%
%TA.AperFunction,ComponentPad*%
%ADD17C,2.500000*%
%TD*%
%TA.AperFunction,SMDPad,CuDef*%
%ADD18RoundRect,0.225000X-0.225000X-0.250000X0.225000X-0.250000X0.225000X0.250000X-0.225000X0.250000X0*%
%TD*%
%TA.AperFunction,SMDPad,CuDef*%
%ADD19RoundRect,0.225000X0.250000X-0.225000X0.250000X0.225000X-0.250000X0.225000X-0.250000X-0.225000X0*%
%TD*%
%TA.AperFunction,SMDPad,CuDef*%
%ADD20RoundRect,0.225000X-0.250000X0.225000X-0.250000X-0.225000X0.250000X-0.225000X0.250000X0.225000X0*%
%TD*%
%TA.AperFunction,SMDPad,CuDef*%
%ADD21R,1.473200X0.558800*%
%TD*%
%TA.AperFunction,SMDPad,CuDef*%
%ADD22RoundRect,0.218750X0.218750X0.256250X-0.218750X0.256250X-0.218750X-0.256250X0.218750X-0.256250X0*%
%TD*%
%TA.AperFunction,SMDPad,CuDef*%
%ADD23RoundRect,0.200000X-0.200000X-0.275000X0.200000X-0.275000X0.200000X0.275000X-0.200000X0.275000X0*%
%TD*%
%TA.AperFunction,SMDPad,CuDef*%
%ADD24RoundRect,0.035000X0.105000X-0.700000X0.105000X0.700000X-0.105000X0.700000X-0.105000X-0.700000X0*%
%TD*%
%TA.AperFunction,SMDPad,CuDef*%
%ADD25RoundRect,0.035000X0.700000X-0.105000X0.700000X0.105000X-0.700000X0.105000X-0.700000X-0.105000X0*%
%TD*%
%TA.AperFunction,SMDPad,CuDef*%
%ADD26R,5.700000X5.700000*%
%TD*%
%TA.AperFunction,SMDPad,CuDef*%
%ADD27RoundRect,0.200000X0.200000X0.275000X-0.200000X0.275000X-0.200000X-0.275000X0.200000X-0.275000X0*%
%TD*%
%TA.AperFunction,SMDPad,CuDef*%
%ADD28RoundRect,0.225000X0.225000X0.250000X-0.225000X0.250000X-0.225000X-0.250000X0.225000X-0.250000X0*%
%TD*%
%TA.AperFunction,SMDPad,CuDef*%
%ADD29RoundRect,0.250000X0.750000X0.950000X-0.750000X0.950000X-0.750000X-0.950000X0.750000X-0.950000X0*%
%TD*%
%TA.AperFunction,ViaPad*%
%ADD30C,0.600000*%
%TD*%
%TA.AperFunction,Conductor*%
%ADD31C,0.300000*%
%TD*%
%TA.AperFunction,Conductor*%
%ADD32C,1.000000*%
%TD*%
%TA.AperFunction,Conductor*%
%ADD33C,0.500000*%
%TD*%
G04 APERTURE END LIST*
D10*
%TO.P,J4,1,VCC_1*%
%TO.N,+5V*%
X97400000Y-111075000D03*
D11*
%TO.P,J4,2,D-_2*%
%TO.N,USB_DN*%
X97400000Y-108575000D03*
%TO.P,J4,3,D+_3*%
%TO.N,USB_DP*%
X97400000Y-106575000D03*
%TO.P,J4,4,GND_4*%
%TO.N,GND*%
X97400000Y-104075000D03*
D12*
%TO.P,J4,SH1,SHIELD_SH1*%
X95400000Y-101725000D03*
%TO.P,J4,SH2,SHIELD_1_SH2*%
X95400000Y-113425000D03*
%TD*%
D13*
%TO.P,J3,1,Pin_1_1*%
%TO.N,+3V3*%
X94700000Y-90690000D03*
D14*
%TO.P,J3,2,Pin_2_2*%
%TO.N,SWDIO*%
X94700000Y-93230000D03*
%TO.P,J3,3,Pin_3_3*%
%TO.N,SWCLK*%
X94700000Y-95770000D03*
%TO.P,J3,4,Pin_4_4*%
%TO.N,GND*%
X94700000Y-98310000D03*
%TD*%
D15*
%TO.P,J2,1,TD+_1*%
%TO.N,TXPB*%
X140890000Y-116240000D03*
D16*
%TO.P,J2,2,TD-_2*%
%TO.N,TXNB*%
X138350000Y-114980000D03*
%TO.P,J2,3,RD+_3*%
%TO.N,RXPB*%
X140890000Y-113700000D03*
%TO.P,J2,4,TCT_4*%
%TO.N,Net-(J2-RCT)*%
X138350000Y-112440000D03*
%TO.P,J2,5,RCT_5*%
X140890000Y-111160000D03*
%TO.P,J2,6,RD-_6*%
%TO.N,RXNB*%
X138350000Y-109900000D03*
%TO.P,J2,7,NC_7*%
%TO.N,unconnected-(J2-NC-Pad7)*%
X140890000Y-108620000D03*
%TO.P,J2,8*%
%TO.N,GNDA*%
X138350000Y-107360000D03*
%TO.P,J2,9*%
%TO.N,Net-(J2-Pad9)*%
X152150000Y-118425000D03*
%TO.P,J2,10*%
%TO.N,GNDA*%
X152150000Y-115885000D03*
%TO.P,J2,11*%
%TO.N,unconnected-(J2-Pad11)*%
X152150000Y-107715000D03*
%TO.P,J2,12*%
%TO.N,unconnected-(J2-Pad12)*%
X152150000Y-105175000D03*
D17*
%TO.P,J2,SH*%
%TO.N,GNDA*%
X144200000Y-119545000D03*
X144200000Y-104055000D03*
%TD*%
D15*
%TO.P,J1,1,TD+_1*%
%TO.N,TXPA*%
X141200000Y-93980000D03*
D16*
%TO.P,J1,2,TD-_2*%
%TO.N,TXNA*%
X138660000Y-92720000D03*
%TO.P,J1,3,RD+_3*%
%TO.N,RXPA*%
X141200000Y-91440000D03*
%TO.P,J1,4,TCT_4*%
%TO.N,Net-(J1-RCT)*%
X138660000Y-90180000D03*
%TO.P,J1,5,RCT_5*%
X141200000Y-88900000D03*
%TO.P,J1,6,RD-_6*%
%TO.N,RXNA*%
X138660000Y-87640000D03*
%TO.P,J1,7,NC_7*%
%TO.N,unconnected-(J1-NC-Pad7)*%
X141200000Y-86360000D03*
%TO.P,J1,8*%
%TO.N,GNDA*%
X138660000Y-85100000D03*
%TO.P,J1,9*%
%TO.N,Net-(J1-Pad9)*%
X152460000Y-96165000D03*
%TO.P,J1,10*%
%TO.N,GND*%
X152460000Y-93625000D03*
%TO.P,J1,11*%
%TO.N,unconnected-(J1-Pad11)*%
X152460000Y-85455000D03*
%TO.P,J1,12*%
%TO.N,unconnected-(J1-Pad12)*%
X152460000Y-82915000D03*
D17*
%TO.P,J1,SH*%
%TO.N,GNDA*%
X144510000Y-97285000D03*
X144510000Y-81795000D03*
%TD*%
D18*
%TO.P,C31,1*%
%TO.N,GND*%
X107025000Y-80500000D03*
%TO.P,C31,2*%
%TO.N,+3V3*%
X108575000Y-80500000D03*
%TD*%
D19*
%TO.P,C28,1*%
%TO.N,GND*%
X100800000Y-95075000D03*
%TO.P,C28,2*%
%TO.N,+3V3*%
X100800000Y-93525000D03*
%TD*%
D20*
%TO.P,C30,1*%
%TO.N,GND*%
X117300000Y-92650000D03*
%TO.P,C30,2*%
%TO.N,VDD33TXRX2*%
X117300000Y-94200000D03*
%TD*%
D19*
%TO.P,C22,1*%
%TO.N,GND*%
X120100000Y-112375000D03*
%TO.P,C22,2*%
%TO.N,VDD33TXRX1*%
X120100000Y-110825000D03*
%TD*%
D21*
%TO.P,U2,1,A0_1*%
%TO.N,Net-(U2-A0)*%
X109693000Y-119390000D03*
%TO.P,U2,2,A1_2*%
%TO.N,Net-(U2-A1)*%
X109693000Y-120660000D03*
%TO.P,U2,3,A2_3*%
X109693000Y-121930000D03*
%TO.P,U2,4,VSS_4*%
%TO.N,GND*%
X109693000Y-123200000D03*
%TO.P,U2,5,SDA_5*%
%TO.N,USB_DN*%
X102200000Y-123200000D03*
%TO.P,U2,6,SCL_6*%
%TO.N,USB_DP*%
X102200000Y-121930000D03*
%TO.P,U2,7,WP_7*%
%TO.N,Net-(U2-A0)*%
X102200000Y-120660000D03*
%TO.P,U2,8,VCC_8*%
%TO.N,+3V3*%
X102200000Y-119390000D03*
%TD*%
D22*
%TO.P,FB5,1*%
%TO.N,VDD33TXRX2*%
X121287500Y-94500000D03*
%TO.P,FB5,2*%
%TO.N,+3V3*%
X119712500Y-94500000D03*
%TD*%
D18*
%TO.P,C29,1*%
%TO.N,GND*%
X100225000Y-89000000D03*
%TO.P,C29,2*%
%TO.N,VDDCR*%
X101775000Y-89000000D03*
%TD*%
D23*
%TO.P,R15,1*%
%TO.N,Net-(U1-PA12)*%
X99175000Y-100000000D03*
%TO.P,R15,2*%
%TO.N,SWDIO*%
X100825000Y-100000000D03*
%TD*%
D18*
%TO.P,C33,1*%
%TO.N,GND*%
X99350000Y-85000000D03*
%TO.P,C33,2*%
%TO.N,+3V3*%
X100900000Y-85000000D03*
%TD*%
D22*
%TO.P,FB2,1*%
%TO.N,VDD12TX*%
X129425000Y-79700000D03*
%TO.P,FB2,2*%
%TO.N,VDDCR*%
X127850000Y-79700000D03*
%TD*%
D20*
%TO.P,C26,1*%
%TO.N,GND*%
X106500000Y-76825000D03*
%TO.P,C26,2*%
%TO.N,+3V3*%
X106500000Y-78375000D03*
%TD*%
D24*
%TO.P,U3,1,OSCI_1*%
%TO.N,Net-(U3-OSCI)*%
X113320000Y-94300000D03*
%TO.P,U3,2,OSCO_2*%
%TO.N,Net-(U3-OSCO)*%
X112820000Y-94300000D03*
%TO.P,U3,3,OSCVDD12_3*%
%TO.N,unconnected-(U3-OSCVDD12-Pad3)*%
X112320000Y-94300000D03*
%TO.P,U3,4,OSCVSS_4*%
%TO.N,GND*%
X111820000Y-94300000D03*
%TO.P,U3,5,VDD33_5*%
%TO.N,+3V3*%
X111320000Y-94300000D03*
%TO.P,U3,6,VDDCR_6*%
%TO.N,VDDCR*%
X110820000Y-94300000D03*
%TO.P,U3,7,REG_EN_7*%
%TO.N,+3V3*%
X110320000Y-94300000D03*
%TO.P,U3,8,~{FXLOSEN}_8*%
%TO.N,Net-(U3-FXSDB{slash}FXLOSB{slash}~{FXSDENB})*%
X109820000Y-94300000D03*
%TO.P,U3,9,FXSDA/FXLOSA/~{FXSDENA}_9*%
%TO.N,GND*%
X109320000Y-94300000D03*
%TO.P,U3,10,FXSDB/FXLOSB/~{FXSDENB}_10*%
%TO.N,Net-(U3-FXSDB{slash}FXLOSB{slash}~{FXSDENB})*%
X108820000Y-94300000D03*
%TO.P,U3,11,~{RST}_11*%
%TO.N,+3V3*%
X108320000Y-94300000D03*
%TO.P,U3,12,D2/AD2/SOF/SIO2_12*%
%TO.N,unconnected-(U3-D2{slash}AD2{slash}SOF{slash}SIO2-Pad12)*%
X107820000Y-94300000D03*
%TO.P,U3,13,D1/AD1/EOF/SO/SIO1_13*%
%TO.N,SI*%
X107320000Y-94300000D03*
%TO.P,U3,14,VDDIO_14*%
%TO.N,+3V3*%
X106820000Y-94300000D03*
%TO.P,U3,15,D14/AD14/DIGIO8/GPI8/GPO8/MII_TXD3/~{TX_SHIFT1}_15*%
%TO.N,unconnected-(U3-D14{slash}AD14{slash}DIGIO8{slash}GPI8{slash}GPO8{slash}MII_TXD3{slash}~{TX_SHIFT1}-Pad15)*%
X106320000Y-94300000D03*
%TO.P,U3,16,D13/AD13/DIGIO7/GPI7/GPO7/MII_TXD2/~{TX_SHIFT0}_16*%
%TO.N,unconnected-(U3-D13{slash}AD13{slash}DIGIO7{slash}GPI7{slash}GPO7{slash}MII_TXD2{slash}~{TX_SHIFT0}-Pad16)*%
X105820000Y-94300000D03*
D25*
%TO.P,U3,17,D0/AD0/WD_STATE/SI/SIO0_17*%
%TO.N,SI*%
X103900000Y-92380000D03*
%TO.P,U3,18,SYNC1/LATCH1_18*%
%TO.N,unconnected-(U3-SYNC1{slash}LATCH1-Pad18)*%
X103900000Y-91880000D03*
%TO.P,U3,19,D9/AD9/LATCH_IN/SCK_19*%
%TO.N,SCK*%
X103900000Y-91380000D03*
%TO.P,U3,20,VDDIO_20*%
%TO.N,+3V3*%
X103900000Y-90880000D03*
%TO.P,U3,21,D12/AD12/DIGIO6/GPI6/GPO6/MII_TXD1_21*%
%TO.N,unconnected-(U3-D12{slash}AD12{slash}DIGIO6{slash}GPI6{slash}GPO6{slash}MII_TXD1-Pad21)*%
X103900000Y-90380000D03*
%TO.P,U3,22,D11/AD11/DIGIO5/GPI5/GPO5/MII_TXD0_22*%
%TO.N,unconnected-(U3-D11{slash}AD11{slash}DIGIO5{slash}GPI5{slash}GPO5{slash}MII_TXD0-Pad22)*%
X103900000Y-89880000D03*
%TO.P,U3,23,D10/AD10/DIGIO4/GPI4/GPO4/MII_TXEN_23*%
%TO.N,unconnected-(U3-D10{slash}AD10{slash}DIGIO4{slash}GPI4{slash}GPO4{slash}MII_TXEN-Pad23)*%
X103900000Y-89380000D03*
%TO.P,U3,24,VDDCR_24*%
%TO.N,VDDCR*%
X103900000Y-88880000D03*
%TO.P,U3,25,A1/ALELO/OE_EXT/MII_CLK25_25*%
%TO.N,unconnected-(U3-A1{slash}ALELO{slash}OE_EXT{slash}MII_CLK25-Pad25)*%
X103900000Y-88380000D03*
%TO.P,U3,26,A3/DIGIO11/GPI11/GPO11/MII_RXDV_26*%
%TO.N,unconnected-(U3-A3{slash}DIGIO11{slash}GPI11{slash}GPO11{slash}MII_RXDV-Pad26)*%
X103900000Y-87880000D03*
%TO.P,U3,27,A4/DIGIO12/GPI12/GPO12/MII_RXD0_27*%
%TO.N,unconnected-(U3-A4{slash}DIGIO12{slash}GPI12{slash}GPO12{slash}MII_RXD0-Pad27)*%
X103900000Y-87380000D03*
%TO.P,U3,28,CS/DIGIO13/GPI13/GPO13/MII_RXD1_28*%
%TO.N,unconnected-(U3-CS{slash}DIGIO13{slash}GPI13{slash}GPO13{slash}MII_RXD1-Pad28)*%
X103900000Y-86880000D03*
%TO.P,U3,29,A2/ALEHI/DIGIO10/GPI10/GPO10/LINKACTLED2/~{MII_LINKPOL}_29*%
%TO.N,unconnected-(U3-A2{slash}ALEHI{slash}DIGIO10{slash}GPI10{slash}GPO10{slash}LINKACTLED2{slash}~{MII_LINKPOL}-Pad29)*%
X103900000Y-86380000D03*
%TO.P,U3,30,WR/ENB/DIGIO14/GPI14/GPO14/MII_RXD2_30*%
%TO.N,unconnected-(U3-WR{slash}ENB{slash}DIGIO14{slash}GPI14{slash}GPO14{slash}MII_RXD2-Pad30)*%
X103900000Y-85880000D03*
%TO.P,U3,31,RD/RD_WR/DIGIO15/GPI15/GPO15/MII_RXD3_31*%
%TO.N,unconnected-(U3-RD{slash}RD_WR{slash}DIGIO15{slash}GPI15{slash}GPO15{slash}MII_RXD3-Pad31)*%
X103900000Y-85380000D03*
%TO.P,U3,32,VDDIO_32*%
%TO.N,+3V3*%
X103900000Y-84880000D03*
D24*
%TO.P,U3,33,A0/D15/AD15/DIGIO9/GPI9/GPO9/MII_RXER_33*%
%TO.N,unconnected-(U3-A0{slash}D15{slash}AD15{slash}DIGIO9{slash}GPI9{slash}GPO9{slash}MII_RXER-Pad33)*%
X105820000Y-82960000D03*
%TO.P,U3,34,SYNC0/LATCH0_34*%
%TO.N,unconnected-(U3-SYNC0{slash}LATCH0-Pad34)*%
X106320000Y-82960000D03*
%TO.P,U3,35,D3/AD3/WD_TRIG/SIO3_35*%
%TO.N,unconnected-(U3-D3{slash}AD3{slash}WD_TRIG{slash}SIO3-Pad35)*%
X106820000Y-82960000D03*
%TO.P,U3,36,D6/AD6/DIGIO0/GPI0/GPO0/MII_RXCLK_36*%
%TO.N,unconnected-(U3-D6{slash}AD6{slash}DIGIO0{slash}GPI0{slash}GPO0{slash}MII_RXCLK-Pad36)*%
X107320000Y-82960000D03*
%TO.P,U3,37,VDDIO_37*%
%TO.N,+3V3*%
X107820000Y-82960000D03*
%TO.P,U3,38,VDDCR_38*%
%TO.N,VDDCR*%
X108320000Y-82960000D03*
%TO.P,U3,39,D7/AD7/DIGIO1/GPI1/GPO1/MII_MDC_39*%
%TO.N,unconnected-(U3-D7{slash}AD7{slash}DIGIO1{slash}GPI1{slash}GPO1{slash}MII_MDC-Pad39)*%
X108820000Y-82960000D03*
%TO.P,U3,40,D8/AD8/DIGIO2/GPI2/GPO2/MII_MDIO_40*%
%TO.N,unconnected-(U3-D8{slash}AD8{slash}DIGIO2{slash}GPI2{slash}GPO2{slash}MII_MDIO-Pad40)*%
X109320000Y-82960000D03*
%TO.P,U3,41,TESTMODE_41*%
%TO.N,GND*%
X109820000Y-82960000D03*
%TO.P,U3,42,EESDA/TMS_42*%
%TO.N,I2C_SDA*%
X110320000Y-82960000D03*
%TO.P,U3,43,EESCL/TCK_43*%
%TO.N,I2C_SCL*%
X110820000Y-82960000D03*
%TO.P,U3,44,IRQ_44*%
%TO.N,unconnected-(U3-IRQ-Pad44)*%
X111320000Y-82960000D03*
%TO.P,U3,45,RUNLED/~{E2PSIZE}_45*%
%TO.N,GPIO2*%
X111820000Y-82960000D03*
%TO.P,U3,46,LINKACTLED1/TDI/~{CHIP_MODE1}_46*%
%TO.N,GPIO1*%
X112320000Y-82960000D03*
%TO.P,U3,47,VDDIO_47*%
%TO.N,+3V3*%
X112820000Y-82960000D03*
%TO.P,U3,48,LINKACTLED0/TDO/~{CHIP_MODE0}_48*%
%TO.N,GPIO0*%
X113320000Y-82960000D03*
D25*
%TO.P,U3,49,D4/AD4/DIGIO3/GPI3/GPO3/MII_LINK_49*%
%TO.N,unconnected-(U3-D4{slash}AD4{slash}DIGIO3{slash}GPI3{slash}GPO3{slash}MII_LINK-Pad49)*%
X115240000Y-84880000D03*
%TO.P,U3,50,D5/AD5/OUTVALID/SCS#_50*%
%TO.N,SCS*%
X115240000Y-85380000D03*
%TO.P,U3,51,VDD33TXRX1_51*%
%TO.N,VDD33TXRX1*%
X115240000Y-85880000D03*
%TO.P,U3,52,TXNA_52*%
%TO.N,TXNA*%
X115240000Y-86380000D03*
%TO.P,U3,53,TXPA_53*%
%TO.N,TXPA*%
X115240000Y-86880000D03*
%TO.P,U3,54,RXNA_54*%
%TO.N,RXNA*%
X115240000Y-87380000D03*
%TO.P,U3,55,RXPA_55*%
%TO.N,RXPA*%
X115240000Y-87880000D03*
%TO.P,U3,56,VDD12TX1_56*%
%TO.N,VDD12TX*%
X115240000Y-88380000D03*
%TO.P,U3,57,RBIAS_57*%
%TO.N,Net-(U3-RBIAS)*%
X115240000Y-88880000D03*
%TO.P,U3,58,VDD33BIAS_58*%
%TO.N,Net-(U3-VDD33BIAS)*%
X115240000Y-89380000D03*
%TO.P,U3,59,VDD12TX2_59*%
%TO.N,VDD12TX*%
X115240000Y-89880000D03*
%TO.P,U3,60,RXPB_60*%
%TO.N,RXPB*%
X115240000Y-90380000D03*
%TO.P,U3,61,RXNB_61*%
%TO.N,RXNB*%
X115240000Y-90880000D03*
%TO.P,U3,62,TXPB_62*%
%TO.N,TXPB*%
X115240000Y-91380000D03*
%TO.P,U3,63,TXNB_63*%
%TO.N,TXNB*%
X115240000Y-91880000D03*
%TO.P,U3,64,VDD33TXRX2_64*%
%TO.N,VDD33TXRX2*%
X115240000Y-92380000D03*
D26*
%TO.P,U3,65,VSS_65*%
%TO.N,GND*%
X109570000Y-88630000D03*
%TD*%
D20*
%TO.P,C24,1*%
%TO.N,GND*%
X104600000Y-76825000D03*
%TO.P,C24,2*%
%TO.N,+3V3*%
X104600000Y-78375000D03*
%TD*%
D27*
%TO.P,R23,1*%
%TO.N,USB_DN*%
X99825000Y-122000000D03*
%TO.P,R23,2*%
%TO.N,+3V3*%
X98175000Y-122000000D03*
%TD*%
D18*
%TO.P,C27,1*%
%TO.N,GND*%
X109300000Y-97100000D03*
%TO.P,C27,2*%
%TO.N,VDDCR*%
X110850000Y-97100000D03*
%TD*%
D27*
%TO.P,R24,1*%
%TO.N,USB_DP*%
X99925000Y-120300000D03*
%TO.P,R24,2*%
%TO.N,+3V3*%
X98275000Y-120300000D03*
%TD*%
D20*
%TO.P,C25,1*%
%TO.N,GND*%
X108200000Y-76750000D03*
%TO.P,C25,2*%
%TO.N,VDDCR*%
X108200000Y-78300000D03*
%TD*%
D28*
%TO.P,C16,1*%
%TO.N,GND*%
X103475000Y-125700000D03*
%TO.P,C16,2*%
%TO.N,+3V3*%
X101925000Y-125700000D03*
%TD*%
D27*
%TO.P,R14,1*%
%TO.N,Net-(U1-PA11)*%
X100625000Y-98300000D03*
%TO.P,R14,2*%
%TO.N,SWDIO*%
X98975000Y-98300000D03*
%TD*%
%TO.P,R19,1*%
%TO.N,GND*%
X113250000Y-122300000D03*
%TO.P,R19,2*%
%TO.N,Net-(U2-A1)*%
X111600000Y-122300000D03*
%TD*%
D28*
%TO.P,C32,1*%
%TO.N,GND*%
X111775000Y-80400000D03*
%TO.P,C32,2*%
%TO.N,+3V3*%
X110225000Y-80400000D03*
%TD*%
D20*
%TO.P,C23,1*%
%TO.N,GND*%
X110000000Y-76825000D03*
%TO.P,C23,2*%
%TO.N,VDDCR*%
X110000000Y-78375000D03*
%TD*%
D22*
%TO.P,FB4,1*%
%TO.N,VDD33TXRX1*%
X120000000Y-109100000D03*
%TO.P,FB4,2*%
%TO.N,+3V3*%
X118425000Y-109100000D03*
%TD*%
D28*
%TO.P,C34,1*%
%TO.N,GND*%
X131400000Y-81500000D03*
%TO.P,C34,2*%
%TO.N,VDD12TX*%
X129850000Y-81500000D03*
%TD*%
D22*
%TO.P,FB3,1*%
%TO.N,+3V3*%
X131525000Y-86500000D03*
%TO.P,FB3,2*%
%TO.N,Net-(U3-VDD33BIAS)*%
X129950000Y-86500000D03*
%TD*%
D18*
%TO.P,C15,1*%
%TO.N,GND*%
X115025000Y-73700000D03*
%TO.P,C15,2*%
%TO.N,Net-(U3-OSCO)*%
X116575000Y-73700000D03*
%TD*%
%TO.P,C14,1*%
%TO.N,GND*%
X111825000Y-73700000D03*
%TO.P,C14,2*%
%TO.N,Net-(U3-OSCI)*%
X113375000Y-73700000D03*
%TD*%
D28*
%TO.P,C35,1*%
%TO.N,GND*%
X131525000Y-83200000D03*
%TO.P,C35,2*%
%TO.N,VDD12TX*%
X129975000Y-83200000D03*
%TD*%
D29*
%TO.P,Y3,1,1_1*%
%TO.N,Net-(U3-OSCO)*%
X116150000Y-76900000D03*
%TO.P,Y3,2,2_2*%
%TO.N,Net-(U3-OSCI)*%
X112450000Y-76900000D03*
%TD*%
D27*
%TO.P,R22,1*%
%TO.N,GND*%
X131425000Y-88100000D03*
%TO.P,R22,2*%
%TO.N,Net-(U3-RBIAS)*%
X129775000Y-88100000D03*
%TD*%
D28*
%TO.P,C20,1*%
%TO.N,GND*%
X131500000Y-85000000D03*
%TO.P,C20,2*%
%TO.N,Net-(U3-VDD33BIAS)*%
X129950000Y-85000000D03*
%TD*%
D30*
%TO.N,GND*%
X133600000Y-76400000D03*
X102100000Y-83800000D03*
X101584620Y-102265380D03*
X99400000Y-103700000D03*
X100400000Y-78900000D03*
X99000000Y-83600000D03*
X133500000Y-75300000D03*
X97700000Y-78900000D03*
X134900000Y-90520000D03*
X109900000Y-93050000D03*
X96300000Y-78900000D03*
X104200000Y-110500000D03*
X101700000Y-107000000D03*
X99100000Y-79000000D03*
X111700000Y-80400000D03*
X109570000Y-88630000D03*
X107100000Y-75000000D03*
X113500000Y-112000000D03*
X115000000Y-111800000D03*
X134700000Y-75300000D03*
X132100000Y-113200000D03*
X132800000Y-87900000D03*
X101100000Y-90300000D03*
X107950000Y-101000000D03*
X99600000Y-78000000D03*
X108100000Y-96900000D03*
X132400000Y-75300000D03*
X122300000Y-101900000D03*
X134700000Y-76500000D03*
X111912489Y-93158692D03*
X98500000Y-78100000D03*
X135900000Y-76300000D03*
X135900000Y-75300000D03*
X132500000Y-89500000D03*
X107000000Y-80600000D03*
X97400000Y-78000000D03*
X103700000Y-126700000D03*
X132500000Y-76400000D03*
X99700000Y-95075000D03*
X104800000Y-76700000D03*
X105000000Y-94100000D03*
X118600000Y-93700000D03*
X110000000Y-81700000D03*
%TO.N,Net-(U1-PC14)*%
X113500000Y-97800000D03*
X111600000Y-102600000D03*
%TO.N,GPIO1*%
X117500000Y-83509620D03*
%TO.N,+3V3*%
X111975000Y-95532828D03*
X122900000Y-81100000D03*
X103355676Y-79344324D03*
X102200000Y-119390000D03*
X115300000Y-110775000D03*
X127700000Y-87900000D03*
X110100000Y-101900000D03*
X104600000Y-78375000D03*
X100800000Y-92100000D03*
X113900000Y-110775000D03*
X119300000Y-94600000D03*
X118300000Y-109100000D03*
%TO.N,VDD33TXRX1*%
X130000000Y-94500000D03*
X119600000Y-106800000D03*
X135632437Y-102167563D03*
X116900000Y-84809620D03*
%TO.N,VDD33TXRX2*%
X130700000Y-108200000D03*
%TO.N,RST*%
X112800000Y-96300000D03*
X112400000Y-98600000D03*
%TO.N,USB_DP*%
X100050000Y-120250000D03*
X100500000Y-117800000D03*
%TO.N,TXNB*%
X132500000Y-117100000D03*
%TO.N,RXPA*%
X132497500Y-91602500D03*
X124100000Y-90350000D03*
X122700000Y-86800000D03*
%TO.N,Net-(U1-PA12)*%
X99500000Y-101000000D03*
%TO.N,SWDIO*%
X100957106Y-100450000D03*
X98975000Y-98300000D03*
%TO.N,Net-(U1-PA11)*%
X100800000Y-97200000D03*
%TO.N,VDDCR*%
X107170000Y-81600000D03*
X107900000Y-84700000D03*
%TO.N,Net-(U3-RBIAS)*%
X126140380Y-88740380D03*
X128800000Y-88800000D03*
%TO.N,TXPA*%
X118780330Y-85926777D03*
%TO.N,TXNA*%
X117449248Y-85547602D03*
%TO.N,RXNA*%
X128700000Y-80900000D03*
%TO.N,GPIO2*%
X119759620Y-83859620D03*
%TO.N,SCS*%
X108000000Y-91980002D03*
%TO.N,SCK*%
X105000000Y-91400000D03*
%TO.N,SI*%
X106450000Y-92850000D03*
%TO.N,GPIO0*%
X118800000Y-82800000D03*
X122700000Y-91100000D03*
X130225000Y-99600000D03*
%TO.N,Net-(U3-OSCI)*%
X113375000Y-95400000D03*
X112450000Y-76900000D03*
%TO.N,Net-(U3-OSCO)*%
X116275000Y-76775000D03*
X113800000Y-87200000D03*
%TD*%
%TO.N,GND*%
D31*
X109800000Y-92969556D02*
X109800000Y-92900000D01*
X110000000Y-81700000D02*
X110000000Y-81840000D01*
X99350000Y-85000000D02*
X99350000Y-83950000D01*
X103475000Y-126475000D02*
X103700000Y-126700000D01*
X108200000Y-76750000D02*
X108200000Y-76100000D01*
X104600000Y-76825000D02*
X106500000Y-76825000D01*
X132600000Y-88100000D02*
X132800000Y-87900000D01*
X108200000Y-76100000D02*
X107100000Y-75000000D01*
X107100000Y-75000000D02*
X107000000Y-74900000D01*
X103475000Y-125700000D02*
X103475000Y-126475000D01*
X110000000Y-81840000D02*
X109820000Y-82020000D01*
X109320000Y-93449556D02*
X109800000Y-92969556D01*
X108300000Y-97100000D02*
X108100000Y-96900000D01*
X99350000Y-83950000D02*
X99000000Y-83600000D01*
X99700000Y-95075000D02*
X100800000Y-95075000D01*
X108125000Y-76825000D02*
X108200000Y-76750000D01*
X131425000Y-88100000D02*
X132600000Y-88100000D01*
X111912489Y-93181357D02*
X111820000Y-93273846D01*
X106500000Y-76825000D02*
X108125000Y-76825000D01*
X111820000Y-93273846D02*
X111820000Y-94300000D01*
X109820000Y-82020000D02*
X109820000Y-82960000D01*
X114600000Y-80400000D02*
X114700000Y-80500000D01*
X109320000Y-94300000D02*
X109320000Y-93449556D01*
X111912489Y-93158692D02*
X111912489Y-93181357D01*
%TO.N,Net-(U1-PC14)*%
X111600000Y-102600000D02*
X113500000Y-100700000D01*
X113500000Y-100700000D02*
X113500000Y-97800000D01*
X113500000Y-97800000D02*
X113500000Y-97700000D01*
%TO.N,GPIO1*%
X112554556Y-84045000D02*
X112320000Y-83810444D01*
X114462450Y-83600000D02*
X114017450Y-84045000D01*
X116800000Y-83600000D02*
X114462450Y-83600000D01*
X117500000Y-83509620D02*
X116890380Y-83509620D01*
X114017450Y-84045000D02*
X112554556Y-84045000D01*
X112320000Y-83810444D02*
X112320000Y-82960000D01*
X116890380Y-83509620D02*
X116800000Y-83600000D01*
%TO.N,GNDA*%
X135400000Y-94700000D02*
X135600000Y-94500000D01*
X144510000Y-97285000D02*
X143915000Y-97285000D01*
X144200000Y-104055000D02*
X144200000Y-97595000D01*
X135600000Y-88160000D02*
X138660000Y-85100000D01*
X135600000Y-94500000D02*
X135600000Y-88160000D01*
X144200000Y-119545000D02*
X148490000Y-119545000D01*
X135400000Y-99300000D02*
X135400000Y-94700000D01*
X148490000Y-119545000D02*
X152150000Y-115885000D01*
X143915000Y-97285000D02*
X141600000Y-99600000D01*
X135700000Y-99600000D02*
X135400000Y-99300000D01*
X141600000Y-99600000D02*
X135700000Y-99600000D01*
X144200000Y-97595000D02*
X144510000Y-97285000D01*
%TO.N,+3V3*%
D32*
X98175000Y-122000000D02*
X98175000Y-120400000D01*
X104600000Y-78375000D02*
X106500000Y-78375000D01*
D31*
X111600000Y-95500000D02*
X111320000Y-95220000D01*
X108720000Y-96100000D02*
X108320000Y-95700000D01*
X111580761Y-98000000D02*
X109800000Y-98000000D01*
X103355676Y-81055676D02*
X103900000Y-81600000D01*
X110000000Y-101900000D02*
X110100000Y-101900000D01*
X101010000Y-84890000D02*
X103910000Y-84890000D01*
X109800000Y-96100000D02*
X108720000Y-96100000D01*
X103355676Y-79344324D02*
X103355676Y-81055676D01*
X109400000Y-98400000D02*
X109400000Y-101300000D01*
D32*
X98175000Y-122103334D02*
X98175000Y-122000000D01*
X133200000Y-86500000D02*
X134000000Y-87300000D01*
D31*
X111942172Y-95500000D02*
X111600000Y-95500000D01*
X108320000Y-94300000D02*
X108320000Y-95700000D01*
D33*
X106500000Y-78400000D02*
X108575000Y-80475000D01*
D31*
X107200000Y-98400000D02*
X109400000Y-98400000D01*
D32*
X101771666Y-125700000D02*
X98175000Y-122103334D01*
D31*
X110320000Y-95580000D02*
X109800000Y-96100000D01*
D32*
X98275000Y-120300000D02*
X98275000Y-120196666D01*
D31*
X111200000Y-81375000D02*
X112125000Y-81375000D01*
D32*
X100800000Y-92000000D02*
X100600000Y-91800000D01*
D31*
X103900000Y-90880000D02*
X102020000Y-90880000D01*
D32*
X108575000Y-79975000D02*
X108575000Y-80500000D01*
X134000000Y-87300000D02*
X134000000Y-89700000D01*
X101935000Y-119125000D02*
X102200000Y-119390000D01*
X134000000Y-89700000D02*
X133200000Y-90500000D01*
X128700000Y-90500000D02*
X127700000Y-89500000D01*
X108575000Y-80500000D02*
X110125000Y-80500000D01*
X133200000Y-90500000D02*
X128700000Y-90500000D01*
X98275000Y-120196666D02*
X99346666Y-119125000D01*
D31*
X106820000Y-94300000D02*
X106820000Y-95150444D01*
X107820000Y-81080000D02*
X107820000Y-82960000D01*
X106900000Y-98100000D02*
X107200000Y-98400000D01*
X106820000Y-95150444D02*
X107054556Y-95385000D01*
D32*
X95449382Y-90690000D02*
X94700000Y-90690000D01*
D31*
X103900000Y-81600000D02*
X103900000Y-84880000D01*
X111975000Y-95532828D02*
X111975000Y-97605761D01*
D32*
X100900000Y-85000000D02*
X100900000Y-85239382D01*
D31*
X107900000Y-81000000D02*
X107820000Y-81080000D01*
D32*
X100900000Y-85239382D02*
X95449382Y-90690000D01*
D31*
X110320000Y-94300000D02*
X110320000Y-95580000D01*
D32*
X100800000Y-92100000D02*
X100800000Y-92000000D01*
D31*
X112820000Y-82109556D02*
X112820000Y-82960000D01*
X102020000Y-90880000D02*
X100800000Y-92100000D01*
X108075000Y-81000000D02*
X107900000Y-81000000D01*
D32*
X98175000Y-120400000D02*
X98275000Y-120300000D01*
X106500000Y-78375000D02*
X106500000Y-78400000D01*
D31*
X112125000Y-81375000D02*
X112625000Y-81875000D01*
X106900000Y-95800000D02*
X106900000Y-98100000D01*
X111320000Y-95220000D02*
X111320000Y-94300000D01*
D32*
X110125000Y-80500000D02*
X110225000Y-80400000D01*
D31*
X107054556Y-95385000D02*
X108085444Y-95385000D01*
X103910000Y-84890000D02*
X103900000Y-84880000D01*
X111975000Y-95532828D02*
X111942172Y-95500000D01*
D32*
X127700000Y-89500000D02*
X127700000Y-87900000D01*
D31*
X108575000Y-80500000D02*
X108075000Y-81000000D01*
X113200000Y-81300000D02*
X122700000Y-81300000D01*
X107000000Y-95700000D02*
X106900000Y-95800000D01*
X110100000Y-101900000D02*
X110300000Y-101900000D01*
X110225000Y-80400000D02*
X111200000Y-81375000D01*
D32*
X131525000Y-86500000D02*
X133200000Y-86500000D01*
D31*
X111975000Y-97605761D02*
X111580761Y-98000000D01*
X100900000Y-85000000D02*
X101010000Y-84890000D01*
D32*
X99346666Y-119125000D02*
X101935000Y-119125000D01*
X101925000Y-125700000D02*
X101771666Y-125700000D01*
D31*
X112625000Y-81875000D02*
X113200000Y-81300000D01*
X108320000Y-95150444D02*
X108320000Y-94300000D01*
D32*
X100800000Y-93525000D02*
X100800000Y-92100000D01*
D31*
X108320000Y-95700000D02*
X107000000Y-95700000D01*
X122700000Y-81300000D02*
X122900000Y-81100000D01*
X108085444Y-95385000D02*
X108320000Y-95150444D01*
X112585444Y-81875000D02*
X112820000Y-82109556D01*
X109800000Y-98000000D02*
X109400000Y-98400000D01*
X109400000Y-101300000D02*
X110000000Y-101900000D01*
%TO.N,VDD33TXRX1*%
X116900000Y-84809620D02*
X116900000Y-85200000D01*
X119600000Y-106800000D02*
X119500000Y-106700000D01*
X116220000Y-85880000D02*
X115240000Y-85880000D01*
X120000000Y-109100000D02*
X120000000Y-107200000D01*
X135632437Y-101132437D02*
X130000000Y-95500000D01*
X120000000Y-109100000D02*
X120000000Y-110725000D01*
X130000000Y-95500000D02*
X130000000Y-94500000D01*
X135632437Y-102167563D02*
X135632437Y-101132437D01*
X120000000Y-107200000D02*
X119600000Y-106800000D01*
X130000000Y-94500000D02*
X130000000Y-94400000D01*
X116900000Y-85200000D02*
X116220000Y-85880000D01*
X120000000Y-110725000D02*
X120100000Y-110825000D01*
%TO.N,Net-(U3-VDD33BIAS)*%
X127897918Y-86500000D02*
X129950000Y-86500000D01*
X116090444Y-89380000D02*
X116410444Y-89700000D01*
X126850000Y-88950000D02*
X126850000Y-87547918D01*
X116410444Y-89700000D02*
X126100000Y-89700000D01*
X129950000Y-86500000D02*
X129950000Y-85000000D01*
X126100000Y-89700000D02*
X126850000Y-88950000D01*
X126850000Y-87547918D02*
X127897918Y-86500000D01*
X115240000Y-89380000D02*
X116090444Y-89380000D01*
%TO.N,VDD33TXRX2*%
X116300000Y-95300000D02*
X118800000Y-95300000D01*
X117300000Y-94300000D02*
X116300000Y-95300000D01*
X120462500Y-95325000D02*
X121287500Y-94500000D01*
X115240000Y-92380000D02*
X115240000Y-94240000D01*
X118655592Y-95300000D02*
X119227104Y-95300000D01*
X115240000Y-94240000D02*
X116300000Y-95300000D01*
X130700000Y-103912500D02*
X130700000Y-108200000D01*
X117300000Y-94200000D02*
X117300000Y-94300000D01*
X121287500Y-94500000D02*
X130700000Y-103912500D01*
X119252104Y-95325000D02*
X120462500Y-95325000D01*
X119227104Y-95300000D02*
X119252104Y-95325000D01*
%TO.N,RXPB*%
X140890000Y-113700000D02*
X139790000Y-112600000D01*
X116090444Y-90380000D02*
X115240000Y-90380000D01*
X119707106Y-90200000D02*
X116270444Y-90200000D01*
X138805635Y-106260000D02*
X135767106Y-106260000D01*
X116270444Y-90200000D02*
X116090444Y-90380000D01*
X139790000Y-112600000D02*
X139790000Y-107244365D01*
X139790000Y-107244365D02*
X138805635Y-106260000D01*
X135767106Y-106260000D02*
X119707106Y-90200000D01*
%TO.N,RST*%
X112800000Y-98200000D02*
X112400000Y-98600000D01*
X112800000Y-96300000D02*
X112800000Y-98200000D01*
%TO.N,USB_DN*%
X102225000Y-124400000D02*
X104000000Y-124400000D01*
X104800000Y-125200000D02*
X104800000Y-127600000D01*
X98504000Y-109679000D02*
X97400000Y-108575000D01*
X101025000Y-123200000D02*
X99825000Y-122000000D01*
X97258000Y-113425000D02*
X98504000Y-112179000D01*
X104000000Y-124400000D02*
X104800000Y-125200000D01*
X104800000Y-127600000D02*
X102469584Y-127600000D01*
X102469584Y-127600000D02*
X97258000Y-122388416D01*
X102200000Y-123200000D02*
X101025000Y-123200000D01*
X98504000Y-112179000D02*
X98504000Y-109679000D01*
X99825000Y-122000000D02*
X102225000Y-124400000D01*
X97258000Y-122388416D02*
X97258000Y-113425000D01*
%TO.N,USB_DP*%
X101013358Y-121930000D02*
X99925000Y-120841642D01*
X100800000Y-117500000D02*
X100500000Y-117800000D01*
X100800000Y-109975000D02*
X100800000Y-117500000D01*
X97400000Y-106575000D02*
X100800000Y-109975000D01*
X99925000Y-120841642D02*
X99925000Y-120300000D01*
X102200000Y-121930000D02*
X101013358Y-121930000D01*
%TO.N,TXNB*%
X115240000Y-91880000D02*
X114389556Y-91880000D01*
X114155000Y-98855000D02*
X132400000Y-117100000D01*
X114389556Y-91880000D02*
X114155000Y-92114556D01*
X114155000Y-92114556D02*
X114155000Y-98855000D01*
%TO.N,RXPA*%
X124100000Y-90350000D02*
X125350000Y-90350000D01*
X125650000Y-90350000D02*
X126902500Y-91602500D01*
X126902500Y-91602500D02*
X132497500Y-91602500D01*
X118805787Y-87880000D02*
X119885787Y-86800000D01*
X115240000Y-87880000D02*
X118805787Y-87880000D01*
X119885787Y-86800000D02*
X122700000Y-86800000D01*
%TO.N,Net-(U1-PA12)*%
X99500000Y-100325000D02*
X99500000Y-101000000D01*
X99175000Y-100000000D02*
X99500000Y-100325000D01*
X99500000Y-101000000D02*
X99500000Y-101100000D01*
%TO.N,SWDIO*%
X100900000Y-100600000D02*
X100825000Y-100525000D01*
X99125000Y-98300000D02*
X100825000Y-100000000D01*
X98975000Y-98300000D02*
X99125000Y-98300000D01*
X100825000Y-100525000D02*
X100825000Y-100000000D01*
%TO.N,TXPB*%
X134200000Y-106300000D02*
X134200000Y-115900000D01*
X135400000Y-117100000D02*
X140030000Y-117100000D01*
X140030000Y-117100000D02*
X140890000Y-116240000D01*
X121172896Y-93100000D02*
X122075000Y-94002104D01*
X122075000Y-94002104D02*
X122075000Y-94175000D01*
X134200000Y-115900000D02*
X135400000Y-117100000D01*
X115240000Y-91380000D02*
X118874606Y-91380000D01*
X118874606Y-91380000D02*
X120594606Y-93100000D01*
X120594606Y-93100000D02*
X121172896Y-93100000D01*
X122075000Y-94175000D02*
X134200000Y-106300000D01*
%TO.N,Net-(U1-PA11)*%
X100625000Y-98300000D02*
X100625000Y-97375000D01*
X100625000Y-97375000D02*
X100800000Y-97200000D01*
%TO.N,VDD12TX*%
X129425000Y-81075000D02*
X129850000Y-81500000D01*
X125525000Y-87650000D02*
X129975000Y-83200000D01*
X116824656Y-88700000D02*
X118692894Y-88700000D01*
X129425000Y-79700000D02*
X129425000Y-81075000D01*
X116504657Y-88380000D02*
X116824656Y-88700000D01*
X115240000Y-88380000D02*
X116504657Y-88380000D01*
X114389556Y-88380000D02*
X114155000Y-88614556D01*
X123650000Y-87650000D02*
X125525000Y-87650000D01*
X114389556Y-89880000D02*
X115240000Y-89880000D01*
X114155000Y-88614556D02*
X114155000Y-89645444D01*
X129975000Y-81625000D02*
X129850000Y-81500000D01*
X129975000Y-83200000D02*
X129975000Y-81625000D01*
X119092894Y-88300000D02*
X123000000Y-88300000D01*
X123000000Y-88300000D02*
X123650000Y-87650000D01*
X114155000Y-89645444D02*
X114389556Y-89880000D01*
X118692894Y-88700000D02*
X119092894Y-88300000D01*
X115240000Y-88380000D02*
X114389556Y-88380000D01*
%TO.N,VDDCR*%
X110820000Y-97070000D02*
X110820000Y-94300000D01*
X106849241Y-92249241D02*
X104985000Y-90385000D01*
X101775000Y-89000000D02*
X101895000Y-88880000D01*
X109175000Y-75975000D02*
X109175000Y-78275000D01*
X104985000Y-88815000D02*
X104835222Y-88964778D01*
X110400000Y-92400000D02*
X108499241Y-92400000D01*
X111025000Y-79400000D02*
X127550000Y-79400000D01*
X107350000Y-92249241D02*
X106849241Y-92249241D01*
X104985000Y-82444556D02*
X104985000Y-88815000D01*
X103100000Y-74300000D02*
X104300000Y-74300000D01*
X110820000Y-92820000D02*
X110400000Y-92400000D01*
X110820000Y-94300000D02*
X110820000Y-92820000D01*
X107730761Y-92630002D02*
X107350000Y-92249241D01*
X109925000Y-78300000D02*
X110000000Y-78375000D01*
X108320000Y-84280000D02*
X107900000Y-84700000D01*
X127550000Y-79400000D02*
X127850000Y-79700000D01*
X108320000Y-82960000D02*
X108320000Y-84280000D01*
X101895000Y-88880000D02*
X103900000Y-88880000D01*
X104985000Y-89114556D02*
X104835222Y-88964778D01*
X106530592Y-81600000D02*
X102900000Y-77969408D01*
X104750444Y-88880000D02*
X103900000Y-88880000D01*
X107170000Y-81600000D02*
X105829556Y-81600000D01*
X104835222Y-88964778D02*
X104750444Y-88880000D01*
X104300000Y-74300000D02*
X104350000Y-74350000D01*
X108499241Y-92400000D02*
X108269239Y-92630002D01*
X102900000Y-77969408D02*
X102900000Y-74500000D01*
X104985000Y-90385000D02*
X104985000Y-89114556D01*
X102900000Y-74500000D02*
X103100000Y-74300000D01*
X107170000Y-81600000D02*
X106530592Y-81600000D01*
X108200000Y-78300000D02*
X109925000Y-78300000D01*
X104350000Y-74350000D02*
X107550000Y-74350000D01*
X108269239Y-92630002D02*
X107730761Y-92630002D01*
X110000000Y-78375000D02*
X111025000Y-79400000D01*
X110850000Y-97100000D02*
X110820000Y-97070000D01*
X105829556Y-81600000D02*
X104985000Y-82444556D01*
X107550000Y-74350000D02*
X109175000Y-75975000D01*
X109175000Y-78275000D02*
X109200000Y-78300000D01*
%TO.N,Net-(U3-RBIAS)*%
X116297550Y-88880000D02*
X115240000Y-88880000D01*
X116617550Y-89200000D02*
X116297550Y-88880000D01*
X126140380Y-88740380D02*
X124240380Y-88740380D01*
X119300000Y-88800000D02*
X118900000Y-89200000D01*
X129500000Y-88100000D02*
X128800000Y-88800000D01*
X129775000Y-88100000D02*
X129500000Y-88100000D01*
X124180760Y-88800000D02*
X119300000Y-88800000D01*
X124240380Y-88740380D02*
X124180760Y-88800000D01*
X118900000Y-89200000D02*
X116617550Y-89200000D01*
%TO.N,RXNB*%
X121100000Y-92300000D02*
X138350000Y-109550000D01*
X120501712Y-92300000D02*
X121100000Y-92300000D01*
X138350000Y-109550000D02*
X138350000Y-109900000D01*
X119081712Y-90880000D02*
X120501712Y-92300000D01*
X115240000Y-90880000D02*
X119081712Y-90880000D01*
%TO.N,TXPA*%
X118780330Y-85926777D02*
X118707106Y-86000000D01*
X118500000Y-86000000D02*
X118300000Y-86200000D01*
X118300000Y-86200000D02*
X117447867Y-86200000D01*
X117447867Y-86200000D02*
X116767868Y-86880000D01*
X116767868Y-86880000D02*
X115240000Y-86880000D01*
X118707106Y-86000000D02*
X118500000Y-86000000D01*
%TO.N,TXNA*%
X117447721Y-85546075D02*
X117394686Y-85546075D01*
X117394686Y-85546075D02*
X116560761Y-86380000D01*
X117449248Y-85547602D02*
X117447721Y-85546075D01*
X116560761Y-86380000D02*
X115240000Y-86380000D01*
%TO.N,RXNA*%
X118926346Y-86700000D02*
X124526346Y-81100000D01*
X128500000Y-81100000D02*
X128700000Y-80900000D01*
X128700000Y-80900000D02*
X128800000Y-80800000D01*
X124526346Y-81100000D02*
X128500000Y-81100000D01*
X117654974Y-86700000D02*
X118926346Y-86700000D01*
X116974975Y-87380000D02*
X117654974Y-86700000D01*
X115240000Y-87380000D02*
X116974975Y-87380000D01*
%TO.N,GPIO2*%
X119459620Y-84159620D02*
X119759620Y-83859620D01*
X111820000Y-82960000D02*
X111820000Y-84580000D01*
X114069556Y-84700000D02*
X114609936Y-84159620D01*
X111940000Y-84700000D02*
X114069556Y-84700000D01*
X114609936Y-84159620D02*
X119459620Y-84159620D01*
X111820000Y-84580000D02*
X111940000Y-84700000D01*
%TO.N,SCS*%
X113100000Y-91800000D02*
X113100000Y-86669556D01*
X113100000Y-86669556D02*
X114389556Y-85380000D01*
X108080002Y-91900000D02*
X113000000Y-91900000D01*
X108000000Y-91980002D02*
X108080002Y-91900000D01*
X113000000Y-91900000D02*
X113100000Y-91800000D01*
X114389556Y-85380000D02*
X115240000Y-85380000D01*
%TO.N,SCK*%
X103900000Y-91380000D02*
X105080000Y-91380000D01*
X105080000Y-91380000D02*
X105100000Y-91400000D01*
%TO.N,SI*%
X105980000Y-92380000D02*
X106450000Y-92850000D01*
X106720444Y-92850000D02*
X106450000Y-92850000D01*
X107320000Y-94300000D02*
X107320000Y-93449556D01*
X107320000Y-93449556D02*
X106720444Y-92850000D01*
X103900000Y-92380000D02*
X105980000Y-92380000D01*
%TO.N,GPIO0*%
X122900000Y-91100000D02*
X122700000Y-91100000D01*
X130225000Y-98425000D02*
X122900000Y-91100000D01*
X113320000Y-82960000D02*
X113480000Y-82800000D01*
X122700000Y-91100000D02*
X122600000Y-91100000D01*
X130225000Y-99600000D02*
X130225000Y-98425000D01*
X113480000Y-82800000D02*
X118800000Y-82800000D01*
%TO.N,Net-(U3-OSCI)*%
X113375000Y-75975000D02*
X112450000Y-76900000D01*
X113375000Y-95400000D02*
X113320000Y-95345000D01*
X113320000Y-95345000D02*
X113320000Y-94300000D01*
X113375000Y-73700000D02*
X113375000Y-75975000D01*
%TO.N,Net-(U3-OSCO)*%
X113285000Y-93215000D02*
X113655000Y-92845000D01*
X116575000Y-76475000D02*
X116275000Y-76775000D01*
X112820000Y-93449556D02*
X113054556Y-93215000D01*
X116575000Y-73700000D02*
X116575000Y-76475000D01*
X116275000Y-76775000D02*
X116150000Y-76900000D01*
X113655000Y-87345000D02*
X113800000Y-87200000D01*
X112820000Y-94300000D02*
X112820000Y-93449556D01*
X113054556Y-93215000D02*
X113285000Y-93215000D01*
X113655000Y-92845000D02*
X113655000Y-87345000D01*
%TO.N,Net-(U3-FXSDB{slash}FXLOSB{slash}~{FXSDENB})*%
X108820000Y-95492894D02*
X109627106Y-95492894D01*
X108820000Y-94300000D02*
X108820000Y-95492894D01*
X109627106Y-95492894D02*
X109820000Y-95300000D01*
X109820000Y-95300000D02*
X109820000Y-94300000D01*
%TO.N,Net-(U2-A1)*%
X109693000Y-120660000D02*
X109693000Y-121930000D01*
X111230000Y-121930000D02*
X111600000Y-122300000D01*
X109693000Y-121930000D02*
X111230000Y-121930000D01*
%TO.N,Net-(U2-A0)*%
X109063600Y-120019400D02*
X102840600Y-120019400D01*
X102840600Y-120019400D02*
X102200000Y-120660000D01*
X109693000Y-119390000D02*
X109063600Y-120019400D01*
%TD*%
%TA.AperFunction,Conductor*%
%TO.N,GND*%
G36*
X108066231Y-96370185D02*
G01*
X108086873Y-96386819D01*
X108305326Y-96605273D01*
X108305334Y-96605279D01*
X108399350Y-96668098D01*
X108399351Y-96668098D01*
X108399355Y-96668101D01*
X108411873Y-96676465D01*
X108530256Y-96725501D01*
X108530260Y-96725501D01*
X108530261Y-96725502D01*
X108655928Y-96750500D01*
X109775500Y-96750500D01*
X109842539Y-96770185D01*
X109888294Y-96822989D01*
X109899500Y-96874500D01*
X109899501Y-97225500D01*
X109879817Y-97292539D01*
X109827013Y-97338294D01*
X109775501Y-97349500D01*
X109735929Y-97349500D01*
X109610261Y-97374497D01*
X109610255Y-97374499D01*
X109491870Y-97423535D01*
X109385331Y-97494722D01*
X109385324Y-97494728D01*
X109166873Y-97713181D01*
X109105550Y-97746666D01*
X109079192Y-97749500D01*
X107674500Y-97749500D01*
X107607461Y-97729815D01*
X107561706Y-97677011D01*
X107550500Y-97625500D01*
X107550500Y-96474500D01*
X107570185Y-96407461D01*
X107622989Y-96361706D01*
X107674500Y-96350500D01*
X107999192Y-96350500D01*
X108066231Y-96370185D01*
G37*
%TD.AperFunction*%
%TA.AperFunction,Conductor*%
G36*
X118620837Y-92050185D02*
G01*
X118641479Y-92066819D01*
X119887479Y-93312819D01*
X119920964Y-93374142D01*
X119915980Y-93443834D01*
X119874108Y-93499767D01*
X119808644Y-93524184D01*
X119799798Y-93524500D01*
X119445818Y-93524500D01*
X119347316Y-93534563D01*
X119347315Y-93534564D01*
X119300147Y-93550194D01*
X119187715Y-93587450D01*
X119187704Y-93587455D01*
X119044612Y-93675716D01*
X119044608Y-93675719D01*
X118925719Y-93794608D01*
X118925716Y-93794612D01*
X118842612Y-93929345D01*
X118805966Y-93967349D01*
X118789713Y-93978208D01*
X118789705Y-93978215D01*
X118678213Y-94089707D01*
X118678210Y-94089711D01*
X118590609Y-94220814D01*
X118590602Y-94220827D01*
X118530264Y-94366498D01*
X118530262Y-94366505D01*
X118521116Y-94412483D01*
X118488730Y-94474393D01*
X118428013Y-94508966D01*
X118358244Y-94505225D01*
X118301573Y-94464357D01*
X118275992Y-94399339D01*
X118275499Y-94388307D01*
X118275499Y-93926656D01*
X118265349Y-93827292D01*
X118212003Y-93666303D01*
X118211999Y-93666297D01*
X118211998Y-93666294D01*
X118122970Y-93521959D01*
X118122967Y-93521955D01*
X118003044Y-93402032D01*
X118003040Y-93402029D01*
X117858705Y-93313001D01*
X117858699Y-93312998D01*
X117858697Y-93312997D01*
X117858160Y-93312819D01*
X117697709Y-93259651D01*
X117598346Y-93249500D01*
X117001662Y-93249500D01*
X117001644Y-93249501D01*
X116902292Y-93259650D01*
X116902289Y-93259651D01*
X116741305Y-93312996D01*
X116741294Y-93313001D01*
X116596959Y-93402029D01*
X116596955Y-93402032D01*
X116477032Y-93521955D01*
X116477029Y-93521959D01*
X116388001Y-93666294D01*
X116387996Y-93666305D01*
X116334651Y-93827290D01*
X116324500Y-93926647D01*
X116324500Y-94105192D01*
X116304815Y-94172231D01*
X116252011Y-94217986D01*
X116182853Y-94227930D01*
X116119297Y-94198905D01*
X116112819Y-94192873D01*
X115926819Y-94006873D01*
X115893334Y-93945550D01*
X115890500Y-93919192D01*
X115890500Y-93141478D01*
X115910185Y-93074439D01*
X115962989Y-93028684D01*
X115999714Y-93018363D01*
X116067979Y-93010166D01*
X116204922Y-92956163D01*
X116322216Y-92867216D01*
X116411163Y-92749922D01*
X116465166Y-92612979D01*
X116475500Y-92526927D01*
X116475499Y-92233074D01*
X116467839Y-92169281D01*
X116479392Y-92100374D01*
X116526364Y-92048651D01*
X116590955Y-92030500D01*
X118553798Y-92030500D01*
X118620837Y-92050185D01*
G37*
%TD.AperFunction*%
%TA.AperFunction,Conductor*%
G36*
X112566786Y-92570185D02*
G01*
X112612541Y-92622989D01*
X112622485Y-92692147D01*
X112593460Y-92755703D01*
X112587428Y-92762181D01*
X112321427Y-93028181D01*
X112260104Y-93061666D01*
X112233748Y-93064500D01*
X112173080Y-93064500D01*
X112087022Y-93074833D01*
X111950077Y-93128837D01*
X111950075Y-93128838D01*
X111894925Y-93170660D01*
X111829613Y-93195483D01*
X111761249Y-93181055D01*
X111745075Y-93170660D01*
X111689924Y-93128838D01*
X111689918Y-93128835D01*
X111549010Y-93073268D01*
X111493866Y-93030363D01*
X111470673Y-92964455D01*
X111470500Y-92957914D01*
X111470500Y-92755928D01*
X111470499Y-92755926D01*
X111459115Y-92698691D01*
X111465342Y-92629100D01*
X111508205Y-92573922D01*
X111574095Y-92550678D01*
X111580732Y-92550500D01*
X112499747Y-92550500D01*
X112566786Y-92570185D01*
G37*
%TD.AperFunction*%
%TA.AperFunction,Conductor*%
G36*
X109836968Y-84070125D02*
G01*
X109864056Y-84072232D01*
X109875085Y-84078169D01*
X109878748Y-84078942D01*
X109890238Y-84086325D01*
X109892490Y-84087538D01*
X109893692Y-84088404D01*
X109950078Y-84131163D01*
X110087021Y-84185166D01*
X110173073Y-84195500D01*
X110466926Y-84195499D01*
X110552979Y-84185166D01*
X110552982Y-84185164D01*
X110555219Y-84184896D01*
X110584789Y-84184897D01*
X110587017Y-84185164D01*
X110587021Y-84185166D01*
X110673073Y-84195500D01*
X110966926Y-84195499D01*
X111030718Y-84187839D01*
X111099626Y-84199392D01*
X111151349Y-84246364D01*
X111169500Y-84310954D01*
X111169500Y-84644069D01*
X111169500Y-84644071D01*
X111169499Y-84644071D01*
X111193369Y-84764066D01*
X111194498Y-84769741D01*
X111194499Y-84769745D01*
X111243533Y-84888125D01*
X111314726Y-84994673D01*
X111525325Y-85205272D01*
X111525332Y-85205278D01*
X111631863Y-85276459D01*
X111631867Y-85276461D01*
X111631874Y-85276466D01*
X111697955Y-85303837D01*
X111750256Y-85325501D01*
X111750260Y-85325501D01*
X111750261Y-85325502D01*
X111875928Y-85350500D01*
X111875931Y-85350500D01*
X112004069Y-85350500D01*
X113199748Y-85350500D01*
X113266787Y-85370185D01*
X113312542Y-85422989D01*
X113322486Y-85492147D01*
X113293461Y-85555703D01*
X113287429Y-85562181D01*
X112594727Y-86254881D01*
X112594726Y-86254882D01*
X112523534Y-86361430D01*
X112474499Y-86479811D01*
X112474497Y-86479817D01*
X112449500Y-86605484D01*
X112449500Y-91125500D01*
X112429815Y-91192539D01*
X112377011Y-91238294D01*
X112325500Y-91249500D01*
X108352884Y-91249500D01*
X108305432Y-91240061D01*
X108233501Y-91210266D01*
X108233489Y-91210263D01*
X108078845Y-91179502D01*
X108078842Y-91179502D01*
X107921158Y-91179502D01*
X107921155Y-91179502D01*
X107766510Y-91210263D01*
X107766498Y-91210266D01*
X107620827Y-91270604D01*
X107620814Y-91270611D01*
X107489711Y-91358212D01*
X107489707Y-91358215D01*
X107378213Y-91469709D01*
X107378207Y-91469717D01*
X107328820Y-91543631D01*
X107275208Y-91588437D01*
X107225718Y-91598741D01*
X107170049Y-91598741D01*
X107103010Y-91579056D01*
X107082368Y-91562422D01*
X105671819Y-90151873D01*
X105638334Y-90090550D01*
X105635500Y-90064192D01*
X105635500Y-89050487D01*
X105629657Y-89021116D01*
X105623262Y-88988966D01*
X105623262Y-88940590D01*
X105635500Y-88879069D01*
X105635500Y-84319499D01*
X105655185Y-84252460D01*
X105707989Y-84206705D01*
X105759496Y-84195499D01*
X105966926Y-84195499D01*
X106052979Y-84185166D01*
X106052982Y-84185164D01*
X106055219Y-84184896D01*
X106084789Y-84184897D01*
X106087017Y-84185164D01*
X106087021Y-84185166D01*
X106173073Y-84195500D01*
X106466926Y-84195499D01*
X106552979Y-84185166D01*
X106552982Y-84185164D01*
X106555219Y-84184896D01*
X106584789Y-84184897D01*
X106587017Y-84185164D01*
X106587021Y-84185166D01*
X106673073Y-84195500D01*
X106966926Y-84195499D01*
X107046479Y-84185946D01*
X107115385Y-84197498D01*
X107167109Y-84244471D01*
X107185226Y-84311950D01*
X107175821Y-84356514D01*
X107130264Y-84466498D01*
X107130261Y-84466510D01*
X107099500Y-84621153D01*
X107099500Y-84778846D01*
X107130261Y-84933489D01*
X107130264Y-84933501D01*
X107190602Y-85079172D01*
X107190609Y-85079185D01*
X107278210Y-85210288D01*
X107278213Y-85210292D01*
X107389707Y-85321786D01*
X107389711Y-85321789D01*
X107520814Y-85409390D01*
X107520827Y-85409397D01*
X107603134Y-85443489D01*
X107666503Y-85469737D01*
X107779165Y-85492147D01*
X107821153Y-85500499D01*
X107821156Y-85500500D01*
X107821158Y-85500500D01*
X107978844Y-85500500D01*
X107978845Y-85500499D01*
X108133497Y-85469737D01*
X108246358Y-85422989D01*
X108279172Y-85409397D01*
X108279172Y-85409396D01*
X108279179Y-85409394D01*
X108410289Y-85321789D01*
X108521789Y-85210289D01*
X108609394Y-85079179D01*
X108669737Y-84933497D01*
X108683079Y-84866418D01*
X108715463Y-84804510D01*
X108717016Y-84802929D01*
X108825272Y-84694674D01*
X108825273Y-84694673D01*
X108825273Y-84694672D01*
X108825277Y-84694669D01*
X108896465Y-84588127D01*
X108923220Y-84523534D01*
X108945501Y-84469744D01*
X108951158Y-84441305D01*
X108970500Y-84344071D01*
X108970500Y-84310954D01*
X108990185Y-84243915D01*
X109042989Y-84198160D01*
X109109283Y-84187839D01*
X109173073Y-84195500D01*
X109466926Y-84195499D01*
X109552979Y-84185166D01*
X109689922Y-84131163D01*
X109745077Y-84089337D01*
X109770471Y-84079685D01*
X109794396Y-84066814D01*
X109802647Y-84067455D01*
X109810384Y-84064515D01*
X109836968Y-84070125D01*
G37*
%TD.AperFunction*%
%TA.AperFunction,Conductor*%
G36*
X130746851Y-87261421D02*
G01*
X130780834Y-87263852D01*
X130781723Y-87264423D01*
X130782509Y-87264491D01*
X130785907Y-87267112D01*
X130825181Y-87292353D01*
X130857108Y-87324280D01*
X130857112Y-87324283D01*
X131000204Y-87412544D01*
X131000207Y-87412545D01*
X131000213Y-87412549D01*
X131159815Y-87465436D01*
X131258326Y-87475500D01*
X131288566Y-87475500D01*
X131312756Y-87477882D01*
X131334088Y-87482126D01*
X131426456Y-87500500D01*
X131426459Y-87500500D01*
X132734218Y-87500500D01*
X132801257Y-87520185D01*
X132821899Y-87536819D01*
X132963181Y-87678101D01*
X132996666Y-87739424D01*
X132999500Y-87765782D01*
X132999500Y-89234218D01*
X132979815Y-89301257D01*
X132963181Y-89321899D01*
X132821899Y-89463181D01*
X132760576Y-89496666D01*
X132734218Y-89499500D01*
X129527350Y-89499500D01*
X129460311Y-89479815D01*
X129414556Y-89427011D01*
X129404612Y-89357853D01*
X129421620Y-89310714D01*
X129422891Y-89308639D01*
X129509394Y-89179179D01*
X129524365Y-89143035D01*
X129529464Y-89134714D01*
X129548427Y-89117555D01*
X129564475Y-89097643D01*
X129573904Y-89094504D01*
X129581274Y-89087837D01*
X129606502Y-89083655D01*
X129630769Y-89075579D01*
X129635194Y-89075500D01*
X130031613Y-89075500D01*
X130031616Y-89075500D01*
X130102196Y-89069086D01*
X130264606Y-89018478D01*
X130410185Y-88930472D01*
X130530472Y-88810185D01*
X130618478Y-88664606D01*
X130669086Y-88502196D01*
X130675500Y-88431616D01*
X130675500Y-87768384D01*
X130669086Y-87697804D01*
X130618478Y-87535394D01*
X130588514Y-87485828D01*
X130570679Y-87418275D01*
X130592197Y-87351802D01*
X130608228Y-87332740D01*
X130615273Y-87325895D01*
X130617891Y-87324281D01*
X130650464Y-87291707D01*
X130651096Y-87291094D01*
X130681269Y-87275179D01*
X130711142Y-87258868D01*
X130712070Y-87258934D01*
X130712896Y-87258499D01*
X130746851Y-87261421D01*
G37*
%TD.AperFunction*%
%TA.AperFunction,Conductor*%
G36*
X110095840Y-81520185D02*
G01*
X110141595Y-81572989D01*
X110151539Y-81642147D01*
X110122514Y-81705703D01*
X110074291Y-81739853D01*
X110033051Y-81756117D01*
X109950077Y-81788837D01*
X109950075Y-81788838D01*
X109894925Y-81830660D01*
X109829613Y-81855483D01*
X109763300Y-81842133D01*
X109753682Y-81837187D01*
X109689922Y-81788837D01*
X109559981Y-81737595D01*
X109554500Y-81734777D01*
X109533475Y-81714774D01*
X109510566Y-81696949D01*
X109508465Y-81690979D01*
X109503880Y-81686617D01*
X109497005Y-81658414D01*
X109487373Y-81631041D01*
X109488832Y-81624884D01*
X109487334Y-81618735D01*
X109496797Y-81591296D01*
X109503493Y-81563057D01*
X109508050Y-81558666D01*
X109510114Y-81552683D01*
X109532909Y-81534716D01*
X109553810Y-81514580D01*
X109560558Y-81512924D01*
X109564988Y-81509433D01*
X109581154Y-81507871D01*
X109611200Y-81500500D01*
X110028801Y-81500500D01*
X110095840Y-81520185D01*
G37*
%TD.AperFunction*%
%TA.AperFunction,Conductor*%
G36*
X126882269Y-80070185D02*
G01*
X126928024Y-80122989D01*
X126932936Y-80135495D01*
X126974951Y-80262287D01*
X126976603Y-80264966D01*
X126979016Y-80269760D01*
X126984366Y-80299062D01*
X126992229Y-80327805D01*
X126990576Y-80333068D01*
X126991567Y-80338493D01*
X126980225Y-80366040D01*
X126971301Y-80394467D01*
X126967067Y-80398000D01*
X126964967Y-80403101D01*
X126940526Y-80420146D01*
X126917656Y-80439232D01*
X126911256Y-80440562D01*
X126907659Y-80443071D01*
X126897297Y-80443463D01*
X126868250Y-80449500D01*
X124462275Y-80449500D01*
X124336607Y-80474497D01*
X124336601Y-80474499D01*
X124218220Y-80523534D01*
X124111677Y-80594723D01*
X123850799Y-80855600D01*
X123789476Y-80889084D01*
X123719784Y-80884100D01*
X123663851Y-80842228D01*
X123648560Y-80815377D01*
X123609394Y-80720821D01*
X123609392Y-80720818D01*
X123609390Y-80720814D01*
X123521789Y-80589711D01*
X123521786Y-80589707D01*
X123410292Y-80478213D01*
X123410288Y-80478210D01*
X123279185Y-80390609D01*
X123279172Y-80390602D01*
X123133501Y-80330264D01*
X123133489Y-80330261D01*
X122978845Y-80299500D01*
X122978842Y-80299500D01*
X122821158Y-80299500D01*
X122821155Y-80299500D01*
X122666510Y-80330261D01*
X122666498Y-80330264D01*
X122520827Y-80390602D01*
X122520814Y-80390609D01*
X122389711Y-80478210D01*
X122389707Y-80478213D01*
X122278211Y-80589709D01*
X122275086Y-80594388D01*
X122221475Y-80639194D01*
X122171982Y-80649500D01*
X113135929Y-80649500D01*
X113010261Y-80674497D01*
X113010255Y-80674499D01*
X112898425Y-80720821D01*
X112898424Y-80720821D01*
X112891876Y-80723533D01*
X112785326Y-80794726D01*
X112785325Y-80794727D01*
X112712681Y-80867372D01*
X112651358Y-80900857D01*
X112581666Y-80895873D01*
X112545286Y-80872492D01*
X112544384Y-80873592D01*
X112539673Y-80869726D01*
X112536150Y-80867372D01*
X112433127Y-80798535D01*
X112429322Y-80796959D01*
X112314744Y-80749499D01*
X112304941Y-80747549D01*
X112289060Y-80744390D01*
X112189071Y-80724500D01*
X112189069Y-80724500D01*
X111520807Y-80724500D01*
X111453768Y-80704815D01*
X111433126Y-80688181D01*
X111261819Y-80516873D01*
X111228334Y-80455550D01*
X111225500Y-80429192D01*
X111225500Y-80301457D01*
X111205058Y-80198692D01*
X111211285Y-80129100D01*
X111254148Y-80073923D01*
X111320037Y-80050678D01*
X111326675Y-80050500D01*
X126815230Y-80050500D01*
X126882269Y-80070185D01*
G37*
%TD.AperFunction*%
%TA.AperFunction,Conductor*%
G36*
X106287756Y-79377882D02*
G01*
X106322384Y-79384770D01*
X106407434Y-79401689D01*
X106407075Y-79403491D01*
X106463876Y-79426423D01*
X106504238Y-79483455D01*
X106507359Y-79553255D01*
X106507354Y-79553262D01*
X107417303Y-80378878D01*
X107453725Y-80438503D01*
X107452129Y-80508355D01*
X107421662Y-80558392D01*
X107314725Y-80665328D01*
X107314724Y-80665329D01*
X107308597Y-80674499D01*
X107275189Y-80724500D01*
X107261899Y-80744390D01*
X107208287Y-80789195D01*
X107158796Y-80799500D01*
X107091155Y-80799500D01*
X106936510Y-80830261D01*
X106936498Y-80830264D01*
X106832240Y-80873449D01*
X106762771Y-80880918D01*
X106700292Y-80849642D01*
X106697107Y-80846569D01*
X105437719Y-79587181D01*
X105404234Y-79525858D01*
X105409218Y-79456166D01*
X105451090Y-79400233D01*
X105516554Y-79375816D01*
X105525400Y-79375500D01*
X106263566Y-79375500D01*
X106287756Y-79377882D01*
G37*
%TD.AperFunction*%
%TA.AperFunction,Conductor*%
G36*
X104122685Y-74959939D02*
G01*
X104160251Y-74975499D01*
X104160256Y-74975501D01*
X104160260Y-74975501D01*
X104160261Y-74975502D01*
X104285928Y-75000500D01*
X104285931Y-75000500D01*
X107229192Y-75000500D01*
X107296231Y-75020185D01*
X107316873Y-75036819D01*
X108488181Y-76208127D01*
X108521666Y-76269450D01*
X108524500Y-76295808D01*
X108524500Y-77225500D01*
X108504815Y-77292539D01*
X108452011Y-77338294D01*
X108400500Y-77349500D01*
X107901662Y-77349500D01*
X107901644Y-77349501D01*
X107802292Y-77359650D01*
X107802289Y-77359651D01*
X107641305Y-77412996D01*
X107641294Y-77413001D01*
X107496959Y-77502029D01*
X107496955Y-77502032D01*
X107400179Y-77598807D01*
X107338856Y-77632291D01*
X107269164Y-77627306D01*
X107224818Y-77598806D01*
X107203044Y-77577032D01*
X107203040Y-77577029D01*
X107058705Y-77488001D01*
X107058699Y-77487998D01*
X107058697Y-77487997D01*
X107058694Y-77487996D01*
X106897709Y-77434651D01*
X106897702Y-77434650D01*
X106844785Y-77429243D01*
X106809942Y-77420448D01*
X106791838Y-77412950D01*
X106791832Y-77412948D01*
X106598543Y-77374500D01*
X106598541Y-77374500D01*
X104501459Y-77374500D01*
X104501457Y-77374500D01*
X104308167Y-77412948D01*
X104308160Y-77412950D01*
X104290052Y-77420450D01*
X104255211Y-77429244D01*
X104202290Y-77434651D01*
X104041305Y-77487996D01*
X104041294Y-77488001D01*
X103896959Y-77577029D01*
X103777029Y-77696958D01*
X103772554Y-77702619D01*
X103770306Y-77700841D01*
X103728064Y-77738818D01*
X103659099Y-77750024D01*
X103595023Y-77722165D01*
X103556181Y-77664087D01*
X103550500Y-77626984D01*
X103550500Y-75074500D01*
X103570185Y-75007461D01*
X103622989Y-74961706D01*
X103674500Y-74950500D01*
X104075233Y-74950500D01*
X104122685Y-74959939D01*
G37*
%TD.AperFunction*%
%TA.AperFunction,Conductor*%
G36*
X151503243Y-70399199D02*
G01*
X151828106Y-70416225D01*
X151841014Y-70417582D01*
X152159112Y-70467964D01*
X152171777Y-70470655D01*
X152482884Y-70554016D01*
X152495211Y-70558021D01*
X152795895Y-70673443D01*
X152807731Y-70678712D01*
X153094712Y-70824936D01*
X153105926Y-70831412D01*
X153367278Y-71001135D01*
X153376029Y-71006818D01*
X153386530Y-71014447D01*
X153636820Y-71217128D01*
X153646465Y-71225813D01*
X153874186Y-71453534D01*
X153882871Y-71463179D01*
X154085552Y-71713469D01*
X154093181Y-71723970D01*
X154268584Y-71994067D01*
X154275066Y-72005294D01*
X154406488Y-72263224D01*
X154421282Y-72292258D01*
X154426561Y-72304115D01*
X154541975Y-72604779D01*
X154545986Y-72617124D01*
X154629340Y-72928207D01*
X154632038Y-72940902D01*
X154682417Y-73258985D01*
X154683774Y-73271893D01*
X154700800Y-73596756D01*
X154700970Y-73603246D01*
X154700970Y-125696519D01*
X154700775Y-125703472D01*
X154685006Y-125984263D01*
X154683449Y-125998081D01*
X154636924Y-126271902D01*
X154633830Y-126285459D01*
X154556938Y-126552357D01*
X154552345Y-126565482D01*
X154446058Y-126822083D01*
X154440025Y-126834611D01*
X154305672Y-127077703D01*
X154298274Y-127089477D01*
X154137550Y-127315997D01*
X154128880Y-127326869D01*
X153943803Y-127533970D01*
X153933970Y-127543803D01*
X153726869Y-127728880D01*
X153715997Y-127737550D01*
X153489477Y-127898274D01*
X153477703Y-127905672D01*
X153234611Y-128040025D01*
X153222083Y-128046058D01*
X152965482Y-128152345D01*
X152952357Y-128156938D01*
X152685459Y-128233830D01*
X152671902Y-128236924D01*
X152398081Y-128283449D01*
X152384263Y-128285006D01*
X152103472Y-128300775D01*
X152096519Y-128300970D01*
X152088114Y-128300970D01*
X105319538Y-128299766D01*
X105252499Y-128280080D01*
X105206745Y-128227275D01*
X105196804Y-128158116D01*
X105225830Y-128094561D01*
X105231846Y-128088098D01*
X105305276Y-128014669D01*
X105376465Y-127908127D01*
X105425501Y-127789744D01*
X105437608Y-127728880D01*
X105450500Y-127664071D01*
X105450500Y-125181902D01*
X149999500Y-125181902D01*
X149999500Y-125418097D01*
X150036446Y-125651368D01*
X150109433Y-125875996D01*
X150195438Y-126044789D01*
X150216657Y-126086433D01*
X150355483Y-126277510D01*
X150522490Y-126444517D01*
X150713567Y-126583343D01*
X150773119Y-126613686D01*
X150924003Y-126690566D01*
X150924005Y-126690566D01*
X150924008Y-126690568D01*
X151044412Y-126729689D01*
X151148631Y-126763553D01*
X151381903Y-126800500D01*
X151381908Y-126800500D01*
X151618097Y-126800500D01*
X151851368Y-126763553D01*
X151909388Y-126744701D01*
X152075992Y-126690568D01*
X152286433Y-126583343D01*
X152477510Y-126444517D01*
X152644517Y-126277510D01*
X152783343Y-126086433D01*
X152890568Y-125875992D01*
X152963553Y-125651368D01*
X152984662Y-125518092D01*
X153000500Y-125418097D01*
X153000500Y-125181902D01*
X152963553Y-124948631D01*
X152890566Y-124724003D01*
X152783342Y-124513566D01*
X152717171Y-124422490D01*
X152644517Y-124322490D01*
X152477510Y-124155483D01*
X152286433Y-124016657D01*
X152272253Y-124009432D01*
X152075996Y-123909433D01*
X151851368Y-123836446D01*
X151618097Y-123799500D01*
X151618092Y-123799500D01*
X151381908Y-123799500D01*
X151381903Y-123799500D01*
X151148631Y-123836446D01*
X150924003Y-123909433D01*
X150713566Y-124016657D01*
X150604550Y-124095862D01*
X150522490Y-124155483D01*
X150522488Y-124155485D01*
X150522487Y-124155485D01*
X150355485Y-124322487D01*
X150355485Y-124322488D01*
X150355483Y-124322490D01*
X150295862Y-124404550D01*
X150216657Y-124513566D01*
X150109433Y-124724003D01*
X150036446Y-124948631D01*
X149999500Y-125181902D01*
X105450500Y-125181902D01*
X105450500Y-125135928D01*
X105425502Y-125010261D01*
X105425501Y-125010260D01*
X105425501Y-125010256D01*
X105376465Y-124891873D01*
X105366549Y-124877032D01*
X105305277Y-124785331D01*
X105305275Y-124785329D01*
X105305273Y-124785326D01*
X104414673Y-123894726D01*
X104327451Y-123836447D01*
X104308127Y-123823535D01*
X104189744Y-123774499D01*
X104189738Y-123774497D01*
X104064071Y-123749500D01*
X104064069Y-123749500D01*
X103548632Y-123749500D01*
X103481593Y-123729815D01*
X103435838Y-123677011D01*
X103425894Y-123607853D01*
X103429295Y-123594526D01*
X103428907Y-123594435D01*
X103430689Y-123586891D01*
X103430689Y-123586887D01*
X103430691Y-123586883D01*
X103437100Y-123527273D01*
X103437099Y-122872728D01*
X103430691Y-122813117D01*
X103426949Y-122803085D01*
X103380397Y-122678272D01*
X103380396Y-122678269D01*
X103351229Y-122639307D01*
X103326813Y-122573848D01*
X103341664Y-122505575D01*
X103351221Y-122490702D01*
X103380396Y-122451731D01*
X103430691Y-122316883D01*
X103437100Y-122257273D01*
X103437099Y-121602728D01*
X103430691Y-121543117D01*
X103380396Y-121408269D01*
X103351229Y-121369307D01*
X103326813Y-121303848D01*
X103341664Y-121235575D01*
X103351221Y-121220702D01*
X103380396Y-121181731D01*
X103430691Y-121046883D01*
X103437100Y-120987273D01*
X103437100Y-120793900D01*
X103456785Y-120726861D01*
X103509589Y-120681106D01*
X103561100Y-120669900D01*
X108331901Y-120669900D01*
X108398940Y-120689585D01*
X108444695Y-120742389D01*
X108455901Y-120793900D01*
X108455901Y-120987276D01*
X108462308Y-121046883D01*
X108512602Y-121181728D01*
X108512603Y-121181730D01*
X108541768Y-121220690D01*
X108566184Y-121286155D01*
X108551332Y-121354428D01*
X108541768Y-121369310D01*
X108512603Y-121408269D01*
X108512602Y-121408271D01*
X108462310Y-121543113D01*
X108462309Y-121543117D01*
X108455900Y-121602727D01*
X108455900Y-121602734D01*
X108455900Y-121602735D01*
X108455900Y-122257270D01*
X108455901Y-122257276D01*
X108462308Y-122316883D01*
X108512602Y-122451728D01*
X108512606Y-122451735D01*
X108598852Y-122566944D01*
X108598855Y-122566947D01*
X108714064Y-122653193D01*
X108714071Y-122653197D01*
X108848917Y-122703491D01*
X108848916Y-122703491D01*
X108855844Y-122704235D01*
X108908527Y-122709900D01*
X110477472Y-122709899D01*
X110537083Y-122703491D01*
X110565951Y-122692723D01*
X110635641Y-122687738D01*
X110696965Y-122721222D01*
X110727669Y-122772013D01*
X110756522Y-122864606D01*
X110761433Y-122872729D01*
X110844530Y-123010188D01*
X110964811Y-123130469D01*
X110964813Y-123130470D01*
X110964815Y-123130472D01*
X111110394Y-123218478D01*
X111272804Y-123269086D01*
X111343384Y-123275500D01*
X111343387Y-123275500D01*
X111856613Y-123275500D01*
X111856616Y-123275500D01*
X111927196Y-123269086D01*
X112089606Y-123218478D01*
X112235185Y-123130472D01*
X112355472Y-123010185D01*
X112443478Y-122864606D01*
X112494086Y-122702196D01*
X112500500Y-122631616D01*
X112500500Y-121968384D01*
X112494086Y-121897804D01*
X112443478Y-121735394D01*
X112355472Y-121589815D01*
X112355470Y-121589813D01*
X112355469Y-121589811D01*
X112235188Y-121469530D01*
X112089606Y-121381522D01*
X112050422Y-121369312D01*
X111927196Y-121330914D01*
X111927194Y-121330913D01*
X111927192Y-121330913D01*
X111877778Y-121326423D01*
X111856616Y-121324500D01*
X111856613Y-121324500D01*
X111492695Y-121324500D01*
X111445244Y-121315061D01*
X111419744Y-121304499D01*
X111419738Y-121304497D01*
X111294071Y-121279500D01*
X111294069Y-121279500D01*
X111015524Y-121279500D01*
X110948485Y-121259815D01*
X110902730Y-121207011D01*
X110892786Y-121137853D01*
X110899342Y-121112167D01*
X110906011Y-121094283D01*
X110923691Y-121046883D01*
X110930100Y-120987273D01*
X110930099Y-120332728D01*
X110923691Y-120273117D01*
X110873396Y-120138269D01*
X110844229Y-120099307D01*
X110819813Y-120033848D01*
X110834664Y-119965575D01*
X110844221Y-119950702D01*
X110873396Y-119911731D01*
X110923691Y-119776883D01*
X110930100Y-119717273D01*
X110930099Y-119430258D01*
X142449500Y-119430258D01*
X142449500Y-119659741D01*
X142474446Y-119849215D01*
X142479452Y-119887238D01*
X142500442Y-119965575D01*
X142538842Y-120108887D01*
X142626650Y-120320876D01*
X142626657Y-120320890D01*
X142741392Y-120519617D01*
X142881081Y-120701661D01*
X142881089Y-120701670D01*
X143043330Y-120863911D01*
X143043338Y-120863918D01*
X143225382Y-121003607D01*
X143225385Y-121003608D01*
X143225388Y-121003611D01*
X143424112Y-121118344D01*
X143424117Y-121118346D01*
X143424123Y-121118349D01*
X143515480Y-121156190D01*
X143636113Y-121206158D01*
X143857762Y-121265548D01*
X144085266Y-121295500D01*
X144085273Y-121295500D01*
X144314727Y-121295500D01*
X144314734Y-121295500D01*
X144542238Y-121265548D01*
X144763887Y-121206158D01*
X144975888Y-121118344D01*
X145174612Y-121003611D01*
X145356661Y-120863919D01*
X145356665Y-120863914D01*
X145356670Y-120863911D01*
X145518911Y-120701670D01*
X145518914Y-120701665D01*
X145518919Y-120701661D01*
X145658611Y-120519612D01*
X145773344Y-120320888D01*
X145793575Y-120272044D01*
X145837415Y-120217644D01*
X145903709Y-120195579D01*
X145908135Y-120195500D01*
X148554071Y-120195500D01*
X148638615Y-120178682D01*
X148679744Y-120170501D01*
X148798127Y-120121465D01*
X148904669Y-120050277D01*
X150687819Y-118267125D01*
X150749142Y-118233641D01*
X150818833Y-118238625D01*
X150874767Y-118280497D01*
X150899184Y-118345961D01*
X150899500Y-118354807D01*
X150899500Y-118523422D01*
X150930290Y-118717826D01*
X150991117Y-118905029D01*
X151041096Y-119003117D01*
X151080476Y-119080405D01*
X151196172Y-119239646D01*
X151335354Y-119378828D01*
X151494595Y-119494524D01*
X151577455Y-119536743D01*
X151669970Y-119583882D01*
X151669972Y-119583882D01*
X151669975Y-119583884D01*
X151770317Y-119616487D01*
X151857173Y-119644709D01*
X152051578Y-119675500D01*
X152051583Y-119675500D01*
X152248422Y-119675500D01*
X152442826Y-119644709D01*
X152630025Y-119583884D01*
X152805405Y-119494524D01*
X152964646Y-119378828D01*
X153103828Y-119239646D01*
X153219524Y-119080405D01*
X153308884Y-118905025D01*
X153369709Y-118717826D01*
X153377790Y-118666804D01*
X153400500Y-118523422D01*
X153400500Y-118326577D01*
X153369709Y-118132173D01*
X153317959Y-117972905D01*
X153308884Y-117944975D01*
X153308882Y-117944972D01*
X153308882Y-117944970D01*
X153239156Y-117808125D01*
X153219524Y-117769595D01*
X153103828Y-117610354D01*
X152964646Y-117471172D01*
X152885025Y-117413324D01*
X152805403Y-117355474D01*
X152628787Y-117265485D01*
X152577990Y-117217511D01*
X152561195Y-117149690D01*
X152583732Y-117083555D01*
X152628787Y-117044515D01*
X152805403Y-116954525D01*
X152805402Y-116954525D01*
X152805405Y-116954524D01*
X152964646Y-116838828D01*
X153103828Y-116699646D01*
X153219524Y-116540405D01*
X153308884Y-116365025D01*
X153369709Y-116177826D01*
X153375877Y-116138882D01*
X153400500Y-115983422D01*
X153400500Y-115786577D01*
X153369709Y-115592173D01*
X153314076Y-115420955D01*
X153308884Y-115404975D01*
X153308882Y-115404972D01*
X153308882Y-115404970D01*
X153240891Y-115271530D01*
X153219524Y-115229595D01*
X153103828Y-115070354D01*
X152964646Y-114931172D01*
X152805405Y-114815476D01*
X152733650Y-114778915D01*
X152630029Y-114726117D01*
X152442826Y-114665290D01*
X152248422Y-114634500D01*
X152248417Y-114634500D01*
X152051583Y-114634500D01*
X152051578Y-114634500D01*
X151857173Y-114665290D01*
X151669970Y-114726117D01*
X151494594Y-114815476D01*
X151434849Y-114858884D01*
X151335354Y-114931172D01*
X151335352Y-114931174D01*
X151335351Y-114931174D01*
X151196174Y-115070351D01*
X151196174Y-115070352D01*
X151196172Y-115070354D01*
X151146485Y-115138741D01*
X151080476Y-115229594D01*
X150991117Y-115404970D01*
X150930290Y-115592173D01*
X150899500Y-115786577D01*
X150899500Y-115983422D01*
X150921355Y-116121410D01*
X150912400Y-116190704D01*
X150886563Y-116228489D01*
X149330489Y-117784563D01*
X149269166Y-117818048D01*
X149199474Y-117813064D01*
X149143541Y-117771192D01*
X149119124Y-117705728D01*
X149119869Y-117680696D01*
X149125500Y-117637926D01*
X149125500Y-117392079D01*
X149125499Y-117392065D01*
X149120682Y-117355476D01*
X149093409Y-117148323D01*
X149029778Y-116910847D01*
X148935694Y-116683708D01*
X148812767Y-116470792D01*
X148731609Y-116365025D01*
X148663102Y-116275745D01*
X148663096Y-116275738D01*
X148489261Y-116101903D01*
X148489254Y-116101897D01*
X148294212Y-115952236D01*
X148294211Y-115952235D01*
X148294208Y-115952233D01*
X148081292Y-115829306D01*
X148081285Y-115829303D01*
X147854162Y-115735225D01*
X147854155Y-115735223D01*
X147854153Y-115735222D01*
X147616677Y-115671591D01*
X147575939Y-115666227D01*
X147372934Y-115639500D01*
X147372927Y-115639500D01*
X147127073Y-115639500D01*
X147127065Y-115639500D01*
X146895059Y-115670045D01*
X146883323Y-115671591D01*
X146724053Y-115714267D01*
X146645847Y-115735222D01*
X146645837Y-115735225D01*
X146418714Y-115829303D01*
X146418705Y-115829307D01*
X146205787Y-115952236D01*
X146010745Y-116101897D01*
X146010738Y-116101903D01*
X145836903Y-116275738D01*
X145836897Y-116275745D01*
X145687236Y-116470787D01*
X145687233Y-116470791D01*
X145687233Y-116470792D01*
X145670766Y-116499313D01*
X145564307Y-116683705D01*
X145564303Y-116683714D01*
X145470225Y-116910837D01*
X145470222Y-116910847D01*
X145423946Y-117083555D01*
X145406592Y-117148320D01*
X145406590Y-117148331D01*
X145374500Y-117392065D01*
X145374500Y-117392073D01*
X145374500Y-117637927D01*
X145406591Y-117881677D01*
X145419413Y-117929528D01*
X145441136Y-118010603D01*
X145439473Y-118080453D01*
X145400310Y-118138316D01*
X145336081Y-118165819D01*
X145267179Y-118154232D01*
X145245876Y-118141072D01*
X145217311Y-118119153D01*
X145174617Y-118086392D01*
X145164330Y-118080453D01*
X145083000Y-118033497D01*
X144975890Y-117971657D01*
X144975876Y-117971650D01*
X144763887Y-117883842D01*
X144745234Y-117878844D01*
X144542238Y-117824452D01*
X144493596Y-117818048D01*
X144314741Y-117794500D01*
X144314734Y-117794500D01*
X144085266Y-117794500D01*
X144085258Y-117794500D01*
X143868715Y-117823009D01*
X143857762Y-117824452D01*
X143764076Y-117849554D01*
X143636112Y-117883842D01*
X143424123Y-117971650D01*
X143424109Y-117971657D01*
X143225382Y-118086392D01*
X143043338Y-118226081D01*
X142881081Y-118388338D01*
X142741392Y-118570382D01*
X142626657Y-118769109D01*
X142626650Y-118769123D01*
X142538842Y-118981112D01*
X142479453Y-119202759D01*
X142479451Y-119202770D01*
X142449500Y-119430258D01*
X110930099Y-119430258D01*
X110930099Y-119378828D01*
X110930099Y-119062730D01*
X110930098Y-119062723D01*
X110930097Y-119062716D01*
X110923691Y-119003117D01*
X110909498Y-118965064D01*
X110873397Y-118868271D01*
X110873393Y-118868264D01*
X110787147Y-118753055D01*
X110787144Y-118753052D01*
X110671935Y-118666806D01*
X110671928Y-118666802D01*
X110537082Y-118616508D01*
X110537083Y-118616508D01*
X110477483Y-118610101D01*
X110477481Y-118610100D01*
X110477473Y-118610100D01*
X110477464Y-118610100D01*
X108908529Y-118610100D01*
X108908523Y-118610101D01*
X108848916Y-118616508D01*
X108714071Y-118666802D01*
X108714064Y-118666806D01*
X108598855Y-118753052D01*
X108598852Y-118753055D01*
X108512606Y-118868264D01*
X108512602Y-118868271D01*
X108462308Y-119003117D01*
X108455901Y-119062716D01*
X108455901Y-119062723D01*
X108455900Y-119062735D01*
X108455900Y-119244900D01*
X108436215Y-119311939D01*
X108383411Y-119357694D01*
X108331900Y-119368900D01*
X103561099Y-119368900D01*
X103494060Y-119349215D01*
X103448305Y-119296411D01*
X103437099Y-119244900D01*
X103437099Y-119062729D01*
X103437098Y-119062723D01*
X103437097Y-119062716D01*
X103430691Y-119003117D01*
X103416498Y-118965064D01*
X103380397Y-118868271D01*
X103380393Y-118868264D01*
X103294147Y-118753055D01*
X103294144Y-118753052D01*
X103178935Y-118666806D01*
X103178928Y-118666802D01*
X103044082Y-118616508D01*
X103044083Y-118616508D01*
X102984483Y-118610101D01*
X102984481Y-118610100D01*
X102984473Y-118610100D01*
X102984465Y-118610100D01*
X102886383Y-118610100D01*
X102819344Y-118590415D01*
X102798702Y-118573781D01*
X102712139Y-118487218D01*
X102572782Y-118347861D01*
X102572781Y-118347860D01*
X102572780Y-118347859D01*
X102408920Y-118238371D01*
X102408907Y-118238364D01*
X102274551Y-118182713D01*
X102274548Y-118182712D01*
X102266018Y-118179179D01*
X102226836Y-118162949D01*
X102072120Y-118132174D01*
X102069232Y-118131599D01*
X102069226Y-118131598D01*
X102033542Y-118124500D01*
X102033541Y-118124500D01*
X101402730Y-118124500D01*
X101335691Y-118104815D01*
X101289936Y-118052011D01*
X101279992Y-117982853D01*
X101281111Y-117976319D01*
X101283513Y-117964238D01*
X101302029Y-117919529D01*
X101305274Y-117914671D01*
X101305277Y-117914669D01*
X101376465Y-117808127D01*
X101425501Y-117689744D01*
X101435808Y-117637927D01*
X101443154Y-117600998D01*
X101450500Y-117564070D01*
X101450500Y-110696153D01*
X113099500Y-110696153D01*
X113099500Y-110853846D01*
X113130261Y-111008489D01*
X113130264Y-111008501D01*
X113190602Y-111154172D01*
X113190609Y-111154185D01*
X113278210Y-111285288D01*
X113278213Y-111285292D01*
X113389707Y-111396786D01*
X113389711Y-111396789D01*
X113520814Y-111484390D01*
X113520827Y-111484397D01*
X113565846Y-111503044D01*
X113666503Y-111544737D01*
X113821153Y-111575499D01*
X113821156Y-111575500D01*
X113821158Y-111575500D01*
X113978844Y-111575500D01*
X113978845Y-111575499D01*
X114133497Y-111544737D01*
X114274882Y-111486174D01*
X114279172Y-111484397D01*
X114279172Y-111484396D01*
X114279179Y-111484394D01*
X114410289Y-111396789D01*
X114448384Y-111358694D01*
X114512319Y-111294760D01*
X114573642Y-111261275D01*
X114643334Y-111266259D01*
X114687681Y-111294760D01*
X114789707Y-111396786D01*
X114789711Y-111396789D01*
X114920814Y-111484390D01*
X114920827Y-111484397D01*
X114965846Y-111503044D01*
X115066503Y-111544737D01*
X115221153Y-111575499D01*
X115221156Y-111575500D01*
X115221158Y-111575500D01*
X115378844Y-111575500D01*
X115378845Y-111575499D01*
X115533497Y-111544737D01*
X115674882Y-111486174D01*
X115679172Y-111484397D01*
X115679172Y-111484396D01*
X115679179Y-111484394D01*
X115810289Y-111396789D01*
X115921789Y-111285289D01*
X116009394Y-111154179D01*
X116069737Y-111008497D01*
X116100500Y-110853842D01*
X116100500Y-110696158D01*
X116100500Y-110696155D01*
X116100499Y-110696153D01*
X116072502Y-110555405D01*
X116069737Y-110541503D01*
X116058792Y-110515080D01*
X116009397Y-110395827D01*
X116009390Y-110395814D01*
X115921789Y-110264711D01*
X115921786Y-110264707D01*
X115810292Y-110153213D01*
X115810288Y-110153210D01*
X115679185Y-110065609D01*
X115679172Y-110065602D01*
X115533501Y-110005264D01*
X115533489Y-110005261D01*
X115378845Y-109974500D01*
X115378842Y-109974500D01*
X115221158Y-109974500D01*
X115221155Y-109974500D01*
X115066510Y-110005261D01*
X115066498Y-110005264D01*
X114920827Y-110065602D01*
X114920814Y-110065609D01*
X114789711Y-110153210D01*
X114789707Y-110153213D01*
X114687681Y-110255240D01*
X114626358Y-110288725D01*
X114556666Y-110283741D01*
X114512319Y-110255240D01*
X114410292Y-110153213D01*
X114410288Y-110153210D01*
X114279185Y-110065609D01*
X114279172Y-110065602D01*
X114133501Y-110005264D01*
X114133489Y-110005261D01*
X113978845Y-109974500D01*
X113978842Y-109974500D01*
X113821158Y-109974500D01*
X113821155Y-109974500D01*
X113666510Y-110005261D01*
X113666498Y-110005264D01*
X113520827Y-110065602D01*
X113520814Y-110065609D01*
X113389711Y-110153210D01*
X113389707Y-110153213D01*
X113278213Y-110264707D01*
X113278210Y-110264711D01*
X113190609Y-110395814D01*
X113190602Y-110395827D01*
X113130264Y-110541498D01*
X113130261Y-110541510D01*
X113099500Y-110696153D01*
X101450500Y-110696153D01*
X101450500Y-109910928D01*
X101425502Y-109785261D01*
X101425501Y-109785260D01*
X101425501Y-109785256D01*
X101376465Y-109666873D01*
X101363817Y-109647944D01*
X101352555Y-109631088D01*
X101305275Y-109560328D01*
X100625297Y-108880350D01*
X100540765Y-108795818D01*
X117487000Y-108795818D01*
X117487000Y-109404181D01*
X117497063Y-109502683D01*
X117549950Y-109662284D01*
X117549955Y-109662295D01*
X117638216Y-109805387D01*
X117638219Y-109805391D01*
X117757108Y-109924280D01*
X117757112Y-109924283D01*
X117900204Y-110012544D01*
X117900207Y-110012545D01*
X117900213Y-110012549D01*
X118059815Y-110065436D01*
X118158326Y-110075500D01*
X118158331Y-110075500D01*
X118691669Y-110075500D01*
X118691674Y-110075500D01*
X118790185Y-110065436D01*
X118949787Y-110012549D01*
X119092891Y-109924281D01*
X119124819Y-109892352D01*
X119186139Y-109858868D01*
X119255831Y-109863852D01*
X119300180Y-109892353D01*
X119313181Y-109905354D01*
X119346666Y-109966677D01*
X119349500Y-109993035D01*
X119349500Y-110023126D01*
X119329815Y-110090165D01*
X119313181Y-110110807D01*
X119277032Y-110146955D01*
X119277029Y-110146959D01*
X119188001Y-110291294D01*
X119187996Y-110291305D01*
X119134651Y-110452290D01*
X119124500Y-110551647D01*
X119124500Y-111098337D01*
X119124501Y-111098355D01*
X119134650Y-111197707D01*
X119134651Y-111197710D01*
X119187996Y-111358694D01*
X119188001Y-111358705D01*
X119277029Y-111503040D01*
X119277032Y-111503044D01*
X119396955Y-111622967D01*
X119396959Y-111622970D01*
X119541294Y-111711998D01*
X119541297Y-111711999D01*
X119541303Y-111712003D01*
X119702292Y-111765349D01*
X119801655Y-111775500D01*
X120398344Y-111775499D01*
X120398352Y-111775498D01*
X120398355Y-111775498D01*
X120452760Y-111769940D01*
X120497708Y-111765349D01*
X120658697Y-111712003D01*
X120803044Y-111622968D01*
X120922968Y-111503044D01*
X121012003Y-111358697D01*
X121065349Y-111197708D01*
X121075500Y-111098345D01*
X121075499Y-110551656D01*
X121074461Y-110541498D01*
X121065349Y-110452292D01*
X121065348Y-110452289D01*
X121058939Y-110432948D01*
X121012003Y-110291303D01*
X121011999Y-110291297D01*
X121011998Y-110291294D01*
X120922970Y-110146959D01*
X120922967Y-110146955D01*
X120803043Y-110027031D01*
X120789375Y-110018601D01*
X120742650Y-109966654D01*
X120731427Y-109897691D01*
X120759270Y-109833609D01*
X120766781Y-109825390D01*
X120786781Y-109805391D01*
X120875049Y-109662287D01*
X120927936Y-109502685D01*
X120938000Y-109404174D01*
X120938000Y-108795826D01*
X120927936Y-108697315D01*
X120875049Y-108537713D01*
X120875045Y-108537707D01*
X120875044Y-108537704D01*
X120786783Y-108394612D01*
X120786780Y-108394608D01*
X120686819Y-108294647D01*
X120653334Y-108233324D01*
X120650500Y-108206966D01*
X120650500Y-107135928D01*
X120625502Y-107010261D01*
X120625501Y-107010260D01*
X120625501Y-107010256D01*
X120576465Y-106891873D01*
X120566170Y-106876465D01*
X120566016Y-106876235D01*
X120505279Y-106785334D01*
X120505278Y-106785332D01*
X120481118Y-106761172D01*
X120417012Y-106697066D01*
X120383529Y-106635746D01*
X120383106Y-106633715D01*
X120369737Y-106566503D01*
X120332359Y-106476263D01*
X120309397Y-106420827D01*
X120309390Y-106420814D01*
X120221789Y-106289711D01*
X120221786Y-106289707D01*
X120110292Y-106178213D01*
X120110288Y-106178210D01*
X119979185Y-106090609D01*
X119979172Y-106090602D01*
X119833501Y-106030264D01*
X119833489Y-106030261D01*
X119678845Y-105999500D01*
X119678842Y-105999500D01*
X119521158Y-105999500D01*
X119521155Y-105999500D01*
X119366510Y-106030261D01*
X119366498Y-106030264D01*
X119220827Y-106090602D01*
X119220814Y-106090609D01*
X119089711Y-106178210D01*
X119089707Y-106178213D01*
X118978213Y-106289707D01*
X118978210Y-106289711D01*
X118890609Y-106420814D01*
X118890602Y-106420827D01*
X118830264Y-106566498D01*
X118830261Y-106566510D01*
X118799500Y-106721153D01*
X118799500Y-106878846D01*
X118830261Y-107033489D01*
X118830264Y-107033501D01*
X118890602Y-107179172D01*
X118890609Y-107179185D01*
X118978210Y-107310288D01*
X118978213Y-107310292D01*
X119089707Y-107421786D01*
X119089711Y-107421789D01*
X119220817Y-107509392D01*
X119220819Y-107509392D01*
X119220821Y-107509394D01*
X119272952Y-107530987D01*
X119327356Y-107574827D01*
X119349421Y-107641121D01*
X119349500Y-107645548D01*
X119349500Y-108206966D01*
X119329815Y-108274005D01*
X119313181Y-108294647D01*
X119300181Y-108307647D01*
X119238858Y-108341132D01*
X119169166Y-108336148D01*
X119124819Y-108307647D01*
X119092891Y-108275719D01*
X119092887Y-108275716D01*
X118949795Y-108187455D01*
X118949789Y-108187452D01*
X118949787Y-108187451D01*
X118790185Y-108134564D01*
X118790183Y-108134563D01*
X118691681Y-108124500D01*
X118691674Y-108124500D01*
X118158326Y-108124500D01*
X118158318Y-108124500D01*
X118059816Y-108134563D01*
X118059815Y-108134564D01*
X117980719Y-108160773D01*
X117900215Y-108187450D01*
X117900204Y-108187455D01*
X117757112Y-108275716D01*
X117757108Y-108275719D01*
X117638219Y-108394608D01*
X117638216Y-108394612D01*
X117549955Y-108537704D01*
X117549950Y-108537715D01*
X117536035Y-108579709D01*
X117497064Y-108697315D01*
X117497064Y-108697316D01*
X117497063Y-108697316D01*
X117487000Y-108795818D01*
X100540765Y-108795818D01*
X98666932Y-106921986D01*
X98633447Y-106860663D01*
X98632140Y-106814906D01*
X98654500Y-106673735D01*
X98654500Y-106476263D01*
X98623610Y-106281236D01*
X98603270Y-106218637D01*
X98562591Y-106093439D01*
X98472944Y-105917499D01*
X98447844Y-105882951D01*
X98356884Y-105757753D01*
X98217246Y-105618115D01*
X98057504Y-105502058D01*
X98057503Y-105502057D01*
X98057501Y-105502056D01*
X97881561Y-105412409D01*
X97881558Y-105412408D01*
X97693763Y-105351389D01*
X97498736Y-105320500D01*
X97498731Y-105320500D01*
X97301269Y-105320500D01*
X97301264Y-105320500D01*
X97106236Y-105351389D01*
X96918441Y-105412408D01*
X96742495Y-105502058D01*
X96582753Y-105618115D01*
X96443115Y-105757753D01*
X96327058Y-105917495D01*
X96237408Y-106093441D01*
X96176389Y-106281236D01*
X96145500Y-106476263D01*
X96145500Y-106673736D01*
X96176389Y-106868763D01*
X96222365Y-107010261D01*
X96237409Y-107056561D01*
X96300456Y-107180296D01*
X96327058Y-107232504D01*
X96443115Y-107392246D01*
X96538188Y-107487319D01*
X96571673Y-107548642D01*
X96566689Y-107618334D01*
X96538188Y-107662681D01*
X96443119Y-107757749D01*
X96443115Y-107757753D01*
X96327058Y-107917495D01*
X96237408Y-108093441D01*
X96176389Y-108281236D01*
X96145500Y-108476263D01*
X96145500Y-108673736D01*
X96176389Y-108868763D01*
X96237408Y-109056558D01*
X96237409Y-109056561D01*
X96327056Y-109232501D01*
X96327058Y-109232504D01*
X96443115Y-109392246D01*
X96582751Y-109531882D01*
X96671253Y-109596181D01*
X96713920Y-109651511D01*
X96719899Y-109721124D01*
X96687294Y-109782919D01*
X96626456Y-109817277D01*
X96601426Y-109820152D01*
X96601436Y-109820324D01*
X96598626Y-109820474D01*
X96598404Y-109820500D01*
X96598147Y-109820500D01*
X96598123Y-109820501D01*
X96538516Y-109826908D01*
X96403671Y-109877202D01*
X96403664Y-109877206D01*
X96348811Y-109918270D01*
X96283347Y-109942688D01*
X96215074Y-109927837D01*
X96165668Y-109878432D01*
X96150500Y-109819004D01*
X96150500Y-109776079D01*
X96121659Y-109631092D01*
X96121658Y-109631088D01*
X96121658Y-109631087D01*
X96111751Y-109607169D01*
X96065087Y-109494511D01*
X96065080Y-109494498D01*
X95982951Y-109371584D01*
X95982948Y-109371580D01*
X95878419Y-109267051D01*
X95878415Y-109267048D01*
X95755501Y-109184919D01*
X95755488Y-109184912D01*
X95618917Y-109128343D01*
X95618907Y-109128340D01*
X95473920Y-109099500D01*
X95473918Y-109099500D01*
X95326082Y-109099500D01*
X95326080Y-109099500D01*
X95181092Y-109128340D01*
X95181082Y-109128343D01*
X95044511Y-109184912D01*
X95044498Y-109184919D01*
X94921584Y-109267048D01*
X94921580Y-109267051D01*
X94817051Y-109371580D01*
X94817048Y-109371584D01*
X94734919Y-109494498D01*
X94734912Y-109494511D01*
X94678343Y-109631082D01*
X94678340Y-109631092D01*
X94649500Y-109776079D01*
X94649500Y-109776082D01*
X94649500Y-109923918D01*
X94649500Y-109923920D01*
X94649499Y-109923920D01*
X94678340Y-110068907D01*
X94678343Y-110068917D01*
X94734912Y-110205488D01*
X94734919Y-110205501D01*
X94817048Y-110328415D01*
X94817051Y-110328419D01*
X94921580Y-110432948D01*
X94921584Y-110432951D01*
X95044498Y-110515080D01*
X95044511Y-110515087D01*
X95181082Y-110571656D01*
X95181087Y-110571658D01*
X95181091Y-110571658D01*
X95181092Y-110571659D01*
X95326079Y-110600500D01*
X95326082Y-110600500D01*
X95473920Y-110600500D01*
X95571462Y-110581096D01*
X95618913Y-110571658D01*
X95755495Y-110515084D01*
X95878416Y-110432951D01*
X95933820Y-110377546D01*
X95995141Y-110344063D01*
X96064833Y-110349047D01*
X96120766Y-110390918D01*
X96145184Y-110456382D01*
X96145500Y-110465229D01*
X96145500Y-111876870D01*
X96145501Y-111876876D01*
X96151908Y-111936483D01*
X96202202Y-112071328D01*
X96202206Y-112071335D01*
X96288452Y-112186544D01*
X96288455Y-112186547D01*
X96403664Y-112272793D01*
X96403671Y-112272797D01*
X96538517Y-112323091D01*
X96538516Y-112323091D01*
X96545444Y-112323835D01*
X96598127Y-112329500D01*
X97134192Y-112329499D01*
X97201230Y-112349183D01*
X97246985Y-112401987D01*
X97256929Y-112471146D01*
X97227904Y-112534702D01*
X97221872Y-112541180D01*
X96752724Y-113010328D01*
X96695880Y-113095401D01*
X96695881Y-113095402D01*
X96681534Y-113116874D01*
X96632499Y-113235255D01*
X96632497Y-113235261D01*
X96607500Y-113360928D01*
X96607500Y-122452485D01*
X96618238Y-122506464D01*
X96618238Y-122506467D01*
X96632497Y-122578152D01*
X96632499Y-122578160D01*
X96673965Y-122678269D01*
X96681535Y-122696543D01*
X96690459Y-122709899D01*
X96752726Y-122803089D01*
X102037636Y-128087999D01*
X102071121Y-128149322D01*
X102066137Y-128219014D01*
X102024265Y-128274947D01*
X101958801Y-128299364D01*
X101949952Y-128299680D01*
X95072468Y-128299503D01*
X95072466Y-128299503D01*
X95065904Y-128299502D01*
X95065892Y-128299500D01*
X95003746Y-128299500D01*
X95003745Y-128299499D01*
X94996264Y-128299274D01*
X94706205Y-128281728D01*
X94691340Y-128279923D01*
X94409202Y-128228219D01*
X94394664Y-128224635D01*
X94120825Y-128139304D01*
X94106827Y-128133995D01*
X93911439Y-128046058D01*
X93845269Y-128016277D01*
X93832012Y-128009319D01*
X93586541Y-127860928D01*
X93574217Y-127852422D01*
X93539773Y-127825437D01*
X93348426Y-127675525D01*
X93337218Y-127665595D01*
X93134404Y-127462781D01*
X93124474Y-127451573D01*
X93022707Y-127321678D01*
X92947573Y-127225776D01*
X92939071Y-127213458D01*
X92790680Y-126967987D01*
X92783722Y-126954730D01*
X92765810Y-126914931D01*
X92666000Y-126693163D01*
X92660698Y-126679182D01*
X92575363Y-126405334D01*
X92571780Y-126390797D01*
X92520076Y-126108659D01*
X92518271Y-126093794D01*
X92514214Y-126026720D01*
X92500732Y-125803855D01*
X92500507Y-125796143D01*
X92501488Y-125281902D01*
X93899500Y-125281902D01*
X93899500Y-125518097D01*
X93936446Y-125751368D01*
X94009433Y-125975996D01*
X94077029Y-126108659D01*
X94116657Y-126186433D01*
X94255483Y-126377510D01*
X94422490Y-126544517D01*
X94613567Y-126683343D01*
X94712991Y-126734002D01*
X94824003Y-126790566D01*
X94824005Y-126790566D01*
X94824008Y-126790568D01*
X94921001Y-126822083D01*
X95048631Y-126863553D01*
X95281903Y-126900500D01*
X95281908Y-126900500D01*
X95518097Y-126900500D01*
X95751368Y-126863553D01*
X95975992Y-126790568D01*
X96186433Y-126683343D01*
X96377510Y-126544517D01*
X96544517Y-126377510D01*
X96683343Y-126186433D01*
X96790568Y-125975992D01*
X96863553Y-125751368D01*
X96872240Y-125696519D01*
X96900500Y-125518097D01*
X96900500Y-125281902D01*
X96863553Y-125048631D01*
X96812619Y-124891873D01*
X96790568Y-124824008D01*
X96790566Y-124824005D01*
X96790566Y-124824003D01*
X96683342Y-124613566D01*
X96544517Y-124422490D01*
X96377510Y-124255483D01*
X96186433Y-124116657D01*
X95975996Y-124009433D01*
X95751368Y-123936446D01*
X95518097Y-123899500D01*
X95518092Y-123899500D01*
X95281908Y-123899500D01*
X95281903Y-123899500D01*
X95048631Y-123936446D01*
X94824003Y-124009433D01*
X94613566Y-124116657D01*
X94504550Y-124195862D01*
X94422490Y-124255483D01*
X94422488Y-124255485D01*
X94422487Y-124255485D01*
X94255485Y-124422487D01*
X94255485Y-124422488D01*
X94255483Y-124422490D01*
X94195862Y-124504550D01*
X94116657Y-124613566D01*
X94009433Y-124824003D01*
X93936446Y-125048631D01*
X93899500Y-125281902D01*
X92501488Y-125281902D01*
X92539481Y-105373920D01*
X94649499Y-105373920D01*
X94678340Y-105518907D01*
X94678343Y-105518917D01*
X94734912Y-105655488D01*
X94734919Y-105655501D01*
X94817048Y-105778415D01*
X94817051Y-105778419D01*
X94921580Y-105882948D01*
X94921584Y-105882951D01*
X95044498Y-105965080D01*
X95044511Y-105965087D01*
X95181082Y-106021656D01*
X95181087Y-106021658D01*
X95181091Y-106021658D01*
X95181092Y-106021659D01*
X95326079Y-106050500D01*
X95326082Y-106050500D01*
X95473920Y-106050500D01*
X95575664Y-106030261D01*
X95618913Y-106021658D01*
X95755495Y-105965084D01*
X95878416Y-105882951D01*
X95982951Y-105778416D01*
X96065084Y-105655495D01*
X96121658Y-105518913D01*
X96138602Y-105433733D01*
X96150500Y-105373920D01*
X96150500Y-105226079D01*
X96121659Y-105081092D01*
X96121658Y-105081091D01*
X96121658Y-105081087D01*
X96119790Y-105076577D01*
X96065087Y-104944511D01*
X96065080Y-104944498D01*
X95982951Y-104821584D01*
X95982948Y-104821580D01*
X95878419Y-104717051D01*
X95878415Y-104717048D01*
X95755501Y-104634919D01*
X95755488Y-104634912D01*
X95618917Y-104578343D01*
X95618907Y-104578340D01*
X95473920Y-104549500D01*
X95473918Y-104549500D01*
X95326082Y-104549500D01*
X95326080Y-104549500D01*
X95181092Y-104578340D01*
X95181082Y-104578343D01*
X95044511Y-104634912D01*
X95044498Y-104634919D01*
X94921584Y-104717048D01*
X94921580Y-104717051D01*
X94817051Y-104821580D01*
X94817048Y-104821584D01*
X94734919Y-104944498D01*
X94734912Y-104944511D01*
X94678343Y-105081082D01*
X94678340Y-105081092D01*
X94649500Y-105226079D01*
X94649500Y-105226082D01*
X94649500Y-105373918D01*
X94649500Y-105373920D01*
X94649499Y-105373920D01*
X92539481Y-105373920D01*
X92553614Y-97968386D01*
X98074500Y-97968386D01*
X98074500Y-98631613D01*
X98080913Y-98702192D01*
X98080913Y-98702194D01*
X98080914Y-98702196D01*
X98131522Y-98864606D01*
X98199143Y-98976465D01*
X98219530Y-99010188D01*
X98339810Y-99130468D01*
X98339814Y-99130471D01*
X98339815Y-99130472D01*
X98343466Y-99132679D01*
X98362623Y-99144260D01*
X98409810Y-99195788D01*
X98421648Y-99264647D01*
X98404589Y-99314525D01*
X98331523Y-99435391D01*
X98280913Y-99597807D01*
X98274500Y-99668386D01*
X98274500Y-100331613D01*
X98280913Y-100402192D01*
X98280913Y-100402194D01*
X98280914Y-100402196D01*
X98331522Y-100564606D01*
X98403394Y-100683497D01*
X98419530Y-100710188D01*
X98539811Y-100830469D01*
X98539813Y-100830470D01*
X98539815Y-100830472D01*
X98639651Y-100890825D01*
X98686838Y-100942352D01*
X98699500Y-100996941D01*
X98699500Y-101078846D01*
X98730261Y-101233489D01*
X98730264Y-101233501D01*
X98790602Y-101379172D01*
X98790609Y-101379185D01*
X98878210Y-101510288D01*
X98878213Y-101510292D01*
X98989707Y-101621786D01*
X98989711Y-101621789D01*
X99120814Y-101709390D01*
X99120827Y-101709397D01*
X99266498Y-101769735D01*
X99266503Y-101769737D01*
X99421153Y-101800499D01*
X99421156Y-101800500D01*
X99421158Y-101800500D01*
X99578844Y-101800500D01*
X99578845Y-101800499D01*
X99733497Y-101769737D01*
X99877098Y-101710256D01*
X99879172Y-101709397D01*
X99879172Y-101709396D01*
X99879179Y-101709394D01*
X100010289Y-101621789D01*
X100121789Y-101510289D01*
X100209394Y-101379179D01*
X100215034Y-101365564D01*
X100262694Y-101250500D01*
X100269737Y-101233497D01*
X100281557Y-101174072D01*
X100313941Y-101112163D01*
X100374657Y-101077589D01*
X100444426Y-101081328D01*
X100481830Y-101102405D01*
X100485321Y-101105270D01*
X100485330Y-101105276D01*
X100485331Y-101105277D01*
X100591873Y-101176465D01*
X100710256Y-101225501D01*
X100835926Y-101250498D01*
X100835930Y-101250499D01*
X100835931Y-101250499D01*
X100872130Y-101250499D01*
X100872150Y-101250500D01*
X100878264Y-101250500D01*
X101035950Y-101250500D01*
X101035951Y-101250499D01*
X101190603Y-101219737D01*
X101336285Y-101159394D01*
X101467395Y-101071789D01*
X101578895Y-100960289D01*
X101666500Y-100829179D01*
X101726843Y-100683497D01*
X101757606Y-100528842D01*
X101757606Y-100371158D01*
X101757606Y-100371155D01*
X101727883Y-100221731D01*
X101725500Y-100197539D01*
X101725500Y-99668386D01*
X101719086Y-99597807D01*
X101719086Y-99597804D01*
X101668478Y-99435394D01*
X101580472Y-99289815D01*
X101580470Y-99289813D01*
X101580469Y-99289811D01*
X101460188Y-99169530D01*
X101460185Y-99169528D01*
X101437374Y-99155738D01*
X101390189Y-99104210D01*
X101378351Y-99035351D01*
X101395408Y-98985476D01*
X101468478Y-98864606D01*
X101519086Y-98702196D01*
X101525500Y-98631616D01*
X101525500Y-97968384D01*
X101519086Y-97897804D01*
X101468478Y-97735394D01*
X101468476Y-97735391D01*
X101466246Y-97728233D01*
X101469200Y-97727312D01*
X101461571Y-97672076D01*
X101481105Y-97621515D01*
X101509394Y-97579179D01*
X101569737Y-97433497D01*
X101600500Y-97278842D01*
X101600500Y-97121158D01*
X101600500Y-97121155D01*
X101600499Y-97121153D01*
X101595975Y-97098409D01*
X101569737Y-96966503D01*
X101559902Y-96942759D01*
X101509397Y-96820827D01*
X101509390Y-96820814D01*
X101421789Y-96689711D01*
X101421786Y-96689707D01*
X101310292Y-96578213D01*
X101310288Y-96578210D01*
X101179185Y-96490609D01*
X101179172Y-96490602D01*
X101033501Y-96430264D01*
X101033489Y-96430261D01*
X100878845Y-96399500D01*
X100878842Y-96399500D01*
X100721158Y-96399500D01*
X100721155Y-96399500D01*
X100566510Y-96430261D01*
X100566498Y-96430264D01*
X100420827Y-96490602D01*
X100420814Y-96490609D01*
X100289711Y-96578210D01*
X100289707Y-96578213D01*
X100178213Y-96689707D01*
X100178210Y-96689711D01*
X100090609Y-96820814D01*
X100090602Y-96820827D01*
X100030264Y-96966498D01*
X100030261Y-96966510D01*
X99999500Y-97121153D01*
X99999500Y-97173035D01*
X99997117Y-97197227D01*
X99974500Y-97310928D01*
X99974500Y-97433480D01*
X99954815Y-97500519D01*
X99938181Y-97521161D01*
X99887681Y-97571661D01*
X99826358Y-97605146D01*
X99756666Y-97600162D01*
X99712319Y-97571661D01*
X99610188Y-97469530D01*
X99550569Y-97433489D01*
X99464606Y-97381522D01*
X99302196Y-97330914D01*
X99302194Y-97330913D01*
X99302192Y-97330913D01*
X99252778Y-97326423D01*
X99231616Y-97324500D01*
X98718384Y-97324500D01*
X98699145Y-97326248D01*
X98647807Y-97330913D01*
X98485393Y-97381522D01*
X98339811Y-97469530D01*
X98219530Y-97589811D01*
X98131522Y-97735393D01*
X98080913Y-97897807D01*
X98074500Y-97968386D01*
X92553614Y-97968386D01*
X92569217Y-89792135D01*
X93349500Y-89792135D01*
X93349500Y-91587870D01*
X93349501Y-91587876D01*
X93355908Y-91647483D01*
X93406202Y-91782328D01*
X93406206Y-91782335D01*
X93492452Y-91897544D01*
X93492455Y-91897547D01*
X93607664Y-91983793D01*
X93607671Y-91983797D01*
X93739082Y-92032810D01*
X93795016Y-92074681D01*
X93819433Y-92140145D01*
X93804582Y-92208418D01*
X93783431Y-92236673D01*
X93669889Y-92350215D01*
X93544951Y-92522179D01*
X93448444Y-92711585D01*
X93382753Y-92913760D01*
X93349500Y-93123712D01*
X93349500Y-93336286D01*
X93380917Y-93534648D01*
X93382754Y-93546243D01*
X93444813Y-93737241D01*
X93448444Y-93748414D01*
X93544951Y-93937820D01*
X93669890Y-94109786D01*
X93820213Y-94260109D01*
X93992182Y-94385050D01*
X94000946Y-94389516D01*
X94051742Y-94437491D01*
X94068536Y-94505312D01*
X94045998Y-94571447D01*
X94000946Y-94610484D01*
X93992182Y-94614949D01*
X93820213Y-94739890D01*
X93669890Y-94890213D01*
X93544951Y-95062179D01*
X93448444Y-95251585D01*
X93382753Y-95453760D01*
X93355815Y-95623842D01*
X93349500Y-95663713D01*
X93349500Y-95876287D01*
X93355579Y-95914669D01*
X93371352Y-96014258D01*
X93382754Y-96086243D01*
X93440323Y-96263422D01*
X93448444Y-96288414D01*
X93544951Y-96477820D01*
X93669890Y-96649786D01*
X93820213Y-96800109D01*
X93992179Y-96925048D01*
X93992181Y-96925049D01*
X93992184Y-96925051D01*
X94181588Y-97021557D01*
X94383757Y-97087246D01*
X94593713Y-97120500D01*
X94593714Y-97120500D01*
X94806286Y-97120500D01*
X94806287Y-97120500D01*
X95016243Y-97087246D01*
X95218412Y-97021557D01*
X95407816Y-96925051D01*
X95493586Y-96862736D01*
X95579786Y-96800109D01*
X95579788Y-96800106D01*
X95579792Y-96800104D01*
X95730104Y-96649792D01*
X95730106Y-96649788D01*
X95730109Y-96649786D01*
X95855048Y-96477820D01*
X95855047Y-96477820D01*
X95855051Y-96477816D01*
X95951557Y-96288412D01*
X96017246Y-96086243D01*
X96050500Y-95876287D01*
X96050500Y-95663713D01*
X96017246Y-95453757D01*
X95951557Y-95251588D01*
X95855051Y-95062184D01*
X95855049Y-95062181D01*
X95855048Y-95062179D01*
X95730109Y-94890213D01*
X95579786Y-94739890D01*
X95407820Y-94614951D01*
X95407115Y-94614591D01*
X95399054Y-94610485D01*
X95348259Y-94562512D01*
X95331463Y-94494692D01*
X95353999Y-94428556D01*
X95399054Y-94389515D01*
X95407816Y-94385051D01*
X95545070Y-94285331D01*
X95579786Y-94260109D01*
X95579788Y-94260106D01*
X95579792Y-94260104D01*
X95730104Y-94109792D01*
X95730106Y-94109788D01*
X95730109Y-94109786D01*
X95855048Y-93937820D01*
X95855047Y-93937820D01*
X95855051Y-93937816D01*
X95951557Y-93748412D01*
X96017246Y-93546243D01*
X96050500Y-93336287D01*
X96050500Y-93123713D01*
X96017246Y-92913757D01*
X95951557Y-92711588D01*
X95855051Y-92522184D01*
X95855049Y-92522181D01*
X95855048Y-92522179D01*
X95730109Y-92350213D01*
X95616569Y-92236673D01*
X95583084Y-92175350D01*
X95588068Y-92105658D01*
X95629940Y-92049725D01*
X95660915Y-92032810D01*
X95792331Y-91983796D01*
X95907546Y-91897546D01*
X95993796Y-91782331D01*
X96044091Y-91647483D01*
X96048875Y-91602989D01*
X96050499Y-91587886D01*
X96050499Y-91587882D01*
X96050500Y-91587873D01*
X96050499Y-91555165D01*
X96070182Y-91488128D01*
X96086817Y-91467484D01*
X96087157Y-91467143D01*
X96087164Y-91467139D01*
X96226521Y-91327782D01*
X96226523Y-91327778D01*
X101537778Y-86016523D01*
X101537782Y-86016521D01*
X101677139Y-85877164D01*
X101786632Y-85713296D01*
X101790237Y-85704594D01*
X101826499Y-85617048D01*
X101870339Y-85562644D01*
X101936633Y-85540579D01*
X101941060Y-85540500D01*
X102547844Y-85540500D01*
X102614883Y-85560185D01*
X102660638Y-85612989D01*
X102670959Y-85679282D01*
X102664500Y-85733073D01*
X102664500Y-85733078D01*
X102664500Y-85733079D01*
X102664500Y-86026920D01*
X102675102Y-86115217D01*
X102675102Y-86144782D01*
X102671088Y-86178211D01*
X102664500Y-86233073D01*
X102664500Y-86233077D01*
X102664500Y-86233078D01*
X102664500Y-86526920D01*
X102675102Y-86615217D01*
X102675102Y-86644782D01*
X102671509Y-86674709D01*
X102664500Y-86733073D01*
X102664500Y-86733077D01*
X102664500Y-86733078D01*
X102664500Y-87026920D01*
X102675102Y-87115217D01*
X102675102Y-87144782D01*
X102671516Y-87174647D01*
X102664500Y-87233073D01*
X102664500Y-87233077D01*
X102664500Y-87233078D01*
X102664500Y-87526920D01*
X102675102Y-87615217D01*
X102675102Y-87644782D01*
X102670325Y-87684565D01*
X102664500Y-87733073D01*
X102664500Y-87733077D01*
X102664500Y-87733078D01*
X102664500Y-88026922D01*
X102671092Y-88081821D01*
X102659539Y-88150729D01*
X102612565Y-88202452D01*
X102545085Y-88220568D01*
X102478523Y-88199326D01*
X102460295Y-88184283D01*
X102453044Y-88177032D01*
X102453040Y-88177029D01*
X102308705Y-88088001D01*
X102308699Y-88087998D01*
X102308697Y-88087997D01*
X102290059Y-88081821D01*
X102147709Y-88034651D01*
X102048346Y-88024500D01*
X101501662Y-88024500D01*
X101501644Y-88024501D01*
X101402292Y-88034650D01*
X101402289Y-88034651D01*
X101241305Y-88087996D01*
X101241294Y-88088001D01*
X101096959Y-88177029D01*
X101096955Y-88177032D01*
X100977032Y-88296955D01*
X100977029Y-88296959D01*
X100888001Y-88441294D01*
X100887996Y-88441305D01*
X100834651Y-88602290D01*
X100824500Y-88701647D01*
X100824500Y-89298337D01*
X100824501Y-89298355D01*
X100834650Y-89397707D01*
X100834651Y-89397710D01*
X100887996Y-89558694D01*
X100888001Y-89558705D01*
X100977029Y-89703040D01*
X100977032Y-89703044D01*
X101096955Y-89822967D01*
X101096959Y-89822970D01*
X101241294Y-89911998D01*
X101241297Y-89911999D01*
X101241303Y-89912003D01*
X101402292Y-89965349D01*
X101501655Y-89975500D01*
X102048344Y-89975499D01*
X102048352Y-89975498D01*
X102048355Y-89975498D01*
X102106846Y-89969523D01*
X102147708Y-89965349D01*
X102308697Y-89912003D01*
X102453044Y-89822968D01*
X102453049Y-89822962D01*
X102458707Y-89818490D01*
X102459529Y-89819530D01*
X102514129Y-89789709D01*
X102583822Y-89794687D01*
X102639760Y-89836552D01*
X102664183Y-89902014D01*
X102664500Y-89910872D01*
X102664500Y-90026920D01*
X102672161Y-90090718D01*
X102660608Y-90159626D01*
X102613636Y-90211349D01*
X102549045Y-90229500D01*
X101955929Y-90229500D01*
X101830261Y-90254497D01*
X101830251Y-90254500D01*
X101790551Y-90270945D01*
X101711881Y-90303530D01*
X101711863Y-90303540D01*
X101605332Y-90374721D01*
X101605325Y-90374727D01*
X101127388Y-90852664D01*
X101066065Y-90886149D01*
X100996373Y-90881165D01*
X100992270Y-90879550D01*
X100891836Y-90837949D01*
X100891828Y-90837947D01*
X100698543Y-90799500D01*
X100698540Y-90799500D01*
X100501460Y-90799500D01*
X100501457Y-90799500D01*
X100308171Y-90837947D01*
X100308163Y-90837949D01*
X100126089Y-90913367D01*
X100126079Y-90913372D01*
X99962219Y-91022860D01*
X99962215Y-91022863D01*
X99822863Y-91162215D01*
X99822860Y-91162219D01*
X99713372Y-91326079D01*
X99713367Y-91326089D01*
X99637949Y-91508163D01*
X99637947Y-91508171D01*
X99599500Y-91701455D01*
X99599500Y-91898544D01*
X99637947Y-92091828D01*
X99637949Y-92091836D01*
X99713367Y-92273910D01*
X99713372Y-92273920D01*
X99778602Y-92371542D01*
X99799480Y-92438219D01*
X99799500Y-92440433D01*
X99799500Y-93623545D01*
X99822117Y-93737248D01*
X99824500Y-93761436D01*
X99824500Y-93798336D01*
X99824501Y-93798356D01*
X99834650Y-93897707D01*
X99834651Y-93897710D01*
X99887996Y-94058694D01*
X99888001Y-94058705D01*
X99977029Y-94203040D01*
X99977032Y-94203044D01*
X100096955Y-94322967D01*
X100096959Y-94322970D01*
X100241294Y-94411998D01*
X100241297Y-94411999D01*
X100241303Y-94412003D01*
X100402292Y-94465349D01*
X100455212Y-94470755D01*
X100490059Y-94479551D01*
X100508165Y-94487051D01*
X100555496Y-94496465D01*
X100701456Y-94525500D01*
X100701459Y-94525500D01*
X100898543Y-94525500D01*
X101028582Y-94499632D01*
X101091835Y-94487051D01*
X101109941Y-94479550D01*
X101144792Y-94470754D01*
X101197708Y-94465349D01*
X101358697Y-94412003D01*
X101503044Y-94322968D01*
X101622968Y-94203044D01*
X101712003Y-94058697D01*
X101765349Y-93897708D01*
X101775500Y-93798345D01*
X101775499Y-93761434D01*
X101777882Y-93737241D01*
X101778968Y-93731786D01*
X101800500Y-93623541D01*
X101800500Y-92070808D01*
X101820185Y-92003769D01*
X101836819Y-91983127D01*
X102253127Y-91566819D01*
X102314450Y-91533334D01*
X102340808Y-91530500D01*
X102549045Y-91530500D01*
X102616084Y-91550185D01*
X102661839Y-91602989D01*
X102672160Y-91669285D01*
X102664500Y-91733072D01*
X102664500Y-92026920D01*
X102675102Y-92115217D01*
X102675102Y-92144782D01*
X102668794Y-92197312D01*
X102664500Y-92233073D01*
X102664500Y-92233074D01*
X102664500Y-92233078D01*
X102664500Y-92526919D01*
X102674833Y-92612977D01*
X102728837Y-92749922D01*
X102728838Y-92749924D01*
X102817783Y-92867216D01*
X102879157Y-92913757D01*
X102935078Y-92956163D01*
X103072021Y-93010166D01*
X103158073Y-93020500D01*
X103773441Y-93020499D01*
X103797634Y-93022882D01*
X103835929Y-93030500D01*
X103835931Y-93030500D01*
X105225152Y-93030500D01*
X105292191Y-93050185D01*
X105337946Y-93102989D01*
X105347890Y-93172147D01*
X105323956Y-93229425D01*
X105243838Y-93335075D01*
X105189833Y-93472022D01*
X105179500Y-93558072D01*
X105179500Y-95041919D01*
X105189833Y-95127977D01*
X105243837Y-95264922D01*
X105243838Y-95264924D01*
X105332783Y-95382216D01*
X105450075Y-95471161D01*
X105450078Y-95471163D01*
X105587021Y-95525166D01*
X105673073Y-95535500D01*
X105966926Y-95535499D01*
X106052979Y-95525166D01*
X106052982Y-95525164D01*
X106055219Y-95524896D01*
X106084789Y-95524897D01*
X106087017Y-95525164D01*
X106087021Y-95525166D01*
X106153698Y-95533173D01*
X106217912Y-95560711D01*
X106257044Y-95618594D01*
X106260530Y-95680478D01*
X106253729Y-95714669D01*
X106249500Y-95735931D01*
X106249500Y-98164069D01*
X106263795Y-98235931D01*
X106274499Y-98289744D01*
X106323535Y-98408127D01*
X106394723Y-98514669D01*
X106394726Y-98514673D01*
X106785325Y-98905272D01*
X106785328Y-98905274D01*
X106785331Y-98905277D01*
X106888931Y-98974499D01*
X106891873Y-98976465D01*
X107010256Y-99025501D01*
X107010260Y-99025501D01*
X107010261Y-99025502D01*
X107135928Y-99050500D01*
X107135931Y-99050500D01*
X108625500Y-99050500D01*
X108692539Y-99070185D01*
X108738294Y-99122989D01*
X108749500Y-99174500D01*
X108749500Y-101364069D01*
X108749500Y-101364071D01*
X108749499Y-101364071D01*
X108768218Y-101458169D01*
X108768218Y-101458170D01*
X108774497Y-101489737D01*
X108774498Y-101489742D01*
X108783009Y-101510288D01*
X108823535Y-101608127D01*
X108891778Y-101710261D01*
X108894726Y-101714673D01*
X108894727Y-101714674D01*
X109324637Y-102144582D01*
X109351517Y-102184810D01*
X109390604Y-102279176D01*
X109390609Y-102279185D01*
X109478210Y-102410288D01*
X109478213Y-102410292D01*
X109589707Y-102521786D01*
X109589711Y-102521789D01*
X109720814Y-102609390D01*
X109720827Y-102609397D01*
X109866498Y-102669735D01*
X109866503Y-102669737D01*
X110021153Y-102700499D01*
X110021156Y-102700500D01*
X110021158Y-102700500D01*
X110178844Y-102700500D01*
X110178845Y-102700499D01*
X110333497Y-102669737D01*
X110479179Y-102609394D01*
X110606609Y-102524248D01*
X110673286Y-102503370D01*
X110740666Y-102521854D01*
X110787357Y-102573833D01*
X110799500Y-102627350D01*
X110799500Y-102678846D01*
X110830261Y-102833489D01*
X110830264Y-102833501D01*
X110890602Y-102979172D01*
X110890609Y-102979185D01*
X110978210Y-103110288D01*
X110978213Y-103110292D01*
X111089707Y-103221786D01*
X111089711Y-103221789D01*
X111220814Y-103309390D01*
X111220827Y-103309397D01*
X111366498Y-103369735D01*
X111366503Y-103369737D01*
X111521153Y-103400499D01*
X111521156Y-103400500D01*
X111521158Y-103400500D01*
X111678844Y-103400500D01*
X111678845Y-103400499D01*
X111833497Y-103369737D01*
X111979179Y-103309394D01*
X112110289Y-103221789D01*
X112221789Y-103110289D01*
X112309394Y-102979179D01*
X112369737Y-102833497D01*
X112383079Y-102766416D01*
X112415463Y-102704509D01*
X112416958Y-102702986D01*
X114005277Y-101114669D01*
X114076465Y-101008127D01*
X114083198Y-100991873D01*
X114096281Y-100960289D01*
X114104821Y-100939669D01*
X114125501Y-100889744D01*
X114137547Y-100829185D01*
X114150500Y-100764071D01*
X114150500Y-100069808D01*
X114170185Y-100002769D01*
X114222989Y-99957014D01*
X114292147Y-99947070D01*
X114355703Y-99976095D01*
X114362181Y-99982127D01*
X131724638Y-117344584D01*
X131751518Y-117384813D01*
X131790602Y-117479172D01*
X131790609Y-117479185D01*
X131878210Y-117610288D01*
X131878213Y-117610292D01*
X131989707Y-117721786D01*
X131989711Y-117721789D01*
X132120814Y-117809390D01*
X132120827Y-117809397D01*
X132266498Y-117869735D01*
X132266503Y-117869737D01*
X132421153Y-117900499D01*
X132421156Y-117900500D01*
X132421158Y-117900500D01*
X132578844Y-117900500D01*
X132578845Y-117900499D01*
X132733497Y-117869737D01*
X132879179Y-117809394D01*
X133010289Y-117721789D01*
X133121789Y-117610289D01*
X133209394Y-117479179D01*
X133269737Y-117333497D01*
X133300500Y-117178842D01*
X133300500Y-117021158D01*
X133300500Y-117021155D01*
X133300499Y-117021153D01*
X133287246Y-116954525D01*
X133269737Y-116866503D01*
X133258274Y-116838828D01*
X133209397Y-116720827D01*
X133209390Y-116720814D01*
X133121789Y-116589711D01*
X133121786Y-116589707D01*
X133010292Y-116478213D01*
X133010288Y-116478210D01*
X132879185Y-116390609D01*
X132879172Y-116390602D01*
X132733501Y-116330264D01*
X132733489Y-116330261D01*
X132578845Y-116299500D01*
X132578842Y-116299500D01*
X132570808Y-116299500D01*
X132503769Y-116279815D01*
X132483127Y-116263181D01*
X114841819Y-98621873D01*
X114808334Y-98560550D01*
X114805500Y-98534192D01*
X114805500Y-95024808D01*
X114825185Y-94957769D01*
X114877989Y-94912014D01*
X114947147Y-94902070D01*
X115010703Y-94931095D01*
X115017181Y-94937127D01*
X115794723Y-95714669D01*
X115885331Y-95805277D01*
X115982946Y-95870500D01*
X115982945Y-95870501D01*
X115982950Y-95870503D01*
X115991873Y-95876465D01*
X116110256Y-95925501D01*
X116110260Y-95925501D01*
X116110261Y-95925502D01*
X116235928Y-95950500D01*
X116235931Y-95950500D01*
X118591523Y-95950500D01*
X119050142Y-95950500D01*
X119074334Y-95952883D01*
X119188032Y-95975500D01*
X119188035Y-95975500D01*
X120526571Y-95975500D01*
X120640269Y-95952883D01*
X120652244Y-95950501D01*
X120770627Y-95901465D01*
X120790589Y-95888127D01*
X120801150Y-95881071D01*
X120833954Y-95859152D01*
X120877169Y-95830277D01*
X121195627Y-95511819D01*
X121256950Y-95478334D01*
X121283308Y-95475500D01*
X121291692Y-95475500D01*
X121358731Y-95495185D01*
X121379373Y-95511819D01*
X130013181Y-104145626D01*
X130046666Y-104206949D01*
X130049500Y-104233307D01*
X130049500Y-107695064D01*
X130029815Y-107762103D01*
X130028603Y-107763954D01*
X129990608Y-107820817D01*
X129990602Y-107820828D01*
X129930264Y-107966498D01*
X129930261Y-107966510D01*
X129899500Y-108121153D01*
X129899500Y-108278846D01*
X129930261Y-108433489D01*
X129930264Y-108433501D01*
X129990602Y-108579172D01*
X129990609Y-108579185D01*
X130078210Y-108710288D01*
X130078213Y-108710292D01*
X130189707Y-108821786D01*
X130189711Y-108821789D01*
X130320814Y-108909390D01*
X130320827Y-108909397D01*
X130456274Y-108965500D01*
X130466503Y-108969737D01*
X130621153Y-109000499D01*
X130621156Y-109000500D01*
X130621158Y-109000500D01*
X130778844Y-109000500D01*
X130778845Y-109000499D01*
X130933497Y-108969737D01*
X131046166Y-108923067D01*
X131079172Y-108909397D01*
X131079172Y-108909396D01*
X131079179Y-108909394D01*
X131210289Y-108821789D01*
X131321789Y-108710289D01*
X131409394Y-108579179D01*
X131469737Y-108433497D01*
X131500500Y-108278842D01*
X131500500Y-108121158D01*
X131500500Y-108121155D01*
X131500499Y-108121153D01*
X131494986Y-108093439D01*
X131469737Y-107966503D01*
X131468946Y-107964594D01*
X131409397Y-107820828D01*
X131409396Y-107820827D01*
X131409394Y-107820821D01*
X131371396Y-107763953D01*
X131350520Y-107697276D01*
X131350500Y-107695064D01*
X131350500Y-104669808D01*
X131370185Y-104602769D01*
X131422989Y-104557014D01*
X131492147Y-104547070D01*
X131555703Y-104576095D01*
X131562181Y-104582127D01*
X133513181Y-106533127D01*
X133546666Y-106594450D01*
X133549500Y-106620808D01*
X133549500Y-115964071D01*
X133566498Y-116049520D01*
X133566498Y-116049522D01*
X133574497Y-116089737D01*
X133574498Y-116089741D01*
X133574499Y-116089744D01*
X133587616Y-116121410D01*
X133622870Y-116206523D01*
X133623535Y-116208127D01*
X133684588Y-116299500D01*
X133694726Y-116314673D01*
X134985324Y-117605271D01*
X134985331Y-117605277D01*
X135091871Y-117676464D01*
X135091870Y-117676464D01*
X135123931Y-117689744D01*
X135210256Y-117725501D01*
X135210260Y-117725501D01*
X135210261Y-117725502D01*
X135335928Y-117750500D01*
X135335931Y-117750500D01*
X140094071Y-117750500D01*
X140178615Y-117733682D01*
X140219744Y-117725501D01*
X140338127Y-117676465D01*
X140444669Y-117605277D01*
X140523128Y-117526817D01*
X140584449Y-117493334D01*
X140610808Y-117490500D01*
X141439541Y-117490500D01*
X141439546Y-117490500D01*
X141542399Y-117479992D01*
X141709047Y-117424771D01*
X141858468Y-117332607D01*
X141982607Y-117208468D01*
X142074771Y-117059047D01*
X142129992Y-116892399D01*
X142140500Y-116789546D01*
X142140500Y-115690454D01*
X142129992Y-115587601D01*
X142074771Y-115420953D01*
X141982607Y-115271532D01*
X141858468Y-115147393D01*
X141746641Y-115078417D01*
X141709049Y-115055230D01*
X141709044Y-115055228D01*
X141551970Y-115003179D01*
X141494525Y-114963406D01*
X141467702Y-114898890D01*
X141480017Y-114830115D01*
X141527560Y-114778915D01*
X141534659Y-114774999D01*
X141545405Y-114769524D01*
X141704646Y-114653828D01*
X141843828Y-114514646D01*
X141959524Y-114355405D01*
X142048884Y-114180025D01*
X142109709Y-113992826D01*
X142122752Y-113910474D01*
X142140500Y-113798422D01*
X142140500Y-113601577D01*
X142109709Y-113407173D01*
X142060150Y-113254648D01*
X142048884Y-113219975D01*
X142048882Y-113219972D01*
X142048882Y-113219970D01*
X141959523Y-113044594D01*
X141843828Y-112885354D01*
X141704646Y-112746172D01*
X141625025Y-112688324D01*
X141545403Y-112630474D01*
X141368787Y-112540485D01*
X141317990Y-112492511D01*
X141301195Y-112424690D01*
X141323732Y-112358555D01*
X141368787Y-112319515D01*
X141545403Y-112229525D01*
X141545402Y-112229525D01*
X141545405Y-112229524D01*
X141704646Y-112113828D01*
X141843828Y-111974646D01*
X141959524Y-111815405D01*
X142048884Y-111640025D01*
X142109709Y-111452826D01*
X142140500Y-111258422D01*
X142140500Y-111061577D01*
X142109709Y-110867173D01*
X142060150Y-110714648D01*
X142048884Y-110679975D01*
X142048882Y-110679972D01*
X142048882Y-110679970D01*
X141985413Y-110555405D01*
X141959524Y-110504595D01*
X141843828Y-110345354D01*
X141704646Y-110206172D01*
X141623141Y-110146955D01*
X141545403Y-110090474D01*
X141368787Y-110000485D01*
X141317990Y-109952511D01*
X141301195Y-109884690D01*
X141323732Y-109818555D01*
X141368787Y-109779515D01*
X141545403Y-109689525D01*
X141545402Y-109689525D01*
X141545405Y-109689524D01*
X141704646Y-109573828D01*
X141843828Y-109434646D01*
X141959524Y-109275405D01*
X142048884Y-109100025D01*
X142109709Y-108912826D01*
X142114853Y-108880350D01*
X142140500Y-108718422D01*
X142140500Y-108521577D01*
X142109709Y-108327173D01*
X142064310Y-108187451D01*
X142048884Y-108139975D01*
X142048882Y-108139972D01*
X142048882Y-108139970D01*
X141981551Y-108007826D01*
X141959524Y-107964595D01*
X141843828Y-107805354D01*
X141704646Y-107666172D01*
X141545405Y-107550476D01*
X141541806Y-107548642D01*
X141370029Y-107461117D01*
X141182826Y-107400290D01*
X140988422Y-107369500D01*
X140988417Y-107369500D01*
X140791583Y-107369500D01*
X140791578Y-107369500D01*
X140597167Y-107400291D01*
X140593433Y-107401188D01*
X140523651Y-107397690D01*
X140466838Y-107357019D01*
X140441032Y-107292090D01*
X140440500Y-107280611D01*
X140440500Y-107180293D01*
X140415502Y-107054626D01*
X140415501Y-107054625D01*
X140415501Y-107054621D01*
X140386776Y-106985273D01*
X140366465Y-106936237D01*
X140353139Y-106916294D01*
X140350362Y-106912138D01*
X140342488Y-106900354D01*
X140295274Y-106829692D01*
X139220308Y-105754726D01*
X139220304Y-105754723D01*
X139113762Y-105683535D01*
X138995379Y-105634499D01*
X138995373Y-105634497D01*
X138869706Y-105609500D01*
X138869704Y-105609500D01*
X136087914Y-105609500D01*
X136020875Y-105589815D01*
X136000233Y-105573181D01*
X130779746Y-100352694D01*
X130746261Y-100291371D01*
X130751245Y-100221679D01*
X130779744Y-100177333D01*
X130846789Y-100110289D01*
X130934394Y-99979179D01*
X130935672Y-99976095D01*
X130994735Y-99833501D01*
X130994737Y-99833497D01*
X131025500Y-99678842D01*
X131025500Y-99521158D01*
X131025500Y-99521155D01*
X131025499Y-99521153D01*
X131001499Y-99400499D01*
X130994737Y-99366503D01*
X130934394Y-99220821D01*
X130896396Y-99163953D01*
X130875520Y-99097276D01*
X130875500Y-99095064D01*
X130875500Y-98360928D01*
X130850502Y-98235261D01*
X130850501Y-98235260D01*
X130850501Y-98235256D01*
X130801465Y-98116873D01*
X130801464Y-98116872D01*
X130801460Y-98116864D01*
X130783317Y-98089712D01*
X130783316Y-98089710D01*
X130730277Y-98010331D01*
X130730271Y-98010324D01*
X124082127Y-91362181D01*
X124048642Y-91300858D01*
X124053626Y-91231166D01*
X124095498Y-91175233D01*
X124160962Y-91150816D01*
X124169808Y-91150500D01*
X124178844Y-91150500D01*
X124178845Y-91150499D01*
X124333497Y-91119737D01*
X124479179Y-91059394D01*
X124536044Y-91021397D01*
X124602721Y-91000520D01*
X124604935Y-91000500D01*
X125329192Y-91000500D01*
X125396231Y-91020185D01*
X125416873Y-91036819D01*
X126487824Y-92107771D01*
X126487827Y-92107774D01*
X126580560Y-92169736D01*
X126580561Y-92169736D01*
X126580562Y-92169737D01*
X126594373Y-92178965D01*
X126712756Y-92228001D01*
X126712760Y-92228001D01*
X126712761Y-92228002D01*
X126838428Y-92253000D01*
X126838431Y-92253000D01*
X131992565Y-92253000D01*
X132059604Y-92272685D01*
X132061409Y-92273866D01*
X132118321Y-92311894D01*
X132118323Y-92311895D01*
X132118327Y-92311897D01*
X132262325Y-92371542D01*
X132264003Y-92372237D01*
X132372548Y-92393828D01*
X132418653Y-92402999D01*
X132418656Y-92403000D01*
X132418658Y-92403000D01*
X132576344Y-92403000D01*
X132576345Y-92402999D01*
X132730997Y-92372237D01*
X132876679Y-92311894D01*
X133007789Y-92224289D01*
X133119289Y-92112789D01*
X133206894Y-91981679D01*
X133207107Y-91981166D01*
X133225475Y-91936819D01*
X133267237Y-91835997D01*
X133298000Y-91681342D01*
X133298000Y-91602371D01*
X133317685Y-91535332D01*
X133370489Y-91489577D01*
X133386779Y-91483478D01*
X133392222Y-91481865D01*
X133410594Y-91478211D01*
X133491836Y-91462051D01*
X133568006Y-91430500D01*
X133673914Y-91386632D01*
X133837782Y-91277139D01*
X133977139Y-91137782D01*
X133977140Y-91137779D01*
X133984206Y-91130714D01*
X133984209Y-91130710D01*
X134637778Y-90477141D01*
X134637782Y-90477139D01*
X134737820Y-90377101D01*
X134799144Y-90343616D01*
X134837598Y-90346367D01*
X134868834Y-90348601D01*
X134922423Y-90388718D01*
X134924768Y-90390474D01*
X134926473Y-90395046D01*
X134949184Y-90455937D01*
X134949500Y-90464783D01*
X134949500Y-94179191D01*
X134929815Y-94246230D01*
X134913181Y-94266872D01*
X134894727Y-94285325D01*
X134894724Y-94285328D01*
X134828091Y-94385053D01*
X134823536Y-94391869D01*
X134774499Y-94510255D01*
X134774497Y-94510261D01*
X134749500Y-94635928D01*
X134749500Y-99030192D01*
X134729815Y-99097231D01*
X134677011Y-99142986D01*
X134607853Y-99152930D01*
X134544297Y-99123905D01*
X134537819Y-99117873D01*
X130686819Y-95266873D01*
X130653334Y-95205550D01*
X130650500Y-95179192D01*
X130650500Y-95004935D01*
X130670185Y-94937896D01*
X130671366Y-94936090D01*
X130709394Y-94879179D01*
X130769737Y-94733497D01*
X130800500Y-94578842D01*
X130800500Y-94421158D01*
X130800500Y-94421155D01*
X130800499Y-94421153D01*
X130794206Y-94389516D01*
X130769737Y-94266503D01*
X130767089Y-94260109D01*
X130709397Y-94120827D01*
X130709390Y-94120814D01*
X130621789Y-93989711D01*
X130621786Y-93989707D01*
X130510292Y-93878213D01*
X130510288Y-93878210D01*
X130379185Y-93790609D01*
X130379172Y-93790602D01*
X130233501Y-93730264D01*
X130233489Y-93730261D01*
X130078845Y-93699500D01*
X130078842Y-93699500D01*
X129921158Y-93699500D01*
X129921155Y-93699500D01*
X129766510Y-93730261D01*
X129766498Y-93730264D01*
X129620827Y-93790602D01*
X129620814Y-93790609D01*
X129489711Y-93878210D01*
X129489707Y-93878213D01*
X129378213Y-93989707D01*
X129378210Y-93989711D01*
X129290609Y-94120814D01*
X129290602Y-94120827D01*
X129230264Y-94266498D01*
X129230261Y-94266510D01*
X129199500Y-94421153D01*
X129199500Y-94578846D01*
X129230261Y-94733489D01*
X129230264Y-94733501D01*
X129290602Y-94879172D01*
X129290606Y-94879179D01*
X129328602Y-94936044D01*
X129349480Y-95002721D01*
X129349500Y-95004935D01*
X129349500Y-95564069D01*
X129349500Y-95564071D01*
X129349499Y-95564071D01*
X129369321Y-95663713D01*
X129372655Y-95680478D01*
X129373550Y-95684974D01*
X129374499Y-95689744D01*
X129423532Y-95808123D01*
X129438335Y-95830277D01*
X129476988Y-95888127D01*
X129494726Y-95914673D01*
X129494727Y-95914674D01*
X134945618Y-101365564D01*
X134979103Y-101426887D01*
X134981937Y-101453245D01*
X134981937Y-101662627D01*
X134962252Y-101729666D01*
X134961040Y-101731517D01*
X134923045Y-101788380D01*
X134923039Y-101788391D01*
X134862701Y-101934061D01*
X134862698Y-101934073D01*
X134831937Y-102088716D01*
X134831937Y-102246409D01*
X134862698Y-102401052D01*
X134862701Y-102401064D01*
X134923039Y-102546735D01*
X134923046Y-102546748D01*
X135010647Y-102677851D01*
X135010650Y-102677855D01*
X135122144Y-102789349D01*
X135122148Y-102789352D01*
X135253251Y-102876953D01*
X135253264Y-102876960D01*
X135398935Y-102937298D01*
X135398940Y-102937300D01*
X135553590Y-102968062D01*
X135553593Y-102968063D01*
X135553595Y-102968063D01*
X135711281Y-102968063D01*
X135711282Y-102968062D01*
X135865934Y-102937300D01*
X136011616Y-102876957D01*
X136142726Y-102789352D01*
X136254226Y-102677852D01*
X136341831Y-102546742D01*
X136402174Y-102401060D01*
X136432937Y-102246405D01*
X136432937Y-102088721D01*
X136432937Y-102088718D01*
X136432936Y-102088716D01*
X136402175Y-101934073D01*
X136402174Y-101934066D01*
X136362896Y-101839240D01*
X136341834Y-101788391D01*
X136341833Y-101788390D01*
X136341831Y-101788384D01*
X136303833Y-101731516D01*
X136282957Y-101664839D01*
X136282937Y-101662627D01*
X136282937Y-101068365D01*
X136257939Y-100942698D01*
X136257938Y-100942697D01*
X136257938Y-100942693D01*
X136208902Y-100824310D01*
X136137714Y-100717768D01*
X136137712Y-100717766D01*
X136137710Y-100717763D01*
X136137709Y-100717762D01*
X135882127Y-100462181D01*
X135848642Y-100400858D01*
X135853626Y-100331167D01*
X135895497Y-100275233D01*
X135960962Y-100250816D01*
X135969808Y-100250500D01*
X141664071Y-100250500D01*
X141748615Y-100233682D01*
X141789744Y-100225501D01*
X141908127Y-100176465D01*
X141959898Y-100141873D01*
X142014669Y-100105277D01*
X143337819Y-98782125D01*
X143399142Y-98748641D01*
X143468833Y-98753625D01*
X143524767Y-98795496D01*
X143549184Y-98860961D01*
X143549500Y-98869807D01*
X143549500Y-102346864D01*
X143529815Y-102413903D01*
X143477011Y-102459658D01*
X143472955Y-102461424D01*
X143424107Y-102481658D01*
X143424103Y-102481660D01*
X143225382Y-102596392D01*
X143043338Y-102736081D01*
X142881081Y-102898338D01*
X142741392Y-103080382D01*
X142626657Y-103279109D01*
X142626650Y-103279123D01*
X142538842Y-103491112D01*
X142479453Y-103712759D01*
X142479451Y-103712770D01*
X142449500Y-103940258D01*
X142449500Y-104169741D01*
X142467338Y-104305225D01*
X142479452Y-104397238D01*
X142507518Y-104501983D01*
X142538842Y-104618887D01*
X142626650Y-104830876D01*
X142626657Y-104830890D01*
X142741392Y-105029617D01*
X142881081Y-105211661D01*
X142881089Y-105211670D01*
X143043330Y-105373911D01*
X143043338Y-105373918D01*
X143043339Y-105373919D01*
X143093499Y-105412408D01*
X143225382Y-105513607D01*
X143225385Y-105513608D01*
X143225388Y-105513611D01*
X143424112Y-105628344D01*
X143424117Y-105628346D01*
X143424123Y-105628349D01*
X143515480Y-105666190D01*
X143636113Y-105716158D01*
X143857762Y-105775548D01*
X144085266Y-105805500D01*
X144085273Y-105805500D01*
X144314727Y-105805500D01*
X144314734Y-105805500D01*
X144542238Y-105775548D01*
X144763887Y-105716158D01*
X144975888Y-105628344D01*
X145174612Y-105513611D01*
X145245876Y-105458927D01*
X145311041Y-105433733D01*
X145379487Y-105447770D01*
X145429477Y-105496583D01*
X145445142Y-105564674D01*
X145441136Y-105589395D01*
X145415912Y-105683535D01*
X145406591Y-105718323D01*
X145406590Y-105718331D01*
X145374500Y-105962065D01*
X145374500Y-106207934D01*
X145385267Y-106289711D01*
X145406591Y-106451677D01*
X145458519Y-106645476D01*
X145470222Y-106689152D01*
X145470225Y-106689162D01*
X145544619Y-106868763D01*
X145564306Y-106916292D01*
X145687233Y-107129208D01*
X145687235Y-107129211D01*
X145687236Y-107129212D01*
X145836897Y-107324254D01*
X145836903Y-107324261D01*
X146010738Y-107498096D01*
X146010745Y-107498102D01*
X146025460Y-107509393D01*
X146205792Y-107647767D01*
X146418708Y-107770694D01*
X146645847Y-107864778D01*
X146883323Y-107928409D01*
X147127073Y-107960500D01*
X147127080Y-107960500D01*
X147372920Y-107960500D01*
X147372927Y-107960500D01*
X147616677Y-107928409D01*
X147854153Y-107864778D01*
X148081292Y-107770694D01*
X148294208Y-107647767D01*
X148489256Y-107498101D01*
X148663101Y-107324256D01*
X148812767Y-107129208D01*
X148935694Y-106916292D01*
X149029778Y-106689153D01*
X149093409Y-106451677D01*
X149125500Y-106207927D01*
X149125500Y-105962073D01*
X149093409Y-105718323D01*
X149029778Y-105480847D01*
X148935694Y-105253708D01*
X148833427Y-105076577D01*
X150899500Y-105076577D01*
X150899500Y-105273422D01*
X150930290Y-105467826D01*
X150991117Y-105655029D01*
X151043458Y-105757753D01*
X151080476Y-105830405D01*
X151196172Y-105989646D01*
X151335354Y-106128828D01*
X151494595Y-106244524D01*
X151566647Y-106281236D01*
X151671213Y-106334515D01*
X151722009Y-106382489D01*
X151738804Y-106450310D01*
X151716267Y-106516445D01*
X151671213Y-106555485D01*
X151494594Y-106645476D01*
X151423584Y-106697069D01*
X151335354Y-106761172D01*
X151335352Y-106761174D01*
X151335351Y-106761174D01*
X151196174Y-106900351D01*
X151196174Y-106900352D01*
X151196172Y-106900354D01*
X151170101Y-106936238D01*
X151080476Y-107059594D01*
X150991117Y-107234970D01*
X150930290Y-107422173D01*
X150899500Y-107616577D01*
X150899500Y-107813422D01*
X150930290Y-108007826D01*
X150991117Y-108195029D01*
X151048499Y-108307647D01*
X151080476Y-108370405D01*
X151196172Y-108529646D01*
X151335354Y-108668828D01*
X151494595Y-108784524D01*
X151567726Y-108821786D01*
X151669970Y-108873882D01*
X151669972Y-108873882D01*
X151669975Y-108873884D01*
X151770317Y-108906487D01*
X151857173Y-108934709D01*
X152051578Y-108965500D01*
X152051583Y-108965500D01*
X152248422Y-108965500D01*
X152442826Y-108934709D01*
X152630025Y-108873884D01*
X152805405Y-108784524D01*
X152964646Y-108668828D01*
X153103828Y-108529646D01*
X153219524Y-108370405D01*
X153308884Y-108195025D01*
X153369709Y-108007826D01*
X153377205Y-107960499D01*
X153400500Y-107813422D01*
X153400500Y-107616577D01*
X153369709Y-107422173D01*
X153320202Y-107269808D01*
X153308884Y-107234975D01*
X153308882Y-107234972D01*
X153308882Y-107234970D01*
X153254993Y-107129208D01*
X153219524Y-107059595D01*
X153103828Y-106900354D01*
X152964646Y-106761172D01*
X152865520Y-106689152D01*
X152805403Y-106645474D01*
X152628787Y-106555485D01*
X152577990Y-106507511D01*
X152561195Y-106439690D01*
X152583732Y-106373555D01*
X152628787Y-106334515D01*
X152805403Y-106244525D01*
X152805402Y-106244525D01*
X152805405Y-106244524D01*
X152964646Y-106128828D01*
X153103828Y-105989646D01*
X153219524Y-105830405D01*
X153305603Y-105661463D01*
X153308882Y-105655029D01*
X153308882Y-105655028D01*
X153308884Y-105655025D01*
X153369709Y-105467826D01*
X153384582Y-105373920D01*
X153400500Y-105273422D01*
X153400500Y-105076577D01*
X153369709Y-104882173D01*
X153308882Y-104694970D01*
X153233523Y-104547070D01*
X153219524Y-104519595D01*
X153103828Y-104360354D01*
X152964646Y-104221172D01*
X152805405Y-104105476D01*
X152630029Y-104016117D01*
X152442826Y-103955290D01*
X152248422Y-103924500D01*
X152248417Y-103924500D01*
X152051583Y-103924500D01*
X152051578Y-103924500D01*
X151857173Y-103955290D01*
X151669970Y-104016117D01*
X151494594Y-104105476D01*
X151406162Y-104169727D01*
X151335354Y-104221172D01*
X151335352Y-104221174D01*
X151335351Y-104221174D01*
X151196174Y-104360351D01*
X151196174Y-104360352D01*
X151196172Y-104360354D01*
X151188840Y-104370446D01*
X151080476Y-104519594D01*
X150991117Y-104694970D01*
X150930290Y-104882173D01*
X150899500Y-105076577D01*
X148833427Y-105076577D01*
X148812767Y-105040792D01*
X148663101Y-104845744D01*
X148663096Y-104845738D01*
X148489261Y-104671903D01*
X148489254Y-104671897D01*
X148294212Y-104522236D01*
X148294211Y-104522235D01*
X148294208Y-104522233D01*
X148081292Y-104399306D01*
X148081285Y-104399303D01*
X147854162Y-104305225D01*
X147854155Y-104305223D01*
X147854153Y-104305222D01*
X147616677Y-104241591D01*
X147575939Y-104236227D01*
X147372934Y-104209500D01*
X147372927Y-104209500D01*
X147127073Y-104209500D01*
X147127065Y-104209500D01*
X146895059Y-104240045D01*
X146883323Y-104241591D01*
X146645847Y-104305222D01*
X146645837Y-104305225D01*
X146418714Y-104399303D01*
X146418705Y-104399307D01*
X146205787Y-104522236D01*
X146094365Y-104607733D01*
X146029196Y-104632927D01*
X145960751Y-104618888D01*
X145910761Y-104570074D01*
X145895098Y-104501983D01*
X145899101Y-104477278D01*
X145920548Y-104397238D01*
X145950500Y-104169734D01*
X145950500Y-103940266D01*
X145920548Y-103712762D01*
X145861158Y-103491113D01*
X145785889Y-103309397D01*
X145773349Y-103279123D01*
X145773346Y-103279117D01*
X145773344Y-103279112D01*
X145658611Y-103080388D01*
X145658608Y-103080385D01*
X145658607Y-103080382D01*
X145518918Y-102898338D01*
X145518911Y-102898330D01*
X145356670Y-102736089D01*
X145356661Y-102736081D01*
X145174617Y-102596392D01*
X144975896Y-102481660D01*
X144975892Y-102481658D01*
X144975890Y-102481657D01*
X144975888Y-102481656D01*
X144951256Y-102471453D01*
X144927045Y-102461424D01*
X144872643Y-102417582D01*
X144850579Y-102351288D01*
X144850500Y-102346864D01*
X144850500Y-99101162D01*
X144870185Y-99034123D01*
X144922989Y-98988368D01*
X144942400Y-98981389D01*
X145073887Y-98946158D01*
X145285888Y-98858344D01*
X145484612Y-98743611D01*
X145666661Y-98603919D01*
X145666665Y-98603914D01*
X145666670Y-98603911D01*
X145828911Y-98441670D01*
X145828914Y-98441665D01*
X145828919Y-98441661D01*
X145968611Y-98259612D01*
X146083344Y-98060888D01*
X146171158Y-97848887D01*
X146230548Y-97627238D01*
X146260500Y-97399734D01*
X146260500Y-97170266D01*
X146230548Y-96942762D01*
X146209104Y-96862731D01*
X146210767Y-96792886D01*
X146249929Y-96735023D01*
X146314158Y-96707519D01*
X146383060Y-96719105D01*
X146404362Y-96732263D01*
X146515792Y-96817767D01*
X146728708Y-96940694D01*
X146955847Y-97034778D01*
X147193323Y-97098409D01*
X147437073Y-97130500D01*
X147437080Y-97130500D01*
X147682920Y-97130500D01*
X147682927Y-97130500D01*
X147926677Y-97098409D01*
X148164153Y-97034778D01*
X148391292Y-96940694D01*
X148604208Y-96817767D01*
X148799256Y-96668101D01*
X148973101Y-96494256D01*
X149122767Y-96299208D01*
X149245694Y-96086292D01*
X149253860Y-96066577D01*
X151209500Y-96066577D01*
X151209500Y-96263422D01*
X151240290Y-96457826D01*
X151301117Y-96645029D01*
X151376454Y-96792886D01*
X151390476Y-96820405D01*
X151506172Y-96979646D01*
X151645354Y-97118828D01*
X151804595Y-97234524D01*
X151887455Y-97276743D01*
X151979970Y-97323882D01*
X151979972Y-97323882D01*
X151979975Y-97323884D01*
X152080317Y-97356487D01*
X152167173Y-97384709D01*
X152361578Y-97415500D01*
X152361583Y-97415500D01*
X152558422Y-97415500D01*
X152752826Y-97384709D01*
X152940025Y-97323884D01*
X153115405Y-97234524D01*
X153274646Y-97118828D01*
X153413828Y-96979646D01*
X153529524Y-96820405D01*
X153618884Y-96645025D01*
X153679709Y-96457826D01*
X153684074Y-96430264D01*
X153710500Y-96263422D01*
X153710500Y-96066577D01*
X153679709Y-95872173D01*
X153628532Y-95714669D01*
X153618884Y-95684975D01*
X153618882Y-95684972D01*
X153618882Y-95684970D01*
X153542723Y-95535500D01*
X153529524Y-95509595D01*
X153413828Y-95350354D01*
X153274646Y-95211172D01*
X153115405Y-95095476D01*
X153070518Y-95072605D01*
X152940029Y-95006117D01*
X152752826Y-94945290D01*
X152558422Y-94914500D01*
X152558417Y-94914500D01*
X152361583Y-94914500D01*
X152361578Y-94914500D01*
X152167173Y-94945290D01*
X151979970Y-95006117D01*
X151804594Y-95095476D01*
X151713741Y-95161485D01*
X151645354Y-95211172D01*
X151645352Y-95211174D01*
X151645351Y-95211174D01*
X151506174Y-95350351D01*
X151506174Y-95350352D01*
X151506172Y-95350354D01*
X151486144Y-95377920D01*
X151390476Y-95509594D01*
X151301117Y-95684970D01*
X151240290Y-95872173D01*
X151209500Y-96066577D01*
X149253860Y-96066577D01*
X149275532Y-96014258D01*
X149327776Y-95888128D01*
X149339778Y-95859153D01*
X149403409Y-95621677D01*
X149435500Y-95377927D01*
X149435500Y-95132073D01*
X149403409Y-94888323D01*
X149339778Y-94650847D01*
X149245694Y-94423708D01*
X149122767Y-94210792D01*
X148973101Y-94015744D01*
X148973096Y-94015738D01*
X148799261Y-93841903D01*
X148799254Y-93841897D01*
X148604212Y-93692236D01*
X148604211Y-93692235D01*
X148604208Y-93692233D01*
X148391292Y-93569306D01*
X148391285Y-93569303D01*
X148164162Y-93475225D01*
X148164155Y-93475223D01*
X148164153Y-93475222D01*
X147926677Y-93411591D01*
X147885939Y-93406227D01*
X147682934Y-93379500D01*
X147682927Y-93379500D01*
X147437073Y-93379500D01*
X147437065Y-93379500D01*
X147205059Y-93410045D01*
X147193323Y-93411591D01*
X147072990Y-93443834D01*
X146955847Y-93475222D01*
X146955837Y-93475225D01*
X146728714Y-93569303D01*
X146728705Y-93569307D01*
X146515787Y-93692236D01*
X146320745Y-93841897D01*
X146320738Y-93841903D01*
X146146903Y-94015738D01*
X146146897Y-94015745D01*
X145997236Y-94210787D01*
X145874307Y-94423705D01*
X145874303Y-94423714D01*
X145780225Y-94650837D01*
X145780222Y-94650847D01*
X145738079Y-94808130D01*
X145716592Y-94888320D01*
X145716590Y-94888331D01*
X145684500Y-95132065D01*
X145684500Y-95377934D01*
X145705245Y-95535499D01*
X145716591Y-95621677D01*
X145732347Y-95680478D01*
X145751136Y-95750603D01*
X145749473Y-95820453D01*
X145710310Y-95878316D01*
X145646081Y-95905819D01*
X145577179Y-95894232D01*
X145555876Y-95881072D01*
X145527309Y-95859152D01*
X145484617Y-95826392D01*
X145474330Y-95820453D01*
X145400620Y-95777896D01*
X145285890Y-95711657D01*
X145285876Y-95711650D01*
X145073887Y-95623842D01*
X145054301Y-95618594D01*
X144852238Y-95564452D01*
X144814215Y-95559446D01*
X144624741Y-95534500D01*
X144624734Y-95534500D01*
X144395266Y-95534500D01*
X144395258Y-95534500D01*
X144196177Y-95560711D01*
X144167762Y-95564452D01*
X144074076Y-95589554D01*
X143946112Y-95623842D01*
X143734123Y-95711650D01*
X143734109Y-95711657D01*
X143535382Y-95826392D01*
X143353338Y-95966081D01*
X143191081Y-96128338D01*
X143051392Y-96310382D01*
X142936657Y-96509109D01*
X142936650Y-96509123D01*
X142848842Y-96721112D01*
X142845115Y-96735023D01*
X142794199Y-96925048D01*
X142789453Y-96942759D01*
X142789451Y-96942770D01*
X142759500Y-97170258D01*
X142759500Y-97399737D01*
X142765573Y-97445873D01*
X142754806Y-97514908D01*
X142730315Y-97549737D01*
X141366873Y-98913181D01*
X141305550Y-98946666D01*
X141279192Y-98949500D01*
X136174500Y-98949500D01*
X136107461Y-98929815D01*
X136061706Y-98877011D01*
X136050500Y-98825500D01*
X136050500Y-95020808D01*
X136070185Y-94953769D01*
X136086821Y-94933125D01*
X136105273Y-94914673D01*
X136105277Y-94914669D01*
X136176465Y-94808127D01*
X136182017Y-94794723D01*
X136225501Y-94689744D01*
X136247561Y-94578844D01*
X136250500Y-94564071D01*
X136250500Y-88480807D01*
X136270185Y-88413768D01*
X136286814Y-88393130D01*
X137197819Y-87482125D01*
X137259142Y-87448641D01*
X137328834Y-87453625D01*
X137384767Y-87495497D01*
X137409184Y-87560961D01*
X137409500Y-87569807D01*
X137409500Y-87738422D01*
X137440290Y-87932826D01*
X137501117Y-88120029D01*
X137564587Y-88244595D01*
X137590476Y-88295405D01*
X137706172Y-88454646D01*
X137845354Y-88593828D01*
X138004595Y-88709524D01*
X138127992Y-88772397D01*
X138181213Y-88799515D01*
X138232009Y-88847489D01*
X138248804Y-88915310D01*
X138226267Y-88981445D01*
X138181213Y-89020485D01*
X138004594Y-89110476D01*
X137971234Y-89134714D01*
X137845354Y-89226172D01*
X137845352Y-89226174D01*
X137845351Y-89226174D01*
X137706174Y-89365351D01*
X137706174Y-89365352D01*
X137706172Y-89365354D01*
X137682664Y-89397710D01*
X137590476Y-89524594D01*
X137501117Y-89699970D01*
X137440290Y-89887173D01*
X137409500Y-90081577D01*
X137409500Y-90278422D01*
X137440290Y-90472826D01*
X137501117Y-90660029D01*
X137573273Y-90801642D01*
X137590476Y-90835405D01*
X137706172Y-90994646D01*
X137845354Y-91133828D01*
X138004595Y-91249524D01*
X138105344Y-91300858D01*
X138181213Y-91339515D01*
X138232009Y-91387489D01*
X138248804Y-91455310D01*
X138226267Y-91521445D01*
X138181213Y-91560485D01*
X138004594Y-91650476D01*
X137962109Y-91681344D01*
X137845354Y-91766172D01*
X137845352Y-91766174D01*
X137845351Y-91766174D01*
X137706174Y-91905351D01*
X137706174Y-91905352D01*
X137706172Y-91905354D01*
X137656485Y-91973741D01*
X137590476Y-92064594D01*
X137501117Y-92239970D01*
X137440290Y-92427173D01*
X137409500Y-92621577D01*
X137409500Y-92818422D01*
X137440290Y-93012826D01*
X137501117Y-93200029D01*
X137571782Y-93338716D01*
X137590476Y-93375405D01*
X137706172Y-93534646D01*
X137845354Y-93673828D01*
X138004595Y-93789524D01*
X138078719Y-93827292D01*
X138179970Y-93878882D01*
X138179972Y-93878882D01*
X138179975Y-93878884D01*
X138280317Y-93911487D01*
X138367173Y-93939709D01*
X138561578Y-93970500D01*
X138561583Y-93970500D01*
X138758422Y-93970500D01*
X138952826Y-93939709D01*
X138992980Y-93926662D01*
X139140025Y-93878884D01*
X139315405Y-93789524D01*
X139474646Y-93673828D01*
X139613828Y-93534646D01*
X139725182Y-93381380D01*
X139780512Y-93338716D01*
X139850126Y-93332737D01*
X139911921Y-93365343D01*
X139946278Y-93426182D01*
X139949500Y-93454267D01*
X139949500Y-94529553D01*
X139960008Y-94632399D01*
X140015228Y-94799044D01*
X140015230Y-94799049D01*
X140020831Y-94808130D01*
X140107393Y-94948468D01*
X140231532Y-95072607D01*
X140380953Y-95164771D01*
X140547601Y-95219992D01*
X140650454Y-95230500D01*
X140650459Y-95230500D01*
X141749541Y-95230500D01*
X141749546Y-95230500D01*
X141852399Y-95219992D01*
X142019047Y-95164771D01*
X142168468Y-95072607D01*
X142292607Y-94948468D01*
X142384771Y-94799047D01*
X142439992Y-94632399D01*
X142450500Y-94529546D01*
X142450500Y-93430454D01*
X142439992Y-93327601D01*
X142384771Y-93160953D01*
X142292607Y-93011532D01*
X142168468Y-92887393D01*
X142019047Y-92795229D01*
X141919314Y-92762181D01*
X141861970Y-92743179D01*
X141804525Y-92703406D01*
X141777702Y-92638890D01*
X141790017Y-92570115D01*
X141837560Y-92518915D01*
X141844659Y-92514999D01*
X141855405Y-92509524D01*
X142014646Y-92393828D01*
X142153828Y-92254646D01*
X142269524Y-92095405D01*
X142356230Y-91925233D01*
X142358882Y-91920029D01*
X142358882Y-91920028D01*
X142358884Y-91920025D01*
X142419709Y-91732826D01*
X142442578Y-91588437D01*
X142450500Y-91538422D01*
X142450500Y-91341577D01*
X142419709Y-91147173D01*
X142378762Y-91021153D01*
X142358884Y-90959975D01*
X142358882Y-90959972D01*
X142358882Y-90959970D01*
X142295413Y-90835405D01*
X142269524Y-90784595D01*
X142153828Y-90625354D01*
X142014646Y-90486172D01*
X141889223Y-90395046D01*
X141855403Y-90370474D01*
X141678787Y-90280485D01*
X141627990Y-90232511D01*
X141611195Y-90164690D01*
X141633732Y-90098555D01*
X141678787Y-90059515D01*
X141855403Y-89969525D01*
X141855402Y-89969525D01*
X141855405Y-89969524D01*
X142014646Y-89853828D01*
X142153828Y-89714646D01*
X142269524Y-89555405D01*
X142358884Y-89380025D01*
X142419709Y-89192826D01*
X142450500Y-88998422D01*
X142450500Y-88801577D01*
X142419709Y-88607173D01*
X142385598Y-88502192D01*
X142358884Y-88419975D01*
X142358882Y-88419972D01*
X142358882Y-88419970D01*
X142311743Y-88327455D01*
X142269524Y-88244595D01*
X142153828Y-88085354D01*
X142014646Y-87946172D01*
X141935025Y-87888324D01*
X141855403Y-87830474D01*
X141678787Y-87740485D01*
X141627990Y-87692511D01*
X141611195Y-87624690D01*
X141633732Y-87558555D01*
X141678787Y-87519515D01*
X141855403Y-87429525D01*
X141855402Y-87429525D01*
X141855405Y-87429524D01*
X142014646Y-87313828D01*
X142153828Y-87174646D01*
X142269524Y-87015405D01*
X142358884Y-86840025D01*
X142419709Y-86652826D01*
X142433382Y-86566498D01*
X142450500Y-86458422D01*
X142450500Y-86261577D01*
X142419709Y-86067173D01*
X142391487Y-85980317D01*
X142358884Y-85879975D01*
X142358882Y-85879972D01*
X142358882Y-85879970D01*
X142311743Y-85787455D01*
X142269524Y-85704595D01*
X142153828Y-85545354D01*
X142014646Y-85406172D01*
X141855405Y-85290476D01*
X141827895Y-85276459D01*
X141680029Y-85201117D01*
X141492826Y-85140290D01*
X141298422Y-85109500D01*
X141298417Y-85109500D01*
X141101583Y-85109500D01*
X141101578Y-85109500D01*
X140907173Y-85140290D01*
X140719970Y-85201117D01*
X140544594Y-85290476D01*
X140453741Y-85356485D01*
X140385354Y-85406172D01*
X140385352Y-85406174D01*
X140385351Y-85406174D01*
X140246174Y-85545351D01*
X140246174Y-85545352D01*
X140246172Y-85545354D01*
X140233610Y-85562644D01*
X140130476Y-85704594D01*
X140041117Y-85879970D01*
X139980290Y-86067173D01*
X139949500Y-86261577D01*
X139949500Y-86458422D01*
X139980290Y-86652826D01*
X140041117Y-86840029D01*
X140120928Y-86996666D01*
X140130476Y-87015405D01*
X140246172Y-87174646D01*
X140385354Y-87313828D01*
X140544595Y-87429524D01*
X140667992Y-87492397D01*
X140721213Y-87519515D01*
X140772009Y-87567489D01*
X140788804Y-87635310D01*
X140766267Y-87701445D01*
X140721213Y-87740485D01*
X140544594Y-87830476D01*
X140455172Y-87895446D01*
X140385354Y-87946172D01*
X140385352Y-87946174D01*
X140385351Y-87946174D01*
X140246174Y-88085351D01*
X140246174Y-88085352D01*
X140246172Y-88085354D01*
X140244252Y-88087997D01*
X140130476Y-88244594D01*
X140041117Y-88419970D01*
X139980290Y-88607173D01*
X139949500Y-88801577D01*
X139949500Y-88998422D01*
X139980290Y-89192826D01*
X140041117Y-89380029D01*
X140125028Y-89544712D01*
X140130476Y-89555405D01*
X140246172Y-89714646D01*
X140385354Y-89853828D01*
X140544595Y-89969524D01*
X140663860Y-90030292D01*
X140721213Y-90059515D01*
X140772009Y-90107489D01*
X140788804Y-90175310D01*
X140766267Y-90241445D01*
X140721213Y-90280485D01*
X140544594Y-90370476D01*
X140461063Y-90431166D01*
X140385354Y-90486172D01*
X140385352Y-90486174D01*
X140385351Y-90486174D01*
X140246174Y-90625351D01*
X140246174Y-90625352D01*
X140246172Y-90625354D01*
X140243319Y-90629281D01*
X140130476Y-90784594D01*
X140041117Y-90959970D01*
X139980290Y-91147173D01*
X139949500Y-91341577D01*
X139949500Y-91538422D01*
X139980290Y-91732826D01*
X140041117Y-91920029D01*
X140130476Y-92095405D01*
X140246172Y-92254646D01*
X140385354Y-92393828D01*
X140544595Y-92509524D01*
X140555313Y-92514985D01*
X140555317Y-92514987D01*
X140606114Y-92562960D01*
X140622911Y-92630780D01*
X140600376Y-92696916D01*
X140545662Y-92740369D01*
X140538029Y-92743179D01*
X140380955Y-92795228D01*
X140380950Y-92795230D01*
X140231533Y-92887392D01*
X140106959Y-93011966D01*
X140045636Y-93045450D01*
X139975944Y-93040466D01*
X139920011Y-92998594D01*
X139895594Y-92933130D01*
X139896805Y-92904885D01*
X139910500Y-92818421D01*
X139910500Y-92621577D01*
X139879709Y-92427173D01*
X139829913Y-92273920D01*
X139818884Y-92239975D01*
X139818882Y-92239972D01*
X139818882Y-92239970D01*
X139753770Y-92112181D01*
X139729524Y-92064595D01*
X139613828Y-91905354D01*
X139474646Y-91766172D01*
X139357891Y-91681344D01*
X139315403Y-91650474D01*
X139138787Y-91560485D01*
X139087990Y-91512511D01*
X139071195Y-91444690D01*
X139093732Y-91378555D01*
X139138787Y-91339515D01*
X139315403Y-91249525D01*
X139315402Y-91249525D01*
X139315405Y-91249524D01*
X139474646Y-91133828D01*
X139613828Y-90994646D01*
X139729524Y-90835405D01*
X139818884Y-90660025D01*
X139879709Y-90472826D01*
X139886675Y-90428842D01*
X139910500Y-90278422D01*
X139910500Y-90081577D01*
X139879709Y-89887173D01*
X139848823Y-89792116D01*
X139818884Y-89699975D01*
X139818882Y-89699972D01*
X139818882Y-89699970D01*
X139746904Y-89558705D01*
X139729524Y-89524595D01*
X139613828Y-89365354D01*
X139474646Y-89226172D01*
X139348766Y-89134714D01*
X139315403Y-89110474D01*
X139138787Y-89020485D01*
X139087990Y-88972511D01*
X139071195Y-88904690D01*
X139093732Y-88838555D01*
X139138787Y-88799515D01*
X139315403Y-88709525D01*
X139315402Y-88709525D01*
X139315405Y-88709524D01*
X139474646Y-88593828D01*
X139613828Y-88454646D01*
X139729524Y-88295405D01*
X139818884Y-88120025D01*
X139879709Y-87932826D01*
X139892531Y-87851873D01*
X139910500Y-87738422D01*
X139910500Y-87541577D01*
X139879709Y-87347173D01*
X139842635Y-87233073D01*
X139818884Y-87159975D01*
X139818882Y-87159972D01*
X139818882Y-87159970D01*
X139771743Y-87067455D01*
X139729524Y-86984595D01*
X139613828Y-86825354D01*
X139474646Y-86686172D01*
X139395025Y-86628324D01*
X139315403Y-86570474D01*
X139138787Y-86480485D01*
X139087990Y-86432511D01*
X139071195Y-86364690D01*
X139093732Y-86298555D01*
X139138787Y-86259515D01*
X139315403Y-86169525D01*
X139315402Y-86169525D01*
X139315405Y-86169524D01*
X139474646Y-86053828D01*
X139613828Y-85914646D01*
X139729524Y-85755405D01*
X139818884Y-85580025D01*
X139879709Y-85392826D01*
X139886637Y-85349085D01*
X139910500Y-85198422D01*
X139910500Y-85001577D01*
X139879709Y-84807173D01*
X139836404Y-84673897D01*
X139818884Y-84619975D01*
X139818882Y-84619972D01*
X139818882Y-84619970D01*
X139740690Y-84466510D01*
X139729524Y-84444595D01*
X139613828Y-84285354D01*
X139474646Y-84146172D01*
X139315405Y-84030476D01*
X139305358Y-84025357D01*
X139140029Y-83941117D01*
X138952826Y-83880290D01*
X138758422Y-83849500D01*
X138758417Y-83849500D01*
X138561583Y-83849500D01*
X138561578Y-83849500D01*
X138367173Y-83880290D01*
X138179970Y-83941117D01*
X138004594Y-84030476D01*
X137913741Y-84096485D01*
X137845354Y-84146172D01*
X137845352Y-84146174D01*
X137845351Y-84146174D01*
X137706174Y-84285351D01*
X137706174Y-84285352D01*
X137706172Y-84285354D01*
X137687572Y-84310955D01*
X137590476Y-84444594D01*
X137501117Y-84619970D01*
X137440290Y-84807173D01*
X137409500Y-85001577D01*
X137409500Y-85198422D01*
X137431355Y-85336410D01*
X137422400Y-85405704D01*
X137396563Y-85443489D01*
X135212181Y-87627872D01*
X135150858Y-87661357D01*
X135081166Y-87656373D01*
X135025233Y-87614501D01*
X135000816Y-87549037D01*
X135000500Y-87540191D01*
X135000500Y-87201458D01*
X135000499Y-87201457D01*
X134974724Y-87071874D01*
X134962051Y-87008164D01*
X134918360Y-86902685D01*
X134886632Y-86826086D01*
X134824483Y-86733073D01*
X134777139Y-86662217D01*
X134634686Y-86519764D01*
X134634655Y-86519735D01*
X133981479Y-85866559D01*
X133981459Y-85866537D01*
X133837785Y-85722863D01*
X133837781Y-85722860D01*
X133673920Y-85613371D01*
X133673911Y-85613366D01*
X133593427Y-85580029D01*
X133545165Y-85560038D01*
X133491836Y-85537949D01*
X133491832Y-85537948D01*
X133491828Y-85537946D01*
X133395188Y-85518724D01*
X133298544Y-85499500D01*
X133298541Y-85499500D01*
X131426459Y-85499500D01*
X131426457Y-85499500D01*
X131350448Y-85514619D01*
X131312756Y-85522117D01*
X131288566Y-85524500D01*
X131258318Y-85524500D01*
X131159816Y-85534563D01*
X131159812Y-85534564D01*
X131040540Y-85574087D01*
X130970712Y-85576488D01*
X130910670Y-85540756D01*
X130879478Y-85478236D01*
X130883832Y-85417374D01*
X130890349Y-85397708D01*
X130900500Y-85298345D01*
X130900499Y-84701656D01*
X130897663Y-84673897D01*
X130890349Y-84602292D01*
X130890348Y-84602289D01*
X130885655Y-84588127D01*
X130837003Y-84441303D01*
X130836999Y-84441297D01*
X130836998Y-84441294D01*
X130747970Y-84296959D01*
X130747967Y-84296955D01*
X130651193Y-84200181D01*
X130617708Y-84138858D01*
X130622692Y-84069166D01*
X130651193Y-84024819D01*
X130707929Y-83968083D01*
X130772968Y-83903044D01*
X130862003Y-83758697D01*
X130915349Y-83597708D01*
X130925500Y-83498345D01*
X130925499Y-82901656D01*
X130922644Y-82873711D01*
X130915349Y-82802292D01*
X130915348Y-82802289D01*
X130888462Y-82721153D01*
X130862003Y-82641303D01*
X130861999Y-82641297D01*
X130861998Y-82641294D01*
X130772970Y-82496959D01*
X130772969Y-82496958D01*
X130772968Y-82496956D01*
X130661818Y-82385806D01*
X130628334Y-82324483D01*
X130625500Y-82298125D01*
X130625500Y-82274559D01*
X130644615Y-82209461D01*
X130644177Y-82209191D01*
X130645164Y-82207590D01*
X130645185Y-82207520D01*
X130645349Y-82207289D01*
X130647966Y-82203045D01*
X130647968Y-82203044D01*
X130737003Y-82058697D01*
X130790349Y-81897708D01*
X130800500Y-81798345D01*
X130800500Y-81680258D01*
X142759500Y-81680258D01*
X142759500Y-81909741D01*
X142777338Y-82045225D01*
X142789452Y-82137238D01*
X142830307Y-82289711D01*
X142848842Y-82358887D01*
X142936650Y-82570876D01*
X142936657Y-82570890D01*
X143051392Y-82769617D01*
X143191081Y-82951661D01*
X143191089Y-82951670D01*
X143353330Y-83113911D01*
X143353338Y-83113918D01*
X143535382Y-83253607D01*
X143535385Y-83253608D01*
X143535388Y-83253611D01*
X143734112Y-83368344D01*
X143734117Y-83368346D01*
X143734123Y-83368349D01*
X143798525Y-83395025D01*
X143946113Y-83456158D01*
X144167762Y-83515548D01*
X144395266Y-83545500D01*
X144395273Y-83545500D01*
X144624727Y-83545500D01*
X144624734Y-83545500D01*
X144852238Y-83515548D01*
X145073887Y-83456158D01*
X145285888Y-83368344D01*
X145484612Y-83253611D01*
X145555876Y-83198927D01*
X145621041Y-83173733D01*
X145689487Y-83187770D01*
X145739477Y-83236583D01*
X145755142Y-83304674D01*
X145751136Y-83329395D01*
X145733550Y-83395029D01*
X145716591Y-83458323D01*
X145716590Y-83458331D01*
X145684500Y-83702065D01*
X145684500Y-83947934D01*
X145703615Y-84093117D01*
X145716591Y-84191677D01*
X145768519Y-84385476D01*
X145780222Y-84429152D01*
X145780225Y-84429162D01*
X145851938Y-84602292D01*
X145874306Y-84656292D01*
X145997233Y-84869208D01*
X145997235Y-84869211D01*
X145997236Y-84869212D01*
X146146897Y-85064254D01*
X146146903Y-85064261D01*
X146320738Y-85238096D01*
X146320745Y-85238102D01*
X146417233Y-85312140D01*
X146515792Y-85387767D01*
X146728708Y-85510694D01*
X146955847Y-85604778D01*
X147193323Y-85668409D01*
X147437073Y-85700500D01*
X147437080Y-85700500D01*
X147682920Y-85700500D01*
X147682927Y-85700500D01*
X147926677Y-85668409D01*
X148164153Y-85604778D01*
X148391292Y-85510694D01*
X148604208Y-85387767D01*
X148799256Y-85238101D01*
X148973101Y-85064256D01*
X149122767Y-84869208D01*
X149245694Y-84656292D01*
X149339778Y-84429153D01*
X149403409Y-84191677D01*
X149435500Y-83947927D01*
X149435500Y-83702073D01*
X149403409Y-83458323D01*
X149339778Y-83220847D01*
X149245694Y-82993708D01*
X149143427Y-82816577D01*
X151209500Y-82816577D01*
X151209500Y-83013422D01*
X151240290Y-83207826D01*
X151301117Y-83395029D01*
X151353763Y-83498352D01*
X151390476Y-83570405D01*
X151506172Y-83729646D01*
X151645354Y-83868828D01*
X151804595Y-83984524D01*
X151917823Y-84042216D01*
X151981213Y-84074515D01*
X152032009Y-84122489D01*
X152048804Y-84190310D01*
X152026267Y-84256445D01*
X151981213Y-84295485D01*
X151804594Y-84385476D01*
X151723225Y-84444595D01*
X151645354Y-84501172D01*
X151645352Y-84501174D01*
X151645351Y-84501174D01*
X151506174Y-84640351D01*
X151506174Y-84640352D01*
X151506172Y-84640354D01*
X151466710Y-84694669D01*
X151390476Y-84799594D01*
X151301117Y-84974970D01*
X151240290Y-85162173D01*
X151209500Y-85356577D01*
X151209500Y-85553422D01*
X151240290Y-85747826D01*
X151301117Y-85935029D01*
X151368448Y-86067173D01*
X151390476Y-86110405D01*
X151506172Y-86269646D01*
X151645354Y-86408828D01*
X151804595Y-86524524D01*
X151886974Y-86566498D01*
X151979970Y-86613882D01*
X151979972Y-86613882D01*
X151979975Y-86613884D01*
X152029575Y-86630000D01*
X152167173Y-86674709D01*
X152361578Y-86705500D01*
X152361583Y-86705500D01*
X152558422Y-86705500D01*
X152752826Y-86674709D01*
X152791272Y-86662217D01*
X152940025Y-86613884D01*
X153115405Y-86524524D01*
X153274646Y-86408828D01*
X153413828Y-86269646D01*
X153529524Y-86110405D01*
X153618884Y-85935025D01*
X153679709Y-85747826D01*
X153690565Y-85679284D01*
X153710500Y-85553422D01*
X153710500Y-85356577D01*
X153679709Y-85162173D01*
X153629176Y-85006650D01*
X153618884Y-84974975D01*
X153618882Y-84974972D01*
X153618882Y-84974970D01*
X153549198Y-84838208D01*
X153529524Y-84799595D01*
X153413828Y-84640354D01*
X153274646Y-84501172D01*
X153175520Y-84429152D01*
X153115403Y-84385474D01*
X152938787Y-84295485D01*
X152887990Y-84247511D01*
X152871195Y-84179690D01*
X152893732Y-84113555D01*
X152938787Y-84074515D01*
X153115403Y-83984525D01*
X153115402Y-83984525D01*
X153115405Y-83984524D01*
X153274646Y-83868828D01*
X153413828Y-83729646D01*
X153529524Y-83570405D01*
X153618884Y-83395025D01*
X153679709Y-83207826D01*
X153685109Y-83173733D01*
X153710500Y-83013422D01*
X153710500Y-82816577D01*
X153679709Y-82622173D01*
X153637183Y-82491293D01*
X153618884Y-82434975D01*
X153618882Y-82434972D01*
X153618882Y-82434970D01*
X153571743Y-82342455D01*
X153529524Y-82259595D01*
X153413828Y-82100354D01*
X153274646Y-81961172D01*
X153115405Y-81845476D01*
X153086327Y-81830660D01*
X152940029Y-81756117D01*
X152752826Y-81695290D01*
X152558422Y-81664500D01*
X152558417Y-81664500D01*
X152361583Y-81664500D01*
X152361578Y-81664500D01*
X152167173Y-81695290D01*
X151979970Y-81756117D01*
X151804594Y-81845476D01*
X151771603Y-81869446D01*
X151645354Y-81961172D01*
X151645352Y-81961174D01*
X151645351Y-81961174D01*
X151506174Y-82100351D01*
X151506174Y-82100352D01*
X151506172Y-82100354D01*
X151479381Y-82137229D01*
X151390476Y-82259594D01*
X151301117Y-82434970D01*
X151240290Y-82622173D01*
X151209500Y-82816577D01*
X149143427Y-82816577D01*
X149122767Y-82780792D01*
X148973101Y-82585744D01*
X148973096Y-82585738D01*
X148799261Y-82411903D01*
X148799254Y-82411897D01*
X148604212Y-82262236D01*
X148604211Y-82262235D01*
X148604208Y-82262233D01*
X148430260Y-82161804D01*
X148391294Y-82139307D01*
X148391285Y-82139303D01*
X148164162Y-82045225D01*
X148164155Y-82045223D01*
X148164153Y-82045222D01*
X147926677Y-81981591D01*
X147885939Y-81976227D01*
X147682934Y-81949500D01*
X147682927Y-81949500D01*
X147437073Y-81949500D01*
X147437065Y-81949500D01*
X147205059Y-81980045D01*
X147193323Y-81981591D01*
X147011675Y-82030263D01*
X146955847Y-82045222D01*
X146955837Y-82045225D01*
X146728714Y-82139303D01*
X146728705Y-82139307D01*
X146515787Y-82262236D01*
X146404365Y-82347733D01*
X146339196Y-82372927D01*
X146270751Y-82358888D01*
X146220761Y-82310074D01*
X146205098Y-82241983D01*
X146209101Y-82217278D01*
X146230548Y-82137238D01*
X146260500Y-81909734D01*
X146260500Y-81680266D01*
X146230548Y-81452762D01*
X146171158Y-81231113D01*
X146083344Y-81019112D01*
X145968611Y-80820388D01*
X145968608Y-80820385D01*
X145968607Y-80820382D01*
X145849629Y-80665329D01*
X145828919Y-80638339D01*
X145828918Y-80638338D01*
X145828911Y-80638330D01*
X145666670Y-80476089D01*
X145666661Y-80476081D01*
X145484617Y-80336392D01*
X145419959Y-80299062D01*
X145285888Y-80221656D01*
X145285876Y-80221650D01*
X145073887Y-80133842D01*
X145056189Y-80129100D01*
X144852238Y-80074452D01*
X144814215Y-80069446D01*
X144624741Y-80044500D01*
X144624734Y-80044500D01*
X144395266Y-80044500D01*
X144395258Y-80044500D01*
X144178715Y-80073009D01*
X144167762Y-80074452D01*
X144074076Y-80099554D01*
X143946112Y-80133842D01*
X143734123Y-80221650D01*
X143734109Y-80221657D01*
X143535382Y-80336392D01*
X143353338Y-80476081D01*
X143191081Y-80638338D01*
X143051392Y-80820382D01*
X142936657Y-81019109D01*
X142936650Y-81019123D01*
X142848842Y-81231112D01*
X142789453Y-81452759D01*
X142789451Y-81452770D01*
X142759500Y-81680258D01*
X130800500Y-81680258D01*
X130800499Y-81470350D01*
X130800499Y-81201662D01*
X130800498Y-81201644D01*
X130790349Y-81102292D01*
X130790348Y-81102289D01*
X130737003Y-80941303D01*
X130736999Y-80941297D01*
X130736998Y-80941294D01*
X130647970Y-80796959D01*
X130647967Y-80796955D01*
X130528044Y-80677032D01*
X130528040Y-80677029D01*
X130383705Y-80588001D01*
X130383699Y-80587998D01*
X130383697Y-80587997D01*
X130296298Y-80559036D01*
X130238854Y-80519263D01*
X130212031Y-80454747D01*
X130224346Y-80385971D01*
X130229750Y-80376257D01*
X130300049Y-80262287D01*
X130352936Y-80102685D01*
X130363000Y-80004174D01*
X130363000Y-79395826D01*
X130352936Y-79297315D01*
X130300049Y-79137713D01*
X130300045Y-79137707D01*
X130300044Y-79137704D01*
X130211783Y-78994612D01*
X130211780Y-78994608D01*
X130092891Y-78875719D01*
X130092887Y-78875716D01*
X129949795Y-78787455D01*
X129949789Y-78787452D01*
X129949787Y-78787451D01*
X129790185Y-78734564D01*
X129790183Y-78734563D01*
X129691681Y-78724500D01*
X129691674Y-78724500D01*
X129158326Y-78724500D01*
X129158318Y-78724500D01*
X129059816Y-78734563D01*
X129059815Y-78734564D01*
X128992159Y-78756983D01*
X128900215Y-78787450D01*
X128900204Y-78787455D01*
X128757112Y-78875716D01*
X128757108Y-78875719D01*
X128725181Y-78907647D01*
X128663858Y-78941132D01*
X128594166Y-78936148D01*
X128549819Y-78907647D01*
X128517891Y-78875719D01*
X128517887Y-78875716D01*
X128374795Y-78787455D01*
X128374789Y-78787452D01*
X128374787Y-78787451D01*
X128215185Y-78734564D01*
X128215183Y-78734563D01*
X128116681Y-78724500D01*
X128116674Y-78724500D01*
X127583326Y-78724500D01*
X127583318Y-78724500D01*
X127484821Y-78734563D01*
X127484816Y-78734563D01*
X127484815Y-78734564D01*
X127484814Y-78734564D01*
X127484810Y-78734565D01*
X127458735Y-78743206D01*
X127419732Y-78749500D01*
X117308511Y-78749500D01*
X117241472Y-78729815D01*
X117195717Y-78677011D01*
X117185773Y-78607853D01*
X117214798Y-78544297D01*
X117243412Y-78519962D01*
X117368656Y-78442712D01*
X117492712Y-78318656D01*
X117584814Y-78169334D01*
X117639999Y-78002797D01*
X117650500Y-77900009D01*
X117650499Y-75899992D01*
X117639999Y-75797203D01*
X117584814Y-75630666D01*
X117492712Y-75481344D01*
X117368656Y-75357288D01*
X117368652Y-75357285D01*
X117284403Y-75305319D01*
X117237678Y-75253371D01*
X117225500Y-75199781D01*
X117225500Y-74601874D01*
X117245185Y-74534835D01*
X117261819Y-74514193D01*
X117372968Y-74403044D01*
X117462003Y-74258697D01*
X117515349Y-74097708D01*
X117525500Y-73998345D01*
X117525499Y-73481902D01*
X149999500Y-73481902D01*
X149999500Y-73718097D01*
X150036446Y-73951368D01*
X150109433Y-74175996D01*
X150177842Y-74310255D01*
X150216657Y-74386433D01*
X150355483Y-74577510D01*
X150522490Y-74744517D01*
X150713567Y-74883343D01*
X150812991Y-74934002D01*
X150924003Y-74990566D01*
X150924005Y-74990566D01*
X150924008Y-74990568D01*
X151044412Y-75029689D01*
X151148631Y-75063553D01*
X151381903Y-75100500D01*
X151381908Y-75100500D01*
X151618097Y-75100500D01*
X151851368Y-75063553D01*
X152075992Y-74990568D01*
X152286433Y-74883343D01*
X152477510Y-74744517D01*
X152644517Y-74577510D01*
X152783343Y-74386433D01*
X152890568Y-74175992D01*
X152963553Y-73951368D01*
X152975491Y-73875996D01*
X153000500Y-73718097D01*
X153000500Y-73481902D01*
X152963553Y-73248631D01*
X152890566Y-73024003D01*
X152815678Y-72877029D01*
X152783343Y-72813567D01*
X152644517Y-72622490D01*
X152477510Y-72455483D01*
X152286433Y-72316657D01*
X152249911Y-72298048D01*
X152075996Y-72209433D01*
X151851368Y-72136446D01*
X151618097Y-72099500D01*
X151618092Y-72099500D01*
X151381908Y-72099500D01*
X151381903Y-72099500D01*
X151148631Y-72136446D01*
X150924003Y-72209433D01*
X150713566Y-72316657D01*
X150604550Y-72395862D01*
X150522490Y-72455483D01*
X150522488Y-72455485D01*
X150522487Y-72455485D01*
X150355485Y-72622487D01*
X150355485Y-72622488D01*
X150355483Y-72622490D01*
X150295862Y-72704550D01*
X150216657Y-72813566D01*
X150109433Y-73024003D01*
X150036446Y-73248631D01*
X149999500Y-73481902D01*
X117525499Y-73481902D01*
X117525499Y-73401656D01*
X117524626Y-73393113D01*
X117515349Y-73302292D01*
X117515348Y-73302289D01*
X117505276Y-73271893D01*
X117462003Y-73141303D01*
X117461999Y-73141297D01*
X117461998Y-73141294D01*
X117372970Y-72996959D01*
X117372967Y-72996955D01*
X117253044Y-72877032D01*
X117253040Y-72877029D01*
X117108705Y-72788001D01*
X117108699Y-72787998D01*
X117108697Y-72787997D01*
X117032995Y-72762912D01*
X116947709Y-72734651D01*
X116848346Y-72724500D01*
X116301662Y-72724500D01*
X116301644Y-72724501D01*
X116202292Y-72734650D01*
X116202289Y-72734651D01*
X116041305Y-72787996D01*
X116041294Y-72788001D01*
X115896959Y-72877029D01*
X115896955Y-72877032D01*
X115777032Y-72996955D01*
X115777029Y-72996959D01*
X115688001Y-73141294D01*
X115687996Y-73141305D01*
X115634651Y-73302290D01*
X115624500Y-73401647D01*
X115624500Y-73998337D01*
X115624501Y-73998355D01*
X115634650Y-74097707D01*
X115634651Y-74097710D01*
X115687996Y-74258694D01*
X115688001Y-74258705D01*
X115777029Y-74403040D01*
X115777032Y-74403044D01*
X115888181Y-74514193D01*
X115921666Y-74575516D01*
X115924500Y-74601874D01*
X115924500Y-75075500D01*
X115904815Y-75142539D01*
X115852011Y-75188294D01*
X115800500Y-75199500D01*
X115349998Y-75199500D01*
X115349980Y-75199501D01*
X115247203Y-75210000D01*
X115247200Y-75210001D01*
X115080668Y-75265185D01*
X115080663Y-75265187D01*
X114931342Y-75357289D01*
X114807289Y-75481342D01*
X114715187Y-75630663D01*
X114715186Y-75630666D01*
X114660001Y-75797203D01*
X114660001Y-75797204D01*
X114660000Y-75797204D01*
X114649500Y-75899983D01*
X114649500Y-77900001D01*
X114649501Y-77900018D01*
X114660000Y-78002796D01*
X114660001Y-78002799D01*
X114711809Y-78159144D01*
X114715186Y-78169334D01*
X114807288Y-78318656D01*
X114931344Y-78442712D01*
X115056586Y-78519961D01*
X115103310Y-78571909D01*
X115114533Y-78640871D01*
X115086689Y-78704954D01*
X115028621Y-78743810D01*
X114991489Y-78749500D01*
X113608511Y-78749500D01*
X113541472Y-78729815D01*
X113495717Y-78677011D01*
X113485773Y-78607853D01*
X113514798Y-78544297D01*
X113543412Y-78519962D01*
X113668656Y-78442712D01*
X113792712Y-78318656D01*
X113884814Y-78169334D01*
X113939999Y-78002797D01*
X113950500Y-77900009D01*
X113950499Y-76310124D01*
X113959937Y-76262674D01*
X113967487Y-76244446D01*
X113986504Y-76198535D01*
X114000501Y-76164744D01*
X114025500Y-76039069D01*
X114025500Y-74601874D01*
X114045185Y-74534835D01*
X114061819Y-74514193D01*
X114172968Y-74403044D01*
X114262003Y-74258697D01*
X114315349Y-74097708D01*
X114325500Y-73998345D01*
X114325499Y-73401656D01*
X114324626Y-73393113D01*
X114315349Y-73302292D01*
X114315348Y-73302289D01*
X114305276Y-73271893D01*
X114262003Y-73141303D01*
X114261999Y-73141297D01*
X114261998Y-73141294D01*
X114172970Y-72996959D01*
X114172967Y-72996955D01*
X114053044Y-72877032D01*
X114053040Y-72877029D01*
X113908705Y-72788001D01*
X113908699Y-72787998D01*
X113908697Y-72787997D01*
X113832995Y-72762912D01*
X113747709Y-72734651D01*
X113648346Y-72724500D01*
X113101662Y-72724500D01*
X113101644Y-72724501D01*
X113002292Y-72734650D01*
X113002289Y-72734651D01*
X112841305Y-72787996D01*
X112841294Y-72788001D01*
X112696959Y-72877029D01*
X112696955Y-72877032D01*
X112577032Y-72996955D01*
X112577029Y-72996959D01*
X112488001Y-73141294D01*
X112487996Y-73141305D01*
X112434651Y-73302290D01*
X112424500Y-73401647D01*
X112424500Y-73998337D01*
X112424501Y-73998355D01*
X112434650Y-74097707D01*
X112434651Y-74097710D01*
X112487996Y-74258694D01*
X112488001Y-74258705D01*
X112577029Y-74403040D01*
X112577032Y-74403044D01*
X112688181Y-74514193D01*
X112721666Y-74575516D01*
X112724500Y-74601874D01*
X112724500Y-75075500D01*
X112704815Y-75142539D01*
X112652011Y-75188294D01*
X112600500Y-75199500D01*
X111649998Y-75199500D01*
X111649980Y-75199501D01*
X111547203Y-75210000D01*
X111547200Y-75210001D01*
X111380668Y-75265185D01*
X111380663Y-75265187D01*
X111231342Y-75357289D01*
X111107289Y-75481342D01*
X111015187Y-75630663D01*
X111015186Y-75630666D01*
X110960001Y-75797203D01*
X110960001Y-75797204D01*
X110960000Y-75797204D01*
X110949500Y-75899983D01*
X110949500Y-77524126D01*
X110929815Y-77591165D01*
X110877011Y-77636920D01*
X110807853Y-77646864D01*
X110744297Y-77617839D01*
X110737819Y-77611807D01*
X110703044Y-77577032D01*
X110703040Y-77577029D01*
X110558705Y-77488001D01*
X110558699Y-77487998D01*
X110558697Y-77487997D01*
X110558694Y-77487996D01*
X110397709Y-77434651D01*
X110298352Y-77424500D01*
X110298345Y-77424500D01*
X109949500Y-77424500D01*
X109882461Y-77404815D01*
X109836706Y-77352011D01*
X109825500Y-77300500D01*
X109825500Y-75910928D01*
X109800502Y-75785261D01*
X109800501Y-75785260D01*
X109800501Y-75785256D01*
X109751465Y-75666873D01*
X109680277Y-75560331D01*
X109680275Y-75560329D01*
X109680273Y-75560326D01*
X107964673Y-73844726D01*
X107889842Y-73794726D01*
X107858127Y-73773535D01*
X107739744Y-73724499D01*
X107739742Y-73724498D01*
X107739741Y-73724498D01*
X107734903Y-73723536D01*
X107734898Y-73723535D01*
X107614071Y-73699500D01*
X107614069Y-73699500D01*
X104574767Y-73699500D01*
X104527315Y-73690061D01*
X104489748Y-73674500D01*
X104489738Y-73674497D01*
X104364071Y-73649500D01*
X104364069Y-73649500D01*
X103035931Y-73649500D01*
X103035929Y-73649500D01*
X102910261Y-73674497D01*
X102910255Y-73674499D01*
X102805016Y-73718090D01*
X102805014Y-73718092D01*
X102791873Y-73723535D01*
X102739312Y-73758654D01*
X102685326Y-73794726D01*
X102394727Y-74085325D01*
X102394721Y-74085332D01*
X102344659Y-74160256D01*
X102344660Y-74160257D01*
X102323534Y-74191874D01*
X102274499Y-74310255D01*
X102274497Y-74310261D01*
X102249500Y-74435928D01*
X102249500Y-74435931D01*
X102249500Y-78033477D01*
X102259384Y-78083165D01*
X102274499Y-78159152D01*
X102323535Y-78277535D01*
X102394723Y-78384077D01*
X102394726Y-78384081D01*
X102394727Y-78384082D01*
X102706306Y-78695660D01*
X102739791Y-78756983D01*
X102734807Y-78826674D01*
X102721727Y-78852231D01*
X102646288Y-78965133D01*
X102646278Y-78965151D01*
X102585940Y-79110822D01*
X102585937Y-79110834D01*
X102555176Y-79265477D01*
X102555176Y-79423170D01*
X102585937Y-79577813D01*
X102585940Y-79577825D01*
X102646278Y-79723496D01*
X102646282Y-79723503D01*
X102684278Y-79780368D01*
X102705156Y-79847045D01*
X102705176Y-79849259D01*
X102705176Y-81119745D01*
X102705176Y-81119747D01*
X102705175Y-81119747D01*
X102730173Y-81245414D01*
X102730175Y-81245420D01*
X102749416Y-81291873D01*
X102779211Y-81363803D01*
X102810253Y-81410261D01*
X102850402Y-81470349D01*
X102850403Y-81470350D01*
X103213181Y-81833127D01*
X103246666Y-81894450D01*
X103249500Y-81920808D01*
X103249500Y-84115500D01*
X103229815Y-84182539D01*
X103177011Y-84228294D01*
X103125500Y-84239500D01*
X101691874Y-84239500D01*
X101624835Y-84219815D01*
X101604193Y-84203181D01*
X101578044Y-84177032D01*
X101578040Y-84177029D01*
X101433705Y-84088001D01*
X101433699Y-84087998D01*
X101433697Y-84087997D01*
X101393011Y-84074515D01*
X101272709Y-84034651D01*
X101173352Y-84024500D01*
X101173345Y-84024500D01*
X101136434Y-84024500D01*
X101112243Y-84022117D01*
X101074551Y-84014619D01*
X100998543Y-83999500D01*
X100998541Y-83999500D01*
X100801459Y-83999500D01*
X100768569Y-84006041D01*
X100687745Y-84022118D01*
X100663558Y-84024500D01*
X100626663Y-84024500D01*
X100626643Y-84024501D01*
X100527292Y-84034650D01*
X100527289Y-84034651D01*
X100366305Y-84087996D01*
X100366294Y-84088001D01*
X100221959Y-84177029D01*
X100221955Y-84177032D01*
X100102032Y-84296955D01*
X100102029Y-84296959D01*
X100013001Y-84441294D01*
X100012996Y-84441305D01*
X99959651Y-84602290D01*
X99959650Y-84602296D01*
X99954243Y-84655214D01*
X99950873Y-84673897D01*
X99948715Y-84682169D01*
X99937949Y-84708165D01*
X99925121Y-84772648D01*
X99924203Y-84776172D01*
X99908015Y-84803134D01*
X99893446Y-84830986D01*
X99891896Y-84832564D01*
X95421279Y-89303181D01*
X95359956Y-89336666D01*
X95333598Y-89339500D01*
X93802129Y-89339500D01*
X93802123Y-89339501D01*
X93742516Y-89345908D01*
X93607671Y-89396202D01*
X93607664Y-89396206D01*
X93492455Y-89482452D01*
X93492452Y-89482455D01*
X93406206Y-89597664D01*
X93406202Y-89597671D01*
X93355908Y-89732517D01*
X93349501Y-89792116D01*
X93349500Y-89792135D01*
X92569217Y-89792135D01*
X92600388Y-73458891D01*
X92602221Y-73451149D01*
X92600514Y-73393113D01*
X92600547Y-73375449D01*
X92600583Y-73372760D01*
X92602271Y-73302292D01*
X92605153Y-73181902D01*
X93999500Y-73181902D01*
X93999500Y-73418097D01*
X94036446Y-73651368D01*
X94109433Y-73875996D01*
X94216096Y-74085332D01*
X94216657Y-74086433D01*
X94355483Y-74277510D01*
X94522490Y-74444517D01*
X94713567Y-74583343D01*
X94812991Y-74634002D01*
X94924003Y-74690566D01*
X94924005Y-74690566D01*
X94924008Y-74690568D01*
X95044412Y-74729689D01*
X95148631Y-74763553D01*
X95381903Y-74800500D01*
X95381908Y-74800500D01*
X95618097Y-74800500D01*
X95851368Y-74763553D01*
X96075992Y-74690568D01*
X96286433Y-74583343D01*
X96477510Y-74444517D01*
X96644517Y-74277510D01*
X96783343Y-74086433D01*
X96890568Y-73875992D01*
X96963553Y-73651368D01*
X96990394Y-73481902D01*
X97000500Y-73418097D01*
X97000500Y-73181902D01*
X96963553Y-72948631D01*
X96929689Y-72844412D01*
X96890568Y-72724008D01*
X96890566Y-72724005D01*
X96890566Y-72724003D01*
X96783342Y-72513566D01*
X96774426Y-72501294D01*
X96644517Y-72322490D01*
X96477510Y-72155483D01*
X96286433Y-72016657D01*
X96242084Y-71994060D01*
X96075996Y-71909433D01*
X95851368Y-71836446D01*
X95618097Y-71799500D01*
X95618092Y-71799500D01*
X95381908Y-71799500D01*
X95381903Y-71799500D01*
X95148631Y-71836446D01*
X94924003Y-71909433D01*
X94713566Y-72016657D01*
X94604550Y-72095862D01*
X94522490Y-72155483D01*
X94522488Y-72155485D01*
X94522487Y-72155485D01*
X94355485Y-72322487D01*
X94355485Y-72322488D01*
X94355483Y-72322490D01*
X94295862Y-72404550D01*
X94216657Y-72513566D01*
X94109433Y-72724003D01*
X94036446Y-72948631D01*
X93999500Y-73181902D01*
X92605153Y-73181902D01*
X92607528Y-73082663D01*
X92608548Y-73069488D01*
X92647115Y-72775900D01*
X92649531Y-72762921D01*
X92719137Y-72475113D01*
X92722919Y-72462471D01*
X92822778Y-72183702D01*
X92827883Y-72171538D01*
X92956858Y-71904988D01*
X92963232Y-71893430D01*
X93119862Y-71642115D01*
X93127410Y-71631331D01*
X93309913Y-71398119D01*
X93318594Y-71388169D01*
X93318777Y-71387981D01*
X93524870Y-71175737D01*
X93534563Y-71166766D01*
X93762290Y-70977502D01*
X93772868Y-70969624D01*
X94019454Y-70805684D01*
X94030822Y-70798970D01*
X94293469Y-70662214D01*
X94305477Y-70656754D01*
X94581185Y-70548744D01*
X94593711Y-70544592D01*
X94879362Y-70466549D01*
X94892256Y-70463756D01*
X95184574Y-70416576D01*
X95197717Y-70415169D01*
X95496704Y-70399206D01*
X95503315Y-70399030D01*
X95565892Y-70399030D01*
X151434108Y-70399030D01*
X151496754Y-70399030D01*
X151503243Y-70399199D01*
G37*
%TD.AperFunction*%
%TA.AperFunction,Conductor*%
G36*
X103746231Y-125070185D02*
G01*
X103766873Y-125086819D01*
X104113181Y-125433127D01*
X104146666Y-125494450D01*
X104149500Y-125520808D01*
X104149500Y-126825500D01*
X104129815Y-126892539D01*
X104077011Y-126938294D01*
X104025500Y-126949500D01*
X102790392Y-126949500D01*
X102723353Y-126929815D01*
X102702711Y-126913181D01*
X102534231Y-126744701D01*
X102500746Y-126683378D01*
X102505730Y-126613686D01*
X102547602Y-126557753D01*
X102556800Y-126551491D01*
X102603044Y-126522968D01*
X102722968Y-126403044D01*
X102812003Y-126258697D01*
X102865349Y-126097708D01*
X102870755Y-126044788D01*
X102879550Y-126009942D01*
X102887051Y-125991835D01*
X102910094Y-125875992D01*
X102925500Y-125798543D01*
X102925500Y-125601456D01*
X102887052Y-125408170D01*
X102887051Y-125408169D01*
X102887051Y-125408165D01*
X102879549Y-125390055D01*
X102873558Y-125371633D01*
X102871602Y-125363511D01*
X102865349Y-125302292D01*
X102834297Y-125208583D01*
X102833080Y-125203528D01*
X102834555Y-125173614D01*
X102833526Y-125143675D01*
X102836259Y-125139081D01*
X102836523Y-125133744D01*
X102853937Y-125109376D01*
X102869258Y-125083634D01*
X102874041Y-125081247D01*
X102877149Y-125076899D01*
X102904972Y-125065815D01*
X102931779Y-125052441D01*
X102940487Y-125051667D01*
X102942058Y-125051042D01*
X102943773Y-125051375D01*
X102953634Y-125050500D01*
X103679192Y-125050500D01*
X103746231Y-125070185D01*
G37*
%TD.AperFunction*%
%TD*%
M02*
