%TF.GenerationSoftware,KiCad,Pcbnew,10.0.0*%
%TF.CreationDate,2026-08-27T01:11:35+05:30*%
%TF.ProjectId,USB to EtherCAT Adapter,55534220-746f-4204-9574-686572434154,rev?*%
%TF.SameCoordinates,Original*%
%TF.FileFunction,Copper,L1,Top*%
%TF.FilePolarity,Positive*%
%FSLAX46Y46*%
G04 Gerber Fmt 4.6, Leading zero omitted, Abs format (unit mm)*
G04 Created by KiCad (PCBNEW 10.0.0) date 2026-08-27 01:11:35*
%MOMM*%
%LPD*%
G01*
G04 APERTURE LIST*
G04 Aperture macros list*
%AMRoundRect*
0 Rectangle with rounded corners*
0 $1 Rounding radius*
0 $2 $3 $4 $5 $6 $7 $8 $9 X,Y pos of 4 corners*
0 Add a 4 corners polygon primitive as box body*
4,1,4,$2,$3,$4,$5,$6,$7,$8,$9,$2,$3,0*
0 Add four circle primitives for the rounded corners*
1,1,$1+$1,$2,$3*
1,1,$1+$1,$4,$5*
1,1,$1+$1,$6,$7*
1,1,$1+$1,$8,$9*
0 Add four rect primitives between the rounded corners*
20,1,$1+$1,$2,$3,$4,$5,0*
20,1,$1+$1,$4,$5,$6,$7,0*
20,1,$1+$1,$6,$7,$8,$9,0*
20,1,$1+$1,$8,$9,$2,$3,0*%
G04 Aperture macros list end*
%TA.AperFunction,SMDPad,CuDef*%
%ADD10RoundRect,0.200000X-0.200000X-0.275000X0.200000X-0.275000X0.200000X0.275000X-0.200000X0.275000X0*%
%TD*%
%TA.AperFunction,ComponentPad*%
%ADD11R,1.508000X1.508000*%
%TD*%
%TA.AperFunction,ComponentPad*%
%ADD12C,1.508000*%
%TD*%
%TA.AperFunction,ComponentPad*%
%ADD13O,3.016000X1.508000*%
%TD*%
%TA.AperFunction,SMDPad,CuDef*%
%ADD14RoundRect,0.218750X-0.218750X-0.256250X0.218750X-0.256250X0.218750X0.256250X-0.218750X0.256250X0*%
%TD*%
%TA.AperFunction,SMDPad,CuDef*%
%ADD15RoundRect,0.225000X0.250000X-0.225000X0.250000X0.225000X-0.250000X0.225000X-0.250000X-0.225000X0*%
%TD*%
%TA.AperFunction,SMDPad,CuDef*%
%ADD16RoundRect,0.062500X-0.062500X0.117500X-0.062500X-0.117500X0.062500X-0.117500X0.062500X0.117500X0*%
%TD*%
%TA.AperFunction,ComponentPad*%
%ADD17R,1.700000X1.700000*%
%TD*%
%TA.AperFunction,ComponentPad*%
%ADD18C,1.700000*%
%TD*%
%TA.AperFunction,ComponentPad*%
%ADD19RoundRect,0.250500X0.499500X-0.499500X0.499500X0.499500X-0.499500X0.499500X-0.499500X-0.499500X0*%
%TD*%
%TA.AperFunction,ComponentPad*%
%ADD20C,1.500000*%
%TD*%
%TA.AperFunction,ComponentPad*%
%ADD21C,2.500000*%
%TD*%
%TA.AperFunction,SMDPad,CuDef*%
%ADD22RoundRect,0.218750X-0.256250X0.218750X-0.256250X-0.218750X0.256250X-0.218750X0.256250X0.218750X0*%
%TD*%
%TA.AperFunction,SMDPad,CuDef*%
%ADD23RoundRect,0.225000X-0.250000X0.225000X-0.250000X-0.225000X0.250000X-0.225000X0.250000X0.225000X0*%
%TD*%
%TA.AperFunction,SMDPad,CuDef*%
%ADD24RoundRect,0.200000X0.200000X0.275000X-0.200000X0.275000X-0.200000X-0.275000X0.200000X-0.275000X0*%
%TD*%
%TA.AperFunction,SMDPad,CuDef*%
%ADD25RoundRect,0.250000X-0.950000X0.750000X-0.950000X-0.750000X0.950000X-0.750000X0.950000X0.750000X0*%
%TD*%
%TA.AperFunction,SMDPad,CuDef*%
%ADD26RoundRect,0.375000X-0.375000X0.625000X-0.375000X-0.625000X0.375000X-0.625000X0.375000X0.625000X0*%
%TD*%
%TA.AperFunction,SMDPad,CuDef*%
%ADD27RoundRect,0.500000X-1.400000X0.500000X-1.400000X-0.500000X1.400000X-0.500000X1.400000X0.500000X0*%
%TD*%
%TA.AperFunction,SMDPad,CuDef*%
%ADD28RoundRect,0.225000X0.225000X0.250000X-0.225000X0.250000X-0.225000X-0.250000X0.225000X-0.250000X0*%
%TD*%
%TA.AperFunction,SMDPad,CuDef*%
%ADD29RoundRect,0.062500X0.375000X0.062500X-0.375000X0.062500X-0.375000X-0.062500X0.375000X-0.062500X0*%
%TD*%
%TA.AperFunction,SMDPad,CuDef*%
%ADD30RoundRect,0.062500X0.062500X0.375000X-0.062500X0.375000X-0.062500X-0.375000X0.062500X-0.375000X0*%
%TD*%
%TA.AperFunction,HeatsinkPad*%
%ADD31R,5.600000X5.600000*%
%TD*%
%TA.AperFunction,SMDPad,CuDef*%
%ADD32RoundRect,0.218750X0.381250X-0.218750X0.381250X0.218750X-0.381250X0.218750X-0.381250X-0.218750X0*%
%TD*%
%TA.AperFunction,SMDPad,CuDef*%
%ADD33RoundRect,0.200000X0.275000X-0.200000X0.275000X0.200000X-0.275000X0.200000X-0.275000X-0.200000X0*%
%TD*%
%TA.AperFunction,SMDPad,CuDef*%
%ADD34RoundRect,0.225000X-0.225000X-0.250000X0.225000X-0.250000X0.225000X0.250000X-0.225000X0.250000X0*%
%TD*%
%TA.AperFunction,SMDPad,CuDef*%
%ADD35R,2.000000X1.600000*%
%TD*%
%TA.AperFunction,ViaPad*%
%ADD36C,0.600000*%
%TD*%
%TA.AperFunction,Conductor*%
%ADD37C,0.300000*%
%TD*%
%TA.AperFunction,Conductor*%
%ADD38C,1.000000*%
%TD*%
G04 APERTURE END LIST*
D10*
%TO.P,R6,1*%
%TO.N,VDD33TXRX2*%
X130865000Y-115200000D03*
%TO.P,R6,2*%
%TO.N,RXPB*%
X132515000Y-115200000D03*
%TD*%
D11*
%TO.P,J4,1,VCC_1*%
%TO.N,+5V*%
X97400000Y-111075000D03*
D12*
%TO.P,J4,2,D-_2*%
%TO.N,USB_DN*%
X97400000Y-108575000D03*
%TO.P,J4,3,D+_3*%
%TO.N,USB_DP*%
X97400000Y-106575000D03*
%TO.P,J4,4,GND_4*%
%TO.N,GND*%
X97400000Y-104075000D03*
D13*
%TO.P,J4,SH1,SHIELD_SH1*%
X95400000Y-101725000D03*
%TO.P,J4,SH2,SHIELD_1_SH2*%
X95400000Y-113425000D03*
%TD*%
D14*
%TO.P,D1,1,K_1*%
%TO.N,Net-(D1-K)*%
X122837500Y-84900000D03*
%TO.P,D1,2,A_2*%
%TO.N,+3V3*%
X124412500Y-84900000D03*
%TD*%
D15*
%TO.P,C8,1*%
%TO.N,+3V3*%
X107800000Y-110775000D03*
%TO.P,C8,2*%
%TO.N,GND*%
X107800000Y-109225000D03*
%TD*%
D10*
%TO.P,R3,1*%
%TO.N,VDD33TXRX1*%
X129990000Y-92845000D03*
%TO.P,R3,2*%
%TO.N,TXNA*%
X131640000Y-92845000D03*
%TD*%
%TO.P,R11,1*%
%TO.N,VDD33TXRX2*%
X130565000Y-110500000D03*
%TO.P,R11,2*%
%TO.N,Net-(J2-RCT)*%
X132215000Y-110500000D03*
%TD*%
D16*
%TO.P,D2,1,A1_1*%
%TO.N,GND*%
X103400000Y-110920000D03*
%TO.P,D2,2,A2_2*%
%TO.N,+5V*%
X103400000Y-110080000D03*
%TD*%
D15*
%TO.P,C10,1*%
%TO.N,+3V3*%
X109600000Y-110775000D03*
%TO.P,C10,2*%
%TO.N,GND*%
X109600000Y-109225000D03*
%TD*%
D17*
%TO.P,J3,1,Pin_1_1*%
%TO.N,+3V3*%
X94700000Y-90690000D03*
D18*
%TO.P,J3,2,Pin_2_2*%
%TO.N,SWDIO*%
X94700000Y-93230000D03*
%TO.P,J3,3,Pin_3_3*%
%TO.N,SWCLK*%
X94700000Y-95770000D03*
%TO.P,J3,4,Pin_4_4*%
%TO.N,GND*%
X94700000Y-98310000D03*
%TD*%
D19*
%TO.P,J2,1,TD+_1*%
%TO.N,TXPB*%
X140890000Y-116240000D03*
D20*
%TO.P,J2,2,TD-_2*%
%TO.N,TXNB*%
X138350000Y-114980000D03*
%TO.P,J2,3,RD+_3*%
%TO.N,RXPB*%
X140890000Y-113700000D03*
%TO.P,J2,4,TCT_4*%
%TO.N,Net-(J2-RCT)*%
X138350000Y-112440000D03*
%TO.P,J2,5,RCT_5*%
X140890000Y-111160000D03*
%TO.P,J2,6,RD-_6*%
%TO.N,RXNB*%
X138350000Y-109900000D03*
%TO.P,J2,7,NC_7*%
%TO.N,unconnected-(J2-NC-Pad7)*%
X140890000Y-108620000D03*
%TO.P,J2,8*%
%TO.N,GNDA*%
X138350000Y-107360000D03*
%TO.P,J2,9*%
%TO.N,Net-(J2-Pad9)*%
X152150000Y-118425000D03*
%TO.P,J2,10*%
%TO.N,GNDA*%
X152150000Y-115885000D03*
%TO.P,J2,11*%
%TO.N,unconnected-(J2-Pad11)*%
X152150000Y-107715000D03*
%TO.P,J2,12*%
%TO.N,unconnected-(J2-Pad12)*%
X152150000Y-105175000D03*
D21*
%TO.P,J2,SH*%
%TO.N,GNDA*%
X144200000Y-119545000D03*
X144200000Y-104055000D03*
%TD*%
D22*
%TO.P,D3,1,K_1*%
%TO.N,Net-(D3-K)*%
X107800000Y-118825000D03*
%TO.P,D3,2,A_2*%
%TO.N,+3V3*%
X107800000Y-120400000D03*
%TD*%
D23*
%TO.P,C18,1*%
%TO.N,GND*%
X99700000Y-108525000D03*
%TO.P,C18,2*%
%TO.N,+5V*%
X99700000Y-110075000D03*
%TD*%
D24*
%TO.P,R20,1*%
%TO.N,+3V3*%
X122850000Y-81100000D03*
%TO.P,R20,2*%
%TO.N,GPIO2*%
X121200000Y-81100000D03*
%TD*%
D25*
%TO.P,Y2,1,1_1*%
%TO.N,Net-(U1-PH1)*%
X116800000Y-99750000D03*
%TO.P,Y2,2,2_2*%
%TO.N,Net-(U1-PH0)*%
X116800000Y-103450000D03*
%TD*%
%TO.P,Y1,1,1_1*%
%TO.N,Net-(U1-PC15)*%
X116800000Y-92900000D03*
%TO.P,Y1,2,2_2*%
%TO.N,Net-(U1-PC14)*%
X116800000Y-96600000D03*
%TD*%
D10*
%TO.P,R21,1*%
%TO.N,Net-(D1-K)*%
X119700000Y-84900000D03*
%TO.P,R21,2*%
%TO.N,GPIO2*%
X121350000Y-84900000D03*
%TD*%
%TO.P,R4,1*%
%TO.N,VDD33TXRX2*%
X130840000Y-117100000D03*
%TO.P,R4,2*%
%TO.N,TXNB*%
X132490000Y-117100000D03*
%TD*%
D26*
%TO.P,U4,1,GND_1*%
%TO.N,GND*%
X105300000Y-113750000D03*
%TO.P,U4,2,VO_2*%
%TO.N,+3V3*%
X103000000Y-113750000D03*
D27*
X103000000Y-120050000D03*
D26*
%TO.P,U4,3,VI_3*%
%TO.N,+5V*%
X100700000Y-113750000D03*
%TD*%
D28*
%TO.P,C11,1*%
%TO.N,+3V3*%
X102175000Y-105300000D03*
%TO.P,C11,2*%
%TO.N,GND*%
X100625000Y-105300000D03*
%TD*%
D10*
%TO.P,R7,1*%
%TO.N,VDD33TXRX1*%
X129190000Y-82845000D03*
%TO.P,R7,2*%
%TO.N,RXNA*%
X130840000Y-82845000D03*
%TD*%
D15*
%TO.P,C12,1*%
%TO.N,+3V3*%
X111100000Y-93850000D03*
%TO.P,C12,2*%
%TO.N,GND*%
X111100000Y-92300000D03*
%TD*%
D24*
%TO.P,R17,1*%
%TO.N,Net-(J2-Pad9)*%
X132050000Y-101800000D03*
%TO.P,R17,2*%
%TO.N,GPIO1*%
X130400000Y-101800000D03*
%TD*%
D29*
%TO.P,U1,1,VBAT_1*%
%TO.N,+3V3*%
X109137500Y-101450000D03*
%TO.P,U1,2,PC13_2*%
%TO.N,unconnected-(U1-PC13-Pad2)*%
X109137500Y-100950000D03*
%TO.P,U1,3,PC14_3*%
%TO.N,Net-(U1-PC14)*%
X109137500Y-100450000D03*
%TO.P,U1,4,PC15_4*%
%TO.N,Net-(U1-PC15)*%
X109137500Y-99950000D03*
%TO.P,U1,5,PH0_5*%
%TO.N,Net-(U1-PH0)*%
X109137500Y-99450000D03*
%TO.P,U1,6,PH1_6*%
%TO.N,Net-(U1-PH1)*%
X109137500Y-98950000D03*
%TO.P,U1,7,NRST_7*%
%TO.N,RST*%
X109137500Y-98450000D03*
%TO.P,U1,8,VSSA_8*%
%TO.N,GND*%
X109137500Y-97950000D03*
%TO.P,U1,9,VDDA_9*%
%TO.N,Net-(U1-VDDA)*%
X109137500Y-97450000D03*
%TO.P,U1,10,PA0_10*%
%TO.N,unconnected-(U1-PA0-Pad10)*%
X109137500Y-96950000D03*
%TO.P,U1,11,PA1_11*%
%TO.N,unconnected-(U1-PA1-Pad11)*%
X109137500Y-96450000D03*
%TO.P,U1,12,PA2_12*%
%TO.N,unconnected-(U1-PA2-Pad12)*%
X109137500Y-95950000D03*
D30*
%TO.P,U1,13,PA3_13*%
%TO.N,unconnected-(U1-PA3-Pad13)*%
X108450000Y-95262500D03*
%TO.P,U1,14,PA4_14*%
%TO.N,SCS*%
X107950000Y-95262500D03*
%TO.P,U1,15,PA5_15*%
%TO.N,SCK*%
X107450000Y-95262500D03*
%TO.P,U1,16,PA6_16*%
%TO.N,SO*%
X106950000Y-95262500D03*
%TO.P,U1,17,PA7_17*%
%TO.N,SI*%
X106450000Y-95262500D03*
%TO.P,U1,18,PB0_18*%
%TO.N,unconnected-(U1-PB0-Pad18)*%
X105950000Y-95262500D03*
%TO.P,U1,19,PB1_19*%
%TO.N,unconnected-(U1-PB1-Pad19)*%
X105450000Y-95262500D03*
%TO.P,U1,20,PB2_20*%
%TO.N,unconnected-(U1-PB2-Pad20)*%
X104950000Y-95262500D03*
%TO.P,U1,21,PB10_21*%
%TO.N,unconnected-(U1-PB10-Pad21)*%
X104450000Y-95262500D03*
%TO.P,U1,22,VCAP1_22*%
%TO.N,Net-(U1-VCAP1)*%
X103950000Y-95262500D03*
%TO.P,U1,23,VSS_23*%
%TO.N,GND*%
X103450000Y-95262500D03*
%TO.P,U1,24,VDD_24*%
%TO.N,+3V3*%
X102950000Y-95262500D03*
D29*
%TO.P,U1,25,PB12_25*%
%TO.N,unconnected-(U1-PB12-Pad25)*%
X102262500Y-95950000D03*
%TO.P,U1,26,PB13_26*%
%TO.N,unconnected-(U1-PB13-Pad26)*%
X102262500Y-96450000D03*
%TO.P,U1,27,PB14_27*%
%TO.N,unconnected-(U1-PB14-Pad27)*%
X102262500Y-96950000D03*
%TO.P,U1,28,PB15_28*%
%TO.N,unconnected-(U1-PB15-Pad28)*%
X102262500Y-97450000D03*
%TO.P,U1,29,PA8_29*%
%TO.N,unconnected-(U1-PA8-Pad29)*%
X102262500Y-97950000D03*
%TO.P,U1,30,PA9_30*%
%TO.N,unconnected-(U1-PA9-Pad30)*%
X102262500Y-98450000D03*
%TO.P,U1,31,PA10_31*%
%TO.N,unconnected-(U1-PA10-Pad31)*%
X102262500Y-98950000D03*
%TO.P,U1,32,PA11_32*%
%TO.N,Net-(U1-PA11)*%
X102262500Y-99450000D03*
%TO.P,U1,33,PA12_33*%
%TO.N,Net-(U1-PA12)*%
X102262500Y-99950000D03*
%TO.P,U1,34,PA13_34*%
%TO.N,unconnected-(U1-PA13-Pad34)*%
X102262500Y-100450000D03*
%TO.P,U1,35,VSS_35*%
%TO.N,GND*%
X102262500Y-100950000D03*
%TO.P,U1,36,VDD_36*%
%TO.N,unconnected-(U1-VDD-Pad36)*%
X102262500Y-101450000D03*
D30*
%TO.P,U1,37,PA14_37*%
%TO.N,SWDIO*%
X102950000Y-102137500D03*
%TO.P,U1,38,PA15_38*%
%TO.N,SWCLK*%
X103450000Y-102137500D03*
%TO.P,U1,39,PB3_39*%
%TO.N,unconnected-(U1-PB3-Pad39)*%
X103950000Y-102137500D03*
%TO.P,U1,40,PB4_40*%
%TO.N,unconnected-(U1-PB4-Pad40)*%
X104450000Y-102137500D03*
%TO.P,U1,41,PB5_41*%
%TO.N,unconnected-(U1-PB5-Pad41)*%
X104950000Y-102137500D03*
%TO.P,U1,42,PB6_42*%
%TO.N,unconnected-(U1-PB6-Pad42)*%
X105450000Y-102137500D03*
%TO.P,U1,43,PB7_43*%
%TO.N,unconnected-(U1-PB7-Pad43)*%
X105950000Y-102137500D03*
%TO.P,U1,44,BOOT0_44*%
%TO.N,Net-(U1-BOOT0)*%
X106450000Y-102137500D03*
%TO.P,U1,45,PB8_45*%
%TO.N,unconnected-(U1-PB8-Pad45)*%
X106950000Y-102137500D03*
%TO.P,U1,46,PB9_46*%
%TO.N,unconnected-(U1-PB9-Pad46)*%
X107450000Y-102137500D03*
%TO.P,U1,47,VSS_47*%
%TO.N,GND*%
X107950000Y-102137500D03*
%TO.P,U1,48,VDD_48*%
%TO.N,+3V3*%
X108450000Y-102137500D03*
D31*
%TO.P,U1,49,VSS_49*%
%TO.N,GND*%
X105700000Y-98700000D03*
%TD*%
D10*
%TO.P,R2,1*%
%TO.N,VDD33TXRX2*%
X130740000Y-118900000D03*
%TO.P,R2,2*%
%TO.N,TXPB*%
X132390000Y-118900000D03*
%TD*%
D15*
%TO.P,C4,1*%
%TO.N,GND*%
X120700000Y-101000000D03*
%TO.P,C4,2*%
%TO.N,Net-(U1-PH1)*%
X120700000Y-99450000D03*
%TD*%
%TO.P,C6,1*%
%TO.N,GND*%
X133915000Y-90520000D03*
%TO.P,C6,2*%
%TO.N,Net-(J1-RCT)*%
X133915000Y-88970000D03*
%TD*%
D32*
%TO.P,FB1,1*%
%TO.N,Net-(U1-VDDA)*%
X111200000Y-97500000D03*
%TO.P,FB1,2*%
%TO.N,+3V3*%
X111200000Y-95375000D03*
%TD*%
D33*
%TO.P,R10,1*%
%TO.N,+3V3*%
X108200000Y-105450000D03*
%TO.P,R10,2*%
%TO.N,Net-(U1-BOOT0)*%
X108200000Y-103800000D03*
%TD*%
D10*
%TO.P,R1,1*%
%TO.N,VDD33TXRX1*%
X130115000Y-94645000D03*
%TO.P,R1,2*%
%TO.N,TXPA*%
X131765000Y-94645000D03*
%TD*%
%TO.P,R13,1*%
%TO.N,GND*%
X134640000Y-122900000D03*
%TO.P,R13,2*%
%TO.N,GNDA*%
X136290000Y-122900000D03*
%TD*%
D15*
%TO.P,C3,1*%
%TO.N,GND*%
X120700000Y-104275000D03*
%TO.P,C3,2*%
%TO.N,Net-(U1-PH0)*%
X120700000Y-102725000D03*
%TD*%
D10*
%TO.P,R5,1*%
%TO.N,VDD33TXRX1*%
X129990000Y-90745000D03*
%TO.P,R5,2*%
%TO.N,RXPA*%
X131640000Y-90745000D03*
%TD*%
D23*
%TO.P,C13,1*%
%TO.N,GND*%
X110900000Y-84525000D03*
%TO.P,C13,2*%
%TO.N,RST*%
X110900000Y-86075000D03*
%TD*%
D10*
%TO.P,R8,1*%
%TO.N,VDD33TXRX2*%
X130565000Y-108500000D03*
%TO.P,R8,2*%
%TO.N,RXNB*%
X132215000Y-108500000D03*
%TD*%
D15*
%TO.P,C21,1*%
%TO.N,GND*%
X106000000Y-106775000D03*
%TO.P,C21,2*%
%TO.N,+3V3*%
X106000000Y-105225000D03*
%TD*%
D10*
%TO.P,R9,1*%
%TO.N,VDD33TXRX1*%
X130190000Y-88645000D03*
%TO.P,R9,2*%
%TO.N,Net-(J1-RCT)*%
X131840000Y-88645000D03*
%TD*%
D19*
%TO.P,J1,1,TD+_1*%
%TO.N,TXPA*%
X141200000Y-93980000D03*
D20*
%TO.P,J1,2,TD-_2*%
%TO.N,TXNA*%
X138660000Y-92720000D03*
%TO.P,J1,3,RD+_3*%
%TO.N,RXPA*%
X141200000Y-91440000D03*
%TO.P,J1,4,TCT_4*%
%TO.N,Net-(J1-RCT)*%
X138660000Y-90180000D03*
%TO.P,J1,5,RCT_5*%
X141200000Y-88900000D03*
%TO.P,J1,6,RD-_6*%
%TO.N,RXNA*%
X138660000Y-87640000D03*
%TO.P,J1,7,NC_7*%
%TO.N,unconnected-(J1-NC-Pad7)*%
X141200000Y-86360000D03*
%TO.P,J1,8*%
%TO.N,GNDA*%
X138660000Y-85100000D03*
%TO.P,J1,9*%
%TO.N,Net-(J1-Pad9)*%
X152460000Y-96165000D03*
%TO.P,J1,10*%
%TO.N,GND*%
X152460000Y-93625000D03*
%TO.P,J1,11*%
%TO.N,unconnected-(J1-Pad11)*%
X152460000Y-85455000D03*
%TO.P,J1,12*%
%TO.N,unconnected-(J1-Pad12)*%
X152460000Y-82915000D03*
D21*
%TO.P,J1,SH*%
%TO.N,GNDA*%
X144510000Y-97285000D03*
X144510000Y-81795000D03*
%TD*%
D34*
%TO.P,C9,1*%
%TO.N,+3V3*%
X100725000Y-91900000D03*
%TO.P,C9,2*%
%TO.N,GND*%
X102275000Y-91900000D03*
%TD*%
D35*
%TO.P,SW1,1,1_1*%
%TO.N,GND*%
X103300000Y-86400000D03*
%TO.P,SW1,2,2_2*%
%TO.N,RST*%
X108700000Y-86400000D03*
%TD*%
D15*
%TO.P,C2,1*%
%TO.N,GND*%
X120600000Y-94275000D03*
%TO.P,C2,2*%
%TO.N,Net-(U1-PC15)*%
X120600000Y-92725000D03*
%TD*%
D10*
%TO.P,R12,1*%
%TO.N,GND*%
X134015000Y-80845000D03*
%TO.P,R12,2*%
%TO.N,GNDA*%
X135665000Y-80845000D03*
%TD*%
D24*
%TO.P,R16,1*%
%TO.N,Net-(J1-Pad9)*%
X131875000Y-99600000D03*
%TO.P,R16,2*%
%TO.N,GPIO0*%
X130225000Y-99600000D03*
%TD*%
D15*
%TO.P,C19,1*%
%TO.N,GND*%
X104000000Y-106775000D03*
%TO.P,C19,2*%
%TO.N,+3V3*%
X104000000Y-105225000D03*
%TD*%
%TO.P,C7,1*%
%TO.N,GND*%
X133890000Y-112750000D03*
%TO.P,C7,2*%
%TO.N,Net-(J2-RCT)*%
X133890000Y-111200000D03*
%TD*%
D23*
%TO.P,C17,1*%
%TO.N,GND*%
X101800000Y-108625000D03*
%TO.P,C17,2*%
%TO.N,+5V*%
X101800000Y-110175000D03*
%TD*%
D10*
%TO.P,R18,1*%
%TO.N,+3V3*%
X110975000Y-90600000D03*
%TO.P,R18,2*%
%TO.N,RST*%
X112625000Y-90600000D03*
%TD*%
D15*
%TO.P,C1,1*%
%TO.N,GND*%
X120600000Y-97675000D03*
%TO.P,C1,2*%
%TO.N,Net-(U1-PC14)*%
X120600000Y-96125000D03*
%TD*%
D23*
%TO.P,C5,1*%
%TO.N,GND*%
X103900000Y-92025000D03*
%TO.P,C5,2*%
%TO.N,Net-(U1-VCAP1)*%
X103900000Y-93575000D03*
%TD*%
D10*
%TO.P,R25,1*%
%TO.N,Net-(D3-K)*%
X109575000Y-118700000D03*
%TO.P,R25,2*%
%TO.N,GND*%
X111225000Y-118700000D03*
%TD*%
D36*
%TO.N,GND*%
X133600000Y-76400000D03*
X102100000Y-83800000D03*
X101584620Y-102265380D03*
X99400000Y-103700000D03*
X100400000Y-78900000D03*
X99000000Y-83600000D03*
X133500000Y-75300000D03*
X97700000Y-78900000D03*
X134900000Y-90520000D03*
X109900000Y-93050000D03*
X96300000Y-78900000D03*
X104200000Y-110500000D03*
X101700000Y-107000000D03*
X99100000Y-79000000D03*
X111700000Y-80400000D03*
X109570000Y-88630000D03*
X107100000Y-75000000D03*
X113500000Y-112000000D03*
X115000000Y-111800000D03*
X134700000Y-75300000D03*
X132100000Y-113200000D03*
X132800000Y-87900000D03*
X101100000Y-90300000D03*
X107950000Y-101000000D03*
X99600000Y-78000000D03*
X108100000Y-96900000D03*
X132400000Y-75300000D03*
X122300000Y-101900000D03*
X134700000Y-76500000D03*
X111912489Y-93158692D03*
X98500000Y-78100000D03*
X135900000Y-76300000D03*
X135900000Y-75300000D03*
X132500000Y-89500000D03*
X107000000Y-80600000D03*
X97400000Y-78000000D03*
X103700000Y-126700000D03*
X132500000Y-76400000D03*
X99700000Y-95075000D03*
X104800000Y-76700000D03*
X105000000Y-94100000D03*
X118600000Y-93700000D03*
X110000000Y-81700000D03*
%TO.N,Net-(U1-PC14)*%
X113500000Y-97800000D03*
X111600000Y-102600000D03*
%TO.N,GPIO1*%
X117500000Y-83509620D03*
%TO.N,+3V3*%
X111975000Y-95532828D03*
X122900000Y-81100000D03*
X103355676Y-79344324D03*
X102200000Y-119390000D03*
X115300000Y-110775000D03*
X127700000Y-87900000D03*
X110100000Y-101900000D03*
X104600000Y-78375000D03*
X100800000Y-92100000D03*
X113900000Y-110775000D03*
X119300000Y-94600000D03*
X118300000Y-109100000D03*
%TO.N,VDD33TXRX1*%
X130000000Y-94500000D03*
X119600000Y-106800000D03*
X135632437Y-102167563D03*
X116900000Y-84809620D03*
%TO.N,VDD33TXRX2*%
X130700000Y-108200000D03*
%TO.N,RST*%
X112800000Y-96300000D03*
X112400000Y-98600000D03*
%TO.N,USB_DP*%
X100050000Y-120250000D03*
X100500000Y-117800000D03*
%TO.N,TXNB*%
X132500000Y-117100000D03*
%TO.N,RXPA*%
X132497500Y-91602500D03*
X124100000Y-90350000D03*
X122700000Y-86800000D03*
%TO.N,Net-(U1-PA12)*%
X99500000Y-101000000D03*
%TO.N,SWDIO*%
X100957106Y-100450000D03*
X98975000Y-98300000D03*
%TO.N,Net-(U1-PA11)*%
X100800000Y-97200000D03*
%TO.N,VDDCR*%
X107170000Y-81600000D03*
X107900000Y-84700000D03*
%TO.N,Net-(U3-RBIAS)*%
X126140380Y-88740380D03*
X128800000Y-88800000D03*
%TO.N,TXPA*%
X118780330Y-85926777D03*
%TO.N,TXNA*%
X117449248Y-85547602D03*
%TO.N,RXNA*%
X128700000Y-80900000D03*
%TO.N,GPIO2*%
X119759620Y-83859620D03*
%TO.N,SCS*%
X108000000Y-91980002D03*
%TO.N,SCK*%
X105000000Y-91400000D03*
%TO.N,SI*%
X106450000Y-92850000D03*
%TO.N,GPIO0*%
X118800000Y-82800000D03*
X122700000Y-91100000D03*
X130225000Y-99600000D03*
%TO.N,Net-(U3-OSCI)*%
X113375000Y-95400000D03*
X112450000Y-76900000D03*
%TO.N,Net-(U3-OSCO)*%
X116275000Y-76775000D03*
X113800000Y-87200000D03*
%TD*%
%TO.N,GND*%
D37*
X103450000Y-95262500D02*
X103450000Y-96450000D01*
X111825001Y-90191643D02*
X109183358Y-87550000D01*
X103450000Y-96450000D02*
X105700000Y-98700000D01*
X111100000Y-92300000D02*
X111825001Y-91574999D01*
X102262500Y-100950000D02*
X101739904Y-100950000D01*
X133915000Y-90520000D02*
X134900000Y-90520000D01*
X111912489Y-93158692D02*
X111912489Y-93112489D01*
X103780000Y-110920000D02*
X104200000Y-110500000D01*
X101739904Y-100950000D02*
X101475000Y-101214904D01*
X105450000Y-85650000D02*
X105450000Y-77350000D01*
X110900000Y-84525000D02*
X110900000Y-84400000D01*
X109900000Y-93050000D02*
X109727082Y-93050000D01*
X111803797Y-93050000D02*
X109900000Y-93050000D01*
X105450000Y-77350000D02*
X104800000Y-76700000D01*
X107950000Y-100950000D02*
X105700000Y-98700000D01*
X133890000Y-112750000D02*
X132550000Y-112750000D01*
X111100000Y-92300000D02*
X111100000Y-92346203D01*
X107350000Y-87550000D02*
X105450000Y-85650000D01*
X103300000Y-86400000D02*
X102100000Y-85200000D01*
X101475000Y-101214904D02*
X101475000Y-102155760D01*
X101475000Y-102155760D02*
X101584620Y-102265380D01*
X102100000Y-85200000D02*
X102100000Y-83800000D01*
X111825001Y-91574999D02*
X111825001Y-90191643D01*
X132550000Y-112750000D02*
X132100000Y-113200000D01*
X121400000Y-101000000D02*
X122300000Y-101900000D01*
X108614904Y-97950000D02*
X107864904Y-98700000D01*
X120700000Y-101000000D02*
X121400000Y-101000000D01*
X107950000Y-102137500D02*
X107950000Y-101000000D01*
X111912489Y-93158692D02*
X111803797Y-93050000D01*
X107950000Y-101000000D02*
X107950000Y-100950000D01*
X108900000Y-80600000D02*
X107000000Y-80600000D01*
X110400000Y-81700000D02*
X111700000Y-80400000D01*
X103400000Y-110920000D02*
X103780000Y-110920000D01*
X111225000Y-118700000D02*
X111400000Y-118700000D01*
X107864904Y-98700000D02*
X105700000Y-98700000D01*
X110000000Y-81700000D02*
X108900000Y-80600000D01*
X97400000Y-104075000D02*
X99025000Y-104075000D01*
X109137500Y-97950000D02*
X108614904Y-97950000D01*
X109183358Y-87550000D02*
X107350000Y-87550000D01*
X99025000Y-104075000D02*
X99400000Y-103700000D01*
X110000000Y-81700000D02*
X110400000Y-81700000D01*
%TO.N,Net-(U1-PC14)*%
X110369239Y-101159143D02*
X110369239Y-101250000D01*
X109660096Y-100450000D02*
X110369239Y-101159143D01*
X114700000Y-96600000D02*
X113500000Y-97800000D01*
X117275000Y-96125000D02*
X120600000Y-96125000D01*
X109137500Y-100450000D02*
X109660096Y-100450000D01*
X116800000Y-96600000D02*
X117275000Y-96125000D01*
X110369239Y-101250000D02*
X111600000Y-102480761D01*
X116800000Y-96600000D02*
X114700000Y-96600000D01*
X111600000Y-102480761D02*
X111600000Y-102600000D01*
%TO.N,GPIO1*%
X128900000Y-98000000D02*
X128900000Y-100100000D01*
X117500000Y-83509620D02*
X116990380Y-83509620D01*
X130400000Y-101600000D02*
X130400000Y-101800000D01*
X127500000Y-96600000D02*
X128900000Y-98000000D01*
X128900000Y-100100000D02*
X130400000Y-101600000D01*
X120200000Y-90600000D02*
X126200000Y-96600000D01*
X116990380Y-83509620D02*
X116250000Y-84250000D01*
X116250000Y-84250000D02*
X116250000Y-88150000D01*
X126200000Y-96600000D02*
X127500000Y-96600000D01*
X118700000Y-90600000D02*
X120200000Y-90600000D01*
X116250000Y-88150000D02*
X118700000Y-90600000D01*
%TO.N,GNDA*%
X136890000Y-105900000D02*
X138350000Y-107360000D01*
X144200000Y-119545000D02*
X142645000Y-121100000D01*
X128300000Y-121100000D02*
X126800000Y-119600000D01*
X140895000Y-107360000D02*
X144200000Y-104055000D01*
X136500000Y-105800000D02*
X136600000Y-105900000D01*
X138660000Y-85100000D02*
X141205000Y-85100000D01*
X128200000Y-105800000D02*
X136500000Y-105800000D01*
X136600000Y-105900000D02*
X136890000Y-105900000D01*
X135665000Y-80845000D02*
X138660000Y-83840000D01*
X126800000Y-107200000D02*
X128200000Y-105800000D01*
X126800000Y-119600000D02*
X126800000Y-107200000D01*
X142645000Y-121100000D02*
X128300000Y-121100000D01*
X138660000Y-83840000D02*
X138660000Y-85100000D01*
X140845000Y-122900000D02*
X144200000Y-119545000D01*
X136290000Y-122900000D02*
X140845000Y-122900000D01*
X138350000Y-107360000D02*
X140895000Y-107360000D01*
X141205000Y-85100000D02*
X144510000Y-81795000D01*
%TO.N,+3V3*%
D38*
X127200000Y-87900000D02*
X124412500Y-85112500D01*
D37*
X111100000Y-95275000D02*
X111200000Y-95375000D01*
D38*
X122850000Y-81100000D02*
X124412500Y-82662500D01*
D37*
X114900000Y-94600000D02*
X119300000Y-94600000D01*
X100800000Y-93112500D02*
X100800000Y-92100000D01*
D38*
X108200000Y-106364382D02*
X106200000Y-108364382D01*
D37*
X112100000Y-96989604D02*
X112310396Y-97200000D01*
X113230761Y-97150000D02*
X113442894Y-97150000D01*
D38*
X105525000Y-110775000D02*
X106200000Y-110775000D01*
X127700000Y-87900000D02*
X127200000Y-87900000D01*
D37*
X112310396Y-97200000D02*
X113180761Y-97200000D01*
D38*
X99515000Y-90690000D02*
X100725000Y-91900000D01*
X103000000Y-113750000D02*
X103000000Y-113300000D01*
X104325000Y-78375000D02*
X104600000Y-78375000D01*
D37*
X102775000Y-92725000D02*
X103075000Y-92425000D01*
X114400000Y-96192894D02*
X114400000Y-95100000D01*
D38*
X103000000Y-120050000D02*
X103000000Y-113750000D01*
X116625000Y-110775000D02*
X118300000Y-109100000D01*
X124412500Y-82662500D02*
X124412500Y-84900000D01*
D37*
X111975000Y-95532828D02*
X112100000Y-95657828D01*
X101425000Y-92725000D02*
X102775000Y-92725000D01*
X108450000Y-102137500D02*
X109137500Y-101450000D01*
D38*
X103350000Y-120400000D02*
X103000000Y-120050000D01*
X106200000Y-108364382D02*
X106200000Y-110775000D01*
X108830070Y-94125000D02*
X110080070Y-95375000D01*
D37*
X111975000Y-95532828D02*
X111357828Y-95532828D01*
X113442894Y-97150000D02*
X114400000Y-96192894D01*
D38*
X109925000Y-91650000D02*
X110975000Y-90600000D01*
X107800000Y-120400000D02*
X103350000Y-120400000D01*
X113900000Y-110775000D02*
X115300000Y-110775000D01*
D37*
X108450000Y-102137500D02*
X109600000Y-103287500D01*
D38*
X124412500Y-85112500D02*
X124412500Y-84900000D01*
D37*
X109137500Y-101450000D02*
X109650000Y-101450000D01*
D38*
X110080070Y-95375000D02*
X111200000Y-95375000D01*
D37*
X119300000Y-94600000D02*
X119500000Y-94600000D01*
X109600000Y-104050000D02*
X108200000Y-105450000D01*
X111100000Y-93850000D02*
X111100000Y-95275000D01*
X103075000Y-92425000D02*
X103075000Y-91555592D01*
D38*
X108826747Y-92567469D02*
X108830070Y-92570792D01*
X103925000Y-105300000D02*
X104000000Y-105225000D01*
D37*
X109025000Y-90750000D02*
X109925000Y-91650000D01*
D38*
X102175000Y-105300000D02*
X103925000Y-105300000D01*
D37*
X112100000Y-95657828D02*
X112100000Y-96989604D01*
X100800000Y-92100000D02*
X101425000Y-92725000D01*
X111357828Y-95532828D02*
X111200000Y-95375000D01*
X109600000Y-103287500D02*
X109600000Y-104050000D01*
D38*
X108200000Y-105450000D02*
X108200000Y-106364382D01*
X106200000Y-110775000D02*
X109600000Y-110775000D01*
X103355676Y-79344324D02*
X104325000Y-78375000D01*
X108830070Y-92570792D02*
X108830070Y-94125000D01*
X94700000Y-90690000D02*
X99515000Y-90690000D01*
X115300000Y-110775000D02*
X116625000Y-110775000D01*
D37*
X103075000Y-91555592D02*
X103880592Y-90750000D01*
D38*
X109744216Y-91650000D02*
X108826747Y-92567469D01*
D37*
X103880592Y-90750000D02*
X109025000Y-90750000D01*
D38*
X104000000Y-105225000D02*
X107975000Y-105225000D01*
X109600000Y-110775000D02*
X113900000Y-110775000D01*
D37*
X113180761Y-97200000D02*
X113230761Y-97150000D01*
D38*
X103000000Y-113300000D02*
X105525000Y-110775000D01*
X109925000Y-91650000D02*
X109744216Y-91650000D01*
X107975000Y-105225000D02*
X108200000Y-105450000D01*
D37*
X109650000Y-101450000D02*
X110100000Y-101900000D01*
X102950000Y-95262500D02*
X100800000Y-93112500D01*
X114400000Y-95100000D02*
X114900000Y-94600000D01*
%TO.N,VDD33TXRX1*%
X119100000Y-81100000D02*
X119300000Y-81100000D01*
X120400000Y-106800000D02*
X119600000Y-106800000D01*
X133732437Y-102167563D02*
X132000000Y-103900000D01*
X116900000Y-84809620D02*
X117119239Y-84809620D01*
X132000000Y-103900000D02*
X123300000Y-103900000D01*
X130115000Y-94645000D02*
X130115000Y-88720000D01*
X118150000Y-83778859D02*
X118150000Y-82050000D01*
X135632437Y-102167563D02*
X133732437Y-102167563D01*
X130190000Y-88645000D02*
X129190000Y-87645000D01*
X125845000Y-79500000D02*
X129190000Y-82845000D01*
X123300000Y-103900000D02*
X120400000Y-106800000D01*
X120900000Y-79500000D02*
X125845000Y-79500000D01*
X119300000Y-81100000D02*
X120900000Y-79500000D01*
X130115000Y-88720000D02*
X130190000Y-88645000D01*
X129190000Y-87645000D02*
X129190000Y-82845000D01*
X117119239Y-84809620D02*
X118150000Y-83778859D01*
X118150000Y-82050000D02*
X119100000Y-81100000D01*
%TO.N,Net-(U1-PH1)*%
X110281416Y-98950000D02*
X110631415Y-99300000D01*
X113250000Y-99750000D02*
X116800000Y-99750000D01*
X112800000Y-99300000D02*
X113250000Y-99750000D01*
X120400000Y-99750000D02*
X120700000Y-99450000D01*
X109137500Y-98950000D02*
X110281416Y-98950000D01*
X116800000Y-99750000D02*
X120400000Y-99750000D01*
X110631415Y-99300000D02*
X112800000Y-99300000D01*
%TO.N,Net-(U1-PC15)*%
X109867203Y-99950000D02*
X111867203Y-101950000D01*
X116800000Y-92900000D02*
X118400000Y-92900000D01*
X111867203Y-101950000D02*
X111869239Y-101950000D01*
X120425000Y-92900000D02*
X120600000Y-92725000D01*
X123100000Y-95225000D02*
X120600000Y-92725000D01*
X112600000Y-104100000D02*
X113800000Y-105300000D01*
X113800000Y-105300000D02*
X120969408Y-105300000D01*
X111869239Y-101950000D02*
X112600000Y-102680761D01*
X112600000Y-102680761D02*
X112600000Y-104100000D01*
X120969408Y-105300000D02*
X123100000Y-103169408D01*
X109137500Y-99950000D02*
X109867203Y-99950000D01*
X123100000Y-103169408D02*
X123100000Y-95225000D01*
X118400000Y-92900000D02*
X120425000Y-92900000D01*
%TO.N,Net-(U1-VCAP1)*%
X103950000Y-93625000D02*
X103950000Y-95262500D01*
X103900000Y-93575000D02*
X103950000Y-93625000D01*
%TO.N,Net-(U1-PH0)*%
X112074309Y-101450000D02*
X112076345Y-101450000D01*
X116800000Y-103450000D02*
X119975000Y-103450000D01*
X109137500Y-99450000D02*
X110074309Y-99450000D01*
X110074309Y-99450000D02*
X112074309Y-101450000D01*
X114076345Y-103450000D02*
X116800000Y-103450000D01*
X112076345Y-101450000D02*
X114076345Y-103450000D01*
X119975000Y-103450000D02*
X120700000Y-102725000D01*
%TO.N,VDD33TXRX2*%
X130740000Y-118900000D02*
X130740000Y-108675000D01*
X130740000Y-108675000D02*
X130565000Y-108500000D01*
%TO.N,RXPB*%
X133507500Y-114207500D02*
X134015000Y-113700000D01*
X132515000Y-115200000D02*
X133507500Y-114207500D01*
X134015000Y-113700000D02*
X140890000Y-113700000D01*
%TO.N,RST*%
X112800000Y-96300000D02*
X112625000Y-96125000D01*
X109025000Y-86075000D02*
X108700000Y-86400000D01*
X112625000Y-96125000D02*
X112625000Y-90600000D01*
X112400000Y-98600000D02*
X112500000Y-98700000D01*
X112625000Y-90600000D02*
X112625000Y-87800000D01*
X110900000Y-86075000D02*
X109025000Y-86075000D01*
X112625000Y-87800000D02*
X110900000Y-86075000D01*
X109137500Y-98450000D02*
X112250000Y-98450000D01*
X112250000Y-98450000D02*
X112400000Y-98600000D01*
%TO.N,Net-(J2-RCT)*%
X132215000Y-110500000D02*
X133190000Y-110500000D01*
X139610000Y-112440000D02*
X140890000Y-111160000D01*
X133890000Y-111200000D02*
X137110000Y-111200000D01*
X133190000Y-110500000D02*
X133890000Y-111200000D01*
X138350000Y-112440000D02*
X139610000Y-112440000D01*
X137110000Y-111200000D02*
X138350000Y-112440000D01*
%TO.N,+5V*%
D38*
X101700000Y-110075000D02*
X101775000Y-110000000D01*
X101775000Y-110000000D02*
X103200000Y-110000000D01*
X99700000Y-110075000D02*
X101700000Y-110075000D01*
X97400000Y-111075000D02*
X98700000Y-111075000D01*
X100700000Y-113750000D02*
X100700000Y-113075000D01*
X100700000Y-113075000D02*
X98700000Y-111075000D01*
X98700000Y-111075000D02*
X99700000Y-110075000D01*
%TO.N,USB_DP*%
D37*
X100050000Y-120250000D02*
X100000000Y-120300000D01*
X100500000Y-117800000D02*
X100500000Y-119800000D01*
X100500000Y-119800000D02*
X100050000Y-120250000D01*
%TO.N,TXNB*%
X136230000Y-117100000D02*
X138350000Y-114980000D01*
X132490000Y-117100000D02*
X132500000Y-117100000D01*
X132500000Y-117100000D02*
X136230000Y-117100000D01*
%TO.N,RXPA*%
X131640000Y-90745000D02*
X132497500Y-91602500D01*
X136100000Y-91700000D02*
X136360000Y-91440000D01*
X136360000Y-91440000D02*
X141200000Y-91440000D01*
X122700000Y-87400000D02*
X122700000Y-86800000D01*
X124100000Y-88800000D02*
X122700000Y-87400000D01*
X132595000Y-91700000D02*
X136100000Y-91700000D01*
X124100000Y-90350000D02*
X124100000Y-88800000D01*
X132497500Y-91602500D02*
X132595000Y-91700000D01*
%TO.N,Net-(U1-PA12)*%
X100882798Y-99300000D02*
X99700000Y-99300000D01*
X99700000Y-99300000D02*
X99500000Y-99500000D01*
X102262500Y-99950000D02*
X101532798Y-99950000D01*
X99500000Y-99500000D02*
X99500000Y-101200000D01*
X101532798Y-99950000D02*
X100882798Y-99300000D01*
%TO.N,SWDIO*%
X100900000Y-102500000D02*
X100900000Y-100507106D01*
X99100000Y-97630000D02*
X99100000Y-98400000D01*
X102950000Y-102750000D02*
X102600000Y-103100000D01*
X101500000Y-103100000D02*
X100900000Y-102500000D01*
X100900000Y-100507106D02*
X100957106Y-100450000D01*
X94700000Y-93230000D02*
X99100000Y-97630000D01*
X102950000Y-102137500D02*
X102950000Y-102750000D01*
X102600000Y-103100000D02*
X101500000Y-103100000D01*
%TO.N,SWCLK*%
X98850000Y-101269239D02*
X101180761Y-103600000D01*
X98850000Y-99920000D02*
X98850000Y-101269239D01*
X101180761Y-103600000D02*
X103200000Y-103600000D01*
X103450000Y-103350000D02*
X103450000Y-102137500D01*
X103200000Y-103600000D02*
X103450000Y-103350000D01*
X94700000Y-95770000D02*
X98850000Y-99920000D01*
%TO.N,Net-(D3-K)*%
X107800000Y-118825000D02*
X109450000Y-118825000D01*
X109450000Y-118825000D02*
X109575000Y-118700000D01*
%TO.N,TXPB*%
X138230000Y-118900000D02*
X140890000Y-116240000D01*
X132390000Y-118900000D02*
X138230000Y-118900000D01*
%TO.N,Net-(U1-PA11)*%
X101739904Y-99450000D02*
X100800000Y-98510096D01*
X100800000Y-98510096D02*
X100800000Y-97200000D01*
X102262500Y-99450000D02*
X101739904Y-99450000D01*
%TO.N,VDDCR*%
X107600000Y-81600000D02*
X108300000Y-82300000D01*
X108300000Y-82300000D02*
X108300000Y-84300000D01*
X107170000Y-81600000D02*
X107600000Y-81600000D01*
X108300000Y-84300000D02*
X107900000Y-84700000D01*
%TO.N,Net-(U3-RBIAS)*%
X126140380Y-88740380D02*
X126200000Y-88800000D01*
X126200000Y-88800000D02*
X128800000Y-88800000D01*
%TO.N,RXNB*%
X133615000Y-109900000D02*
X138350000Y-109900000D01*
X132215000Y-108500000D02*
X133615000Y-109900000D01*
%TO.N,TXPA*%
X118780330Y-85926777D02*
X119026777Y-85926777D01*
X131765000Y-94645000D02*
X140535000Y-94645000D01*
X122300000Y-89500000D02*
X128270000Y-95470000D01*
X139710000Y-95470000D02*
X141200000Y-93980000D01*
X140535000Y-94645000D02*
X141200000Y-93980000D01*
X128270000Y-95470000D02*
X139710000Y-95470000D01*
X122300000Y-89200000D02*
X122300000Y-89500000D01*
X119026777Y-85926777D02*
X122300000Y-89200000D01*
%TO.N,TXNA*%
X120407106Y-90100000D02*
X123907106Y-93600000D01*
X117000000Y-87019239D02*
X120080761Y-90100000D01*
X143200000Y-94900000D02*
X143200000Y-93300000D01*
X117473165Y-86146075D02*
X117000000Y-86619240D01*
X120080761Y-90100000D02*
X120407106Y-90100000D01*
X138535000Y-92845000D02*
X138660000Y-92720000D01*
X131640000Y-92845000D02*
X138535000Y-92845000D01*
X127700000Y-96100000D02*
X142000000Y-96100000D01*
X117473165Y-85571519D02*
X117473165Y-86146075D01*
X123907106Y-93600000D02*
X125200000Y-93600000D01*
X143200000Y-93300000D02*
X142620000Y-92720000D01*
X142000000Y-96100000D02*
X143200000Y-94900000D01*
X125200000Y-93600000D02*
X127700000Y-96100000D01*
X117449248Y-85547602D02*
X117473165Y-85571519D01*
X142620000Y-92720000D02*
X138660000Y-92720000D01*
X117000000Y-86619240D02*
X117000000Y-87019239D01*
%TO.N,RXNA*%
X128700000Y-80900000D02*
X128895000Y-80900000D01*
X133865000Y-82845000D02*
X138660000Y-87640000D01*
X128895000Y-80900000D02*
X130840000Y-82845000D01*
X130840000Y-82845000D02*
X133865000Y-82845000D01*
%TO.N,Net-(J2-Pad9)*%
X151050000Y-117325000D02*
X152150000Y-118425000D01*
X132050000Y-101800000D02*
X132332437Y-101517563D01*
X151050000Y-106850000D02*
X151050000Y-117325000D01*
X145717563Y-101517563D02*
X151050000Y-106850000D01*
X132332437Y-101517563D02*
X145717563Y-101517563D01*
%TO.N,GPIO2*%
X121200000Y-81100000D02*
X121200000Y-82419240D01*
X119759620Y-83859620D02*
X120309620Y-83859620D01*
X121200000Y-82419240D02*
X119759620Y-83859620D01*
X120309620Y-83859620D02*
X121350000Y-84900000D01*
%TO.N,Net-(U1-VDDA)*%
X110987500Y-97450000D02*
X111200000Y-97662500D01*
X109137500Y-97450000D02*
X110987500Y-97450000D01*
%TO.N,SCS*%
X107976746Y-92003256D02*
X107976746Y-92342399D01*
X107950000Y-92369145D02*
X107950000Y-95262500D01*
X107976746Y-92342399D02*
X107950000Y-92369145D01*
X108000000Y-91980002D02*
X107976746Y-92003256D01*
%TO.N,SCK*%
X105919239Y-91400000D02*
X105000000Y-91400000D01*
X107450000Y-92930761D02*
X105919239Y-91400000D01*
X107450000Y-95262500D02*
X107450000Y-92930761D01*
%TO.N,SI*%
X106450000Y-92850000D02*
X106400000Y-92800000D01*
X106450000Y-95262500D02*
X106450000Y-92850000D01*
%TO.N,GPIO0*%
X118130330Y-87030330D02*
X122200000Y-91100000D01*
X118800000Y-82800000D02*
X118800000Y-84987868D01*
X118800000Y-84987868D02*
X118130330Y-85657538D01*
X122200000Y-91100000D02*
X122700000Y-91100000D01*
X118130330Y-85657538D02*
X118130330Y-87030330D01*
%TO.N,Net-(U3-OSCI)*%
X113125000Y-77575000D02*
X112450000Y-76900000D01*
X113125000Y-89841642D02*
X113125000Y-77575000D01*
X113375000Y-90091642D02*
X113125000Y-89841642D01*
X113375000Y-95400000D02*
X113375000Y-90091642D01*
%TO.N,Net-(U3-OSCO)*%
X113800000Y-79300000D02*
X116300000Y-76800000D01*
X113800000Y-87200000D02*
X113800000Y-79300000D01*
%TO.N,Net-(J1-RCT)*%
X133590000Y-88645000D02*
X133915000Y-88970000D01*
X131840000Y-88645000D02*
X133590000Y-88645000D01*
X139920000Y-90180000D02*
X141200000Y-88900000D01*
X138660000Y-90180000D02*
X139920000Y-90180000D01*
X133915000Y-88970000D02*
X137450000Y-88970000D01*
X137450000Y-88970000D02*
X138660000Y-90180000D01*
%TO.N,Net-(D1-K)*%
X119700000Y-84900000D02*
X119700000Y-85700000D01*
X122837500Y-85562500D02*
X122837500Y-84900000D01*
X119700000Y-85700000D02*
X120000000Y-86000000D01*
X120000000Y-86000000D02*
X122400000Y-86000000D01*
X122400000Y-86000000D02*
X122837500Y-85562500D01*
%TO.N,Net-(J1-Pad9)*%
X131875000Y-99600000D02*
X149025000Y-99600000D01*
X149025000Y-99600000D02*
X152460000Y-96165000D01*
%TO.N,Net-(U1-BOOT0)*%
X107500000Y-103800000D02*
X108200000Y-103800000D01*
X106450000Y-102750000D02*
X107500000Y-103800000D01*
X106450000Y-102137500D02*
X106450000Y-102750000D01*
%TD*%
%TA.AperFunction,Conductor*%
%TO.N,GND*%
G36*
X131578650Y-111329767D02*
G01*
X131579813Y-111330470D01*
X131579815Y-111330472D01*
X131725394Y-111418478D01*
X131887804Y-111469086D01*
X131958384Y-111475500D01*
X131958387Y-111475500D01*
X132471613Y-111475500D01*
X132471616Y-111475500D01*
X132542196Y-111469086D01*
X132704606Y-111418478D01*
X132729409Y-111403483D01*
X132796962Y-111385647D01*
X132863436Y-111407164D01*
X132907725Y-111461203D01*
X132916917Y-111496998D01*
X132924651Y-111572708D01*
X132924651Y-111572710D01*
X132977996Y-111733694D01*
X132978001Y-111733705D01*
X133067029Y-111878040D01*
X133067032Y-111878044D01*
X133186955Y-111997967D01*
X133186959Y-111997970D01*
X133331294Y-112086998D01*
X133331297Y-112086999D01*
X133331303Y-112087003D01*
X133492292Y-112140349D01*
X133591655Y-112150500D01*
X134188344Y-112150499D01*
X134188352Y-112150498D01*
X134188355Y-112150498D01*
X134272152Y-112141938D01*
X134287708Y-112140349D01*
X134448697Y-112087003D01*
X134593044Y-111997968D01*
X134704193Y-111886819D01*
X134765516Y-111853334D01*
X134791874Y-111850500D01*
X136789192Y-111850500D01*
X136856231Y-111870185D01*
X136876873Y-111886819D01*
X137086563Y-112096509D01*
X137120048Y-112157832D01*
X137121355Y-112203588D01*
X137099500Y-112341577D01*
X137099500Y-112538422D01*
X137130290Y-112732826D01*
X137159360Y-112822292D01*
X137180445Y-112887183D01*
X137182440Y-112957022D01*
X137146360Y-113016855D01*
X137083660Y-113047684D01*
X137062514Y-113049500D01*
X133950929Y-113049500D01*
X133825261Y-113074497D01*
X133825255Y-113074499D01*
X133706870Y-113123535D01*
X133600331Y-113194722D01*
X133600324Y-113194728D01*
X133092831Y-113702223D01*
X132606873Y-114188181D01*
X132545550Y-114221666D01*
X132519192Y-114224500D01*
X132258384Y-114224500D01*
X132239145Y-114226248D01*
X132187807Y-114230913D01*
X132025393Y-114281522D01*
X131879811Y-114369530D01*
X131879810Y-114369531D01*
X131777681Y-114471661D01*
X131716358Y-114505146D01*
X131646666Y-114500162D01*
X131609219Y-114478057D01*
X131605645Y-114474988D01*
X131500185Y-114369528D01*
X131441534Y-114334072D01*
X131433719Y-114327361D01*
X131420079Y-114306345D01*
X131403162Y-114287871D01*
X131400421Y-114276057D01*
X131395681Y-114268753D01*
X131395620Y-114255360D01*
X131390500Y-114233284D01*
X131390500Y-111435884D01*
X131410185Y-111368845D01*
X131462989Y-111323090D01*
X131532147Y-111313146D01*
X131578650Y-111329767D01*
G37*
%TD.AperFunction*%
%TA.AperFunction,Conductor*%
G36*
X103783938Y-110919519D02*
G01*
X103819590Y-110979608D01*
X103817096Y-111049433D01*
X103787123Y-111097955D01*
X102671897Y-112213181D01*
X102610574Y-112246666D01*
X102584219Y-112249500D01*
X102548879Y-112249500D01*
X102548874Y-112249501D01*
X102506113Y-112252399D01*
X102506112Y-112252399D01*
X102321303Y-112298360D01*
X102150707Y-112382967D01*
X102150704Y-112382969D01*
X102002278Y-112502277D01*
X102002277Y-112502278D01*
X101946647Y-112571486D01*
X101889304Y-112611405D01*
X101819482Y-112613985D01*
X101759349Y-112578406D01*
X101753353Y-112571486D01*
X101697722Y-112502278D01*
X101697721Y-112502277D01*
X101549295Y-112382969D01*
X101549292Y-112382967D01*
X101378696Y-112298360D01*
X101378689Y-112298357D01*
X101358309Y-112293289D01*
X101300556Y-112260636D01*
X100327101Y-111287181D01*
X100293616Y-111225858D01*
X100298600Y-111156166D01*
X100340472Y-111100233D01*
X100405936Y-111075816D01*
X100414782Y-111075500D01*
X101262025Y-111075500D01*
X101301029Y-111081794D01*
X101402292Y-111115349D01*
X101501655Y-111125500D01*
X102098344Y-111125499D01*
X102098352Y-111125498D01*
X102098355Y-111125498D01*
X102152760Y-111119940D01*
X102197708Y-111115349D01*
X102358697Y-111062003D01*
X102428477Y-111018961D01*
X102493574Y-111000500D01*
X103298543Y-111000500D01*
X103454266Y-110969524D01*
X103491835Y-110962051D01*
X103651990Y-110895712D01*
X103721459Y-110888244D01*
X103783938Y-110919519D01*
G37*
%TD.AperFunction*%
%TA.AperFunction,Conductor*%
G36*
X119971522Y-93568961D02*
G01*
X120041303Y-93612003D01*
X120202292Y-93665349D01*
X120301655Y-93675500D01*
X120579191Y-93675499D01*
X120646230Y-93695183D01*
X120666872Y-93711818D01*
X122413181Y-95458127D01*
X122446666Y-95519450D01*
X122449500Y-95545808D01*
X122449500Y-102848600D01*
X122429815Y-102915639D01*
X122413181Y-102936281D01*
X120736281Y-104613181D01*
X120674958Y-104646666D01*
X120648600Y-104649500D01*
X118563401Y-104649500D01*
X118496362Y-104629815D01*
X118450607Y-104577011D01*
X118440663Y-104507853D01*
X118445695Y-104486496D01*
X118489999Y-104352797D01*
X118500500Y-104250009D01*
X118500500Y-104224500D01*
X118520185Y-104157461D01*
X118572989Y-104111706D01*
X118624500Y-104100500D01*
X120039071Y-104100500D01*
X120123615Y-104083682D01*
X120164744Y-104075501D01*
X120283127Y-104026465D01*
X120389669Y-103955277D01*
X120633128Y-103711816D01*
X120694449Y-103678333D01*
X120720808Y-103675499D01*
X120998338Y-103675499D01*
X120998344Y-103675499D01*
X120998352Y-103675498D01*
X120998355Y-103675498D01*
X121052760Y-103669940D01*
X121097708Y-103665349D01*
X121258697Y-103612003D01*
X121403044Y-103522968D01*
X121522968Y-103403044D01*
X121612003Y-103258697D01*
X121665349Y-103097708D01*
X121675500Y-102998345D01*
X121675499Y-102451656D01*
X121667491Y-102373266D01*
X121665349Y-102352292D01*
X121665348Y-102352289D01*
X121637044Y-102266873D01*
X121612003Y-102191303D01*
X121611999Y-102191297D01*
X121611998Y-102191294D01*
X121522970Y-102046959D01*
X121522967Y-102046955D01*
X121403044Y-101927032D01*
X121403040Y-101927029D01*
X121258705Y-101838001D01*
X121258699Y-101837998D01*
X121258697Y-101837997D01*
X121258694Y-101837996D01*
X121097709Y-101784651D01*
X120998346Y-101774500D01*
X120401662Y-101774500D01*
X120401644Y-101774501D01*
X120302292Y-101784650D01*
X120302289Y-101784651D01*
X120141305Y-101837996D01*
X120141294Y-101838001D01*
X119996959Y-101927029D01*
X119996955Y-101927032D01*
X119877032Y-102046955D01*
X119877029Y-102046959D01*
X119788001Y-102191294D01*
X119787996Y-102191305D01*
X119734651Y-102352290D01*
X119724500Y-102451647D01*
X119724500Y-102675500D01*
X119704815Y-102742539D01*
X119652011Y-102788294D01*
X119600500Y-102799500D01*
X118624499Y-102799500D01*
X118557460Y-102779815D01*
X118511705Y-102727011D01*
X118500499Y-102675500D01*
X118500499Y-102649998D01*
X118500498Y-102649981D01*
X118489999Y-102547203D01*
X118489998Y-102547200D01*
X118463221Y-102466392D01*
X118434814Y-102380666D01*
X118342712Y-102231344D01*
X118218656Y-102107288D01*
X118069334Y-102015186D01*
X117902797Y-101960001D01*
X117902795Y-101960000D01*
X117800010Y-101949500D01*
X115799998Y-101949500D01*
X115799981Y-101949501D01*
X115697203Y-101960000D01*
X115697200Y-101960001D01*
X115530668Y-102015185D01*
X115530663Y-102015187D01*
X115381342Y-102107289D01*
X115257289Y-102231342D01*
X115165187Y-102380663D01*
X115165185Y-102380668D01*
X115141662Y-102451656D01*
X115110001Y-102547203D01*
X115110001Y-102547204D01*
X115110000Y-102547204D01*
X115099500Y-102649983D01*
X115099500Y-102675500D01*
X115079815Y-102742539D01*
X115027011Y-102788294D01*
X114975500Y-102799500D01*
X114397152Y-102799500D01*
X114330113Y-102779815D01*
X114309471Y-102763181D01*
X112491017Y-100944725D01*
X112486306Y-100940859D01*
X112486605Y-100940493D01*
X112476237Y-100931983D01*
X111706436Y-100162181D01*
X111672951Y-100100858D01*
X111677935Y-100031166D01*
X111719807Y-99975233D01*
X111785271Y-99950816D01*
X111794117Y-99950500D01*
X112479192Y-99950500D01*
X112546231Y-99970185D01*
X112566873Y-99986819D01*
X112835325Y-100255272D01*
X112835328Y-100255275D01*
X112916325Y-100309395D01*
X112916324Y-100309395D01*
X112941871Y-100326464D01*
X112941872Y-100326464D01*
X112941873Y-100326465D01*
X113060256Y-100375501D01*
X113060260Y-100375501D01*
X113060261Y-100375502D01*
X113185928Y-100400500D01*
X113185931Y-100400500D01*
X114975501Y-100400500D01*
X115042540Y-100420185D01*
X115088295Y-100472989D01*
X115099501Y-100524500D01*
X115099501Y-100550018D01*
X115110000Y-100652796D01*
X115110001Y-100652799D01*
X115165185Y-100819331D01*
X115165187Y-100819336D01*
X115184470Y-100850598D01*
X115257288Y-100968656D01*
X115381344Y-101092712D01*
X115530666Y-101184814D01*
X115697203Y-101239999D01*
X115799991Y-101250500D01*
X117800008Y-101250499D01*
X117902797Y-101239999D01*
X118069334Y-101184814D01*
X118218656Y-101092712D01*
X118342712Y-100968656D01*
X118434814Y-100819334D01*
X118489999Y-100652797D01*
X118500500Y-100550009D01*
X118500500Y-100524500D01*
X118520185Y-100457461D01*
X118572989Y-100411706D01*
X118624500Y-100400500D01*
X120515423Y-100400500D01*
X120515432Y-100400499D01*
X120998338Y-100400499D01*
X120998344Y-100400499D01*
X120998352Y-100400498D01*
X120998355Y-100400498D01*
X121052760Y-100394940D01*
X121097708Y-100390349D01*
X121258697Y-100337003D01*
X121403044Y-100247968D01*
X121522968Y-100128044D01*
X121612003Y-99983697D01*
X121665349Y-99822708D01*
X121675500Y-99723345D01*
X121675499Y-99176656D01*
X121665349Y-99077292D01*
X121612003Y-98916303D01*
X121611999Y-98916297D01*
X121611998Y-98916294D01*
X121522970Y-98771959D01*
X121522967Y-98771955D01*
X121403044Y-98652032D01*
X121403040Y-98652029D01*
X121258705Y-98563001D01*
X121258699Y-98562998D01*
X121258697Y-98562997D01*
X121196530Y-98542397D01*
X121097709Y-98509651D01*
X120998346Y-98499500D01*
X120401662Y-98499500D01*
X120401644Y-98499501D01*
X120302292Y-98509650D01*
X120302289Y-98509651D01*
X120141305Y-98562996D01*
X120141294Y-98563001D01*
X119996959Y-98652029D01*
X119996955Y-98652032D01*
X119877032Y-98771955D01*
X119877029Y-98771959D01*
X119788001Y-98916294D01*
X119787996Y-98916305D01*
X119778104Y-98946158D01*
X119758664Y-99004827D01*
X119755457Y-99014504D01*
X119715685Y-99071949D01*
X119651169Y-99098772D01*
X119637751Y-99099500D01*
X118624499Y-99099500D01*
X118557460Y-99079815D01*
X118511705Y-99027011D01*
X118500499Y-98975500D01*
X118500499Y-98949998D01*
X118500498Y-98949981D01*
X118489999Y-98847203D01*
X118489998Y-98847200D01*
X118468907Y-98783553D01*
X118434814Y-98680666D01*
X118342712Y-98531344D01*
X118218656Y-98407288D01*
X118069334Y-98315186D01*
X118001492Y-98292705D01*
X117944048Y-98252933D01*
X117917225Y-98188417D01*
X117929540Y-98119642D01*
X117977083Y-98068442D01*
X118001490Y-98057295D01*
X118069334Y-98034814D01*
X118218656Y-97942712D01*
X118342712Y-97818656D01*
X118434814Y-97669334D01*
X118489999Y-97502797D01*
X118500500Y-97400009D01*
X118500500Y-96899500D01*
X118520185Y-96832461D01*
X118572989Y-96786706D01*
X118624500Y-96775500D01*
X119698126Y-96775500D01*
X119765165Y-96795185D01*
X119785807Y-96811819D01*
X119896955Y-96922967D01*
X119896959Y-96922970D01*
X120041294Y-97011998D01*
X120041297Y-97011999D01*
X120041303Y-97012003D01*
X120202292Y-97065349D01*
X120301655Y-97075500D01*
X120898344Y-97075499D01*
X120898352Y-97075498D01*
X120898355Y-97075498D01*
X120952760Y-97069940D01*
X120997708Y-97065349D01*
X121158697Y-97012003D01*
X121303044Y-96922968D01*
X121422968Y-96803044D01*
X121512003Y-96658697D01*
X121565349Y-96497708D01*
X121575500Y-96398345D01*
X121575499Y-95851656D01*
X121574193Y-95838875D01*
X121565349Y-95752292D01*
X121565348Y-95752289D01*
X121547094Y-95697203D01*
X121512003Y-95591303D01*
X121511999Y-95591297D01*
X121511998Y-95591294D01*
X121422970Y-95446959D01*
X121422967Y-95446955D01*
X121303044Y-95327032D01*
X121303040Y-95327029D01*
X121158705Y-95238001D01*
X121158699Y-95237998D01*
X121158697Y-95237997D01*
X121158694Y-95237996D01*
X120997709Y-95184651D01*
X120898346Y-95174500D01*
X120301662Y-95174500D01*
X120301644Y-95174501D01*
X120202292Y-95184650D01*
X120202285Y-95184652D01*
X120146025Y-95203295D01*
X120076197Y-95205696D01*
X120016155Y-95169964D01*
X119984963Y-95107444D01*
X119992524Y-95037984D01*
X120003920Y-95016698D01*
X120039085Y-94964070D01*
X120076465Y-94908127D01*
X120125501Y-94789744D01*
X120150500Y-94664069D01*
X120150500Y-94535931D01*
X120150500Y-94535928D01*
X120125502Y-94410261D01*
X120125501Y-94410260D01*
X120125501Y-94410256D01*
X120076465Y-94291873D01*
X120076464Y-94291872D01*
X120076461Y-94291866D01*
X120005276Y-94185331D01*
X120005273Y-94185327D01*
X119954858Y-94134913D01*
X119939436Y-94116122D01*
X119935206Y-94109792D01*
X119921789Y-94089711D01*
X119921787Y-94089708D01*
X119810292Y-93978213D01*
X119810288Y-93978210D01*
X119679185Y-93890609D01*
X119679172Y-93890602D01*
X119533501Y-93830264D01*
X119533489Y-93830261D01*
X119378845Y-93799500D01*
X119378842Y-93799500D01*
X119221158Y-93799500D01*
X119221155Y-93799500D01*
X119066510Y-93830261D01*
X119066498Y-93830264D01*
X118920827Y-93890602D01*
X118920820Y-93890606D01*
X118891928Y-93909911D01*
X118863955Y-93928602D01*
X118797279Y-93949480D01*
X118795065Y-93949500D01*
X118611948Y-93949500D01*
X118544909Y-93929815D01*
X118499154Y-93877011D01*
X118489453Y-93809546D01*
X118489311Y-93809532D01*
X118489369Y-93808961D01*
X118489210Y-93807853D01*
X118489845Y-93804298D01*
X118489998Y-93802799D01*
X118489999Y-93802797D01*
X118500500Y-93700009D01*
X118500500Y-93674500D01*
X118520185Y-93607461D01*
X118572989Y-93561706D01*
X118624500Y-93550500D01*
X119906426Y-93550500D01*
X119971522Y-93568961D01*
G37*
%TD.AperFunction*%
%TA.AperFunction,Conductor*%
G36*
X101721949Y-102053313D02*
G01*
X101740528Y-102061009D01*
X101850599Y-102075500D01*
X102175500Y-102075499D01*
X102242539Y-102095183D01*
X102288294Y-102147987D01*
X102299500Y-102199499D01*
X102299500Y-102325500D01*
X102279815Y-102392539D01*
X102227011Y-102438294D01*
X102175500Y-102449500D01*
X101820807Y-102449500D01*
X101753768Y-102429815D01*
X101733131Y-102413185D01*
X101586816Y-102266871D01*
X101553334Y-102205550D01*
X101550500Y-102179192D01*
X101550500Y-102167875D01*
X101570185Y-102100836D01*
X101622989Y-102055081D01*
X101692147Y-102045137D01*
X101721949Y-102053313D01*
G37*
%TD.AperFunction*%
%TA.AperFunction,Conductor*%
G36*
X103466961Y-96049763D02*
G01*
X103494712Y-96052080D01*
X103504488Y-96057459D01*
X103508126Y-96058206D01*
X103521718Y-96066941D01*
X103523773Y-96068072D01*
X103524663Y-96068731D01*
X103603571Y-96129279D01*
X103740528Y-96186009D01*
X103850599Y-96200500D01*
X104049400Y-96200499D01*
X104049401Y-96200499D01*
X104066087Y-96198302D01*
X104159472Y-96186009D01*
X104159475Y-96186007D01*
X104167326Y-96183905D01*
X104168210Y-96187207D01*
X104221925Y-96181392D01*
X104232514Y-96184501D01*
X104232674Y-96183905D01*
X104240524Y-96186008D01*
X104240526Y-96186008D01*
X104240528Y-96186009D01*
X104350599Y-96200500D01*
X104549400Y-96200499D01*
X104549401Y-96200499D01*
X104566087Y-96198302D01*
X104659472Y-96186009D01*
X104659475Y-96186007D01*
X104667326Y-96183905D01*
X104668210Y-96187207D01*
X104721925Y-96181392D01*
X104732514Y-96184501D01*
X104732674Y-96183905D01*
X104740524Y-96186008D01*
X104740526Y-96186008D01*
X104740528Y-96186009D01*
X104850599Y-96200500D01*
X105049400Y-96200499D01*
X105049401Y-96200499D01*
X105066087Y-96198302D01*
X105159472Y-96186009D01*
X105159475Y-96186007D01*
X105167326Y-96183905D01*
X105168210Y-96187207D01*
X105221925Y-96181392D01*
X105232514Y-96184501D01*
X105232674Y-96183905D01*
X105240524Y-96186008D01*
X105240526Y-96186008D01*
X105240528Y-96186009D01*
X105350599Y-96200500D01*
X105549400Y-96200499D01*
X105549401Y-96200499D01*
X105566087Y-96198302D01*
X105659472Y-96186009D01*
X105659475Y-96186007D01*
X105667326Y-96183905D01*
X105668210Y-96187207D01*
X105721925Y-96181392D01*
X105732514Y-96184501D01*
X105732674Y-96183905D01*
X105740524Y-96186008D01*
X105740526Y-96186008D01*
X105740528Y-96186009D01*
X105850599Y-96200500D01*
X106049400Y-96200499D01*
X106049401Y-96200499D01*
X106066087Y-96198302D01*
X106159472Y-96186009D01*
X106159475Y-96186007D01*
X106167326Y-96183905D01*
X106168210Y-96187207D01*
X106221925Y-96181392D01*
X106232514Y-96184501D01*
X106232674Y-96183905D01*
X106240524Y-96186008D01*
X106240526Y-96186008D01*
X106240528Y-96186009D01*
X106350599Y-96200500D01*
X106549400Y-96200499D01*
X106549401Y-96200499D01*
X106566087Y-96198302D01*
X106659472Y-96186009D01*
X106659475Y-96186007D01*
X106667326Y-96183905D01*
X106668210Y-96187207D01*
X106721925Y-96181392D01*
X106732514Y-96184501D01*
X106732674Y-96183905D01*
X106740524Y-96186008D01*
X106740526Y-96186008D01*
X106740528Y-96186009D01*
X106850599Y-96200500D01*
X107049400Y-96200499D01*
X107049401Y-96200499D01*
X107066087Y-96198302D01*
X107159472Y-96186009D01*
X107159475Y-96186007D01*
X107167326Y-96183905D01*
X107168210Y-96187207D01*
X107221925Y-96181392D01*
X107232514Y-96184501D01*
X107232674Y-96183905D01*
X107240524Y-96186008D01*
X107240526Y-96186008D01*
X107240528Y-96186009D01*
X107350599Y-96200500D01*
X107549400Y-96200499D01*
X107549401Y-96200499D01*
X107566087Y-96198302D01*
X107659472Y-96186009D01*
X107659475Y-96186007D01*
X107667326Y-96183905D01*
X107668210Y-96187207D01*
X107721925Y-96181392D01*
X107732514Y-96184501D01*
X107732674Y-96183905D01*
X107740524Y-96186008D01*
X107740526Y-96186008D01*
X107740528Y-96186009D01*
X107850599Y-96200500D01*
X108049400Y-96200499D01*
X108062039Y-96198835D01*
X108131073Y-96209600D01*
X108183329Y-96255980D01*
X108202215Y-96323249D01*
X108201164Y-96337952D01*
X108199500Y-96350596D01*
X108199500Y-96549403D01*
X108213989Y-96659468D01*
X108216094Y-96667322D01*
X108212814Y-96668200D01*
X108218581Y-96722073D01*
X108215517Y-96732522D01*
X108216095Y-96732677D01*
X108213990Y-96740529D01*
X108199500Y-96850598D01*
X108199500Y-97049403D01*
X108213989Y-97159468D01*
X108216094Y-97167322D01*
X108212814Y-97168200D01*
X108218581Y-97222073D01*
X108215517Y-97232522D01*
X108216095Y-97232677D01*
X108213990Y-97240529D01*
X108199500Y-97350598D01*
X108199500Y-97549403D01*
X108213988Y-97659463D01*
X108213991Y-97659472D01*
X108270719Y-97796426D01*
X108270721Y-97796429D01*
X108330637Y-97874514D01*
X108355831Y-97939683D01*
X108341792Y-98008128D01*
X108330637Y-98025486D01*
X108270721Y-98103570D01*
X108270719Y-98103573D01*
X108213991Y-98240527D01*
X108213990Y-98240529D01*
X108199500Y-98350598D01*
X108199500Y-98549403D01*
X108213989Y-98659468D01*
X108216094Y-98667322D01*
X108212814Y-98668200D01*
X108218581Y-98722073D01*
X108215517Y-98732522D01*
X108216095Y-98732677D01*
X108213990Y-98740529D01*
X108199500Y-98850598D01*
X108199500Y-99049403D01*
X108213989Y-99159468D01*
X108216094Y-99167322D01*
X108212814Y-99168200D01*
X108218581Y-99222073D01*
X108215517Y-99232522D01*
X108216095Y-99232677D01*
X108213990Y-99240529D01*
X108199500Y-99350598D01*
X108199500Y-99549403D01*
X108213989Y-99659468D01*
X108216094Y-99667322D01*
X108212814Y-99668200D01*
X108218581Y-99722073D01*
X108215517Y-99732522D01*
X108216095Y-99732677D01*
X108213990Y-99740529D01*
X108199500Y-99850598D01*
X108199500Y-100049403D01*
X108213989Y-100159468D01*
X108216094Y-100167322D01*
X108212814Y-100168200D01*
X108218581Y-100222073D01*
X108215517Y-100232522D01*
X108216095Y-100232677D01*
X108213990Y-100240529D01*
X108199500Y-100350598D01*
X108199500Y-100549403D01*
X108213989Y-100659468D01*
X108216094Y-100667322D01*
X108212814Y-100668200D01*
X108218581Y-100722073D01*
X108215517Y-100732522D01*
X108216095Y-100732677D01*
X108213990Y-100740529D01*
X108199500Y-100850598D01*
X108199500Y-101049403D01*
X108209750Y-101127263D01*
X108198983Y-101196298D01*
X108154330Y-101247452D01*
X108144781Y-101253650D01*
X108103571Y-101270721D01*
X108021615Y-101333607D01*
X108017519Y-101336267D01*
X107988530Y-101344923D01*
X107960317Y-101355831D01*
X107955390Y-101354820D01*
X107950570Y-101356260D01*
X107921497Y-101347868D01*
X107891872Y-101341792D01*
X107884882Y-101337299D01*
X107883441Y-101336884D01*
X107882422Y-101335719D01*
X107874514Y-101330637D01*
X107796429Y-101270721D01*
X107796426Y-101270719D01*
X107659472Y-101213991D01*
X107659470Y-101213990D01*
X107549401Y-101199500D01*
X107350596Y-101199500D01*
X107240531Y-101213989D01*
X107232678Y-101216094D01*
X107231802Y-101212824D01*
X107177853Y-101218567D01*
X107167477Y-101215518D01*
X107167323Y-101216095D01*
X107159470Y-101213990D01*
X107049401Y-101199500D01*
X106850596Y-101199500D01*
X106740531Y-101213989D01*
X106732678Y-101216094D01*
X106731802Y-101212824D01*
X106677853Y-101218567D01*
X106667477Y-101215518D01*
X106667323Y-101216095D01*
X106659470Y-101213990D01*
X106549401Y-101199500D01*
X106350596Y-101199500D01*
X106240531Y-101213989D01*
X106232678Y-101216094D01*
X106231802Y-101212824D01*
X106177853Y-101218567D01*
X106167477Y-101215518D01*
X106167323Y-101216095D01*
X106159470Y-101213990D01*
X106049401Y-101199500D01*
X105850596Y-101199500D01*
X105740531Y-101213989D01*
X105732678Y-101216094D01*
X105731802Y-101212824D01*
X105677853Y-101218567D01*
X105667477Y-101215518D01*
X105667323Y-101216095D01*
X105659470Y-101213990D01*
X105549401Y-101199500D01*
X105350596Y-101199500D01*
X105240531Y-101213989D01*
X105232678Y-101216094D01*
X105231802Y-101212824D01*
X105177853Y-101218567D01*
X105167477Y-101215518D01*
X105167323Y-101216095D01*
X105159470Y-101213990D01*
X105049401Y-101199500D01*
X104850596Y-101199500D01*
X104740531Y-101213989D01*
X104732678Y-101216094D01*
X104731802Y-101212824D01*
X104677853Y-101218567D01*
X104667477Y-101215518D01*
X104667323Y-101216095D01*
X104659470Y-101213990D01*
X104549401Y-101199500D01*
X104350596Y-101199500D01*
X104240531Y-101213989D01*
X104232678Y-101216094D01*
X104231802Y-101212824D01*
X104177853Y-101218567D01*
X104167477Y-101215518D01*
X104167323Y-101216095D01*
X104159470Y-101213990D01*
X104049401Y-101199500D01*
X103850596Y-101199500D01*
X103740531Y-101213989D01*
X103732678Y-101216094D01*
X103731802Y-101212824D01*
X103677853Y-101218567D01*
X103667477Y-101215518D01*
X103667323Y-101216095D01*
X103659470Y-101213990D01*
X103549401Y-101199500D01*
X103350596Y-101199500D01*
X103272736Y-101209750D01*
X103203701Y-101198983D01*
X103152547Y-101154330D01*
X103146350Y-101144784D01*
X103129279Y-101103571D01*
X103066385Y-101021607D01*
X103063732Y-101017519D01*
X103055076Y-100988534D01*
X103044168Y-100960318D01*
X103045178Y-100955390D01*
X103043739Y-100950570D01*
X103052129Y-100921502D01*
X103058206Y-100891873D01*
X103062699Y-100884880D01*
X103063115Y-100883441D01*
X103064278Y-100882423D01*
X103069356Y-100874521D01*
X103129279Y-100796429D01*
X103186009Y-100659472D01*
X103200500Y-100549401D01*
X103200499Y-100350600D01*
X103198708Y-100336998D01*
X103194402Y-100304285D01*
X103186009Y-100240528D01*
X103186008Y-100240525D01*
X103183905Y-100232674D01*
X103187207Y-100231789D01*
X103181392Y-100178075D01*
X103184501Y-100167485D01*
X103183905Y-100167326D01*
X103186008Y-100159475D01*
X103186008Y-100159474D01*
X103186009Y-100159472D01*
X103200500Y-100049401D01*
X103200499Y-99850600D01*
X103186009Y-99740528D01*
X103186008Y-99740525D01*
X103183905Y-99732674D01*
X103187207Y-99731789D01*
X103181392Y-99678075D01*
X103184501Y-99667485D01*
X103183905Y-99667326D01*
X103186008Y-99659475D01*
X103186008Y-99659474D01*
X103186009Y-99659472D01*
X103200500Y-99549401D01*
X103200499Y-99350600D01*
X103186009Y-99240528D01*
X103186008Y-99240525D01*
X103183905Y-99232674D01*
X103187207Y-99231789D01*
X103181392Y-99178075D01*
X103184501Y-99167485D01*
X103183905Y-99167326D01*
X103186008Y-99159475D01*
X103186008Y-99159474D01*
X103186009Y-99159472D01*
X103200500Y-99049401D01*
X103200499Y-98850600D01*
X103200051Y-98847200D01*
X103191673Y-98783553D01*
X103186009Y-98740528D01*
X103186008Y-98740525D01*
X103183905Y-98732674D01*
X103187207Y-98731789D01*
X103181392Y-98678075D01*
X103184501Y-98667485D01*
X103183905Y-98667326D01*
X103186008Y-98659475D01*
X103186008Y-98659474D01*
X103186009Y-98659472D01*
X103200500Y-98549401D01*
X103200499Y-98350600D01*
X103186009Y-98240528D01*
X103186008Y-98240525D01*
X103183905Y-98232674D01*
X103187207Y-98231789D01*
X103181392Y-98178075D01*
X103184501Y-98167485D01*
X103183905Y-98167326D01*
X103186008Y-98159475D01*
X103186008Y-98159474D01*
X103186009Y-98159472D01*
X103200500Y-98049401D01*
X103200499Y-97850600D01*
X103200273Y-97848887D01*
X103195188Y-97810255D01*
X103186009Y-97740528D01*
X103186008Y-97740525D01*
X103183905Y-97732674D01*
X103187207Y-97731789D01*
X103181392Y-97678075D01*
X103184501Y-97667485D01*
X103183905Y-97667326D01*
X103186008Y-97659475D01*
X103186008Y-97659474D01*
X103186009Y-97659472D01*
X103200500Y-97549401D01*
X103200499Y-97350600D01*
X103186009Y-97240528D01*
X103186008Y-97240525D01*
X103183905Y-97232674D01*
X103187207Y-97231789D01*
X103181392Y-97178075D01*
X103184501Y-97167485D01*
X103183905Y-97167326D01*
X103186008Y-97159475D01*
X103186008Y-97159474D01*
X103186009Y-97159472D01*
X103200500Y-97049401D01*
X103200499Y-96850600D01*
X103186009Y-96740528D01*
X103186008Y-96740525D01*
X103183905Y-96732674D01*
X103187207Y-96731789D01*
X103181392Y-96678075D01*
X103184501Y-96667485D01*
X103183905Y-96667326D01*
X103186008Y-96659475D01*
X103186008Y-96659474D01*
X103186009Y-96659472D01*
X103200500Y-96549401D01*
X103200499Y-96350600D01*
X103200498Y-96350596D01*
X103190249Y-96272737D01*
X103201015Y-96203702D01*
X103247395Y-96151447D01*
X103265727Y-96141996D01*
X103296429Y-96129279D01*
X103374516Y-96069360D01*
X103400489Y-96059319D01*
X103425084Y-96046267D01*
X103432623Y-96046896D01*
X103439681Y-96044168D01*
X103466961Y-96049763D01*
G37*
%TD.AperFunction*%
%TA.AperFunction,Conductor*%
G36*
X99116257Y-91710185D02*
G01*
X99136898Y-91726818D01*
X99473373Y-92063294D01*
X99801961Y-92391882D01*
X99831985Y-92440556D01*
X99837995Y-92458693D01*
X99837999Y-92458702D01*
X99886068Y-92536632D01*
X99927032Y-92603044D01*
X100046956Y-92722968D01*
X100090597Y-92749886D01*
X100137321Y-92801832D01*
X100149500Y-92855424D01*
X100149500Y-93176570D01*
X100163228Y-93245581D01*
X100163228Y-93245583D01*
X100174497Y-93302236D01*
X100174499Y-93302244D01*
X100219792Y-93411592D01*
X100223535Y-93420627D01*
X100292262Y-93523486D01*
X100294726Y-93527173D01*
X100294727Y-93527174D01*
X101886165Y-95118610D01*
X101919650Y-95179933D01*
X101914666Y-95249624D01*
X101872794Y-95305558D01*
X101814668Y-95329230D01*
X101740536Y-95338989D01*
X101740527Y-95338991D01*
X101603574Y-95395719D01*
X101603571Y-95395720D01*
X101603571Y-95395721D01*
X101485964Y-95485964D01*
X101405142Y-95591294D01*
X101395719Y-95603574D01*
X101338991Y-95740527D01*
X101338990Y-95740529D01*
X101324500Y-95850598D01*
X101324500Y-96049403D01*
X101338989Y-96159468D01*
X101341094Y-96167322D01*
X101338212Y-96168094D01*
X101338431Y-96169732D01*
X101343740Y-96180852D01*
X101342682Y-96201572D01*
X101344566Y-96215680D01*
X101342468Y-96232131D01*
X101338991Y-96240528D01*
X101324500Y-96350599D01*
X101324500Y-96373093D01*
X101323505Y-96380900D01*
X101312528Y-96405990D01*
X101304815Y-96432259D01*
X101298729Y-96437532D01*
X101295501Y-96444912D01*
X101272700Y-96460086D01*
X101252011Y-96478014D01*
X101244041Y-96479159D01*
X101237335Y-96483623D01*
X101209954Y-96484061D01*
X101182853Y-96487958D01*
X101170924Y-96484685D01*
X101167475Y-96484741D01*
X101164580Y-96482945D01*
X101153048Y-96479782D01*
X101129123Y-96469872D01*
X101033497Y-96430263D01*
X101033492Y-96430262D01*
X101033489Y-96430261D01*
X100878845Y-96399500D01*
X100878842Y-96399500D01*
X100721158Y-96399500D01*
X100721155Y-96399500D01*
X100566510Y-96430261D01*
X100566498Y-96430264D01*
X100420827Y-96490602D01*
X100420814Y-96490609D01*
X100289711Y-96578210D01*
X100289707Y-96578213D01*
X100178213Y-96689707D01*
X100178210Y-96689711D01*
X100090609Y-96820814D01*
X100090602Y-96820827D01*
X100030264Y-96966498D01*
X100030261Y-96966510D01*
X99999500Y-97121153D01*
X99999500Y-97278846D01*
X100030261Y-97433489D01*
X100030264Y-97433501D01*
X100090602Y-97579172D01*
X100090606Y-97579179D01*
X100128602Y-97636044D01*
X100149480Y-97702721D01*
X100149500Y-97704935D01*
X100149500Y-98525500D01*
X100129815Y-98592539D01*
X100077011Y-98638294D01*
X100025500Y-98649500D01*
X99872757Y-98649500D01*
X99805718Y-98629815D01*
X99759963Y-98577011D01*
X99750019Y-98507853D01*
X99751140Y-98501308D01*
X99775500Y-98378844D01*
X99775500Y-98221155D01*
X99752883Y-98107455D01*
X99750500Y-98083263D01*
X99750500Y-97565928D01*
X99725502Y-97440261D01*
X99725501Y-97440260D01*
X99725501Y-97440256D01*
X99676465Y-97321873D01*
X99635294Y-97260256D01*
X99635292Y-97260253D01*
X99605279Y-97215333D01*
X96050657Y-93660711D01*
X96017172Y-93599388D01*
X96017689Y-93551245D01*
X96016484Y-93551055D01*
X96050500Y-93336286D01*
X96050500Y-93123713D01*
X96037423Y-93041150D01*
X96017246Y-92913757D01*
X95951557Y-92711588D01*
X95855051Y-92522184D01*
X95855049Y-92522181D01*
X95855048Y-92522179D01*
X95730109Y-92350213D01*
X95616569Y-92236673D01*
X95583084Y-92175350D01*
X95588068Y-92105658D01*
X95629940Y-92049725D01*
X95660915Y-92032810D01*
X95792331Y-91983796D01*
X95907546Y-91897546D01*
X95993796Y-91782331D01*
X95997960Y-91771165D01*
X96039829Y-91715234D01*
X96105293Y-91690816D01*
X96114141Y-91690500D01*
X99049218Y-91690500D01*
X99116257Y-91710185D01*
G37*
%TD.AperFunction*%
%TA.AperFunction,Conductor*%
G36*
X104145269Y-91507780D02*
G01*
X104201203Y-91549651D01*
X104223553Y-91599768D01*
X104230262Y-91633494D01*
X104230264Y-91633501D01*
X104290602Y-91779172D01*
X104290609Y-91779185D01*
X104378210Y-91910288D01*
X104378213Y-91910292D01*
X104489707Y-92021786D01*
X104489711Y-92021789D01*
X104620814Y-92109390D01*
X104620827Y-92109397D01*
X104766498Y-92169735D01*
X104766503Y-92169737D01*
X104918122Y-92199896D01*
X104921153Y-92200499D01*
X104921156Y-92200500D01*
X104921158Y-92200500D01*
X105078844Y-92200500D01*
X105078845Y-92200499D01*
X105233497Y-92169737D01*
X105379179Y-92109394D01*
X105436044Y-92071397D01*
X105502721Y-92050520D01*
X105504935Y-92050500D01*
X105598431Y-92050500D01*
X105665470Y-92070185D01*
X105686112Y-92086819D01*
X105800630Y-92201337D01*
X105834115Y-92262660D01*
X105829131Y-92332352D01*
X105816051Y-92357909D01*
X105740609Y-92470814D01*
X105740602Y-92470827D01*
X105680264Y-92616498D01*
X105680261Y-92616510D01*
X105649500Y-92771153D01*
X105649500Y-92928846D01*
X105680261Y-93083489D01*
X105680264Y-93083501D01*
X105740602Y-93229172D01*
X105740606Y-93229179D01*
X105778602Y-93286044D01*
X105799480Y-93352721D01*
X105799500Y-93354935D01*
X105799500Y-94216031D01*
X105779815Y-94283070D01*
X105727011Y-94328825D01*
X105659315Y-94338970D01*
X105549401Y-94324500D01*
X105350596Y-94324500D01*
X105240531Y-94338989D01*
X105232678Y-94341094D01*
X105231802Y-94337824D01*
X105177853Y-94343567D01*
X105167477Y-94340518D01*
X105167323Y-94341095D01*
X105159470Y-94338990D01*
X105049402Y-94324500D01*
X104901068Y-94324500D01*
X104834029Y-94304815D01*
X104788274Y-94252011D01*
X104778330Y-94182853D01*
X104795530Y-94135403D01*
X104812003Y-94108697D01*
X104865349Y-93947708D01*
X104875500Y-93848345D01*
X104875499Y-93301656D01*
X104868095Y-93229179D01*
X104865349Y-93202292D01*
X104865348Y-93202289D01*
X104855296Y-93171955D01*
X104812003Y-93041303D01*
X104811999Y-93041297D01*
X104811998Y-93041294D01*
X104722970Y-92896959D01*
X104722967Y-92896955D01*
X104603044Y-92777032D01*
X104603040Y-92777029D01*
X104458705Y-92688001D01*
X104458699Y-92687998D01*
X104458697Y-92687997D01*
X104458694Y-92687996D01*
X104297709Y-92634651D01*
X104198352Y-92624500D01*
X104198345Y-92624500D01*
X103848974Y-92624500D01*
X103781935Y-92604815D01*
X103736180Y-92552011D01*
X103726707Y-92495161D01*
X103725500Y-92495161D01*
X103725500Y-91876399D01*
X103745185Y-91809360D01*
X103761819Y-91788718D01*
X103887059Y-91663478D01*
X104014257Y-91536279D01*
X104075578Y-91502796D01*
X104145269Y-91507780D01*
G37*
%TD.AperFunction*%
%TA.AperFunction,Conductor*%
G36*
X111843334Y-91299837D02*
G01*
X111887681Y-91328338D01*
X111938181Y-91378838D01*
X111971666Y-91440161D01*
X111974500Y-91466519D01*
X111974500Y-92935612D01*
X111954815Y-93002651D01*
X111902011Y-93048406D01*
X111832853Y-93058350D01*
X111785403Y-93041150D01*
X111658705Y-92963001D01*
X111658699Y-92962998D01*
X111658697Y-92962997D01*
X111658368Y-92962888D01*
X111497709Y-92909651D01*
X111398346Y-92899500D01*
X110801662Y-92899500D01*
X110801644Y-92899501D01*
X110702292Y-92909650D01*
X110702289Y-92909651D01*
X110541305Y-92962996D01*
X110541294Y-92963001D01*
X110396959Y-93052029D01*
X110396955Y-93052032D01*
X110277032Y-93171955D01*
X110277029Y-93171959D01*
X110188001Y-93316294D01*
X110187996Y-93316305D01*
X110134651Y-93477290D01*
X110124500Y-93576647D01*
X110124500Y-93705148D01*
X110104815Y-93772187D01*
X110052011Y-93817942D01*
X109982853Y-93827886D01*
X109919297Y-93798861D01*
X109912819Y-93792829D01*
X109866889Y-93746899D01*
X109833404Y-93685576D01*
X109830570Y-93659218D01*
X109830570Y-93029927D01*
X109850255Y-92962888D01*
X109866885Y-92942250D01*
X110166522Y-92642612D01*
X110211690Y-92615545D01*
X110211208Y-92614382D01*
X110216834Y-92612051D01*
X110216836Y-92612051D01*
X110295418Y-92579501D01*
X110398914Y-92536632D01*
X110562782Y-92427139D01*
X110702139Y-92287782D01*
X110702140Y-92287779D01*
X110709206Y-92280714D01*
X110709209Y-92280710D01*
X111471246Y-91518672D01*
X111494774Y-91500240D01*
X111552762Y-91465185D01*
X111610185Y-91430472D01*
X111712319Y-91328338D01*
X111773642Y-91294853D01*
X111843334Y-91299837D01*
G37*
%TD.AperFunction*%
%TA.AperFunction,Conductor*%
G36*
X132911505Y-89315185D02*
G01*
X132957260Y-89367989D01*
X132962172Y-89380496D01*
X133002996Y-89503694D01*
X133003001Y-89503705D01*
X133092029Y-89648040D01*
X133092032Y-89648044D01*
X133211955Y-89767967D01*
X133211959Y-89767970D01*
X133356294Y-89856998D01*
X133356297Y-89856999D01*
X133356303Y-89857003D01*
X133517292Y-89910349D01*
X133616655Y-89920500D01*
X134213344Y-89920499D01*
X134213352Y-89920498D01*
X134213355Y-89920498D01*
X134271797Y-89914528D01*
X134312708Y-89910349D01*
X134473697Y-89857003D01*
X134618044Y-89767968D01*
X134729193Y-89656819D01*
X134790516Y-89623334D01*
X134816874Y-89620500D01*
X137129192Y-89620500D01*
X137196231Y-89640185D01*
X137216873Y-89656819D01*
X137396563Y-89836509D01*
X137430048Y-89897832D01*
X137431355Y-89943588D01*
X137409500Y-90081577D01*
X137409500Y-90278422D01*
X137440290Y-90472826D01*
X137469360Y-90562292D01*
X137490445Y-90627183D01*
X137492440Y-90697022D01*
X137456360Y-90756855D01*
X137393660Y-90787684D01*
X137372514Y-90789500D01*
X136295929Y-90789500D01*
X136170261Y-90814497D01*
X136170255Y-90814499D01*
X136126163Y-90832763D01*
X136126162Y-90832763D01*
X136051881Y-90863530D01*
X136051863Y-90863540D01*
X135945332Y-90934721D01*
X135945331Y-90934722D01*
X135924275Y-90955779D01*
X135866871Y-91013182D01*
X135805551Y-91046666D01*
X135779192Y-91049500D01*
X133127940Y-91049500D01*
X133060901Y-91029815D01*
X133040258Y-91013180D01*
X133007792Y-90980713D01*
X133007788Y-90980710D01*
X132876685Y-90893109D01*
X132876672Y-90893102D01*
X132731001Y-90832764D01*
X132730989Y-90832761D01*
X132663920Y-90819420D01*
X132602009Y-90787035D01*
X132600428Y-90785482D01*
X132576817Y-90761870D01*
X132543333Y-90700547D01*
X132540500Y-90674191D01*
X132540500Y-90413386D01*
X132538819Y-90394885D01*
X132534086Y-90342804D01*
X132483478Y-90180394D01*
X132395472Y-90034815D01*
X132395470Y-90034813D01*
X132395469Y-90034811D01*
X132275188Y-89914530D01*
X132259665Y-89905146D01*
X132146287Y-89836606D01*
X132099101Y-89785080D01*
X132087263Y-89716221D01*
X132114532Y-89651892D01*
X132172251Y-89612518D01*
X132173383Y-89612157D01*
X132329606Y-89563478D01*
X132475185Y-89475472D01*
X132595472Y-89355185D01*
X132595474Y-89355180D01*
X132600094Y-89349285D01*
X132601117Y-89350087D01*
X132646904Y-89308160D01*
X132701489Y-89295500D01*
X132844466Y-89295500D01*
X132911505Y-89315185D01*
G37*
%TD.AperFunction*%
%TA.AperFunction,Conductor*%
G36*
X133611231Y-83515185D02*
G01*
X133631873Y-83531819D01*
X137396563Y-87296509D01*
X137430048Y-87357832D01*
X137431355Y-87403588D01*
X137409500Y-87541577D01*
X137409500Y-87738422D01*
X137440290Y-87932826D01*
X137501117Y-88120028D01*
X137510888Y-88139203D01*
X137523785Y-88207872D01*
X137497510Y-88272613D01*
X137440404Y-88312871D01*
X137400404Y-88319500D01*
X134816874Y-88319500D01*
X134749835Y-88299815D01*
X134729193Y-88283181D01*
X134618044Y-88172032D01*
X134618040Y-88172029D01*
X134473705Y-88083001D01*
X134473699Y-88082998D01*
X134473697Y-88082997D01*
X134473694Y-88082996D01*
X134312709Y-88029651D01*
X134213352Y-88019500D01*
X134213345Y-88019500D01*
X133791961Y-88019500D01*
X133767769Y-88017117D01*
X133654071Y-87994500D01*
X133654069Y-87994500D01*
X132701489Y-87994500D01*
X132634450Y-87974815D01*
X132600762Y-87940191D01*
X132600094Y-87940715D01*
X132595468Y-87934810D01*
X132475188Y-87814530D01*
X132352703Y-87740485D01*
X132329606Y-87726522D01*
X132167196Y-87675914D01*
X132167194Y-87675913D01*
X132167192Y-87675913D01*
X132117778Y-87671423D01*
X132096616Y-87669500D01*
X131583384Y-87669500D01*
X131564145Y-87671248D01*
X131512807Y-87675913D01*
X131350393Y-87726522D01*
X131204811Y-87814530D01*
X131204810Y-87814531D01*
X131102681Y-87916661D01*
X131041358Y-87950146D01*
X130971666Y-87945162D01*
X130927319Y-87916661D01*
X130825188Y-87814530D01*
X130702703Y-87740485D01*
X130679606Y-87726522D01*
X130517196Y-87675914D01*
X130517194Y-87675913D01*
X130517192Y-87675913D01*
X130467778Y-87671423D01*
X130446616Y-87669500D01*
X130446613Y-87669500D01*
X130185808Y-87669500D01*
X130118769Y-87649815D01*
X130098127Y-87633181D01*
X129876819Y-87411873D01*
X129843334Y-87350550D01*
X129840500Y-87324192D01*
X129840500Y-83711519D01*
X129860185Y-83644480D01*
X129876818Y-83623839D01*
X129889679Y-83610978D01*
X129927319Y-83573337D01*
X129988640Y-83539853D01*
X130058331Y-83544837D01*
X130102680Y-83573338D01*
X130204811Y-83675469D01*
X130204813Y-83675470D01*
X130204815Y-83675472D01*
X130350394Y-83763478D01*
X130512804Y-83814086D01*
X130583384Y-83820500D01*
X130583387Y-83820500D01*
X131096613Y-83820500D01*
X131096616Y-83820500D01*
X131167196Y-83814086D01*
X131329606Y-83763478D01*
X131475185Y-83675472D01*
X131595472Y-83555185D01*
X131595474Y-83555180D01*
X131600094Y-83549285D01*
X131601117Y-83550087D01*
X131646904Y-83508160D01*
X131701489Y-83495500D01*
X133544192Y-83495500D01*
X133611231Y-83515185D01*
G37*
%TD.AperFunction*%
%TA.AperFunction,Conductor*%
G36*
X151503243Y-70399199D02*
G01*
X151828106Y-70416225D01*
X151841014Y-70417582D01*
X152159112Y-70467964D01*
X152171777Y-70470655D01*
X152482884Y-70554016D01*
X152495211Y-70558021D01*
X152795895Y-70673443D01*
X152807731Y-70678712D01*
X153094712Y-70824936D01*
X153105926Y-70831412D01*
X153367278Y-71001135D01*
X153376029Y-71006818D01*
X153386530Y-71014447D01*
X153636820Y-71217128D01*
X153646465Y-71225813D01*
X153874186Y-71453534D01*
X153882871Y-71463179D01*
X154085552Y-71713469D01*
X154093181Y-71723970D01*
X154268584Y-71994067D01*
X154275066Y-72005294D01*
X154406488Y-72263224D01*
X154421282Y-72292258D01*
X154426561Y-72304115D01*
X154541975Y-72604779D01*
X154545986Y-72617124D01*
X154629340Y-72928207D01*
X154632038Y-72940902D01*
X154682417Y-73258985D01*
X154683774Y-73271893D01*
X154700800Y-73596756D01*
X154700970Y-73603246D01*
X154700970Y-125696519D01*
X154700775Y-125703472D01*
X154685006Y-125984263D01*
X154683449Y-125998081D01*
X154636924Y-126271902D01*
X154633830Y-126285459D01*
X154556938Y-126552357D01*
X154552345Y-126565482D01*
X154446058Y-126822083D01*
X154440025Y-126834611D01*
X154305672Y-127077703D01*
X154298274Y-127089477D01*
X154137550Y-127315997D01*
X154128880Y-127326869D01*
X153943803Y-127533970D01*
X153933970Y-127543803D01*
X153726869Y-127728880D01*
X153715997Y-127737550D01*
X153489477Y-127898274D01*
X153477703Y-127905672D01*
X153234611Y-128040025D01*
X153222083Y-128046058D01*
X152965482Y-128152345D01*
X152952357Y-128156938D01*
X152685459Y-128233830D01*
X152671902Y-128236924D01*
X152398081Y-128283449D01*
X152384263Y-128285006D01*
X152103472Y-128300775D01*
X152096519Y-128300970D01*
X152088114Y-128300970D01*
X95072468Y-128299503D01*
X95072410Y-128299500D01*
X95065892Y-128299500D01*
X95003751Y-128299500D01*
X94996264Y-128299274D01*
X94706205Y-128281728D01*
X94691340Y-128279923D01*
X94409202Y-128228219D01*
X94394664Y-128224635D01*
X94120825Y-128139304D01*
X94106827Y-128133995D01*
X93911439Y-128046058D01*
X93845269Y-128016277D01*
X93832012Y-128009319D01*
X93586541Y-127860928D01*
X93574217Y-127852422D01*
X93539773Y-127825437D01*
X93348426Y-127675525D01*
X93337218Y-127665595D01*
X93134404Y-127462781D01*
X93124474Y-127451573D01*
X93022707Y-127321678D01*
X92947573Y-127225776D01*
X92939071Y-127213458D01*
X92790680Y-126967987D01*
X92783722Y-126954730D01*
X92759315Y-126900500D01*
X92666000Y-126693163D01*
X92660698Y-126679182D01*
X92575363Y-126405334D01*
X92571780Y-126390797D01*
X92520076Y-126108659D01*
X92518271Y-126093794D01*
X92512066Y-125991216D01*
X92500732Y-125803855D01*
X92500507Y-125796143D01*
X92501488Y-125281902D01*
X93899500Y-125281902D01*
X93899500Y-125518097D01*
X93936446Y-125751368D01*
X94009433Y-125975996D01*
X94077029Y-126108659D01*
X94116657Y-126186433D01*
X94255483Y-126377510D01*
X94422490Y-126544517D01*
X94613567Y-126683343D01*
X94712991Y-126734002D01*
X94824003Y-126790566D01*
X94824005Y-126790566D01*
X94824008Y-126790568D01*
X94921001Y-126822083D01*
X95048631Y-126863553D01*
X95281903Y-126900500D01*
X95281908Y-126900500D01*
X95518097Y-126900500D01*
X95751368Y-126863553D01*
X95975992Y-126790568D01*
X96186433Y-126683343D01*
X96377510Y-126544517D01*
X96544517Y-126377510D01*
X96683343Y-126186433D01*
X96790568Y-125975992D01*
X96863553Y-125751368D01*
X96872240Y-125696519D01*
X96900500Y-125518097D01*
X96900500Y-125281902D01*
X96886963Y-125196434D01*
X96884661Y-125181902D01*
X149999500Y-125181902D01*
X149999500Y-125418097D01*
X150036446Y-125651368D01*
X150109433Y-125875996D01*
X150171639Y-125998081D01*
X150216657Y-126086433D01*
X150355483Y-126277510D01*
X150522490Y-126444517D01*
X150713567Y-126583343D01*
X150812991Y-126634002D01*
X150924003Y-126690566D01*
X150924005Y-126690566D01*
X150924008Y-126690568D01*
X151044412Y-126729689D01*
X151148631Y-126763553D01*
X151381903Y-126800500D01*
X151381908Y-126800500D01*
X151618097Y-126800500D01*
X151851368Y-126763553D01*
X152075992Y-126690568D01*
X152286433Y-126583343D01*
X152477510Y-126444517D01*
X152644517Y-126277510D01*
X152783343Y-126086433D01*
X152890568Y-125875992D01*
X152963553Y-125651368D01*
X152984662Y-125518092D01*
X153000500Y-125418097D01*
X153000500Y-125181902D01*
X152963553Y-124948631D01*
X152890566Y-124724003D01*
X152783342Y-124513566D01*
X152717171Y-124422490D01*
X152644517Y-124322490D01*
X152477510Y-124155483D01*
X152286433Y-124016657D01*
X152272253Y-124009432D01*
X152075996Y-123909433D01*
X151851368Y-123836446D01*
X151618097Y-123799500D01*
X151618092Y-123799500D01*
X151381908Y-123799500D01*
X151381903Y-123799500D01*
X151148631Y-123836446D01*
X150924003Y-123909433D01*
X150713566Y-124016657D01*
X150604550Y-124095862D01*
X150522490Y-124155483D01*
X150522488Y-124155485D01*
X150522487Y-124155485D01*
X150355485Y-124322487D01*
X150355485Y-124322488D01*
X150355483Y-124322490D01*
X150295862Y-124404550D01*
X150216657Y-124513566D01*
X150109433Y-124724003D01*
X150036446Y-124948631D01*
X149999500Y-125181902D01*
X96884661Y-125181902D01*
X96863553Y-125048631D01*
X96790566Y-124824003D01*
X96683342Y-124613566D01*
X96544517Y-124422490D01*
X96377510Y-124255483D01*
X96186433Y-124116657D01*
X95975996Y-124009433D01*
X95751368Y-123936446D01*
X95518097Y-123899500D01*
X95518092Y-123899500D01*
X95281908Y-123899500D01*
X95281903Y-123899500D01*
X95048631Y-123936446D01*
X94824003Y-124009433D01*
X94613566Y-124116657D01*
X94504550Y-124195862D01*
X94422490Y-124255483D01*
X94422488Y-124255485D01*
X94422487Y-124255485D01*
X94255485Y-124422487D01*
X94255485Y-124422488D01*
X94255483Y-124422490D01*
X94195862Y-124504550D01*
X94116657Y-124613566D01*
X94009433Y-124824003D01*
X93936446Y-125048631D01*
X93899500Y-125281902D01*
X92501488Y-125281902D01*
X92539481Y-105373920D01*
X94649499Y-105373920D01*
X94678340Y-105518907D01*
X94678343Y-105518917D01*
X94734912Y-105655488D01*
X94734919Y-105655501D01*
X94817048Y-105778415D01*
X94817051Y-105778419D01*
X94921580Y-105882948D01*
X94921584Y-105882951D01*
X95044498Y-105965080D01*
X95044511Y-105965087D01*
X95181082Y-106021656D01*
X95181087Y-106021658D01*
X95181091Y-106021658D01*
X95181092Y-106021659D01*
X95326079Y-106050500D01*
X95326082Y-106050500D01*
X95473920Y-106050500D01*
X95575654Y-106030263D01*
X95618913Y-106021658D01*
X95755495Y-105965084D01*
X95878416Y-105882951D01*
X95982951Y-105778416D01*
X96065084Y-105655495D01*
X96069645Y-105644485D01*
X96121656Y-105518917D01*
X96121658Y-105518913D01*
X96141173Y-105420808D01*
X96150500Y-105373920D01*
X96150500Y-105226079D01*
X96121659Y-105081092D01*
X96121658Y-105081091D01*
X96121658Y-105081087D01*
X96119790Y-105076577D01*
X96065087Y-104944511D01*
X96065080Y-104944498D01*
X95982951Y-104821584D01*
X95982948Y-104821580D01*
X95878419Y-104717051D01*
X95878415Y-104717048D01*
X95755501Y-104634919D01*
X95755488Y-104634912D01*
X95618917Y-104578343D01*
X95618907Y-104578340D01*
X95473920Y-104549500D01*
X95473918Y-104549500D01*
X95326082Y-104549500D01*
X95326080Y-104549500D01*
X95181092Y-104578340D01*
X95181082Y-104578343D01*
X95044511Y-104634912D01*
X95044498Y-104634919D01*
X94921584Y-104717048D01*
X94921580Y-104717051D01*
X94817051Y-104821580D01*
X94817048Y-104821584D01*
X94734919Y-104944498D01*
X94734912Y-104944511D01*
X94678343Y-105081082D01*
X94678340Y-105081092D01*
X94649500Y-105226079D01*
X94649500Y-105226082D01*
X94649500Y-105373918D01*
X94649500Y-105373920D01*
X94649499Y-105373920D01*
X92539481Y-105373920D01*
X92569217Y-89792135D01*
X93349500Y-89792135D01*
X93349500Y-91587870D01*
X93349501Y-91587876D01*
X93355908Y-91647483D01*
X93406202Y-91782328D01*
X93406206Y-91782335D01*
X93492452Y-91897544D01*
X93492455Y-91897547D01*
X93607664Y-91983793D01*
X93607671Y-91983797D01*
X93739082Y-92032810D01*
X93795016Y-92074681D01*
X93819433Y-92140145D01*
X93804582Y-92208418D01*
X93783431Y-92236673D01*
X93669889Y-92350215D01*
X93544951Y-92522179D01*
X93448444Y-92711585D01*
X93448443Y-92711587D01*
X93448443Y-92711588D01*
X93429089Y-92771153D01*
X93382753Y-92913760D01*
X93349500Y-93123713D01*
X93349500Y-93336286D01*
X93380917Y-93534648D01*
X93382754Y-93546243D01*
X93447951Y-93746899D01*
X93448444Y-93748414D01*
X93544951Y-93937820D01*
X93669890Y-94109786D01*
X93820213Y-94260109D01*
X93992182Y-94385050D01*
X94000946Y-94389516D01*
X94051742Y-94437491D01*
X94068536Y-94505312D01*
X94045998Y-94571447D01*
X94000946Y-94610484D01*
X93992182Y-94614949D01*
X93820213Y-94739890D01*
X93669890Y-94890213D01*
X93544951Y-95062179D01*
X93448444Y-95251585D01*
X93382753Y-95453760D01*
X93349500Y-95663713D01*
X93349500Y-95876287D01*
X93359534Y-95939644D01*
X93378489Y-96059319D01*
X93382754Y-96086243D01*
X93440323Y-96263422D01*
X93448444Y-96288414D01*
X93544951Y-96477820D01*
X93669890Y-96649786D01*
X93820213Y-96800109D01*
X93992179Y-96925048D01*
X93992181Y-96925049D01*
X93992184Y-96925051D01*
X94181588Y-97021557D01*
X94383757Y-97087246D01*
X94593713Y-97120500D01*
X94593714Y-97120500D01*
X94806286Y-97120500D01*
X94806287Y-97120500D01*
X94945776Y-97098407D01*
X95021055Y-97086484D01*
X95021315Y-97088128D01*
X95083852Y-97091250D01*
X95130711Y-97120657D01*
X98163181Y-100153127D01*
X98196666Y-100214450D01*
X98199500Y-100240808D01*
X98199500Y-101333310D01*
X98221662Y-101444720D01*
X98221662Y-101444721D01*
X98224497Y-101458975D01*
X98224501Y-101458988D01*
X98273532Y-101577362D01*
X98344726Y-101683912D01*
X100766089Y-104105275D01*
X100845796Y-104158533D01*
X100845795Y-104158533D01*
X100865946Y-104171996D01*
X100872634Y-104176465D01*
X100991017Y-104225501D01*
X100991021Y-104225501D01*
X100991022Y-104225502D01*
X101116689Y-104250500D01*
X101426985Y-104250500D01*
X101494024Y-104270185D01*
X101539779Y-104322989D01*
X101549723Y-104392147D01*
X101520698Y-104455703D01*
X101501923Y-104471666D01*
X101502623Y-104472551D01*
X101496955Y-104477032D01*
X101377032Y-104596955D01*
X101377029Y-104596959D01*
X101288001Y-104741294D01*
X101287996Y-104741305D01*
X101234651Y-104902290D01*
X101234650Y-104902296D01*
X101229243Y-104955214D01*
X101220450Y-104990051D01*
X101212950Y-105008161D01*
X101212948Y-105008167D01*
X101174500Y-105201456D01*
X101174500Y-105201459D01*
X101174500Y-105398541D01*
X101174500Y-105398543D01*
X101174499Y-105398543D01*
X101212948Y-105591833D01*
X101212950Y-105591840D01*
X101220449Y-105609946D01*
X101229244Y-105644789D01*
X101234651Y-105697709D01*
X101287996Y-105858694D01*
X101288001Y-105858705D01*
X101377029Y-106003040D01*
X101377032Y-106003044D01*
X101496955Y-106122967D01*
X101496959Y-106122970D01*
X101641294Y-106211998D01*
X101641297Y-106211999D01*
X101641303Y-106212003D01*
X101802292Y-106265349D01*
X101901655Y-106275500D01*
X101938563Y-106275499D01*
X101962754Y-106277881D01*
X102026067Y-106290476D01*
X102076458Y-106300500D01*
X102076459Y-106300500D01*
X104023543Y-106300500D01*
X104077801Y-106289707D01*
X104197777Y-106265842D01*
X104216836Y-106262051D01*
X104270165Y-106239961D01*
X104273673Y-106238508D01*
X104282293Y-106234938D01*
X104329744Y-106225500D01*
X106624600Y-106225500D01*
X106691639Y-106245185D01*
X106737394Y-106297989D01*
X106747338Y-106367147D01*
X106718313Y-106430703D01*
X106712283Y-106437178D01*
X105562221Y-107587240D01*
X105562218Y-107587243D01*
X105501698Y-107647763D01*
X105422859Y-107726601D01*
X105313371Y-107890462D01*
X105313366Y-107890471D01*
X105272250Y-107989736D01*
X105272247Y-107989742D01*
X105270185Y-107994723D01*
X105237949Y-108072546D01*
X105225341Y-108135931D01*
X105224018Y-108142581D01*
X105224017Y-108142585D01*
X105199500Y-108265838D01*
X105199500Y-109744038D01*
X105179815Y-109811077D01*
X105127011Y-109856832D01*
X105122953Y-109858599D01*
X105051089Y-109888366D01*
X105051079Y-109888371D01*
X104887219Y-109997859D01*
X104817540Y-110067538D01*
X104747861Y-110137218D01*
X104747858Y-110137221D01*
X104297955Y-110587123D01*
X104236632Y-110620608D01*
X104166940Y-110615624D01*
X104111007Y-110573752D01*
X104086590Y-110508288D01*
X104095712Y-110451991D01*
X104162051Y-110291835D01*
X104200500Y-110098541D01*
X104200500Y-109901459D01*
X104200500Y-109901456D01*
X104162052Y-109708170D01*
X104162051Y-109708169D01*
X104162051Y-109708165D01*
X104149910Y-109678853D01*
X104086635Y-109526092D01*
X104086628Y-109526079D01*
X103977139Y-109362218D01*
X103977136Y-109362214D01*
X103837785Y-109222863D01*
X103837781Y-109222860D01*
X103673920Y-109113371D01*
X103673907Y-109113364D01*
X103491839Y-109037950D01*
X103491829Y-109037947D01*
X103298543Y-108999500D01*
X103298541Y-108999500D01*
X101676459Y-108999500D01*
X101676455Y-108999500D01*
X101584930Y-109017705D01*
X101584918Y-109017708D01*
X101579812Y-109018724D01*
X101483164Y-109037949D01*
X101438231Y-109056561D01*
X101411274Y-109067726D01*
X101404580Y-109069655D01*
X101394864Y-109069605D01*
X101370258Y-109074500D01*
X99804675Y-109074500D01*
X99804655Y-109074499D01*
X99798541Y-109074499D01*
X99601460Y-109074499D01*
X99601457Y-109074499D01*
X99408172Y-109112945D01*
X99408164Y-109112948D01*
X99390052Y-109120450D01*
X99355207Y-109129245D01*
X99302290Y-109134651D01*
X99141305Y-109187996D01*
X99141294Y-109188001D01*
X98996959Y-109277029D01*
X98996955Y-109277032D01*
X98877031Y-109396956D01*
X98787999Y-109541297D01*
X98787995Y-109541306D01*
X98781986Y-109559441D01*
X98751962Y-109608115D01*
X98515713Y-109844364D01*
X98454390Y-109877849D01*
X98396176Y-109876521D01*
X98390341Y-109874969D01*
X98261483Y-109826909D01*
X98201873Y-109820500D01*
X98185433Y-109820500D01*
X98169776Y-109816338D01*
X98153197Y-109806277D01*
X98134593Y-109800815D01*
X98123946Y-109788528D01*
X98110044Y-109780092D01*
X98101535Y-109762664D01*
X98088838Y-109748011D01*
X98086523Y-109731916D01*
X98079390Y-109717305D01*
X98081653Y-109698046D01*
X98078894Y-109678853D01*
X98085648Y-109664062D01*
X98087547Y-109647913D01*
X98099863Y-109632935D01*
X98107919Y-109615297D01*
X98128747Y-109596182D01*
X98217246Y-109531884D01*
X98217248Y-109531881D01*
X98217252Y-109531879D01*
X98356879Y-109392252D01*
X98356881Y-109392248D01*
X98356884Y-109392246D01*
X98407779Y-109322192D01*
X98472944Y-109232501D01*
X98562591Y-109056561D01*
X98623610Y-108868763D01*
X98629674Y-108830476D01*
X98654500Y-108673736D01*
X98654500Y-108476263D01*
X98623610Y-108281236D01*
X98588977Y-108174647D01*
X98562591Y-108093439D01*
X98472944Y-107917499D01*
X98453301Y-107890462D01*
X98356884Y-107757753D01*
X98261812Y-107662681D01*
X98228327Y-107601358D01*
X98233311Y-107531666D01*
X98261812Y-107487319D01*
X98298631Y-107450500D01*
X98356879Y-107392252D01*
X98356881Y-107392248D01*
X98356884Y-107392246D01*
X98420069Y-107305278D01*
X98472944Y-107232501D01*
X98562591Y-107056561D01*
X98623610Y-106868763D01*
X98628435Y-106838302D01*
X98654500Y-106673734D01*
X98654500Y-106476263D01*
X98623610Y-106281236D01*
X98601113Y-106211998D01*
X98562591Y-106093439D01*
X98472944Y-105917499D01*
X98447844Y-105882951D01*
X98356884Y-105757753D01*
X98217246Y-105618115D01*
X98057504Y-105502058D01*
X98057503Y-105502057D01*
X98057501Y-105502056D01*
X97881561Y-105412409D01*
X97838886Y-105398543D01*
X97693763Y-105351389D01*
X97498736Y-105320500D01*
X97498731Y-105320500D01*
X97301269Y-105320500D01*
X97301264Y-105320500D01*
X97106236Y-105351389D01*
X96918441Y-105412408D01*
X96742495Y-105502058D01*
X96582753Y-105618115D01*
X96443115Y-105757753D01*
X96327058Y-105917495D01*
X96237408Y-106093441D01*
X96176389Y-106281236D01*
X96145500Y-106476263D01*
X96145500Y-106673732D01*
X96145499Y-106673734D01*
X96176389Y-106868763D01*
X96222365Y-107010261D01*
X96237409Y-107056561D01*
X96299887Y-107179179D01*
X96327058Y-107232504D01*
X96443115Y-107392246D01*
X96538188Y-107487319D01*
X96571673Y-107548642D01*
X96566689Y-107618334D01*
X96538188Y-107662681D01*
X96443119Y-107757749D01*
X96443115Y-107757753D01*
X96327058Y-107917495D01*
X96237408Y-108093441D01*
X96176389Y-108281236D01*
X96145500Y-108476263D01*
X96145500Y-108673736D01*
X96176389Y-108868763D01*
X96231362Y-109037950D01*
X96237409Y-109056561D01*
X96327056Y-109232501D01*
X96327058Y-109232504D01*
X96443115Y-109392246D01*
X96582751Y-109531882D01*
X96671253Y-109596181D01*
X96713920Y-109651511D01*
X96719899Y-109721124D01*
X96687294Y-109782919D01*
X96626456Y-109817277D01*
X96601426Y-109820152D01*
X96601436Y-109820324D01*
X96598626Y-109820474D01*
X96598404Y-109820500D01*
X96598147Y-109820500D01*
X96598123Y-109820501D01*
X96538516Y-109826908D01*
X96403671Y-109877202D01*
X96403664Y-109877206D01*
X96348811Y-109918270D01*
X96283347Y-109942688D01*
X96215074Y-109927837D01*
X96165668Y-109878432D01*
X96150500Y-109819004D01*
X96150500Y-109776079D01*
X96121659Y-109631092D01*
X96121658Y-109631091D01*
X96121658Y-109631087D01*
X96107200Y-109596182D01*
X96065087Y-109494511D01*
X96065080Y-109494498D01*
X95982951Y-109371584D01*
X95982948Y-109371580D01*
X95878419Y-109267051D01*
X95878415Y-109267048D01*
X95755501Y-109184919D01*
X95755488Y-109184912D01*
X95618917Y-109128343D01*
X95618907Y-109128340D01*
X95473920Y-109099500D01*
X95473918Y-109099500D01*
X95326082Y-109099500D01*
X95326080Y-109099500D01*
X95181092Y-109128340D01*
X95181082Y-109128343D01*
X95044511Y-109184912D01*
X95044498Y-109184919D01*
X94921584Y-109267048D01*
X94921580Y-109267051D01*
X94817051Y-109371580D01*
X94817048Y-109371584D01*
X94734919Y-109494498D01*
X94734912Y-109494511D01*
X94678343Y-109631082D01*
X94678340Y-109631092D01*
X94649500Y-109776079D01*
X94649500Y-109776082D01*
X94649500Y-109923918D01*
X94649500Y-109923920D01*
X94649499Y-109923920D01*
X94678340Y-110068907D01*
X94678343Y-110068917D01*
X94734912Y-110205488D01*
X94734919Y-110205501D01*
X94817048Y-110328415D01*
X94817051Y-110328419D01*
X94921580Y-110432948D01*
X94921584Y-110432951D01*
X95044498Y-110515080D01*
X95044511Y-110515087D01*
X95181082Y-110571656D01*
X95181087Y-110571658D01*
X95181091Y-110571658D01*
X95181092Y-110571659D01*
X95326079Y-110600500D01*
X95326082Y-110600500D01*
X95473920Y-110600500D01*
X95571462Y-110581096D01*
X95618913Y-110571658D01*
X95755495Y-110515084D01*
X95878416Y-110432951D01*
X95933820Y-110377546D01*
X95995141Y-110344063D01*
X96064833Y-110349047D01*
X96120766Y-110390918D01*
X96145184Y-110456382D01*
X96145500Y-110465229D01*
X96145500Y-111876870D01*
X96145501Y-111876876D01*
X96151908Y-111936483D01*
X96202202Y-112071328D01*
X96202206Y-112071335D01*
X96288452Y-112186544D01*
X96288455Y-112186547D01*
X96403664Y-112272793D01*
X96403671Y-112272797D01*
X96538517Y-112323091D01*
X96538516Y-112323091D01*
X96545444Y-112323835D01*
X96598127Y-112329500D01*
X98201872Y-112329499D01*
X98261483Y-112323091D01*
X98384703Y-112277132D01*
X98454391Y-112272149D01*
X98515711Y-112305631D01*
X98515714Y-112305634D01*
X99413181Y-113203101D01*
X99446666Y-113264424D01*
X99449500Y-113290782D01*
X99449500Y-114451122D01*
X99449501Y-114451125D01*
X99452399Y-114493886D01*
X99452399Y-114493887D01*
X99498360Y-114678696D01*
X99582967Y-114849292D01*
X99582969Y-114849295D01*
X99702277Y-114997721D01*
X99702278Y-114997722D01*
X99850704Y-115117030D01*
X99850707Y-115117032D01*
X100021302Y-115201639D01*
X100021303Y-115201639D01*
X100021307Y-115201641D01*
X100206111Y-115247600D01*
X100248877Y-115250500D01*
X101151122Y-115250499D01*
X101193889Y-115247600D01*
X101378693Y-115201641D01*
X101549296Y-115117030D01*
X101697722Y-114997722D01*
X101753354Y-114928513D01*
X101810696Y-114888595D01*
X101880518Y-114886015D01*
X101940651Y-114921594D01*
X101946637Y-114928502D01*
X101972147Y-114960237D01*
X101998806Y-115024820D01*
X101999500Y-115037924D01*
X101999500Y-118425500D01*
X101979815Y-118492539D01*
X101927011Y-118538294D01*
X101875500Y-118549500D01*
X101541971Y-118549500D01*
X101541965Y-118549500D01*
X101541964Y-118549501D01*
X101530316Y-118550536D01*
X101422584Y-118560113D01*
X101308611Y-118592725D01*
X101238743Y-118592242D01*
X101180228Y-118554062D01*
X101151643Y-118490307D01*
X101150500Y-118473509D01*
X101150500Y-118304935D01*
X101170185Y-118237896D01*
X101171366Y-118236090D01*
X101209394Y-118179179D01*
X101269737Y-118033497D01*
X101300500Y-117878842D01*
X101300500Y-117721158D01*
X101300500Y-117721155D01*
X101300499Y-117721153D01*
X101289251Y-117664606D01*
X101269737Y-117566503D01*
X101269735Y-117566498D01*
X101209397Y-117420827D01*
X101209390Y-117420814D01*
X101121789Y-117289711D01*
X101121786Y-117289707D01*
X101010292Y-117178213D01*
X101010288Y-117178210D01*
X100879185Y-117090609D01*
X100879172Y-117090602D01*
X100733501Y-117030264D01*
X100733489Y-117030261D01*
X100578845Y-116999500D01*
X100578842Y-116999500D01*
X100421158Y-116999500D01*
X100421155Y-116999500D01*
X100266510Y-117030261D01*
X100266498Y-117030264D01*
X100120827Y-117090602D01*
X100120814Y-117090609D01*
X99989711Y-117178210D01*
X99989707Y-117178213D01*
X99878213Y-117289707D01*
X99878210Y-117289711D01*
X99790609Y-117420814D01*
X99790602Y-117420827D01*
X99730264Y-117566498D01*
X99730261Y-117566510D01*
X99699500Y-117721153D01*
X99699500Y-117878846D01*
X99730261Y-118033489D01*
X99730264Y-118033501D01*
X99790602Y-118179172D01*
X99790606Y-118179179D01*
X99828602Y-118236044D01*
X99849480Y-118302721D01*
X99849500Y-118304935D01*
X99849500Y-119383740D01*
X99829815Y-119450779D01*
X99777011Y-119496534D01*
X99772953Y-119498301D01*
X99670824Y-119540604D01*
X99670814Y-119540609D01*
X99539711Y-119628210D01*
X99539707Y-119628213D01*
X99428213Y-119739707D01*
X99428210Y-119739711D01*
X99340609Y-119870814D01*
X99340602Y-119870827D01*
X99280264Y-120016498D01*
X99280261Y-120016510D01*
X99249500Y-120171153D01*
X99249500Y-120328846D01*
X99280261Y-120483489D01*
X99280264Y-120483501D01*
X99340602Y-120629172D01*
X99340609Y-120629185D01*
X99428210Y-120760288D01*
X99428213Y-120760292D01*
X99539707Y-120871786D01*
X99539711Y-120871789D01*
X99670814Y-120959390D01*
X99670827Y-120959397D01*
X99777561Y-121003607D01*
X99816503Y-121019737D01*
X99971153Y-121050499D01*
X99971156Y-121050500D01*
X99971158Y-121050500D01*
X100128844Y-121050500D01*
X100128845Y-121050499D01*
X100283497Y-121019737D01*
X100429179Y-120959394D01*
X100504021Y-120909385D01*
X100570698Y-120888508D01*
X100638078Y-120906992D01*
X100682819Y-120955074D01*
X100760302Y-121103407D01*
X100760304Y-121103409D01*
X100888890Y-121261109D01*
X100975585Y-121331799D01*
X101046593Y-121389698D01*
X101226951Y-121483909D01*
X101422582Y-121539886D01*
X101541963Y-121550500D01*
X104458036Y-121550499D01*
X104577418Y-121539886D01*
X104773049Y-121483909D01*
X104905752Y-121414590D01*
X104963163Y-121400500D01*
X107898543Y-121400500D01*
X108028582Y-121374632D01*
X108091835Y-121362051D01*
X108148089Y-121338749D01*
X108182940Y-121329953D01*
X108202685Y-121327936D01*
X108362287Y-121275049D01*
X108505391Y-121186781D01*
X108624281Y-121067891D01*
X108712549Y-120924787D01*
X108765436Y-120765185D01*
X108775500Y-120666674D01*
X108775500Y-120636434D01*
X108777883Y-120612242D01*
X108800500Y-120498543D01*
X108800500Y-120301456D01*
X108777883Y-120187756D01*
X108775500Y-120163564D01*
X108775500Y-120133331D01*
X108775499Y-120133318D01*
X108765436Y-120034816D01*
X108759366Y-120016498D01*
X108712549Y-119875213D01*
X108712545Y-119875207D01*
X108712544Y-119875204D01*
X108624283Y-119732112D01*
X108624280Y-119732108D01*
X108592353Y-119700181D01*
X108558868Y-119638858D01*
X108563852Y-119569166D01*
X108592353Y-119524819D01*
X108605353Y-119511819D01*
X108666676Y-119478334D01*
X108693034Y-119475500D01*
X108833480Y-119475500D01*
X108900519Y-119495185D01*
X108921161Y-119511819D01*
X108939811Y-119530469D01*
X108939813Y-119530470D01*
X108939815Y-119530472D01*
X109085394Y-119618478D01*
X109247804Y-119669086D01*
X109318384Y-119675500D01*
X109318387Y-119675500D01*
X109831613Y-119675500D01*
X109831616Y-119675500D01*
X109902196Y-119669086D01*
X110064606Y-119618478D01*
X110210185Y-119530472D01*
X110330472Y-119410185D01*
X110418478Y-119264606D01*
X110469086Y-119102196D01*
X110475500Y-119031616D01*
X110475500Y-118368384D01*
X110469086Y-118297804D01*
X110418478Y-118135394D01*
X110330472Y-117989815D01*
X110330470Y-117989813D01*
X110330469Y-117989811D01*
X110210188Y-117869530D01*
X110135620Y-117824452D01*
X110064606Y-117781522D01*
X109902196Y-117730914D01*
X109902194Y-117730913D01*
X109902192Y-117730913D01*
X109852778Y-117726423D01*
X109831616Y-117724500D01*
X109318384Y-117724500D01*
X109299145Y-117726248D01*
X109247807Y-117730913D01*
X109085393Y-117781522D01*
X108939811Y-117869530D01*
X108819531Y-117989810D01*
X108819528Y-117989814D01*
X108764816Y-118080317D01*
X108713288Y-118127504D01*
X108644428Y-118139342D01*
X108580100Y-118112072D01*
X108571019Y-118103847D01*
X108505391Y-118038219D01*
X108505387Y-118038216D01*
X108362295Y-117949955D01*
X108362289Y-117949952D01*
X108362287Y-117949951D01*
X108202685Y-117897064D01*
X108202683Y-117897063D01*
X108104181Y-117887000D01*
X108104174Y-117887000D01*
X107495826Y-117887000D01*
X107495818Y-117887000D01*
X107397316Y-117897063D01*
X107397315Y-117897064D01*
X107318219Y-117923273D01*
X107237715Y-117949950D01*
X107237704Y-117949955D01*
X107094612Y-118038216D01*
X107094608Y-118038219D01*
X106975719Y-118157108D01*
X106975716Y-118157112D01*
X106887455Y-118300204D01*
X106887451Y-118300213D01*
X106834564Y-118459815D01*
X106834564Y-118459816D01*
X106834563Y-118459816D01*
X106824500Y-118558318D01*
X106824500Y-119091681D01*
X106834563Y-119190183D01*
X106834564Y-119190187D01*
X106849910Y-119236497D01*
X106852312Y-119306325D01*
X106816580Y-119366367D01*
X106754059Y-119397559D01*
X106732204Y-119399500D01*
X105491083Y-119399500D01*
X105424044Y-119379815D01*
X105378289Y-119327011D01*
X105371870Y-119309620D01*
X105333909Y-119176951D01*
X105239698Y-118996593D01*
X105183846Y-118928096D01*
X105111109Y-118838890D01*
X104953409Y-118710304D01*
X104953410Y-118710304D01*
X104953407Y-118710302D01*
X104773049Y-118616091D01*
X104773048Y-118616090D01*
X104773045Y-118616089D01*
X104655829Y-118582550D01*
X104577418Y-118560114D01*
X104577415Y-118560113D01*
X104577413Y-118560113D01*
X104504631Y-118553642D01*
X104458037Y-118549500D01*
X104458033Y-118549500D01*
X104124500Y-118549500D01*
X104057461Y-118529815D01*
X104011706Y-118477011D01*
X104000500Y-118425500D01*
X104000500Y-115037924D01*
X104020185Y-114970885D01*
X104027853Y-114960237D01*
X104027854Y-114960236D01*
X104117030Y-114849296D01*
X104201641Y-114678693D01*
X104247600Y-114493889D01*
X104250500Y-114451123D01*
X104250499Y-113515780D01*
X104270183Y-113448742D01*
X104286813Y-113428105D01*
X105903101Y-111811819D01*
X105964424Y-111778334D01*
X105990782Y-111775500D01*
X116723542Y-111775500D01*
X116745589Y-111771114D01*
X116820188Y-111756275D01*
X116916836Y-111737051D01*
X116993547Y-111705276D01*
X117098914Y-111661632D01*
X117262782Y-111552139D01*
X117402139Y-111412782D01*
X117402139Y-111412780D01*
X117412347Y-111402573D01*
X117412348Y-111402570D01*
X119077140Y-109737781D01*
X119186631Y-109573914D01*
X119262052Y-109391835D01*
X119300500Y-109198540D01*
X119300500Y-109001460D01*
X119262052Y-108808164D01*
X119186631Y-108626086D01*
X119077140Y-108462218D01*
X119077138Y-108462216D01*
X119077136Y-108462213D01*
X118937786Y-108322863D01*
X118924259Y-108313825D01*
X118773914Y-108213369D01*
X118773913Y-108213368D01*
X118773911Y-108213367D01*
X118591836Y-108137948D01*
X118591828Y-108137946D01*
X118398544Y-108099500D01*
X118398540Y-108099500D01*
X118201460Y-108099500D01*
X118201455Y-108099500D01*
X118008172Y-108137946D01*
X118008164Y-108137948D01*
X117826088Y-108213367D01*
X117662214Y-108322863D01*
X117662213Y-108322864D01*
X116246899Y-109738181D01*
X116185576Y-109771666D01*
X116159218Y-109774500D01*
X107324500Y-109774500D01*
X107257461Y-109754815D01*
X107211706Y-109702011D01*
X107200500Y-109650500D01*
X107200500Y-108830163D01*
X107220185Y-108763124D01*
X107236814Y-108742487D01*
X108837778Y-107141523D01*
X108837782Y-107141521D01*
X108977139Y-107002164D01*
X109086632Y-106838296D01*
X109154797Y-106673731D01*
X109162051Y-106656218D01*
X109164189Y-106645474D01*
X109188727Y-106522110D01*
X109188727Y-106522109D01*
X109200500Y-106462925D01*
X109200500Y-105420808D01*
X109220185Y-105353769D01*
X109236819Y-105333127D01*
X110105276Y-104464670D01*
X110105277Y-104464669D01*
X110176465Y-104358127D01*
X110225501Y-104239744D01*
X110238088Y-104176465D01*
X110240554Y-104164070D01*
X110240554Y-104164068D01*
X110250500Y-104114070D01*
X110250500Y-103223428D01*
X110225502Y-103097761D01*
X110225501Y-103097760D01*
X110225501Y-103097756D01*
X110191085Y-103014669D01*
X110176466Y-102979374D01*
X110113392Y-102884976D01*
X110111597Y-102881925D01*
X110103911Y-102851340D01*
X110094492Y-102821259D01*
X110095462Y-102817721D01*
X110094568Y-102814162D01*
X110104637Y-102784278D01*
X110112977Y-102753879D01*
X110115706Y-102751427D01*
X110116878Y-102747950D01*
X110141504Y-102728253D01*
X110164956Y-102707189D01*
X110169901Y-102705543D01*
X110171443Y-102704310D01*
X110174586Y-102703983D01*
X110194281Y-102697429D01*
X110200743Y-102696143D01*
X110333497Y-102669737D01*
X110479179Y-102609394D01*
X110479184Y-102609390D01*
X110479187Y-102609389D01*
X110547283Y-102563888D01*
X110592091Y-102533948D01*
X110658766Y-102513070D01*
X110726147Y-102531554D01*
X110748662Y-102549369D01*
X110763181Y-102563888D01*
X110796666Y-102625211D01*
X110799500Y-102651569D01*
X110799500Y-102678846D01*
X110830261Y-102833489D01*
X110830264Y-102833501D01*
X110890602Y-102979172D01*
X110890609Y-102979185D01*
X110978210Y-103110288D01*
X110978213Y-103110292D01*
X111089707Y-103221786D01*
X111089711Y-103221789D01*
X111220814Y-103309390D01*
X111220827Y-103309397D01*
X111366498Y-103369735D01*
X111366503Y-103369737D01*
X111521153Y-103400499D01*
X111521156Y-103400500D01*
X111521158Y-103400500D01*
X111678844Y-103400500D01*
X111801308Y-103376140D01*
X111870900Y-103382367D01*
X111926077Y-103425230D01*
X111949322Y-103491120D01*
X111949500Y-103497757D01*
X111949500Y-104164068D01*
X111949499Y-104164068D01*
X111963272Y-104233306D01*
X111966693Y-104250500D01*
X111973486Y-104284651D01*
X111974499Y-104289744D01*
X112019881Y-104399307D01*
X112023535Y-104408127D01*
X112075898Y-104486495D01*
X112094726Y-104514673D01*
X113385327Y-105805274D01*
X113385330Y-105805276D01*
X113465281Y-105858697D01*
X113491873Y-105876465D01*
X113610256Y-105925501D01*
X113610260Y-105925501D01*
X113610261Y-105925502D01*
X113735928Y-105950500D01*
X113735931Y-105950500D01*
X119021731Y-105950500D01*
X119088770Y-105970185D01*
X119134525Y-106022989D01*
X119144469Y-106092147D01*
X119115444Y-106155703D01*
X119094373Y-106174292D01*
X119094419Y-106174347D01*
X119092880Y-106175609D01*
X119090621Y-106177603D01*
X119089708Y-106178212D01*
X118978213Y-106289707D01*
X118978210Y-106289711D01*
X118890609Y-106420814D01*
X118890602Y-106420827D01*
X118830264Y-106566498D01*
X118830261Y-106566510D01*
X118799500Y-106721153D01*
X118799500Y-106878846D01*
X118830261Y-107033489D01*
X118830264Y-107033501D01*
X118890602Y-107179172D01*
X118890609Y-107179185D01*
X118978210Y-107310288D01*
X118978213Y-107310292D01*
X119089707Y-107421786D01*
X119089711Y-107421789D01*
X119220814Y-107509390D01*
X119220827Y-107509397D01*
X119366498Y-107569735D01*
X119366503Y-107569737D01*
X119521153Y-107600499D01*
X119521156Y-107600500D01*
X119521158Y-107600500D01*
X119678844Y-107600500D01*
X119678845Y-107600499D01*
X119833497Y-107569737D01*
X119951623Y-107520808D01*
X119979172Y-107509397D01*
X119979172Y-107509396D01*
X119979179Y-107509394D01*
X120036044Y-107471397D01*
X120102721Y-107450520D01*
X120104935Y-107450500D01*
X120464071Y-107450500D01*
X120548615Y-107433682D01*
X120589744Y-107425501D01*
X120708127Y-107376465D01*
X120714377Y-107372288D01*
X120726960Y-107363882D01*
X120807169Y-107310288D01*
X120814669Y-107305277D01*
X123533127Y-104586819D01*
X123594450Y-104553334D01*
X123620808Y-104550500D01*
X132064071Y-104550500D01*
X132148615Y-104533682D01*
X132189744Y-104525501D01*
X132308127Y-104476465D01*
X132325780Y-104464670D01*
X132325781Y-104464670D01*
X132392295Y-104420226D01*
X132414669Y-104405277D01*
X133965564Y-102854382D01*
X134026887Y-102820897D01*
X134053245Y-102818063D01*
X135127502Y-102818063D01*
X135194541Y-102837748D01*
X135196346Y-102838929D01*
X135253258Y-102876957D01*
X135253260Y-102876958D01*
X135253264Y-102876960D01*
X135396480Y-102936281D01*
X135398940Y-102937300D01*
X135553590Y-102968062D01*
X135553593Y-102968063D01*
X135553595Y-102968063D01*
X135711281Y-102968063D01*
X135711282Y-102968062D01*
X135865934Y-102937300D01*
X136011616Y-102876957D01*
X136142726Y-102789352D01*
X136254226Y-102677852D01*
X136341831Y-102546742D01*
X136402174Y-102401060D01*
X136411875Y-102352289D01*
X136428668Y-102267871D01*
X136461053Y-102205960D01*
X136521769Y-102171386D01*
X136550285Y-102168063D01*
X143557803Y-102168063D01*
X143624842Y-102187748D01*
X143670597Y-102240552D01*
X143680541Y-102309710D01*
X143651516Y-102373266D01*
X143605255Y-102406624D01*
X143424123Y-102481650D01*
X143424109Y-102481657D01*
X143225382Y-102596392D01*
X143043338Y-102736081D01*
X142881081Y-102898338D01*
X142741392Y-103080382D01*
X142626657Y-103279109D01*
X142626650Y-103279123D01*
X142538842Y-103491112D01*
X142524644Y-103544100D01*
X142489437Y-103675499D01*
X142479453Y-103712759D01*
X142479451Y-103712770D01*
X142449500Y-103940258D01*
X142449500Y-104169741D01*
X142467338Y-104305225D01*
X142479452Y-104397238D01*
X142538842Y-104618887D01*
X142538843Y-104618889D01*
X142538845Y-104618896D01*
X142559072Y-104667727D01*
X142566541Y-104737196D01*
X142535266Y-104799676D01*
X142532192Y-104802861D01*
X140661873Y-106673181D01*
X140600550Y-106706666D01*
X140574192Y-106709500D01*
X139486268Y-106709500D01*
X139419229Y-106689815D01*
X139385950Y-106658385D01*
X139311188Y-106555485D01*
X139303828Y-106545354D01*
X139164646Y-106406172D01*
X139005405Y-106290476D01*
X139003896Y-106289707D01*
X138830029Y-106201117D01*
X138642826Y-106140290D01*
X138448422Y-106109500D01*
X138448417Y-106109500D01*
X138251583Y-106109500D01*
X138251578Y-106109500D01*
X138113588Y-106131355D01*
X138044294Y-106122400D01*
X138006509Y-106096563D01*
X137304674Y-105394727D01*
X137304673Y-105394726D01*
X137198125Y-105323533D01*
X137079745Y-105274499D01*
X137079742Y-105274498D01*
X137077850Y-105274122D01*
X136954071Y-105249500D01*
X136954069Y-105249500D01*
X136884602Y-105249500D01*
X136817563Y-105229815D01*
X136815714Y-105228604D01*
X136808127Y-105223534D01*
X136689744Y-105174499D01*
X136689738Y-105174497D01*
X136564071Y-105149500D01*
X136564069Y-105149500D01*
X128135931Y-105149500D01*
X128135929Y-105149500D01*
X128010261Y-105174497D01*
X128010255Y-105174499D01*
X127891874Y-105223534D01*
X127785326Y-105294726D01*
X126294726Y-106785326D01*
X126294723Y-106785331D01*
X126238977Y-106868763D01*
X126232243Y-106878841D01*
X126232242Y-106878842D01*
X126223534Y-106891873D01*
X126174499Y-107010255D01*
X126174497Y-107010261D01*
X126149500Y-107135928D01*
X126149500Y-107135931D01*
X126149500Y-119664069D01*
X126149500Y-119664071D01*
X126149499Y-119664071D01*
X126168217Y-119758164D01*
X126168217Y-119758165D01*
X126174497Y-119789737D01*
X126174498Y-119789742D01*
X126223534Y-119908125D01*
X126294726Y-120014673D01*
X127885324Y-121605271D01*
X127885331Y-121605277D01*
X127991871Y-121676464D01*
X127991870Y-121676464D01*
X128026544Y-121690826D01*
X128110256Y-121725501D01*
X128110260Y-121725501D01*
X128110261Y-121725502D01*
X128235928Y-121750500D01*
X128235931Y-121750500D01*
X135737742Y-121750500D01*
X135804781Y-121770185D01*
X135850536Y-121822989D01*
X135860480Y-121892147D01*
X135831455Y-121955703D01*
X135801892Y-121980617D01*
X135800395Y-121981521D01*
X135800394Y-121981522D01*
X135716610Y-122032171D01*
X135654811Y-122069530D01*
X135534530Y-122189811D01*
X135446522Y-122335393D01*
X135395913Y-122497807D01*
X135389500Y-122568386D01*
X135389500Y-123231613D01*
X135395913Y-123302192D01*
X135395913Y-123302194D01*
X135395914Y-123302196D01*
X135446522Y-123464606D01*
X135483334Y-123525501D01*
X135534530Y-123610188D01*
X135654811Y-123730469D01*
X135654813Y-123730470D01*
X135654815Y-123730472D01*
X135800394Y-123818478D01*
X135962804Y-123869086D01*
X136033384Y-123875500D01*
X136033387Y-123875500D01*
X136546613Y-123875500D01*
X136546616Y-123875500D01*
X136617196Y-123869086D01*
X136779606Y-123818478D01*
X136925185Y-123730472D01*
X137045472Y-123610185D01*
X137045474Y-123610180D01*
X137050094Y-123604285D01*
X137051117Y-123605087D01*
X137096904Y-123563160D01*
X137151489Y-123550500D01*
X140909071Y-123550500D01*
X140993615Y-123533682D01*
X141034744Y-123525501D01*
X141153127Y-123476465D01*
X141259669Y-123405277D01*
X143452140Y-121212804D01*
X143513461Y-121179321D01*
X143583152Y-121184305D01*
X143587226Y-121185908D01*
X143636113Y-121206158D01*
X143857762Y-121265548D01*
X144085266Y-121295500D01*
X144085273Y-121295500D01*
X144314727Y-121295500D01*
X144314734Y-121295500D01*
X144542238Y-121265548D01*
X144763887Y-121206158D01*
X144975888Y-121118344D01*
X145174612Y-121003611D01*
X145356661Y-120863919D01*
X145356665Y-120863914D01*
X145356670Y-120863911D01*
X145518911Y-120701670D01*
X145518914Y-120701665D01*
X145518919Y-120701661D01*
X145658611Y-120519612D01*
X145773344Y-120320888D01*
X145861158Y-120108887D01*
X145920548Y-119887238D01*
X145950500Y-119659734D01*
X145950500Y-119430266D01*
X145920548Y-119202762D01*
X145899104Y-119122731D01*
X145900767Y-119052886D01*
X145939929Y-118995023D01*
X146004158Y-118967519D01*
X146073060Y-118979105D01*
X146094362Y-118992263D01*
X146205792Y-119077767D01*
X146418708Y-119200694D01*
X146645847Y-119294778D01*
X146883323Y-119358409D01*
X147127073Y-119390500D01*
X147127080Y-119390500D01*
X147372920Y-119390500D01*
X147372927Y-119390500D01*
X147616677Y-119358409D01*
X147854153Y-119294778D01*
X148081292Y-119200694D01*
X148294208Y-119077767D01*
X148489256Y-118928101D01*
X148663101Y-118754256D01*
X148812767Y-118559208D01*
X148935694Y-118346292D01*
X149029778Y-118119153D01*
X149093409Y-117881677D01*
X149125500Y-117637927D01*
X149125500Y-117392073D01*
X149093409Y-117148323D01*
X149029778Y-116910847D01*
X148935694Y-116683708D01*
X148812767Y-116470792D01*
X148731609Y-116365025D01*
X148663102Y-116275745D01*
X148663096Y-116275738D01*
X148489261Y-116101903D01*
X148489254Y-116101897D01*
X148294212Y-115952236D01*
X148294211Y-115952235D01*
X148294208Y-115952233D01*
X148120260Y-115851804D01*
X148081294Y-115829307D01*
X148081285Y-115829303D01*
X147854162Y-115735225D01*
X147854155Y-115735223D01*
X147854153Y-115735222D01*
X147616677Y-115671591D01*
X147575939Y-115666227D01*
X147372934Y-115639500D01*
X147372927Y-115639500D01*
X147127073Y-115639500D01*
X147127065Y-115639500D01*
X146895059Y-115670045D01*
X146883323Y-115671591D01*
X146724053Y-115714267D01*
X146645847Y-115735222D01*
X146645837Y-115735225D01*
X146418714Y-115829303D01*
X146418705Y-115829307D01*
X146205787Y-115952236D01*
X146010745Y-116101897D01*
X146010738Y-116101903D01*
X145836903Y-116275738D01*
X145836897Y-116275745D01*
X145687236Y-116470787D01*
X145564307Y-116683705D01*
X145564303Y-116683714D01*
X145470225Y-116910837D01*
X145470222Y-116910847D01*
X145423946Y-117083555D01*
X145406592Y-117148320D01*
X145406590Y-117148331D01*
X145374500Y-117392065D01*
X145374500Y-117637934D01*
X145397179Y-117810185D01*
X145406591Y-117881677D01*
X145423068Y-117943169D01*
X145441136Y-118010603D01*
X145439473Y-118080453D01*
X145400310Y-118138316D01*
X145336081Y-118165819D01*
X145267179Y-118154232D01*
X145245876Y-118141072D01*
X145222977Y-118123501D01*
X145174617Y-118086392D01*
X145166159Y-118081509D01*
X145056986Y-118018478D01*
X144975890Y-117971657D01*
X144975876Y-117971650D01*
X144763887Y-117883842D01*
X144745234Y-117878844D01*
X144542238Y-117824452D01*
X144504215Y-117819446D01*
X144314741Y-117794500D01*
X144314734Y-117794500D01*
X144085266Y-117794500D01*
X144085258Y-117794500D01*
X143868715Y-117823009D01*
X143857762Y-117824452D01*
X143764076Y-117849554D01*
X143636112Y-117883842D01*
X143424123Y-117971650D01*
X143424109Y-117971657D01*
X143225382Y-118086392D01*
X143043338Y-118226081D01*
X142881081Y-118388338D01*
X142741392Y-118570382D01*
X142626657Y-118769109D01*
X142626650Y-118769123D01*
X142538842Y-118981112D01*
X142535115Y-118995023D01*
X142482822Y-119190187D01*
X142479453Y-119202759D01*
X142479451Y-119202770D01*
X142449500Y-119430258D01*
X142449500Y-119659741D01*
X142466616Y-119789742D01*
X142479452Y-119887238D01*
X142513597Y-120014669D01*
X142538842Y-120108886D01*
X142538845Y-120108896D01*
X142559072Y-120157727D01*
X142566541Y-120227196D01*
X142535266Y-120289676D01*
X142532212Y-120292840D01*
X142411871Y-120413182D01*
X142350551Y-120446666D01*
X142324192Y-120449500D01*
X128620808Y-120449500D01*
X128553769Y-120429815D01*
X128533127Y-120413181D01*
X127486819Y-119366873D01*
X127453334Y-119305550D01*
X127450500Y-119279192D01*
X127450500Y-107520808D01*
X127470185Y-107453769D01*
X127486819Y-107433127D01*
X128433127Y-106486819D01*
X128494450Y-106453334D01*
X128520808Y-106450500D01*
X136215398Y-106450500D01*
X136282437Y-106470185D01*
X136284290Y-106471399D01*
X136291864Y-106476460D01*
X136291872Y-106476464D01*
X136291873Y-106476465D01*
X136410256Y-106525501D01*
X136410260Y-106525501D01*
X136410261Y-106525502D01*
X136535928Y-106550500D01*
X136535931Y-106550500D01*
X136569192Y-106550500D01*
X136636231Y-106570185D01*
X136656873Y-106586819D01*
X137086563Y-107016509D01*
X137120048Y-107077832D01*
X137121355Y-107123588D01*
X137099500Y-107261577D01*
X137099500Y-107458422D01*
X137130290Y-107652826D01*
X137191117Y-107840029D01*
X137254587Y-107964595D01*
X137280476Y-108015405D01*
X137396172Y-108174646D01*
X137535354Y-108313828D01*
X137694595Y-108429524D01*
X137758761Y-108462218D01*
X137871213Y-108519515D01*
X137922009Y-108567489D01*
X137938804Y-108635310D01*
X137916267Y-108701445D01*
X137871213Y-108740485D01*
X137694594Y-108830476D01*
X137634852Y-108873882D01*
X137535354Y-108946172D01*
X137535352Y-108946174D01*
X137535351Y-108946174D01*
X137396174Y-109085351D01*
X137396169Y-109085357D01*
X137364939Y-109128342D01*
X137323834Y-109184919D01*
X137314050Y-109198385D01*
X137258720Y-109241051D01*
X137213732Y-109249500D01*
X133935808Y-109249500D01*
X133868769Y-109229815D01*
X133848127Y-109213181D01*
X133151819Y-108516873D01*
X133118334Y-108455550D01*
X133115500Y-108429192D01*
X133115500Y-108168386D01*
X133113678Y-108148337D01*
X133109086Y-108097804D01*
X133058478Y-107935394D01*
X132970472Y-107789815D01*
X132970470Y-107789813D01*
X132970469Y-107789811D01*
X132850188Y-107669530D01*
X132844633Y-107666172D01*
X132704606Y-107581522D01*
X132542196Y-107530914D01*
X132542194Y-107530913D01*
X132542192Y-107530913D01*
X132492778Y-107526423D01*
X132471616Y-107524500D01*
X131958384Y-107524500D01*
X131939145Y-107526248D01*
X131887807Y-107530913D01*
X131725393Y-107581522D01*
X131579813Y-107669529D01*
X131523895Y-107725447D01*
X131462571Y-107758931D01*
X131392879Y-107753946D01*
X131336946Y-107712075D01*
X131333113Y-107706657D01*
X131321791Y-107689713D01*
X131321786Y-107689707D01*
X131210292Y-107578213D01*
X131210288Y-107578210D01*
X131079185Y-107490609D01*
X131079172Y-107490602D01*
X130933501Y-107430264D01*
X130933489Y-107430261D01*
X130778845Y-107399500D01*
X130778842Y-107399500D01*
X130621158Y-107399500D01*
X130621155Y-107399500D01*
X130466510Y-107430261D01*
X130466498Y-107430264D01*
X130320828Y-107490602D01*
X130320814Y-107490610D01*
X130290303Y-107510996D01*
X130243805Y-107527448D01*
X130244240Y-107529634D01*
X130237809Y-107530913D01*
X130237806Y-107530913D01*
X130237804Y-107530914D01*
X130133589Y-107563387D01*
X130075393Y-107581522D01*
X129929811Y-107669530D01*
X129809530Y-107789811D01*
X129721522Y-107935393D01*
X129670913Y-108097807D01*
X129664500Y-108168386D01*
X129664500Y-108831613D01*
X129670913Y-108902192D01*
X129670913Y-108902194D01*
X129670914Y-108902196D01*
X129721522Y-109064606D01*
X129759482Y-109127400D01*
X129809530Y-109210188D01*
X129929811Y-109330469D01*
X129929813Y-109330470D01*
X129929815Y-109330472D01*
X130029651Y-109390825D01*
X130076838Y-109442352D01*
X130089500Y-109496941D01*
X130089500Y-109503058D01*
X130069815Y-109570097D01*
X130029651Y-109609174D01*
X129929814Y-109669528D01*
X129929810Y-109669531D01*
X129809530Y-109789811D01*
X129721522Y-109935393D01*
X129670913Y-110097807D01*
X129664500Y-110168386D01*
X129664500Y-110831613D01*
X129670913Y-110902192D01*
X129670913Y-110902194D01*
X129670914Y-110902196D01*
X129721522Y-111064606D01*
X129797023Y-111189500D01*
X129809530Y-111210188D01*
X129929811Y-111330469D01*
X129929813Y-111330470D01*
X129929815Y-111330472D01*
X130029651Y-111390825D01*
X130076838Y-111442352D01*
X130089500Y-111496941D01*
X130089500Y-114488377D01*
X130071617Y-114552527D01*
X130021522Y-114635393D01*
X129970913Y-114797807D01*
X129964500Y-114868386D01*
X129964500Y-115531613D01*
X129970913Y-115602192D01*
X130021522Y-115764606D01*
X130071617Y-115847472D01*
X130089500Y-115911622D01*
X130089500Y-116347023D01*
X130071617Y-116411171D01*
X130060347Y-116429815D01*
X129996522Y-116535393D01*
X129945913Y-116697807D01*
X129939500Y-116768386D01*
X129939500Y-117431613D01*
X129945913Y-117502192D01*
X129945913Y-117502194D01*
X129945914Y-117502196D01*
X129996522Y-117664606D01*
X130071617Y-117788829D01*
X130089500Y-117852976D01*
X130089500Y-118033480D01*
X130069815Y-118100519D01*
X130053181Y-118121161D01*
X129984531Y-118189810D01*
X129984530Y-118189811D01*
X129896522Y-118335393D01*
X129845913Y-118497807D01*
X129839500Y-118568386D01*
X129839500Y-119231613D01*
X129845913Y-119302192D01*
X129845913Y-119302194D01*
X129845914Y-119302196D01*
X129896522Y-119464606D01*
X129968628Y-119583884D01*
X129984530Y-119610188D01*
X130104811Y-119730469D01*
X130104813Y-119730470D01*
X130104815Y-119730472D01*
X130250394Y-119818478D01*
X130412804Y-119869086D01*
X130483384Y-119875500D01*
X130483387Y-119875500D01*
X130996613Y-119875500D01*
X130996616Y-119875500D01*
X131067196Y-119869086D01*
X131229606Y-119818478D01*
X131375185Y-119730472D01*
X131405476Y-119700181D01*
X131477319Y-119628339D01*
X131538642Y-119594854D01*
X131608334Y-119599838D01*
X131652681Y-119628339D01*
X131754811Y-119730469D01*
X131754813Y-119730470D01*
X131754815Y-119730472D01*
X131900394Y-119818478D01*
X132062804Y-119869086D01*
X132133384Y-119875500D01*
X132133387Y-119875500D01*
X132646613Y-119875500D01*
X132646616Y-119875500D01*
X132717196Y-119869086D01*
X132879606Y-119818478D01*
X133025185Y-119730472D01*
X133145472Y-119610185D01*
X133145474Y-119610180D01*
X133150094Y-119604285D01*
X133151117Y-119605087D01*
X133196904Y-119563160D01*
X133251489Y-119550500D01*
X138294071Y-119550500D01*
X138378615Y-119533682D01*
X138419744Y-119525501D01*
X138538127Y-119476465D01*
X138547604Y-119470132D01*
X138549541Y-119468839D01*
X138581820Y-119447270D01*
X138644669Y-119405277D01*
X140523127Y-117526819D01*
X140584450Y-117493334D01*
X140610808Y-117490500D01*
X141439541Y-117490500D01*
X141439546Y-117490500D01*
X141542399Y-117479992D01*
X141709047Y-117424771D01*
X141858468Y-117332607D01*
X141982607Y-117208468D01*
X142074771Y-117059047D01*
X142129992Y-116892399D01*
X142140500Y-116789546D01*
X142140500Y-115690454D01*
X142129992Y-115587601D01*
X142074771Y-115420953D01*
X141982607Y-115271532D01*
X141858468Y-115147393D01*
X141746641Y-115078417D01*
X141709049Y-115055230D01*
X141709044Y-115055228D01*
X141551970Y-115003179D01*
X141494525Y-114963406D01*
X141467702Y-114898890D01*
X141480017Y-114830115D01*
X141527560Y-114778915D01*
X141534659Y-114774999D01*
X141545405Y-114769524D01*
X141704646Y-114653828D01*
X141843828Y-114514646D01*
X141959524Y-114355405D01*
X142048884Y-114180025D01*
X142109709Y-113992826D01*
X142140500Y-113798422D01*
X142140500Y-113601577D01*
X142109709Y-113407173D01*
X142048882Y-113219970D01*
X141999746Y-113123535D01*
X141959524Y-113044595D01*
X141843828Y-112885354D01*
X141704646Y-112746172D01*
X141625025Y-112688324D01*
X141545403Y-112630474D01*
X141368787Y-112540485D01*
X141317990Y-112492511D01*
X141301195Y-112424690D01*
X141323732Y-112358555D01*
X141368787Y-112319515D01*
X141545403Y-112229525D01*
X141545402Y-112229525D01*
X141545405Y-112229524D01*
X141704646Y-112113828D01*
X141843828Y-111974646D01*
X141959524Y-111815405D01*
X142048884Y-111640025D01*
X142109709Y-111452826D01*
X142115149Y-111418477D01*
X142140500Y-111258422D01*
X142140500Y-111061577D01*
X142109709Y-110867173D01*
X142060150Y-110714648D01*
X142048884Y-110679975D01*
X142048882Y-110679972D01*
X142048882Y-110679970D01*
X141985413Y-110555405D01*
X141959524Y-110504595D01*
X141843828Y-110345354D01*
X141704646Y-110206172D01*
X141609744Y-110137221D01*
X141545403Y-110090474D01*
X141368787Y-110000485D01*
X141317990Y-109952511D01*
X141301195Y-109884690D01*
X141323732Y-109818555D01*
X141368787Y-109779515D01*
X141545403Y-109689525D01*
X141545402Y-109689525D01*
X141545405Y-109689524D01*
X141704646Y-109573828D01*
X141843828Y-109434646D01*
X141959524Y-109275405D01*
X142048884Y-109100025D01*
X142109709Y-108912826D01*
X142116688Y-108868763D01*
X142140500Y-108718422D01*
X142140500Y-108521577D01*
X142109709Y-108327173D01*
X142060150Y-108174648D01*
X142048884Y-108139975D01*
X142048882Y-108139972D01*
X142048882Y-108139970D01*
X142001743Y-108047455D01*
X141959524Y-107964595D01*
X141843828Y-107805354D01*
X141704646Y-107666172D01*
X141704642Y-107666169D01*
X141701003Y-107663061D01*
X141662810Y-107604554D01*
X141662312Y-107534686D01*
X141693852Y-107481092D01*
X143452140Y-105722804D01*
X143513461Y-105689321D01*
X143583153Y-105694305D01*
X143587225Y-105695908D01*
X143636113Y-105716158D01*
X143857762Y-105775548D01*
X144074312Y-105804057D01*
X144083564Y-105805276D01*
X144085266Y-105805500D01*
X144085273Y-105805500D01*
X144314727Y-105805500D01*
X144314734Y-105805500D01*
X144542238Y-105775548D01*
X144763887Y-105716158D01*
X144975888Y-105628344D01*
X145174612Y-105513611D01*
X145245876Y-105458927D01*
X145311041Y-105433733D01*
X145379487Y-105447770D01*
X145429477Y-105496583D01*
X145445142Y-105564674D01*
X145441136Y-105589395D01*
X145412592Y-105695927D01*
X145406591Y-105718323D01*
X145406590Y-105718331D01*
X145374500Y-105962065D01*
X145374500Y-106207934D01*
X145391083Y-106333884D01*
X145406591Y-106451677D01*
X145466090Y-106673731D01*
X145470222Y-106689152D01*
X145470225Y-106689162D01*
X145544619Y-106868763D01*
X145564306Y-106916292D01*
X145687233Y-107129208D01*
X145687235Y-107129211D01*
X145687236Y-107129212D01*
X145836897Y-107324254D01*
X145836903Y-107324261D01*
X146010738Y-107498096D01*
X146010745Y-107498102D01*
X146054764Y-107531879D01*
X146205792Y-107647767D01*
X146418708Y-107770694D01*
X146645847Y-107864778D01*
X146883323Y-107928409D01*
X147127073Y-107960500D01*
X147127080Y-107960500D01*
X147372920Y-107960500D01*
X147372927Y-107960500D01*
X147616677Y-107928409D01*
X147854153Y-107864778D01*
X148081292Y-107770694D01*
X148294208Y-107647767D01*
X148489256Y-107498101D01*
X148663101Y-107324256D01*
X148812767Y-107129208D01*
X148935694Y-106916292D01*
X149029778Y-106689153D01*
X149093409Y-106451677D01*
X149125500Y-106207927D01*
X149125500Y-106144808D01*
X149145185Y-106077769D01*
X149197989Y-106032014D01*
X149267147Y-106022070D01*
X149330703Y-106051095D01*
X149337181Y-106057127D01*
X150363181Y-107083127D01*
X150396666Y-107144450D01*
X150399500Y-107170808D01*
X150399500Y-117389071D01*
X150419949Y-117491870D01*
X150419949Y-117491871D01*
X150424497Y-117514737D01*
X150424500Y-117514747D01*
X150473532Y-117633123D01*
X150476742Y-117637927D01*
X150535256Y-117725501D01*
X150544726Y-117739673D01*
X150544727Y-117739674D01*
X150886563Y-118081509D01*
X150920048Y-118142832D01*
X150921355Y-118188588D01*
X150899500Y-118326577D01*
X150899500Y-118523422D01*
X150930290Y-118717826D01*
X150991117Y-118905029D01*
X151055615Y-119031613D01*
X151080476Y-119080405D01*
X151196172Y-119239646D01*
X151335354Y-119378828D01*
X151494595Y-119494524D01*
X151577455Y-119536743D01*
X151669970Y-119583882D01*
X151669972Y-119583882D01*
X151669975Y-119583884D01*
X151760258Y-119613219D01*
X151857173Y-119644709D01*
X152051578Y-119675500D01*
X152051583Y-119675500D01*
X152248422Y-119675500D01*
X152442826Y-119644709D01*
X152493604Y-119628210D01*
X152630025Y-119583884D01*
X152805405Y-119494524D01*
X152964646Y-119378828D01*
X153103828Y-119239646D01*
X153219524Y-119080405D01*
X153308884Y-118905025D01*
X153369709Y-118717826D01*
X153385822Y-118616091D01*
X153400500Y-118523422D01*
X153400500Y-118326577D01*
X153369709Y-118132173D01*
X153327231Y-118001440D01*
X153308884Y-117944975D01*
X153308882Y-117944972D01*
X153308882Y-117944970D01*
X153242739Y-117815157D01*
X153219524Y-117769595D01*
X153103828Y-117610354D01*
X152964646Y-117471172D01*
X152885025Y-117413324D01*
X152805403Y-117355474D01*
X152628787Y-117265485D01*
X152577990Y-117217511D01*
X152561195Y-117149690D01*
X152583732Y-117083555D01*
X152628787Y-117044515D01*
X152805403Y-116954525D01*
X152805402Y-116954525D01*
X152805405Y-116954524D01*
X152964646Y-116838828D01*
X153103828Y-116699646D01*
X153219524Y-116540405D01*
X153308884Y-116365025D01*
X153369709Y-116177826D01*
X153375877Y-116138882D01*
X153400500Y-115983422D01*
X153400500Y-115786577D01*
X153369709Y-115592173D01*
X153314076Y-115420955D01*
X153308884Y-115404975D01*
X153308882Y-115404972D01*
X153308882Y-115404970D01*
X153248113Y-115285704D01*
X153219524Y-115229595D01*
X153103828Y-115070354D01*
X152964646Y-114931172D01*
X152805405Y-114815476D01*
X152630029Y-114726117D01*
X152442826Y-114665290D01*
X152248422Y-114634500D01*
X152248417Y-114634500D01*
X152051583Y-114634500D01*
X152051578Y-114634500D01*
X151857167Y-114665291D01*
X151853433Y-114666188D01*
X151783651Y-114662690D01*
X151726838Y-114622019D01*
X151701032Y-114557090D01*
X151700500Y-114545611D01*
X151700500Y-109054387D01*
X151720185Y-108987348D01*
X151772989Y-108941593D01*
X151842147Y-108931649D01*
X151853460Y-108933816D01*
X151857160Y-108934704D01*
X151857174Y-108934709D01*
X151857187Y-108934711D01*
X152051578Y-108965500D01*
X152051583Y-108965500D01*
X152248422Y-108965500D01*
X152442826Y-108934709D01*
X152452244Y-108931649D01*
X152630025Y-108873884D01*
X152805405Y-108784524D01*
X152964646Y-108668828D01*
X153103828Y-108529646D01*
X153219524Y-108370405D01*
X153308884Y-108195025D01*
X153369709Y-108007826D01*
X153381181Y-107935393D01*
X153400500Y-107813422D01*
X153400500Y-107616577D01*
X153369709Y-107422173D01*
X153331725Y-107305272D01*
X153308884Y-107234975D01*
X153308882Y-107234972D01*
X153308882Y-107234970D01*
X153228816Y-107077832D01*
X153219524Y-107059595D01*
X153103828Y-106900354D01*
X152964646Y-106761172D01*
X152844296Y-106673732D01*
X152805403Y-106645474D01*
X152628787Y-106555485D01*
X152577990Y-106507511D01*
X152561195Y-106439690D01*
X152583732Y-106373555D01*
X152628787Y-106334515D01*
X152805403Y-106244525D01*
X152805402Y-106244525D01*
X152805405Y-106244524D01*
X152964646Y-106128828D01*
X153103828Y-105989646D01*
X153219524Y-105830405D01*
X153305603Y-105661463D01*
X153308882Y-105655029D01*
X153308882Y-105655028D01*
X153308884Y-105655025D01*
X153369709Y-105467826D01*
X153378486Y-105412408D01*
X153400500Y-105273422D01*
X153400500Y-105076577D01*
X153369709Y-104882173D01*
X153324902Y-104744274D01*
X153308884Y-104694975D01*
X153308882Y-104694972D01*
X153308882Y-104694970D01*
X153238238Y-104556324D01*
X153219524Y-104519595D01*
X153103828Y-104360354D01*
X152964646Y-104221172D01*
X152805405Y-104105476D01*
X152795639Y-104100500D01*
X152630029Y-104016117D01*
X152442826Y-103955290D01*
X152248422Y-103924500D01*
X152248417Y-103924500D01*
X152051583Y-103924500D01*
X152051578Y-103924500D01*
X151857173Y-103955290D01*
X151669970Y-104016117D01*
X151494594Y-104105476D01*
X151460038Y-104130583D01*
X151335354Y-104221172D01*
X151335352Y-104221174D01*
X151335351Y-104221174D01*
X151196174Y-104360351D01*
X151196174Y-104360352D01*
X151196172Y-104360354D01*
X151163533Y-104405278D01*
X151080476Y-104519594D01*
X150991117Y-104694970D01*
X150930290Y-104882173D01*
X150899500Y-105076577D01*
X150899500Y-105273422D01*
X150930291Y-105467827D01*
X150930291Y-105467830D01*
X150935540Y-105483983D01*
X150937535Y-105553824D01*
X150901454Y-105613657D01*
X150838753Y-105644485D01*
X150769339Y-105636520D01*
X150729928Y-105609982D01*
X146132237Y-101012290D01*
X146132236Y-101012289D01*
X146096684Y-100988534D01*
X146025690Y-100941098D01*
X146024538Y-100940621D01*
X145907307Y-100892062D01*
X145907301Y-100892060D01*
X145781634Y-100867063D01*
X145781632Y-100867063D01*
X132512078Y-100867063D01*
X132475189Y-100861449D01*
X132459156Y-100856453D01*
X132377196Y-100830914D01*
X132306616Y-100824500D01*
X131793384Y-100824500D01*
X131774145Y-100826248D01*
X131722807Y-100830913D01*
X131560393Y-100881522D01*
X131414811Y-100969530D01*
X131414810Y-100969531D01*
X131312681Y-101071661D01*
X131251358Y-101105146D01*
X131181666Y-101100162D01*
X131137319Y-101071661D01*
X131035188Y-100969530D01*
X131033742Y-100968656D01*
X130889606Y-100881522D01*
X130727196Y-100830914D01*
X130727194Y-100830913D01*
X130727192Y-100830913D01*
X130677778Y-100826423D01*
X130656616Y-100824500D01*
X130656613Y-100824500D01*
X130595808Y-100824500D01*
X130528769Y-100804815D01*
X130508127Y-100788181D01*
X130496596Y-100776650D01*
X130463111Y-100715327D01*
X130468095Y-100645635D01*
X130509967Y-100589702D01*
X130547388Y-100570583D01*
X130552190Y-100569086D01*
X130552196Y-100569086D01*
X130714606Y-100518478D01*
X130860185Y-100430472D01*
X130900309Y-100390348D01*
X130962319Y-100328339D01*
X131023642Y-100294854D01*
X131093334Y-100299838D01*
X131137681Y-100328339D01*
X131239811Y-100430469D01*
X131239813Y-100430470D01*
X131239815Y-100430472D01*
X131385394Y-100518478D01*
X131547804Y-100569086D01*
X131618384Y-100575500D01*
X131618387Y-100575500D01*
X132131613Y-100575500D01*
X132131616Y-100575500D01*
X132202196Y-100569086D01*
X132364606Y-100518478D01*
X132510185Y-100430472D01*
X132630472Y-100310185D01*
X132630474Y-100310180D01*
X132635094Y-100304285D01*
X132636117Y-100305087D01*
X132681904Y-100263160D01*
X132736489Y-100250500D01*
X149089071Y-100250500D01*
X149183133Y-100231789D01*
X149214744Y-100225501D01*
X149333127Y-100176465D01*
X149350780Y-100164670D01*
X149350781Y-100164670D01*
X149417295Y-100120226D01*
X149439669Y-100105277D01*
X152116510Y-97428434D01*
X152177831Y-97394951D01*
X152223587Y-97393644D01*
X152361578Y-97415500D01*
X152361583Y-97415500D01*
X152558422Y-97415500D01*
X152752826Y-97384709D01*
X152758064Y-97383007D01*
X152940025Y-97323884D01*
X153115405Y-97234524D01*
X153274646Y-97118828D01*
X153413828Y-96979646D01*
X153529524Y-96820405D01*
X153618884Y-96645025D01*
X153679709Y-96457826D01*
X153684074Y-96430264D01*
X153710500Y-96263422D01*
X153710500Y-96066577D01*
X153679709Y-95872173D01*
X153627706Y-95712127D01*
X153618884Y-95684975D01*
X153618882Y-95684972D01*
X153618882Y-95684970D01*
X153547975Y-95545808D01*
X153529524Y-95509595D01*
X153413828Y-95350354D01*
X153274646Y-95211172D01*
X153115405Y-95095476D01*
X153104155Y-95089744D01*
X152940029Y-95006117D01*
X152752826Y-94945290D01*
X152558422Y-94914500D01*
X152558417Y-94914500D01*
X152361583Y-94914500D01*
X152361578Y-94914500D01*
X152167173Y-94945290D01*
X151979970Y-95006117D01*
X151804594Y-95095476D01*
X151714504Y-95160931D01*
X151645354Y-95211172D01*
X151645352Y-95211174D01*
X151645351Y-95211174D01*
X151506174Y-95350351D01*
X151506174Y-95350352D01*
X151506172Y-95350354D01*
X151473212Y-95395719D01*
X151390476Y-95509594D01*
X151301117Y-95684970D01*
X151240290Y-95872173D01*
X151209500Y-96066577D01*
X151209500Y-96263422D01*
X151231355Y-96401410D01*
X151222400Y-96470704D01*
X151196563Y-96508489D01*
X148791873Y-98913181D01*
X148730550Y-98946666D01*
X148704192Y-98949500D01*
X145581584Y-98949500D01*
X145514545Y-98929815D01*
X145468790Y-98877011D01*
X145458846Y-98807853D01*
X145487871Y-98744297D01*
X145506097Y-98727125D01*
X145523972Y-98713408D01*
X145666661Y-98603919D01*
X145666665Y-98603914D01*
X145666670Y-98603911D01*
X145828911Y-98441670D01*
X145828914Y-98441665D01*
X145828919Y-98441661D01*
X145968611Y-98259612D01*
X146083344Y-98060888D01*
X146171158Y-97848887D01*
X146230548Y-97627238D01*
X146260500Y-97399734D01*
X146260500Y-97170266D01*
X146230548Y-96942762D01*
X146209104Y-96862731D01*
X146210767Y-96792886D01*
X146249929Y-96735023D01*
X146314158Y-96707519D01*
X146383060Y-96719105D01*
X146404362Y-96732263D01*
X146515792Y-96817767D01*
X146728708Y-96940694D01*
X146955847Y-97034778D01*
X147193323Y-97098409D01*
X147437073Y-97130500D01*
X147437080Y-97130500D01*
X147682920Y-97130500D01*
X147682927Y-97130500D01*
X147926677Y-97098409D01*
X148164153Y-97034778D01*
X148391292Y-96940694D01*
X148604208Y-96817767D01*
X148799256Y-96668101D01*
X148973101Y-96494256D01*
X149122767Y-96299208D01*
X149245694Y-96086292D01*
X149339778Y-95859153D01*
X149403409Y-95621677D01*
X149435500Y-95377927D01*
X149435500Y-95132073D01*
X149403409Y-94888323D01*
X149339778Y-94650847D01*
X149245694Y-94423708D01*
X149122767Y-94210792D01*
X148973101Y-94015744D01*
X148973096Y-94015738D01*
X148799261Y-93841903D01*
X148799254Y-93841897D01*
X148604212Y-93692236D01*
X148604211Y-93692235D01*
X148604208Y-93692233D01*
X148404007Y-93576647D01*
X148391294Y-93569307D01*
X148391285Y-93569303D01*
X148164162Y-93475225D01*
X148164155Y-93475223D01*
X148164153Y-93475222D01*
X147926677Y-93411591D01*
X147885939Y-93406227D01*
X147682934Y-93379500D01*
X147682927Y-93379500D01*
X147437073Y-93379500D01*
X147437065Y-93379500D01*
X147208400Y-93409606D01*
X147193323Y-93411591D01*
X147057483Y-93447989D01*
X146955847Y-93475222D01*
X146955837Y-93475225D01*
X146728714Y-93569303D01*
X146728705Y-93569307D01*
X146515787Y-93692236D01*
X146320745Y-93841897D01*
X146320738Y-93841903D01*
X146146903Y-94015738D01*
X146146897Y-94015745D01*
X145997236Y-94210787D01*
X145874307Y-94423705D01*
X145874303Y-94423714D01*
X145780225Y-94650837D01*
X145780222Y-94650847D01*
X145740307Y-94799815D01*
X145716592Y-94888320D01*
X145716590Y-94888331D01*
X145684500Y-95132065D01*
X145684500Y-95377934D01*
X145706602Y-95545808D01*
X145716591Y-95621677D01*
X145733550Y-95684970D01*
X145751136Y-95750603D01*
X145749473Y-95820453D01*
X145710310Y-95878316D01*
X145646081Y-95905819D01*
X145577179Y-95894232D01*
X145555876Y-95881072D01*
X145527309Y-95859152D01*
X145484617Y-95826392D01*
X145474330Y-95820453D01*
X145356267Y-95752289D01*
X145285890Y-95711657D01*
X145285876Y-95711650D01*
X145073887Y-95623842D01*
X145065773Y-95621668D01*
X144852238Y-95564452D01*
X144814215Y-95559446D01*
X144624741Y-95534500D01*
X144624734Y-95534500D01*
X144395266Y-95534500D01*
X144395258Y-95534500D01*
X144178715Y-95563009D01*
X144167762Y-95564452D01*
X144074076Y-95589554D01*
X143946112Y-95623842D01*
X143734123Y-95711650D01*
X143734108Y-95711657D01*
X143542293Y-95822402D01*
X143474393Y-95838875D01*
X143408366Y-95816022D01*
X143365175Y-95761101D01*
X143358534Y-95691548D01*
X143390550Y-95629445D01*
X143392612Y-95627334D01*
X143705271Y-95314675D01*
X143705276Y-95314670D01*
X143756507Y-95237997D01*
X143776464Y-95208129D01*
X143778466Y-95203295D01*
X143825501Y-95089744D01*
X143832346Y-95055331D01*
X143850500Y-94964069D01*
X143850500Y-93235931D01*
X143850500Y-93235928D01*
X143825502Y-93110261D01*
X143825501Y-93110260D01*
X143825501Y-93110256D01*
X143787574Y-93018692D01*
X143776466Y-92991875D01*
X143776464Y-92991872D01*
X143748153Y-92949501D01*
X143705277Y-92885331D01*
X143371957Y-92552011D01*
X143034674Y-92214727D01*
X143034673Y-92214726D01*
X143034669Y-92214723D01*
X142928127Y-92143535D01*
X142907065Y-92134811D01*
X142845711Y-92109397D01*
X142809744Y-92094499D01*
X142809740Y-92094498D01*
X142809733Y-92094496D01*
X142804999Y-92093554D01*
X142804995Y-92093554D01*
X142684071Y-92069500D01*
X142684069Y-92069500D01*
X142480988Y-92069500D01*
X142413949Y-92049815D01*
X142368194Y-91997011D01*
X142358250Y-91927853D01*
X142363057Y-91907181D01*
X142365259Y-91900406D01*
X142419709Y-91732826D01*
X142428612Y-91676615D01*
X142450500Y-91538422D01*
X142450500Y-91341577D01*
X142419709Y-91147173D01*
X142387052Y-91046666D01*
X142358884Y-90959975D01*
X142358882Y-90959972D01*
X142358882Y-90959970D01*
X142294067Y-90832764D01*
X142269524Y-90784595D01*
X142153828Y-90625354D01*
X142014646Y-90486172D01*
X141914465Y-90413386D01*
X141855403Y-90370474D01*
X141678787Y-90280485D01*
X141627990Y-90232511D01*
X141611195Y-90164690D01*
X141633732Y-90098555D01*
X141678787Y-90059515D01*
X141855403Y-89969525D01*
X141855402Y-89969525D01*
X141855405Y-89969524D01*
X142014646Y-89853828D01*
X142153828Y-89714646D01*
X142269524Y-89555405D01*
X142358884Y-89380025D01*
X142419709Y-89192826D01*
X142421868Y-89179192D01*
X142450500Y-88998422D01*
X142450500Y-88801577D01*
X142419709Y-88607173D01*
X142370348Y-88455257D01*
X142358884Y-88419975D01*
X142358882Y-88419972D01*
X142358882Y-88419970D01*
X142289184Y-88283181D01*
X142269524Y-88244595D01*
X142153828Y-88085354D01*
X142014646Y-87946172D01*
X141898952Y-87862115D01*
X141855403Y-87830474D01*
X141678787Y-87740485D01*
X141627990Y-87692511D01*
X141611195Y-87624690D01*
X141633732Y-87558555D01*
X141678787Y-87519515D01*
X141855403Y-87429525D01*
X141855402Y-87429525D01*
X141855405Y-87429524D01*
X142014646Y-87313828D01*
X142153828Y-87174646D01*
X142269524Y-87015405D01*
X142358884Y-86840025D01*
X142419709Y-86652826D01*
X142440128Y-86523905D01*
X142450500Y-86458422D01*
X142450500Y-86261577D01*
X142419709Y-86067173D01*
X142370148Y-85914642D01*
X142358884Y-85879975D01*
X142358882Y-85879972D01*
X142358882Y-85879970D01*
X142311743Y-85787455D01*
X142269524Y-85704595D01*
X142153828Y-85545354D01*
X142014646Y-85406172D01*
X142014642Y-85406169D01*
X142011003Y-85403061D01*
X141972810Y-85344554D01*
X141972312Y-85274686D01*
X142003852Y-85221092D01*
X143762140Y-83462804D01*
X143823461Y-83429321D01*
X143893153Y-83434305D01*
X143897225Y-83435908D01*
X143946113Y-83456158D01*
X144167762Y-83515548D01*
X144395266Y-83545500D01*
X144395273Y-83545500D01*
X144624727Y-83545500D01*
X144624734Y-83545500D01*
X144852238Y-83515548D01*
X145073887Y-83456158D01*
X145285888Y-83368344D01*
X145484612Y-83253611D01*
X145555876Y-83198927D01*
X145621041Y-83173733D01*
X145689487Y-83187770D01*
X145739477Y-83236583D01*
X145755142Y-83304674D01*
X145751136Y-83329395D01*
X145720867Y-83442363D01*
X145716591Y-83458323D01*
X145716590Y-83458331D01*
X145684500Y-83702065D01*
X145684500Y-83947934D01*
X145705922Y-84110642D01*
X145716591Y-84191677D01*
X145780222Y-84429152D01*
X145780225Y-84429162D01*
X145854355Y-84608127D01*
X145874306Y-84656292D01*
X145997233Y-84869208D01*
X145997235Y-84869211D01*
X145997236Y-84869212D01*
X146146897Y-85064254D01*
X146146903Y-85064261D01*
X146320738Y-85238096D01*
X146320744Y-85238101D01*
X146515792Y-85387767D01*
X146728708Y-85510694D01*
X146955847Y-85604778D01*
X147193323Y-85668409D01*
X147437073Y-85700500D01*
X147437080Y-85700500D01*
X147682920Y-85700500D01*
X147682927Y-85700500D01*
X147926677Y-85668409D01*
X148164153Y-85604778D01*
X148391292Y-85510694D01*
X148604208Y-85387767D01*
X148799256Y-85238101D01*
X148973101Y-85064256D01*
X149122767Y-84869208D01*
X149245694Y-84656292D01*
X149339778Y-84429153D01*
X149403409Y-84191677D01*
X149435500Y-83947927D01*
X149435500Y-83702073D01*
X149403409Y-83458323D01*
X149339778Y-83220847D01*
X149245694Y-82993708D01*
X149143427Y-82816577D01*
X151209500Y-82816577D01*
X151209500Y-83013422D01*
X151240290Y-83207826D01*
X151301117Y-83395029D01*
X151382723Y-83555189D01*
X151390476Y-83570405D01*
X151506172Y-83729646D01*
X151645354Y-83868828D01*
X151804595Y-83984524D01*
X151927992Y-84047397D01*
X151981213Y-84074515D01*
X152032009Y-84122489D01*
X152048804Y-84190310D01*
X152026267Y-84256445D01*
X151981213Y-84295485D01*
X151804594Y-84385476D01*
X151723225Y-84444595D01*
X151645354Y-84501172D01*
X151645352Y-84501174D01*
X151645351Y-84501174D01*
X151506174Y-84640351D01*
X151506174Y-84640352D01*
X151506172Y-84640354D01*
X151494591Y-84656294D01*
X151390476Y-84799594D01*
X151301117Y-84974970D01*
X151240290Y-85162173D01*
X151209500Y-85356577D01*
X151209500Y-85553422D01*
X151240290Y-85747826D01*
X151301117Y-85935029D01*
X151362883Y-86056251D01*
X151390476Y-86110405D01*
X151506172Y-86269646D01*
X151645354Y-86408828D01*
X151804595Y-86524524D01*
X151886974Y-86566498D01*
X151979970Y-86613882D01*
X151979972Y-86613882D01*
X151979975Y-86613884D01*
X152080317Y-86646487D01*
X152167173Y-86674709D01*
X152361578Y-86705500D01*
X152361583Y-86705500D01*
X152558422Y-86705500D01*
X152752826Y-86674709D01*
X152766749Y-86670185D01*
X152940025Y-86613884D01*
X153115405Y-86524524D01*
X153274646Y-86408828D01*
X153413828Y-86269646D01*
X153529524Y-86110405D01*
X153618884Y-85935025D01*
X153679709Y-85747826D01*
X153687205Y-85700499D01*
X153710500Y-85553422D01*
X153710500Y-85356577D01*
X153679709Y-85162173D01*
X153639254Y-85037667D01*
X153618884Y-84974975D01*
X153618882Y-84974972D01*
X153618882Y-84974970D01*
X153547420Y-84834719D01*
X153529524Y-84799595D01*
X153413828Y-84640354D01*
X153274646Y-84501172D01*
X153175520Y-84429152D01*
X153115403Y-84385474D01*
X152938787Y-84295485D01*
X152887990Y-84247511D01*
X152871195Y-84179690D01*
X152893732Y-84113555D01*
X152938787Y-84074515D01*
X153115403Y-83984525D01*
X153115402Y-83984525D01*
X153115405Y-83984524D01*
X153274646Y-83868828D01*
X153413828Y-83729646D01*
X153529524Y-83570405D01*
X153618884Y-83395025D01*
X153679709Y-83207826D01*
X153685109Y-83173733D01*
X153710500Y-83013422D01*
X153710500Y-82816577D01*
X153679709Y-82622173D01*
X153634589Y-82483309D01*
X153618884Y-82434975D01*
X153618882Y-82434972D01*
X153618882Y-82434970D01*
X153554899Y-82309397D01*
X153529524Y-82259595D01*
X153413828Y-82100354D01*
X153274646Y-81961172D01*
X153115405Y-81845476D01*
X153066387Y-81820500D01*
X152940029Y-81756117D01*
X152752826Y-81695290D01*
X152558422Y-81664500D01*
X152558417Y-81664500D01*
X152361583Y-81664500D01*
X152361578Y-81664500D01*
X152167173Y-81695290D01*
X151979970Y-81756117D01*
X151804594Y-81845476D01*
X151645351Y-81961174D01*
X151506174Y-82100351D01*
X151506174Y-82100352D01*
X151506172Y-82100354D01*
X151479381Y-82137229D01*
X151390476Y-82259594D01*
X151301117Y-82434970D01*
X151240290Y-82622173D01*
X151209500Y-82816577D01*
X149143427Y-82816577D01*
X149122767Y-82780792D01*
X149061030Y-82700335D01*
X148973102Y-82585745D01*
X148973096Y-82585738D01*
X148799261Y-82411903D01*
X148799254Y-82411897D01*
X148604212Y-82262236D01*
X148604211Y-82262235D01*
X148604208Y-82262233D01*
X148409458Y-82149794D01*
X148391294Y-82139307D01*
X148391285Y-82139303D01*
X148164162Y-82045225D01*
X148164155Y-82045223D01*
X148164153Y-82045222D01*
X147926677Y-81981591D01*
X147885939Y-81976227D01*
X147682934Y-81949500D01*
X147682927Y-81949500D01*
X147437073Y-81949500D01*
X147437065Y-81949500D01*
X147211598Y-81979185D01*
X147193323Y-81981591D01*
X147070392Y-82014530D01*
X146955847Y-82045222D01*
X146955837Y-82045225D01*
X146728714Y-82139303D01*
X146728705Y-82139307D01*
X146515787Y-82262236D01*
X146404365Y-82347733D01*
X146339196Y-82372927D01*
X146270751Y-82358888D01*
X146220761Y-82310074D01*
X146205098Y-82241983D01*
X146209101Y-82217278D01*
X146230548Y-82137238D01*
X146260500Y-81909734D01*
X146260500Y-81680266D01*
X146230548Y-81452762D01*
X146171158Y-81231113D01*
X146121190Y-81110480D01*
X146083349Y-81019123D01*
X146083346Y-81019117D01*
X146083344Y-81019112D01*
X145968611Y-80820388D01*
X145968608Y-80820385D01*
X145968607Y-80820382D01*
X145828918Y-80638338D01*
X145828911Y-80638330D01*
X145666670Y-80476089D01*
X145666661Y-80476081D01*
X145484617Y-80336392D01*
X145285890Y-80221657D01*
X145285876Y-80221650D01*
X145073887Y-80133842D01*
X144852238Y-80074452D01*
X144814215Y-80069446D01*
X144624741Y-80044500D01*
X144624734Y-80044500D01*
X144395266Y-80044500D01*
X144395258Y-80044500D01*
X144178715Y-80073009D01*
X144167762Y-80074452D01*
X144074281Y-80099500D01*
X143946112Y-80133842D01*
X143734123Y-80221650D01*
X143734109Y-80221657D01*
X143535382Y-80336392D01*
X143353338Y-80476081D01*
X143191081Y-80638338D01*
X143051392Y-80820382D01*
X142936657Y-81019109D01*
X142936650Y-81019123D01*
X142848842Y-81231112D01*
X142814554Y-81359076D01*
X142801016Y-81409606D01*
X142789453Y-81452759D01*
X142789451Y-81452770D01*
X142759500Y-81680258D01*
X142759500Y-81909741D01*
X142779404Y-82060919D01*
X142789452Y-82137238D01*
X142848842Y-82358887D01*
X142848843Y-82358889D01*
X142848845Y-82358896D01*
X142869072Y-82407727D01*
X142876541Y-82477196D01*
X142845266Y-82539676D01*
X142842192Y-82542861D01*
X140971873Y-84413181D01*
X140910550Y-84446666D01*
X140884192Y-84449500D01*
X139796268Y-84449500D01*
X139729229Y-84429815D01*
X139695950Y-84398385D01*
X139671019Y-84364071D01*
X139613828Y-84285354D01*
X139474646Y-84146172D01*
X139361613Y-84064048D01*
X139318949Y-84008718D01*
X139310500Y-83963731D01*
X139310500Y-83775928D01*
X139285502Y-83650261D01*
X139285501Y-83650260D01*
X139285501Y-83650256D01*
X139247766Y-83559156D01*
X139242110Y-83545500D01*
X139236468Y-83531878D01*
X139236462Y-83531868D01*
X139165278Y-83425332D01*
X139165272Y-83425325D01*
X136601819Y-80861872D01*
X136568334Y-80800549D01*
X136565500Y-80774191D01*
X136565500Y-80513386D01*
X136561966Y-80474497D01*
X136559086Y-80442804D01*
X136508478Y-80280394D01*
X136420472Y-80134815D01*
X136420470Y-80134813D01*
X136420469Y-80134811D01*
X136300188Y-80014530D01*
X136154606Y-79926522D01*
X135992196Y-79875914D01*
X135992194Y-79875913D01*
X135992192Y-79875913D01*
X135942778Y-79871423D01*
X135921616Y-79869500D01*
X135408384Y-79869500D01*
X135389145Y-79871248D01*
X135337807Y-79875913D01*
X135175393Y-79926522D01*
X135029811Y-80014530D01*
X134909530Y-80134811D01*
X134821522Y-80280393D01*
X134770913Y-80442807D01*
X134764500Y-80513386D01*
X134764500Y-81176613D01*
X134770913Y-81247192D01*
X134770913Y-81247194D01*
X134770914Y-81247196D01*
X134821522Y-81409606D01*
X134877492Y-81502192D01*
X134909530Y-81555188D01*
X135029811Y-81675469D01*
X135029813Y-81675470D01*
X135029815Y-81675472D01*
X135175394Y-81763478D01*
X135337804Y-81814086D01*
X135408384Y-81820500D01*
X135669192Y-81820500D01*
X135736231Y-81840185D01*
X135756873Y-81856819D01*
X137859036Y-83958982D01*
X137892521Y-84020305D01*
X137887537Y-84089997D01*
X137848416Y-84142255D01*
X137849059Y-84143008D01*
X137845713Y-84145865D01*
X137845665Y-84145930D01*
X137845466Y-84146076D01*
X137845351Y-84146174D01*
X137706174Y-84285351D01*
X137706174Y-84285352D01*
X137706172Y-84285354D01*
X137698353Y-84296116D01*
X137590476Y-84444594D01*
X137501117Y-84619970D01*
X137440290Y-84807173D01*
X137409500Y-85001577D01*
X137409500Y-85170191D01*
X137389815Y-85237230D01*
X137337011Y-85282985D01*
X137267853Y-85292929D01*
X137204297Y-85263904D01*
X137197819Y-85257872D01*
X134279673Y-82339726D01*
X134234282Y-82309397D01*
X134173127Y-82268535D01*
X134054744Y-82219499D01*
X134054738Y-82219497D01*
X133929071Y-82194500D01*
X133929069Y-82194500D01*
X131701489Y-82194500D01*
X131634450Y-82174815D01*
X131600762Y-82140191D01*
X131600094Y-82140715D01*
X131595468Y-82134810D01*
X131475188Y-82014530D01*
X131464432Y-82008028D01*
X131329606Y-81926522D01*
X131167196Y-81875914D01*
X131167194Y-81875913D01*
X131167192Y-81875913D01*
X131117778Y-81871423D01*
X131096616Y-81869500D01*
X131096613Y-81869500D01*
X130835808Y-81869500D01*
X130768769Y-81849815D01*
X130748127Y-81833181D01*
X129364924Y-80449978D01*
X129349502Y-80431187D01*
X129321787Y-80389708D01*
X129210292Y-80278213D01*
X129210288Y-80278210D01*
X129079185Y-80190609D01*
X129079172Y-80190602D01*
X128933501Y-80130264D01*
X128933489Y-80130261D01*
X128778845Y-80099500D01*
X128778842Y-80099500D01*
X128621158Y-80099500D01*
X128621155Y-80099500D01*
X128466510Y-80130261D01*
X128466498Y-80130264D01*
X128320827Y-80190602D01*
X128320814Y-80190609D01*
X128189711Y-80278210D01*
X128189707Y-80278213D01*
X128078213Y-80389707D01*
X127992501Y-80517983D01*
X127938888Y-80562787D01*
X127869563Y-80571494D01*
X127806536Y-80541339D01*
X127801718Y-80536772D01*
X126259674Y-78994727D01*
X126259673Y-78994726D01*
X126259669Y-78994723D01*
X126153127Y-78923535D01*
X126034744Y-78874499D01*
X126034738Y-78874497D01*
X125909071Y-78849500D01*
X125909069Y-78849500D01*
X120835931Y-78849500D01*
X120835929Y-78849500D01*
X120710261Y-78874497D01*
X120710255Y-78874499D01*
X120591874Y-78923534D01*
X120485326Y-78994726D01*
X119055815Y-80424237D01*
X118994492Y-80457722D01*
X118992326Y-80458173D01*
X118910261Y-80474497D01*
X118910257Y-80474498D01*
X118791874Y-80523534D01*
X118685326Y-80594726D01*
X117644727Y-81635325D01*
X117644721Y-81635332D01*
X117585787Y-81723534D01*
X117585788Y-81723535D01*
X117573534Y-81741874D01*
X117524499Y-81860255D01*
X117524497Y-81860261D01*
X117499500Y-81985928D01*
X117499500Y-82591772D01*
X117479815Y-82658811D01*
X117427011Y-82704566D01*
X117399692Y-82713389D01*
X117266508Y-82739881D01*
X117266498Y-82739884D01*
X117120827Y-82800222D01*
X117120820Y-82800226D01*
X117096350Y-82816577D01*
X117063955Y-82838222D01*
X116997279Y-82859100D01*
X116995065Y-82859120D01*
X116926309Y-82859120D01*
X116800641Y-82884117D01*
X116800635Y-82884119D01*
X116682250Y-82933155D01*
X116575711Y-83004342D01*
X116575704Y-83004348D01*
X115744726Y-83835326D01*
X115678419Y-83934564D01*
X115678418Y-83934564D01*
X115673540Y-83941864D01*
X115673535Y-83941873D01*
X115624499Y-84060255D01*
X115624497Y-84060261D01*
X115599500Y-84185928D01*
X115599500Y-88214071D01*
X115615698Y-88295500D01*
X115615698Y-88295501D01*
X115624496Y-88339737D01*
X115624498Y-88339742D01*
X115672347Y-88455258D01*
X115673535Y-88458127D01*
X115706117Y-88506890D01*
X115744726Y-88564673D01*
X115744727Y-88564674D01*
X118194724Y-91014669D01*
X118256668Y-91076613D01*
X118285332Y-91105277D01*
X118391866Y-91176461D01*
X118391875Y-91176466D01*
X118418692Y-91187574D01*
X118510256Y-91225501D01*
X118510260Y-91225501D01*
X118510261Y-91225502D01*
X118635928Y-91250500D01*
X118635931Y-91250500D01*
X119879192Y-91250500D01*
X119946231Y-91270185D01*
X119966873Y-91286819D01*
X120257239Y-91577185D01*
X120290724Y-91638508D01*
X120285740Y-91708200D01*
X120243868Y-91764133D01*
X120208563Y-91782572D01*
X120041303Y-91837997D01*
X120041294Y-91838001D01*
X119896959Y-91927029D01*
X119896955Y-91927032D01*
X119777032Y-92046955D01*
X119777029Y-92046959D01*
X119688432Y-92190597D01*
X119636484Y-92237322D01*
X119582894Y-92249500D01*
X118624499Y-92249500D01*
X118557460Y-92229815D01*
X118511705Y-92177011D01*
X118500499Y-92125500D01*
X118500499Y-92099998D01*
X118500498Y-92099981D01*
X118489999Y-91997203D01*
X118489998Y-91997200D01*
X118474523Y-91950500D01*
X118434814Y-91830666D01*
X118342712Y-91681344D01*
X118218656Y-91557288D01*
X118112033Y-91491523D01*
X118069336Y-91465187D01*
X118069331Y-91465185D01*
X118039153Y-91455185D01*
X117902797Y-91410001D01*
X117902795Y-91410000D01*
X117800010Y-91399500D01*
X115799998Y-91399500D01*
X115799981Y-91399501D01*
X115697203Y-91410000D01*
X115697200Y-91410001D01*
X115530668Y-91465185D01*
X115530663Y-91465187D01*
X115381342Y-91557289D01*
X115257289Y-91681342D01*
X115165187Y-91830663D01*
X115165185Y-91830668D01*
X115137776Y-91913385D01*
X115110001Y-91997203D01*
X115110001Y-91997204D01*
X115110000Y-91997204D01*
X115099500Y-92099983D01*
X115099500Y-93700001D01*
X115099501Y-93700018D01*
X115110689Y-93809533D01*
X115108543Y-93809752D01*
X115104082Y-93869237D01*
X115062016Y-93925024D01*
X114996468Y-93949214D01*
X114988051Y-93949500D01*
X114835929Y-93949500D01*
X114710261Y-93974497D01*
X114710255Y-93974499D01*
X114610682Y-94015744D01*
X114610681Y-94015744D01*
X114591876Y-94023533D01*
X114485326Y-94094726D01*
X114485325Y-94094727D01*
X114237181Y-94342872D01*
X114175858Y-94376357D01*
X114106166Y-94371373D01*
X114050233Y-94329501D01*
X114025816Y-94264037D01*
X114025500Y-94255191D01*
X114025500Y-90027570D01*
X114000502Y-89901903D01*
X114000501Y-89901902D01*
X114000501Y-89901898D01*
X113951465Y-89783515D01*
X113946386Y-89775914D01*
X113942119Y-89769527D01*
X113880274Y-89676969D01*
X113811819Y-89608514D01*
X113778334Y-89547191D01*
X113775500Y-89520833D01*
X113775500Y-88122820D01*
X113795185Y-88055781D01*
X113847989Y-88010026D01*
X113875309Y-88001203D01*
X113920685Y-87992176D01*
X114033497Y-87969737D01*
X114179179Y-87909394D01*
X114310289Y-87821789D01*
X114421789Y-87710289D01*
X114509394Y-87579179D01*
X114569737Y-87433497D01*
X114600500Y-87278842D01*
X114600500Y-87121158D01*
X114600500Y-87121155D01*
X114600499Y-87121153D01*
X114588696Y-87061818D01*
X114569737Y-86966503D01*
X114517350Y-86840029D01*
X114509397Y-86820828D01*
X114509396Y-86820827D01*
X114509394Y-86820821D01*
X114471396Y-86763953D01*
X114450520Y-86697276D01*
X114450500Y-86695064D01*
X114450500Y-79620807D01*
X114470185Y-79553768D01*
X114486814Y-79533131D01*
X116440346Y-77579598D01*
X116501667Y-77546115D01*
X116503770Y-77545677D01*
X116508497Y-77544737D01*
X116654179Y-77484394D01*
X116785289Y-77396789D01*
X116896789Y-77285289D01*
X116984394Y-77154179D01*
X117044737Y-77008497D01*
X117075500Y-76853842D01*
X117075500Y-76696158D01*
X117075500Y-76696155D01*
X117075499Y-76696153D01*
X117044738Y-76541510D01*
X117044738Y-76541508D01*
X117044737Y-76541503D01*
X117036170Y-76520821D01*
X116984397Y-76395827D01*
X116984390Y-76395814D01*
X116896789Y-76264711D01*
X116896786Y-76264707D01*
X116785292Y-76153213D01*
X116785288Y-76153210D01*
X116654185Y-76065609D01*
X116654172Y-76065602D01*
X116508501Y-76005264D01*
X116508489Y-76005261D01*
X116353845Y-75974500D01*
X116353842Y-75974500D01*
X116196158Y-75974500D01*
X116196155Y-75974500D01*
X116041510Y-76005261D01*
X116041498Y-76005264D01*
X115895827Y-76065602D01*
X115895814Y-76065609D01*
X115764711Y-76153210D01*
X115764707Y-76153213D01*
X115653213Y-76264707D01*
X115653210Y-76264711D01*
X115565609Y-76395814D01*
X115565602Y-76395827D01*
X115505264Y-76541498D01*
X115505261Y-76541508D01*
X115479504Y-76670996D01*
X115447119Y-76732907D01*
X115445568Y-76734485D01*
X113987181Y-78192873D01*
X113925858Y-78226358D01*
X113856166Y-78221374D01*
X113800233Y-78179502D01*
X113775816Y-78114038D01*
X113775500Y-78105192D01*
X113775500Y-77510928D01*
X113750501Y-77385256D01*
X113706562Y-77279179D01*
X113701466Y-77266875D01*
X113701461Y-77266866D01*
X113630277Y-77160332D01*
X113603434Y-77133489D01*
X113539669Y-77069724D01*
X113267015Y-76797070D01*
X113233530Y-76735747D01*
X113233095Y-76733660D01*
X113219737Y-76666503D01*
X113167959Y-76541498D01*
X113159397Y-76520827D01*
X113159390Y-76520814D01*
X113071789Y-76389711D01*
X113071786Y-76389707D01*
X112960292Y-76278213D01*
X112960288Y-76278210D01*
X112829185Y-76190609D01*
X112829172Y-76190602D01*
X112683501Y-76130264D01*
X112683489Y-76130261D01*
X112528845Y-76099500D01*
X112528842Y-76099500D01*
X112371158Y-76099500D01*
X112371155Y-76099500D01*
X112216510Y-76130261D01*
X112216498Y-76130264D01*
X112070827Y-76190602D01*
X112070814Y-76190609D01*
X111939711Y-76278210D01*
X111939707Y-76278213D01*
X111828213Y-76389707D01*
X111828210Y-76389711D01*
X111740609Y-76520814D01*
X111740602Y-76520827D01*
X111680264Y-76666498D01*
X111680261Y-76666510D01*
X111649500Y-76821153D01*
X111649500Y-76978846D01*
X111680261Y-77133489D01*
X111680264Y-77133501D01*
X111740602Y-77279172D01*
X111740609Y-77279185D01*
X111828210Y-77410288D01*
X111828213Y-77410292D01*
X111939707Y-77521786D01*
X111939711Y-77521789D01*
X112070814Y-77609390D01*
X112070827Y-77609397D01*
X112158230Y-77645599D01*
X112216503Y-77669737D01*
X112283581Y-77683079D01*
X112345490Y-77715463D01*
X112347070Y-77717015D01*
X112438181Y-77808126D01*
X112471666Y-77869449D01*
X112474500Y-77895807D01*
X112474500Y-86430192D01*
X112454815Y-86497231D01*
X112402011Y-86542986D01*
X112332853Y-86552930D01*
X112269297Y-86523905D01*
X112262819Y-86517873D01*
X111911818Y-86166872D01*
X111878333Y-86105549D01*
X111875499Y-86079191D01*
X111875499Y-85801662D01*
X111875498Y-85801644D01*
X111865349Y-85702292D01*
X111865348Y-85702289D01*
X111833035Y-85604774D01*
X111812003Y-85541303D01*
X111811999Y-85541297D01*
X111811998Y-85541294D01*
X111722970Y-85396959D01*
X111722967Y-85396955D01*
X111603044Y-85277032D01*
X111603040Y-85277029D01*
X111458705Y-85188001D01*
X111458699Y-85187998D01*
X111458697Y-85187997D01*
X111380765Y-85162173D01*
X111297709Y-85134651D01*
X111198346Y-85124500D01*
X110601662Y-85124500D01*
X110601644Y-85124501D01*
X110502292Y-85134650D01*
X110502289Y-85134651D01*
X110341305Y-85187996D01*
X110341300Y-85187998D01*
X110215565Y-85265553D01*
X110148172Y-85283993D01*
X110081509Y-85263070D01*
X110062783Y-85247691D01*
X110057547Y-85242455D01*
X110051724Y-85238096D01*
X109942331Y-85156204D01*
X109942329Y-85156203D01*
X109942328Y-85156202D01*
X109807482Y-85105908D01*
X109807483Y-85105908D01*
X109747883Y-85099501D01*
X109747881Y-85099500D01*
X109747873Y-85099500D01*
X109747865Y-85099500D01*
X108786555Y-85099500D01*
X108764730Y-85093091D01*
X108743768Y-85091678D01*
X108733198Y-85083832D01*
X108719516Y-85079815D01*
X108704610Y-85062612D01*
X108687665Y-85050035D01*
X108682994Y-85037667D01*
X108673761Y-85027011D01*
X108670557Y-85004731D01*
X108662982Y-84984670D01*
X108665014Y-84966184D01*
X108663817Y-84957853D01*
X108665293Y-84949586D01*
X108667659Y-84938512D01*
X108669737Y-84933497D01*
X108683256Y-84865528D01*
X108683434Y-84864697D01*
X108699660Y-84834719D01*
X108715463Y-84804510D01*
X108716688Y-84803262D01*
X108716694Y-84803252D01*
X108716704Y-84803246D01*
X108717016Y-84802929D01*
X108805273Y-84714673D01*
X108805274Y-84714672D01*
X108805274Y-84714671D01*
X108805276Y-84714670D01*
X108876465Y-84608127D01*
X108925501Y-84489744D01*
X108928490Y-84474719D01*
X108930125Y-84466503D01*
X108950500Y-84364071D01*
X108950500Y-82235928D01*
X108925502Y-82110261D01*
X108925501Y-82110260D01*
X108925501Y-82110256D01*
X108876465Y-81991873D01*
X108855951Y-81961172D01*
X108805276Y-81885330D01*
X108805274Y-81885328D01*
X108805272Y-81885325D01*
X108014673Y-81094726D01*
X108014669Y-81094723D01*
X107908127Y-81023535D01*
X107789744Y-80974499D01*
X107789738Y-80974497D01*
X107664064Y-80949498D01*
X107663601Y-80949453D01*
X107663308Y-80949348D01*
X107658094Y-80948311D01*
X107658247Y-80947537D01*
X107606869Y-80929153D01*
X107549185Y-80890609D01*
X107549172Y-80890602D01*
X107403501Y-80830264D01*
X107403489Y-80830261D01*
X107248845Y-80799500D01*
X107248842Y-80799500D01*
X107091158Y-80799500D01*
X107091155Y-80799500D01*
X106936510Y-80830261D01*
X106936498Y-80830264D01*
X106790827Y-80890602D01*
X106790814Y-80890609D01*
X106659711Y-80978210D01*
X106659707Y-80978213D01*
X106548213Y-81089707D01*
X106548210Y-81089711D01*
X106460609Y-81220814D01*
X106460602Y-81220827D01*
X106400264Y-81366498D01*
X106400261Y-81366510D01*
X106369500Y-81521153D01*
X106369500Y-81678846D01*
X106400261Y-81833489D01*
X106400264Y-81833501D01*
X106460602Y-81979172D01*
X106460609Y-81979185D01*
X106548210Y-82110288D01*
X106548213Y-82110292D01*
X106659707Y-82221786D01*
X106659711Y-82221789D01*
X106790814Y-82309390D01*
X106790827Y-82309397D01*
X106910311Y-82358888D01*
X106936503Y-82369737D01*
X107091153Y-82400499D01*
X107091156Y-82400500D01*
X107091158Y-82400500D01*
X107248844Y-82400500D01*
X107377104Y-82374987D01*
X107446696Y-82381214D01*
X107488977Y-82408923D01*
X107613181Y-82533127D01*
X107646666Y-82594450D01*
X107649500Y-82620808D01*
X107649500Y-83854450D01*
X107629815Y-83921489D01*
X107577011Y-83967244D01*
X107572954Y-83969010D01*
X107520829Y-83990601D01*
X107520814Y-83990609D01*
X107389711Y-84078210D01*
X107389707Y-84078213D01*
X107278213Y-84189707D01*
X107278210Y-84189711D01*
X107190609Y-84320814D01*
X107190602Y-84320827D01*
X107130264Y-84466498D01*
X107130261Y-84466510D01*
X107099500Y-84621153D01*
X107099500Y-84778846D01*
X107130261Y-84933489D01*
X107130264Y-84933501D01*
X107190602Y-85079172D01*
X107190609Y-85079185D01*
X107271115Y-85199670D01*
X107291993Y-85266348D01*
X107273508Y-85333728D01*
X107267284Y-85342867D01*
X107256202Y-85357671D01*
X107205908Y-85492517D01*
X107199501Y-85552116D01*
X107199500Y-85552135D01*
X107199500Y-87247870D01*
X107199501Y-87247876D01*
X107205908Y-87307483D01*
X107256202Y-87442328D01*
X107256206Y-87442335D01*
X107342452Y-87557544D01*
X107342455Y-87557547D01*
X107457664Y-87643793D01*
X107457671Y-87643797D01*
X107592517Y-87694091D01*
X107592516Y-87694091D01*
X107599444Y-87694835D01*
X107652127Y-87700500D01*
X109747872Y-87700499D01*
X109807483Y-87694091D01*
X109942331Y-87643796D01*
X110057546Y-87557546D01*
X110143796Y-87442331D01*
X110194091Y-87307483D01*
X110200500Y-87247873D01*
X110200499Y-87087064D01*
X110220183Y-87020026D01*
X110272987Y-86974271D01*
X110342145Y-86964327D01*
X110363500Y-86969358D01*
X110502292Y-87015349D01*
X110601655Y-87025500D01*
X110879191Y-87025499D01*
X110946230Y-87045183D01*
X110966872Y-87061818D01*
X111938181Y-88033127D01*
X111971666Y-88094450D01*
X111974500Y-88120808D01*
X111974500Y-89733480D01*
X111954815Y-89800519D01*
X111938181Y-89821161D01*
X111887681Y-89871661D01*
X111826358Y-89905146D01*
X111756666Y-89900162D01*
X111712319Y-89871661D01*
X111610188Y-89769530D01*
X111610138Y-89769500D01*
X111464606Y-89681522D01*
X111302196Y-89630914D01*
X111302194Y-89630913D01*
X111302192Y-89630913D01*
X111252778Y-89626423D01*
X111231616Y-89624500D01*
X111231613Y-89624500D01*
X111211434Y-89624500D01*
X111187243Y-89622117D01*
X111152052Y-89615117D01*
X111073542Y-89599500D01*
X111073540Y-89599500D01*
X110876460Y-89599500D01*
X110876458Y-89599500D01*
X110797947Y-89615117D01*
X110762756Y-89622117D01*
X110738566Y-89624500D01*
X110718384Y-89624500D01*
X110699145Y-89626248D01*
X110647807Y-89630913D01*
X110485393Y-89681522D01*
X110339811Y-89769530D01*
X110219531Y-89889810D01*
X110219528Y-89889814D01*
X110149759Y-90005224D01*
X110131324Y-90028754D01*
X109765193Y-90394885D01*
X109703870Y-90428370D01*
X109634178Y-90423386D01*
X109589830Y-90394885D01*
X109537752Y-90342807D01*
X109439669Y-90244723D01*
X109333127Y-90173535D01*
X109333122Y-90173533D01*
X109214744Y-90124499D01*
X109214738Y-90124497D01*
X109089071Y-90099500D01*
X109089069Y-90099500D01*
X103816523Y-90099500D01*
X103816521Y-90099500D01*
X103690853Y-90124497D01*
X103690847Y-90124499D01*
X103572467Y-90173533D01*
X103572458Y-90173538D01*
X103465923Y-90244723D01*
X103465919Y-90244726D01*
X102569724Y-91140920D01*
X102569720Y-91140924D01*
X102544387Y-91178841D01*
X102544387Y-91178842D01*
X102498534Y-91247466D01*
X102449499Y-91365847D01*
X102449497Y-91365853D01*
X102424500Y-91491520D01*
X102424500Y-91950500D01*
X102404815Y-92017539D01*
X102352011Y-92063294D01*
X102300500Y-92074500D01*
X101849500Y-92074500D01*
X101782461Y-92054815D01*
X101736706Y-92002011D01*
X101725500Y-91950500D01*
X101725500Y-91801456D01*
X101725499Y-91801454D01*
X101710653Y-91726819D01*
X101687051Y-91608164D01*
X101679549Y-91590054D01*
X101670754Y-91555205D01*
X101670187Y-91549651D01*
X101665349Y-91502292D01*
X101612003Y-91341303D01*
X101611999Y-91341297D01*
X101611998Y-91341294D01*
X101522970Y-91196959D01*
X101522967Y-91196955D01*
X101403043Y-91077031D01*
X101258702Y-90987999D01*
X101258693Y-90987995D01*
X101240556Y-90981985D01*
X101191882Y-90951961D01*
X100299209Y-90059289D01*
X100299206Y-90059285D01*
X100299206Y-90059286D01*
X100292139Y-90052219D01*
X100292139Y-90052218D01*
X100152782Y-89912861D01*
X100152781Y-89912860D01*
X100152780Y-89912859D01*
X99988920Y-89803371D01*
X99988911Y-89803366D01*
X99867463Y-89753061D01*
X99860165Y-89750038D01*
X99806836Y-89727949D01*
X99692851Y-89705276D01*
X99688636Y-89704437D01*
X99688634Y-89704437D01*
X99613543Y-89689500D01*
X99613541Y-89689500D01*
X96114141Y-89689500D01*
X96047102Y-89669815D01*
X96001347Y-89617011D01*
X95997969Y-89608859D01*
X95993796Y-89597669D01*
X95993793Y-89597665D01*
X95993793Y-89597664D01*
X95907547Y-89482455D01*
X95907544Y-89482452D01*
X95792335Y-89396206D01*
X95792328Y-89396202D01*
X95657482Y-89345908D01*
X95657483Y-89345908D01*
X95597883Y-89339501D01*
X95597881Y-89339500D01*
X95597873Y-89339500D01*
X95597864Y-89339500D01*
X93802129Y-89339500D01*
X93802123Y-89339501D01*
X93742516Y-89345908D01*
X93607671Y-89396202D01*
X93607664Y-89396206D01*
X93492455Y-89482452D01*
X93492452Y-89482455D01*
X93406206Y-89597664D01*
X93406202Y-89597671D01*
X93355908Y-89732517D01*
X93349501Y-89792116D01*
X93349500Y-89792135D01*
X92569217Y-89792135D01*
X92589344Y-79245779D01*
X102355176Y-79245779D01*
X102355176Y-79442868D01*
X102393623Y-79636152D01*
X102393625Y-79636160D01*
X102469043Y-79818234D01*
X102469048Y-79818244D01*
X102578536Y-79982104D01*
X102578539Y-79982108D01*
X102717891Y-80121460D01*
X102717895Y-80121463D01*
X102881755Y-80230951D01*
X102881759Y-80230953D01*
X102881762Y-80230955D01*
X103063840Y-80306375D01*
X103214746Y-80336392D01*
X103257131Y-80344823D01*
X103257134Y-80344824D01*
X103257136Y-80344824D01*
X103454218Y-80344824D01*
X103454219Y-80344823D01*
X103647512Y-80306375D01*
X103829590Y-80230955D01*
X103993457Y-80121463D01*
X104722974Y-79391944D01*
X104784295Y-79358461D01*
X104786296Y-79358043D01*
X104891835Y-79337051D01*
X105073914Y-79261632D01*
X105237782Y-79152139D01*
X105377139Y-79012782D01*
X105486632Y-78848914D01*
X105562051Y-78666835D01*
X105600500Y-78473541D01*
X105600500Y-78276459D01*
X105600500Y-78276456D01*
X105562052Y-78083170D01*
X105562051Y-78083169D01*
X105562051Y-78083165D01*
X105562049Y-78083160D01*
X105486635Y-77901092D01*
X105486628Y-77901079D01*
X105377139Y-77737218D01*
X105377136Y-77737214D01*
X105237785Y-77597863D01*
X105237781Y-77597860D01*
X105073920Y-77488371D01*
X105073907Y-77488364D01*
X104891839Y-77412950D01*
X104891829Y-77412947D01*
X104698543Y-77374500D01*
X104698541Y-77374500D01*
X104226459Y-77374500D01*
X104226458Y-77374500D01*
X104191104Y-77381532D01*
X104172386Y-77385256D01*
X104033164Y-77412949D01*
X104002864Y-77425500D01*
X103994138Y-77429114D01*
X103994135Y-77429115D01*
X103851088Y-77488366D01*
X103851079Y-77488371D01*
X103687219Y-77597859D01*
X103617540Y-77667538D01*
X103547861Y-77737218D01*
X102578539Y-78706539D01*
X102578536Y-78706543D01*
X102469048Y-78870403D01*
X102469043Y-78870413D01*
X102393625Y-79052487D01*
X102393623Y-79052495D01*
X102355176Y-79245779D01*
X92589344Y-79245779D01*
X92600388Y-73458891D01*
X92602221Y-73451149D01*
X92600514Y-73393113D01*
X92600547Y-73375449D01*
X92600583Y-73372760D01*
X92603154Y-73265407D01*
X92605153Y-73181902D01*
X93999500Y-73181902D01*
X93999500Y-73418097D01*
X94036446Y-73651368D01*
X94109433Y-73875996D01*
X94216657Y-74086433D01*
X94355483Y-74277510D01*
X94522490Y-74444517D01*
X94713567Y-74583343D01*
X94812991Y-74634002D01*
X94924003Y-74690566D01*
X94924005Y-74690566D01*
X94924008Y-74690568D01*
X95044412Y-74729689D01*
X95148631Y-74763553D01*
X95381903Y-74800500D01*
X95381908Y-74800500D01*
X95618097Y-74800500D01*
X95851368Y-74763553D01*
X96075992Y-74690568D01*
X96286433Y-74583343D01*
X96477510Y-74444517D01*
X96644517Y-74277510D01*
X96783343Y-74086433D01*
X96890568Y-73875992D01*
X96963553Y-73651368D01*
X96990394Y-73481902D01*
X149999500Y-73481902D01*
X149999500Y-73718097D01*
X150036446Y-73951368D01*
X150109433Y-74175996D01*
X150216657Y-74386433D01*
X150355483Y-74577510D01*
X150522490Y-74744517D01*
X150713567Y-74883343D01*
X150812991Y-74934002D01*
X150924003Y-74990566D01*
X150924005Y-74990566D01*
X150924008Y-74990568D01*
X151044412Y-75029689D01*
X151148631Y-75063553D01*
X151381903Y-75100500D01*
X151381908Y-75100500D01*
X151618097Y-75100500D01*
X151851368Y-75063553D01*
X152075992Y-74990568D01*
X152286433Y-74883343D01*
X152477510Y-74744517D01*
X152644517Y-74577510D01*
X152783343Y-74386433D01*
X152890568Y-74175992D01*
X152963553Y-73951368D01*
X152975491Y-73875996D01*
X153000500Y-73718097D01*
X153000500Y-73481902D01*
X152963553Y-73248631D01*
X152890566Y-73024003D01*
X152834002Y-72912991D01*
X152783343Y-72813567D01*
X152644517Y-72622490D01*
X152477510Y-72455483D01*
X152286433Y-72316657D01*
X152249911Y-72298048D01*
X152075996Y-72209433D01*
X151851368Y-72136446D01*
X151618097Y-72099500D01*
X151618092Y-72099500D01*
X151381908Y-72099500D01*
X151381903Y-72099500D01*
X151148631Y-72136446D01*
X150924003Y-72209433D01*
X150713566Y-72316657D01*
X150604550Y-72395862D01*
X150522490Y-72455483D01*
X150522488Y-72455485D01*
X150522487Y-72455485D01*
X150355485Y-72622487D01*
X150355485Y-72622488D01*
X150355483Y-72622490D01*
X150295862Y-72704550D01*
X150216657Y-72813566D01*
X150109433Y-73024003D01*
X150036446Y-73248631D01*
X149999500Y-73481902D01*
X96990394Y-73481902D01*
X96994237Y-73457638D01*
X96994237Y-73457637D01*
X97000500Y-73418096D01*
X97000500Y-73181902D01*
X96963553Y-72948631D01*
X96929689Y-72844412D01*
X96890568Y-72724008D01*
X96890566Y-72724005D01*
X96890566Y-72724003D01*
X96783342Y-72513566D01*
X96774426Y-72501294D01*
X96644517Y-72322490D01*
X96477510Y-72155483D01*
X96286433Y-72016657D01*
X96242084Y-71994060D01*
X96075996Y-71909433D01*
X95851368Y-71836446D01*
X95618097Y-71799500D01*
X95618092Y-71799500D01*
X95381908Y-71799500D01*
X95381903Y-71799500D01*
X95148631Y-71836446D01*
X94924003Y-71909433D01*
X94713566Y-72016657D01*
X94604550Y-72095862D01*
X94522490Y-72155483D01*
X94522488Y-72155485D01*
X94522487Y-72155485D01*
X94355485Y-72322487D01*
X94355485Y-72322488D01*
X94355483Y-72322490D01*
X94295862Y-72404550D01*
X94216657Y-72513566D01*
X94109433Y-72724003D01*
X94036446Y-72948631D01*
X93999500Y-73181902D01*
X92605153Y-73181902D01*
X92607528Y-73082663D01*
X92608548Y-73069488D01*
X92647115Y-72775900D01*
X92649531Y-72762921D01*
X92719137Y-72475113D01*
X92722919Y-72462471D01*
X92822778Y-72183702D01*
X92827883Y-72171538D01*
X92956858Y-71904988D01*
X92963232Y-71893430D01*
X93119862Y-71642115D01*
X93127410Y-71631331D01*
X93309913Y-71398119D01*
X93318594Y-71388169D01*
X93318777Y-71387981D01*
X93524870Y-71175737D01*
X93534563Y-71166766D01*
X93762290Y-70977502D01*
X93772868Y-70969624D01*
X94019454Y-70805684D01*
X94030822Y-70798970D01*
X94293469Y-70662214D01*
X94305477Y-70656754D01*
X94581185Y-70548744D01*
X94593711Y-70544592D01*
X94879362Y-70466549D01*
X94892256Y-70463756D01*
X95184574Y-70416576D01*
X95197717Y-70415169D01*
X95496704Y-70399206D01*
X95503315Y-70399030D01*
X95565892Y-70399030D01*
X151434108Y-70399030D01*
X151496754Y-70399030D01*
X151503243Y-70399199D01*
G37*
%TD.AperFunction*%
%TD*%
M02*
